<?xml version="1.0" encoding="UTF-8"?>
<svg width="94px" height="68px" viewBox="0 0 94 68" version="1.1" xmlns="http://www.w3.org/2000/svg" xmlns:xlink="http://www.w3.org/1999/xlink">
    <!-- Generator: Sketch 53.2 (72643) - https://sketchapp.com -->
    <title>Group 27</title>
    <desc>Created with Sketch.</desc>
    <g id="Page-1" stroke="none" stroke-width="1" fill="none" fill-rule="evenodd">
        <g id="A-4-game-instructions" transform="translate(-141.000000, -372.000000)">
            <g id="pig-face" transform="translate(141.000000, 372.000000)">
                <g id="Group-27" transform="translate(0.000000, 0.000000)">
                    <path d="M3.793981,17.898775 C4.019111,19.288565 4.385241,20.560855 4.813411,21.686035 C4.398871,20.852255 4.092901,19.952205 3.925111,19.010795 C3.858371,18.635265 3.816541,18.265375 3.793981,17.898775 M15.789321,21.381475 C15.502151,21.472655 15.176441,21.497565 14.808431,21.409205 C12.255391,20.798675 10.133341,19.315825 8.628401,17.175915 C7.741511,15.915845 8.714881,14.662825 9.897401,14.423595 C9.856041,14.074855 9.915261,13.709665 10.101851,13.359045 C10.556341,12.504585 11.780691,12.046335 12.644551,12.581665 C14.301301,13.609555 15.890371,14.746015 17.399541,15.981175 C17.694701,16.223225 17.871421,16.558805 17.942861,16.920235 C19.592561,14.066865 21.650691,11.479515 24.039231,9.237615 C19.558721,3.439225 9.972131,3.021395 3.397771,0.149225 C2.086471,-0.423705 -0.000329,0.725915 0.717361,2.359165 C2.663631,6.785625 0.771411,10.324725 0.154771,14.748835 C-0.314759,18.111685 0.279791,21.591095 2.007041,24.531885 C4.431301,28.659895 9.092761,30.953495 13.619331,30.500415 C13.912611,27.310055 14.658971,24.250355 15.789321,21.381475" id="Fill-1" fill="#E7B7C8"></path>
                    <path d="M89.659409,19.010654 C89.491619,19.952064 89.185649,20.852114 88.770639,21.685894 C89.199279,20.561184 89.565409,19.288424 89.790539,17.899104 C89.767509,18.265704 89.726149,18.635594 89.659409,19.010654 M93.429749,14.748694 C92.812639,10.325054 90.920889,6.785954 92.866689,2.359024 C93.584849,0.725774 91.498049,-0.423846 90.186279,0.149554 C83.643879,3.007624 74.116509,3.434854 69.608739,9.154284 C71.986939,11.370334 74.040369,13.927604 75.693829,16.748544 C75.782659,16.454794 75.937759,16.183604 76.184979,15.981504 C77.693679,14.745874 79.282749,13.609414 80.939499,12.581994 C81.803829,12.046194 83.028179,12.504914 83.482199,13.359374 C83.820129,13.994344 83.738819,14.674434 83.392429,15.218694 C83.648579,15.359224 83.878879,15.561794 84.054189,15.852724 C84.539699,16.658774 84.362979,17.994984 83.441779,18.440544 C81.579169,19.342004 79.716089,20.243464 77.852539,21.144454 C79.037409,24.085714 79.817139,27.231424 80.116999,30.514844 C84.596099,30.902124 89.180009,28.613694 91.577009,24.531744 C93.304729,21.590954 93.899279,18.111544 93.429749,14.748694" id="Fill-3" fill="#E7B7C8"></path>
                    <path d="M40.032156,61.356103 C37.756886,60.585303 38.565756,56.910843 40.851836,57.685403 C44.952586,59.074253 49.247916,58.999523 53.198736,57.136443 C55.364496,56.115603 57.364346,59.304083 55.174616,60.336673 C50.365576,62.603953 45.102046,63.073013 40.032156,61.356103 M63.464006,27.022133 C65.057776,27.022133 66.388346,28.141673 66.716406,29.636743 C66.973496,29.606663 67.229646,29.542743 67.479216,29.454853 C69.195186,28.849493 70.012986,31.549173 68.303596,32.151713 C67.558176,32.414443 66.805236,32.499513 66.059346,32.441233 C65.448346,33.199343 64.513516,33.685793 63.464006,33.685793 C61.623486,33.685793 60.132176,32.194013 60.132176,30.353963 C60.132176,28.513913 61.623486,27.022133 63.464006,27.022133 M41.515946,6.449763 C44.753776,6.153663 47.906536,6.073763 51.155646,6.343543 C52.724036,6.473733 54.067766,7.135023 54.067766,8.300623 C54.067766,9.265063 52.719336,10.387423 51.155646,10.257703 C48.479466,10.035393 45.744066,9.978993 43.064596,10.223863 C41.499496,10.366743 39.944266,9.987923 39.481786,8.857103 C39.104846,7.935433 39.956016,6.592173 41.515946,6.449763 M34.968846,41.697413 C34.968846,39.316393 36.072406,36.202173 37.893186,34.543543 C40.051426,32.577063 43.216876,31.335793 46.745166,31.335793 C50.272986,31.335793 53.438436,32.577063 55.597146,34.543073 C57.417456,36.201703 58.521956,39.316393 58.521956,41.697413 C58.521956,46.900783 53.249026,51.119033 46.745166,51.119033 C40.241306,51.119033 34.968846,46.900783 34.968846,41.697413 M24.161196,29.278603 C24.543776,28.560443 25.365336,28.403463 26.068456,28.695803 C26.235306,28.764893 26.404036,28.812833 26.573706,28.842443 C26.995296,27.485083 28.261006,26.498553 29.757016,26.498553 C31.597066,26.498553 33.088846,27.990803 33.088846,29.830853 C33.088846,31.670903 31.597066,33.162683 29.757016,33.162683 C28.600816,33.162683 27.582796,32.573303 26.984956,31.678423 C26.227316,31.658683 25.474846,31.489483 24.744936,31.185393 C24.037586,30.891643 23.829846,29.902763 24.161196,29.278603 M77.852586,21.144313 C79.716136,20.243323 81.578746,19.341863 83.441826,18.440403 C84.363026,17.995313 84.539746,16.658633 84.054236,15.853053 C83.878926,15.561653 83.648626,15.359083 83.392476,15.218553 C83.221866,15.486923 82.991096,15.724273 82.704866,15.901933 C81.328706,16.754983 80.022576,17.687463 78.769556,18.713473 C77.984656,19.355963 76.843496,19.414713 76.111236,18.639683 C75.658626,18.160283 75.498826,17.393243 75.693876,16.748403 C74.039946,13.927463 71.986986,11.370193 69.608786,9.154143 C63.641196,3.594983 55.647906,0.184193 46.867836,0.184193 C38.044526,0.184193 30.015516,3.629293 24.039466,9.237803 C21.650926,11.479233 19.592796,14.066583 17.943096,16.920423 C18.062006,17.524843 17.885756,18.203053 17.473096,18.639683 C16.740836,19.414713 15.599676,19.355963 14.814776,18.713473 C13.561756,17.687463 12.255156,16.754983 10.879466,15.901933 C10.333326,15.563063 9.967666,15.017863 9.897636,14.423783 C8.714646,14.663013 7.741746,15.916033 8.628636,17.176103 C10.133576,19.315543 12.255156,20.798863 14.808196,21.409393 C15.176206,21.497283 15.502386,21.472843 15.789556,21.381193 C14.659206,24.250543 13.912846,27.310243 13.619566,30.500603 C13.526036,31.515333 13.471986,32.540873 13.471986,33.579573 C13.471986,51.994173 28.453236,66.975423 46.867836,66.975423 C65.282436,66.975423 80.263686,51.994173 80.263686,33.579573 C80.263686,32.546043 80.209166,31.524733 80.117046,30.514703 C79.816716,27.231283 79.037456,24.086043 77.852586,21.144313" id="Fill-5" fill="#F7CEDB"></path>
                    <path d="M43.917035,45.743502 C43.102995,45.743502 42.443115,43.694772 42.443115,41.167112 C42.443115,38.639452 43.102995,36.590722 43.917035,36.590722 C44.730605,36.590722 45.390485,38.639452 45.390485,41.167112 C45.390485,43.694772 44.730605,45.743502 43.917035,45.743502 M49.300885,36.590722 C50.115395,36.590722 50.775275,38.639452 50.775275,41.167112 C50.775275,43.694772 50.115395,45.743502 49.300885,45.743502 C48.487315,45.743502 47.827435,43.694772 47.827435,41.167112 C47.827435,38.639452 48.487315,36.590722 49.300885,36.590722 M58.521815,41.697272 C58.521815,39.316252 57.417785,36.201562 55.597475,34.542932 C53.438765,32.576922 50.272845,31.335652 46.745495,31.335652 C43.217205,31.335652 40.051285,32.576922 37.893515,34.543402 C36.072735,36.202032 34.968705,39.316722 34.968705,41.697272 C34.968705,46.900642 40.241635,51.119362 46.745495,51.119362 C53.248885,51.119362 58.521815,46.900642 58.521815,41.697272" id="Fill-7" fill="#D293A8"></path>
                    <path d="M63.464241,33.685746 C64.513281,33.685746 65.448581,33.199296 66.059111,32.441186 C66.805001,32.499466 67.558411,32.414396 68.303831,32.151666 C70.013221,31.549126 69.194951,28.849446 67.479451,29.454806 C67.229881,29.543166 66.973731,29.606616 66.716641,29.636696 C66.388581,28.141626 65.058011,27.022086 63.464241,27.022086 C61.623721,27.022086 60.131941,28.513866 60.131941,30.353916 C60.131941,32.193966 61.623721,33.685746 63.464241,33.685746" id="Fill-9" fill="#383838"></path>
                    <path d="M43.917035,36.590675 C43.102995,36.590675 42.443115,38.639405 42.443115,41.167065 C42.443115,43.694725 43.102995,45.743455 43.917035,45.743455 C44.730605,45.743455 45.390485,43.694725 45.390485,41.167065 C45.390485,38.639405 44.730605,36.590675 43.917035,36.590675" id="Fill-11" fill="#383838"></path>
                    <path d="M49.300885,45.743502 C50.114925,45.743502 50.775275,43.694772 50.775275,41.167112 C50.775275,38.639452 50.114925,36.590722 49.300885,36.590722 C48.487315,36.590722 47.827435,38.639452 47.827435,41.167112 C47.827435,43.694772 48.487315,45.743502 49.300885,45.743502" id="Fill-13" fill="#383838"></path>
                    <path d="M55.174522,60.336485 C57.364252,59.303895 55.364402,56.115885 53.198642,57.136725 C49.248292,58.999335 44.952492,59.074065 40.851742,57.685215 C38.565662,56.911125 37.756792,60.585115 40.032062,61.355915 C45.101952,63.073295 50.365952,62.603765 55.174522,60.336485" id="Fill-15" fill="#D293A8"></path>
                    <path d="M76.111095,18.639589 C76.843825,19.414619 77.984515,19.355869 78.769415,18.713379 C80.022435,17.687839 81.329035,16.754889 82.704725,15.901839 C82.991425,15.724179 83.221725,15.486829 83.392335,15.218459 C83.738725,14.674669 83.820035,13.994109 83.482575,13.359139 C83.028085,12.504679 81.803735,12.046429 80.939405,12.581759 C79.282655,13.609179 77.693585,14.746109 76.184885,15.981269 C75.937665,16.183839 75.782565,16.454559 75.693735,16.748779 C75.498685,17.393149 75.658485,18.160189 76.111095,18.639589" id="Fill-17" fill="#D293A8"></path>
                    <path d="M12.644598,12.5819 C11.780738,12.0461 10.556388,12.50482 10.101898,13.35928 C9.915308,13.70943 9.856088,14.07509 9.897448,14.42336 C9.967948,15.01791 10.333138,15.56311 10.879278,15.90151 C12.255438,16.75503 13.561568,17.68751 14.814588,18.71352 C15.599488,19.35601 16.741118,19.41476 17.472908,18.63973 C17.885568,18.20263 18.061818,17.52489 17.942908,16.92 C17.871468,16.55857 17.694748,16.22346 17.399588,15.98141 C15.890418,14.74578 14.301348,13.60932 12.644598,12.5819" id="Fill-19" fill="#D293A8"></path>
                    <path d="M43.06469,10.223863 C45.74416,9.978993 48.47956,10.035393 51.15574,10.257703 C52.71943,10.387423 54.06786,9.265063 54.06786,8.300623 C54.06786,7.135023 52.72413,6.473733 51.15574,6.343543 C47.90663,6.073763 44.75387,6.153663 41.51604,6.449763 C39.95611,6.592173 39.10494,7.935433 39.48188,8.857103 C39.94436,9.987923 41.49959,10.366743 43.06469,10.223863" id="Fill-21" fill="#F7CEDB"></path>
                    <path d="M43.06469,10.223863 C45.74416,9.978993 48.47956,10.035393 51.15574,10.257703 C52.71943,10.387423 54.06786,9.265063 54.06786,8.300623 C54.06786,7.135023 52.72413,6.473733 51.15574,6.343543 C47.90663,6.073763 44.75387,6.153663 41.51604,6.449763 C39.95611,6.592173 39.10494,7.935433 39.48188,8.857103 C39.94436,9.987923 41.49959,10.366743 43.06469,10.223863" id="Fill-23" fill="#FFFFFF"></path>
                    <path d="M24.744795,31.18544 C25.475175,31.48906 26.227175,31.65873 26.985285,31.67847 C27.582655,32.57335 28.600675,33.16273 29.756875,33.16273 C31.596925,33.16273 33.088705,31.67095 33.088705,29.8309 C33.088705,27.99085 31.596925,26.4986 29.756875,26.4986 C28.260865,26.4986 26.995155,27.48466 26.574035,28.84249 C26.403895,28.81288 26.235165,28.76494 26.068315,28.69585 C25.365195,28.40351 24.543635,28.56049 24.161525,29.27865 C23.830175,29.90281 24.037445,30.89169 24.744795,31.18544" id="Fill-25" fill="#383838"></path>
                </g>
            </g>
        </g>
    </g>
</svg>