<?xml version="1.0" encoding="UTF-8"?>
<svg width="133px" height="122px" viewBox="0 0 133 122" version="1.1" xmlns="http://www.w3.org/2000/svg" xmlns:xlink="http://www.w3.org/1999/xlink">
    <!-- Generator: Sketch 53.2 (72643) - https://sketchapp.com -->
    <title>Group 28</title>
    <desc>Created with Sketch.</desc>
    <defs>
        <polygon id="path-1" points="9.74358974e-05 0.4686088 132.573718 0.4686088 132.573718 120.516 9.74358974e-05 120.516"></polygon>
    </defs>
    <g id="Page-1" stroke="none" stroke-width="1" fill="none" fill-rule="evenodd">
        <g id="B-1a" transform="translate(-121.000000, -232.000000)">
            <g id="tire" transform="translate(121.000000, 232.000000)">
                <g id="Group-28">
                    <path d="M73.8413077,76.6558232 C74.9462308,75.8596432 75.1942051,74.3093912 74.3932821,73.2121632 C73.5787179,72.1144512 72.0324103,71.8676112 70.913359,72.6637912 C69.8089231,73.4730392 69.5604615,75.0102232 70.3604103,76.1210032 C71.1759487,77.2182312 72.7222564,77.4650712 73.8413077,76.6558232" id="Fill-1" fill="#414242"></path>
                    <path d="M72.5015641,66.3386856 C72.5015641,62.9366496 69.7261026,60.1647816 66.2871026,60.1647816 C62.8622308,60.1647816 60.072641,62.9366496 60.072641,66.3386856 C60.072641,69.7552416 62.8622308,72.5125896 66.2871026,72.5125896 C69.7261026,72.5125896 72.5015641,69.7552416 72.5015641,66.3386856" id="Fill-3" fill="#414242"></path>
                    <path d="M78.9919154,82.7473988 C80.8290692,83.6660308 82.5960692,84.6954988 84.3499154,85.7239988 C85.9244795,86.6571508 87.4854026,87.6043388 89.0599667,88.5374908 C84.9998128,92.6534268 79.8902744,95.5893708 74.2828385,97.0302388 C74.2419154,95.1915228 74.2141462,93.3528068 74.2000179,91.5286108 C74.1868641,89.4837108 74.1868641,87.4397788 74.3106077,85.4093988 C74.365659,84.6683948 74.6282487,81.8558708 75.0842487,81.3481548 C75.7473,81.2247348 78.3298385,82.4182788 78.9919154,82.7473988 M71.8108897,111.284523 C84.4195821,109.774927 95.4254538,103.147999 102.703915,93.5589908 C66.3700692,72.7184348 71.8108897,70.0840228 71.8108897,111.284523" id="Fill-5" fill="#414242"></path>
                    <g id="Group-9" transform="translate(0.000000, 0.015488)">
                        <mask id="mask-2" fill="white">
                            <use xlink:href="#path-1"></use>
                        </mask>
                        <g id="Clip-8"></g>
                        <path d="M66.2872,115.713849 C38.8331744,115.713849 16.5719949,93.5984368 16.5719949,66.3231008 C16.5719949,39.0487328 38.8331744,16.9318688 66.2872,16.9318688 C93.7417128,16.9318688 116.002405,39.0487328 116.002405,66.3231008 C116.002405,93.5984368 93.7417128,115.713849 66.2872,115.713849 M114.967149,111.022437 C125.890687,99.2776928 132.573815,83.5825408 132.573815,66.3231008 C132.573815,29.9524368 102.89679,0.4686088 66.2872,0.4686088 C29.6776103,0.4686088 9.74358974e-05,29.9524368 9.74358974e-05,66.3231008 C9.74358974e-05,83.5825408 6.6842,99.2776928 17.6213795,111.022437 C15.4534308,111.502565 13.8101744,113.423561 13.8101744,115.713849 C13.8101744,118.361813 15.9917641,120.516097 18.6434821,120.516097 L28.6277385,120.516097 L103.946662,120.516097 L113.930918,120.516097 C116.596277,120.516097 118.764713,118.361813 118.764713,115.713849 C118.764713,113.423561 117.13461,111.502565 114.967149,111.022437" id="Fill-7" fill="#414242" mask="url(#mask-2)"></path>
                    </g>
                    <path d="M58.4155,91.5690732 C58.401859,93.3937532 58.3604487,95.2048812 58.3190385,97.0300452 C52.7120897,95.5896612 47.5884231,92.6667852 43.5287564,88.5648852 C45.1169615,87.6176972 46.7046795,86.6714772 48.2928846,85.7383252 C50.060859,84.7088572 51.8419872,83.6803572 53.6786538,82.7747932 C54.3417051,82.4456732 56.9242436,81.2792332 57.6009359,81.4031372 C58.0423205,81.9239212 58.2912692,84.7504812 58.3326795,85.4774492 C58.4569103,87.5078292 58.4432692,89.5386932 58.4155,91.5690732 M29.8706795,93.5587972 C37.1486538,103.148289 48.1686538,109.774733 60.7632179,111.284329 C60.7632179,69.6037012 65.7762949,72.9650812 29.8706795,93.5587972" id="Fill-10" fill="#414242"></path>
                    <path d="M97.0413308,74.817204 C95.4258436,73.925676 93.8098692,73.034148 92.1943821,72.128584 C90.4132538,71.113636 88.6316385,70.098204 86.9192026,68.973388 C86.3112026,68.56102 83.9912538,66.928488 83.7705615,66.2838 C83.9912538,65.639112 86.3253308,64.019648 86.9464846,63.608732 C88.6594077,62.496984 90.4405359,61.496072 92.2216641,60.493708 C93.8239974,59.60218 95.4258436,58.724204 97.0281769,57.846228 C98.5739974,63.402548 98.5886128,69.260884 97.0413308,74.817204 M108.241587,48.612476 C72.3082026,69.220228 71.8936128,63.22492 108.241587,84.064024 C110.57469,78.61854 111.859382,72.6363 111.859382,66.338492 C111.859382,60.055204 110.57469,54.059412 108.241587,48.612476" id="Fill-12" fill="#414242"></path>
                    <path d="M61.6608949,72.6637428 C60.5559718,71.8675628 58.9955359,72.1144028 58.1946128,73.2121148 C57.3795615,74.3093428 57.6285103,75.8600788 58.7334333,76.6557748 C59.8519974,77.4650228 61.3983051,77.2181828 62.2133564,76.1209548 C63.0142795,75.0101748 62.779459,73.4729908 61.6608949,72.6637428" id="Fill-14" fill="#414242"></path>
                    <path d="M75.3742179,60.809518 C74.0622436,61.234954 73.3436538,62.620646 73.7718846,63.924542 C74.2001154,65.226986 75.5949103,65.927334 76.9068846,65.51545 C78.2193462,65.090014 78.9233205,63.69077 78.5087308,62.401394 C78.0805,61.097982 76.6720641,60.384082 75.3742179,60.809518" id="Fill-16" fill="#414242"></path>
                    <path d="M74.1591436,41.108298 C74.1869128,39.283134 74.2141949,37.47249 74.2551179,35.64781 C79.8625538,37.088194 84.9857333,40.010102 89.0458872,44.126522 C87.4576821,45.072742 85.8826308,46.005894 84.2812718,46.939046 C82.5132974,47.96803 80.7321692,48.997014 78.8959897,49.902578 C78.2324513,50.231698 75.6504,51.41169 74.9737077,51.274234 C74.5313487,50.752966 74.2828872,47.940442 74.2419641,47.199922 C74.1172462,45.169542 74.1313744,43.138678 74.1591436,41.108298 M102.703964,39.119058 C95.4255026,29.528598 84.4196308,22.915706 71.8109385,21.393042 C71.8109385,62.593542 66.3701179,59.958646 102.703964,39.119058" id="Fill-18" fill="#414242"></path>
                    <path d="M66.2872,58.5185524 C67.6678667,58.5185524 68.7727897,57.4203564 68.7727897,56.0487004 C68.7727897,54.6905964 67.6678667,53.5793324 66.2872,53.5793324 C64.9201744,53.5793324 63.8011231,54.6905964 63.8011231,56.0487004 C63.8011231,57.4203564 64.9201744,58.5185524 66.2872,58.5185524" id="Fill-20" fill="#414242"></path>
                    <path d="M45.6277205,69.068736 C43.9152846,70.180484 42.1336692,71.195916 40.3520538,72.18376 C38.7643359,73.074804 37.1624897,73.953264 35.5465154,74.83124 C33.9997205,69.287988 33.9860795,63.416584 35.5465154,57.873332 C37.1624897,58.765344 38.7779769,59.657356 40.3803103,60.56292 C42.1614385,61.563832 43.9430538,62.579264 45.6554897,63.718116 C46.2766436,64.116448 48.5829513,65.74898 48.8041308,66.393668 C48.5829513,67.038356 46.2488744,68.670888 45.6277205,69.068736 M24.3467462,48.612476 C22.0126692,54.059412 20.7148231,60.055204 20.7148231,66.338492 C20.7148231,72.6363 22.0126692,78.618056 24.3467462,84.064024 C60.7497718,63.183296 60.2245923,69.205708 24.3467462,48.612476" id="Fill-22" fill="#414242"></path>
                    <path d="M48.2239487,46.9526948 C46.6498718,46.0195428 45.0889487,45.0868748 43.5143846,44.1401708 C47.5745385,40.0382708 52.6845641,37.0882908 58.3051538,35.6479068 C58.3329231,37.4861388 58.3602051,39.3243708 58.3738462,41.1630868 C58.3879744,43.1934668 58.3879744,45.2378828 58.2637436,47.2822988 C58.2223333,48.0092668 57.9461026,50.8217908 57.5042308,51.3295068 C56.8275385,51.4529268 54.245,50.2588988 53.5824359,49.9297788 C51.7594103,49.0242148 49.9914359,47.9816788 48.2239487,46.9526948 M60.7634615,21.3926548 C48.1688974,22.9158028 37.1484103,29.5286948 29.8709231,39.1186708 C65.7760513,59.7119028 60.7634615,63.0737668 60.7634615,21.3926548" id="Fill-24" fill="#414242"></path>
                    <path d="M54.0794077,62.4014424 C53.6511769,63.6908184 54.3692795,65.0900624 55.6676128,65.5154984 C56.9791,65.9273824 58.3738949,65.2270344 58.8021256,63.9241064 C59.2303564,62.6206944 58.5122538,61.2350024 57.2002795,60.8095664 C55.9024333,60.3841304 54.4935103,61.0980304 54.0794077,62.4014424" id="Fill-26" fill="#414242"></path>
                </g>
            </g>
        </g>
    </g>
</svg>