<?xml version="1.0" encoding="UTF-8"?>
<svg width="205px" height="143px" viewBox="0 0 205 143" version="1.1" xmlns="http://www.w3.org/2000/svg" xmlns:xlink="http://www.w3.org/1999/xlink">
    <!-- Generator: Sketch 53.2 (72643) - https://sketchapp.com -->
    <title>Group 164</title>
    <desc>Created with Sketch.</desc>
    <defs>
        <polygon id="path-1" points="0.154731496 0.590338983 92.2767236 0.590338983 92.2767236 128.289698 0.154731496 128.289698"></polygon>
    </defs>
    <g id="Page-1" stroke="none" stroke-width="1" fill="none" fill-rule="evenodd">
        <g id="C1c-initial-input-::" transform="translate(-85.000000, -222.000000)">
            <g id="fail" transform="translate(85.000000, 222.000000)">
                <g id="Group-164">
                    <path d="M72,52.5334668 C72,52.9050343 72.172379,53.2019451 72.515121,53.4267735 C72.858871,53.6516018 73.3528226,53.8421053 74,54 L74,51 C73.3256048,51.090103 72.8235887,51.2703089 72.4939516,51.5397597 C72.1643145,51.8092105 72,52.1404462 72,52.5334668" id="Fill-1" fill="#F5AB1B"></path>
                    <path d="M76,56 L76,59 C76.6787463,58.9093786 77.1831538,58.7350403 77.5093046,58.4743959 C77.8374143,58.2146145 78,57.8926928 78,57.5077675 C78,57.1245685 77.8266405,56.8155926 77.4818805,56.5842923 C77.1351616,56.353855 76.6405485,56.1588032 76,56" id="Fill-3" fill="#F5AB1B"></path>
                    <path d="M77.6939546,59.5878904 C77.1351113,60.118732 76.3234238,60.4405413 75.2610469,60.5540365 L75.2610469,62.1336315 L74.10529,62.1336315 L74.10529,60.5676847 C73.4085316,60.5217119 72.7505619,60.3938502 72.1299442,60.1869728 C71.5093264,59.9808138 71.0151308,59.7171888 70.6480756,59.3975345 L71.2837778,57.9730976 C71.6314387,58.2546807 72.0538036,58.492446 72.5530273,58.6849569 C73.0508145,58.8781861 73.5687142,58.9974279 74.10529,59.0448373 L74.10529,56.2232598 C73.4365456,56.0645101 72.8798573,55.8878024 72.43307,55.6945732 C71.9862826,55.5020623 71.6120444,55.2197609 71.3110735,54.8483872 C71.0101026,54.4762953 70.8599764,53.9856799 70.8599764,53.3743859 C70.8599764,52.612244 71.1372431,51.9635972 71.6932132,51.4277273 C72.2470283,50.8918574 73.0508145,50.5714848 74.10529,50.4687645 L74.10529,48.8740847 L75.2610469,48.8740847 L75.2610469,50.4407498 C75.7882846,50.4687645 76.3025929,50.5578367 76.8061265,50.7079664 C77.3082235,50.8588145 77.748546,51.0556354 78.1249392,51.3005839 L77.5459833,52.7250209 C76.8319855,52.3112661 76.0691429,52.058416 75.2610469,51.9635972 L75.2610469,54.8131894 C75.9384109,54.9733757 76.5001274,55.1472101 76.9469148,55.3346927 C77.3937021,55.523612 77.7693769,55.8023218 78.075376,56.1744138 C78.3806567,56.5457874 78.5336562,57.0371211 78.5336562,57.6484151 C78.5336562,58.4098387 78.2535162,59.0570488 77.6939546,59.5878904 L77.6939546,59.5878904 Z M62.2503418,50.2554222 C63.3457608,44.625197 68.7977153,40.9502503 74.4270918,42.0456947 L62.2503418,50.2554222 Z M74.5003592,39 C65.9395695,39 59,45.939012 59,54.5 C59,63.0602697 65.9395695,70 74.5003592,70 C83.0604305,70 90,63.0602697 90,54.5 C90,45.939012 83.0604305,39 74.5003592,39 L74.5003592,39 Z" id="Fill-5" fill="#F5AB1B"></path>
                    <path d="M62,50 L75,41.2068829 C68.9900307,40.0335954 63.1694785,43.9696866 62,50" id="Fill-7" fill="#F5AB1B"></path>
                    <path d="M62,50 L75,41.2068829 C68.9900307,40.0335954 63.1694785,43.9696866 62,50" id="Fill-9" fill="#F5AB1B"></path>
                    <path d="M75.8028785,57.2472507 C75.5602113,57.4762988 75.1849153,57.6295032 74.6799053,57.7083807 L74.6799053,55.07281 C75.1564948,55.2116041 75.5245036,55.3837694 75.782474,55.5862723 C76.0389871,55.7895336 76.1679723,56.0610542 76.1679723,56.3978005 C76.1679723,56.7360637 76.0470031,57.0189609 75.8028785,57.2472507 L75.8028785,57.2472507 Z M73.5073784,52.9582859 C73.0388049,52.8187334 72.6817271,52.6496018 72.4332301,52.4516496 C72.1854618,52.2529389 72.060849,51.9897611 72.060849,51.662116 C72.060849,51.3147516 72.179632,51.0219947 72.4179268,50.7838453 C72.6569503,50.5456959 73.0198579,50.386424 73.5073784,50.306788 L73.5073784,52.9582859 Z M76.390235,53.8213879 C75.9369648,53.6241942 75.3663691,53.4398938 74.6799053,53.2707622 L74.6799053,50.2620402 C75.4997267,50.362154 76.2736382,50.629124 76.997996,51.0667425 L77.5846238,49.5620023 C77.2034979,49.303375 76.7567863,49.0955631 76.2466752,48.9362912 C75.736564,48.7777778 75.2140645,48.6837315 74.6799053,48.6541524 L74.6799053,47 L73.5073784,47 L73.5073784,48.6837315 C72.4376025,48.7929465 71.6221534,49.1304513 71.0595737,49.6962457 C70.4962653,50.2620402 70.2149754,50.9469094 70.2149754,51.7516117 C70.2149754,52.3970421 70.36728,52.915055 70.672618,53.3086841 C70.9779559,53.7000379 71.3568956,53.9981039 71.8101658,54.2013652 C72.2641647,54.4053849 72.8289306,54.5919606 73.5073784,54.7603337 L73.5073784,57.7387182 C72.9630169,57.6886614 72.4376025,57.5627607 71.9318637,57.358741 C71.426125,57.1554797 70.9969029,56.9044369 70.6449262,56.6071293 L70,58.1118695 C70.3723811,58.4486159 70.8730188,58.7269625 71.5033704,58.9446341 C72.1329933,59.1630641 72.8005101,59.298066 73.5073784,59.3473644 L73.5073784,61 L74.6799053,61 L74.6799053,59.3321957 C75.7576972,59.213121 76.5804336,58.8733409 77.1481144,58.3120971 C77.7157952,57.7516117 78,57.0690178 78,56.2643155 C78,55.6196435 77.8447805,55.1001138 77.5350701,54.7080015 C77.2246311,54.3158893 76.8435052,54.020857 76.390235,53.8213879 L76.390235,53.8213879 Z" id="Fill-11" fill="#FFFFFF"></path>
                    <path d="M94,22.5334668 C94,22.9050343 94.172379,23.2019451 94.515121,23.4267735 C94.858871,23.6516018 95.3528226,23.8421053 96,24 L96,21 C95.3256048,21.090103 94.8235887,21.2703089 94.4939516,21.5397597 C94.1643145,21.8092105 94,22.1404462 94,22.5334668" id="Fill-13" fill="#F5AB1B"></path>
                    <path d="M97,25 L97,28 C97.6787463,27.9093786 98.1831538,27.7350403 98.5093046,27.4743959 C98.8374143,27.2146145 99,26.8926928 99,26.5077675 C99,26.1245685 98.8266405,25.8155926 98.4818805,25.5842923 C98.1351616,25.353855 97.6405485,25.1588032 97,25" id="Fill-15" fill="#F5AB1B"></path>
                    <path d="M99.6939546,28.5878904 C99.1351113,29.118732 98.3234238,29.4405413 97.2610469,29.5540365 L97.2610469,31.1336315 L96.10529,31.1336315 L96.10529,29.5676847 C95.4085316,29.5217119 94.7505619,29.3938502 94.1299442,29.1869728 C93.5093264,28.9808138 93.0151308,28.7171888 92.6480756,28.3975345 L93.2837778,26.9730976 C93.6314387,27.2546807 94.0538036,27.492446 94.5530273,27.6849569 C95.0508145,27.8781861 95.5687142,27.9974279 96.10529,28.0448373 L96.10529,25.2232598 C95.4365456,25.0645101 94.8798573,24.8878024 94.43307,24.6945732 C93.9862826,24.5020623 93.6120444,24.2197609 93.3110735,23.8483872 C93.0101026,23.4762953 92.8599764,22.9856799 92.8599764,22.3743859 C92.8599764,21.612244 93.1372431,20.9635972 93.6932132,20.4277273 C94.2470283,19.8918574 95.0508145,19.5714848 96.10529,19.4687645 L96.10529,17.8740847 L97.2610469,17.8740847 L97.2610469,19.4407498 C97.7882846,19.4687645 98.3025929,19.5578367 98.8061265,19.7079664 C99.3082235,19.8588145 99.748546,20.0556354 100.124939,20.3005839 L99.5459833,21.7250209 C98.8319855,21.3112661 98.0691429,21.058416 97.2610469,20.9635972 L97.2610469,23.8131894 C97.9384109,23.9733757 98.5001274,24.1472101 98.9469148,24.3346927 C99.3937021,24.523612 99.7693769,24.8023218 100.075376,25.1744138 C100.380657,25.5457874 100.533656,26.0371211 100.533656,26.6484151 C100.533656,27.4098387 100.253516,28.0570488 99.6939546,28.5878904 L99.6939546,28.5878904 Z M84.2503418,19.2554222 C85.3457608,13.625197 90.7977153,9.95025025 96.4270918,11.0456947 L84.2503418,19.2554222 Z M96.5003592,8 C87.9395695,8 81,14.939012 81,23.5 C81,32.0602697 87.9395695,39 96.5003592,39 C105.060431,39 112,32.0602697 112,23.5 C112,14.939012 105.060431,8 96.5003592,8 L96.5003592,8 Z" id="Fill-17" fill="#F5AB1B"></path>
                    <path d="M84,20 L97,11.2068829 C90.9900307,10.0335954 85.1694785,13.9696866 84,20" id="Fill-19" fill="#F5AB1B"></path>
                    <path d="M84,20 L97,11.2068829 C90.9900307,10.0335954 85.1694785,13.9696866 84,20" id="Fill-21" fill="#F5AB1B"></path>
                    <path d="M98.8028785,28.2472507 C98.5602113,28.4762988 98.1849153,28.6295032 97.6799053,28.7083807 L97.6799053,26.07281 C98.1564948,26.2116041 98.5245036,26.3837694 98.782474,26.5862723 C99.0389871,26.7895336 99.1679723,27.0610542 99.1679723,27.3978005 C99.1679723,27.7360637 99.0470031,28.0189609 98.8028785,28.2472507 L98.8028785,28.2472507 Z M96.5073784,23.9582859 C96.0388049,23.8187334 95.6817271,23.6496018 95.4332301,23.4516496 C95.1854618,23.2529389 95.060849,22.9897611 95.060849,22.662116 C95.060849,22.3147516 95.179632,22.0219947 95.4179268,21.7838453 C95.6569503,21.5456959 96.0198579,21.386424 96.5073784,21.306788 L96.5073784,23.9582859 Z M99.390235,24.8213879 C98.9369648,24.6241942 98.3663691,24.4398938 97.6799053,24.2707622 L97.6799053,21.2620402 C98.4997267,21.362154 99.2736382,21.629124 99.997996,22.0667425 L100.584624,20.5620023 C100.203498,20.303375 99.7567863,20.0955631 99.2466752,19.9362912 C98.736564,19.7777778 98.2140645,19.6837315 97.6799053,19.6541524 L97.6799053,18 L96.5073784,18 L96.5073784,19.6837315 C95.4376025,19.7929465 94.6221534,20.1304513 94.0595737,20.6962457 C93.4962653,21.2620402 93.2149754,21.9469094 93.2149754,22.7516117 C93.2149754,23.3970421 93.36728,23.915055 93.672618,24.3086841 C93.9779559,24.7000379 94.3568956,24.9981039 94.8101658,25.2013652 C95.2641647,25.4053849 95.8289306,25.5919606 96.5073784,25.7603337 L96.5073784,28.7387182 C95.9630169,28.6886614 95.4376025,28.5627607 94.9318637,28.358741 C94.426125,28.1554797 93.9969029,27.9044369 93.6449262,27.6071293 L93,29.1118695 C93.3723811,29.4486159 93.8730188,29.7269625 94.5033704,29.9446341 C95.1329933,30.1630641 95.8005101,30.298066 96.5073784,30.3473644 L96.5073784,32 L97.6799053,32 L97.6799053,30.3321957 C98.7576972,30.213121 99.5804336,29.8733409 100.148114,29.3120971 C100.715795,28.7516117 101,28.0690178 101,27.2643155 C101,26.6196435 100.84478,26.1001138 100.53507,25.7080015 C100.224631,25.3158893 99.8435052,25.020857 99.390235,24.8213879 L99.390235,24.8213879 Z" id="Fill-23" fill="#FFFFFF"></path>
                    <path d="M124,39.5334668 C124,39.9050343 124.172379,40.2019451 124.515121,40.4267735 C124.858871,40.6516018 125.352823,40.8421053 126,41 L126,38 C125.325605,38.090103 124.823589,38.2703089 124.493952,38.5397597 C124.164315,38.8092105 124,39.1404462 124,39.5334668" id="Fill-25" fill="#F5AB1B"></path>
                    <path d="M127,42 L127,45 C127.678746,44.9093786 128.183154,44.7350403 128.509305,44.4743959 C128.837414,44.2146145 129,43.8926928 129,43.5077675 C129,43.1245685 128.826641,42.8155926 128.481881,42.5842923 C128.135162,42.353855 127.640548,42.1588032 127,42" id="Fill-27" fill="#F5AB1B"></path>
                    <path d="M128.693955,45.5878904 C128.135111,46.118732 127.323424,46.4405413 126.261047,46.5540365 L126.261047,48.1336315 L125.10529,48.1336315 L125.10529,46.5676847 C124.408532,46.5217119 123.750562,46.3938502 123.129944,46.1869728 C122.509326,45.9808138 122.015131,45.7171888 121.648076,45.3975345 L122.283778,43.9730976 C122.631439,44.2546807 123.053804,44.492446 123.553027,44.6849569 C124.050814,44.8781861 124.568714,44.9974279 125.10529,45.0448373 L125.10529,42.2232598 C124.436546,42.0645101 123.879857,41.8878024 123.43307,41.6945732 C122.986283,41.5020623 122.612044,41.2197609 122.311074,40.8483872 C122.010103,40.4762953 121.859976,39.9856799 121.859976,39.3743859 C121.859976,38.612244 122.137243,37.9635972 122.693213,37.4277273 C123.247028,36.8918574 124.050814,36.5714848 125.10529,36.4687645 L125.10529,34.8740847 L126.261047,34.8740847 L126.261047,36.4407498 C126.788285,36.4687645 127.302593,36.5578367 127.806126,36.7079664 C128.308223,36.8588145 128.748546,37.0556354 129.124939,37.3005839 L128.545983,38.7250209 C127.831986,38.3112661 127.069143,38.058416 126.261047,37.9635972 L126.261047,40.8131894 C126.938411,40.9733757 127.500127,41.1472101 127.946915,41.3346927 C128.393702,41.523612 128.769377,41.8023218 129.075376,42.1744138 C129.380657,42.5457874 129.533656,43.0371211 129.533656,43.6484151 C129.533656,44.4098387 129.253516,45.0570488 128.693955,45.5878904 L128.693955,45.5878904 Z M113.250342,36.2554222 C114.345761,30.625197 119.797715,26.9502503 125.427092,28.0456947 L113.250342,36.2554222 Z M125.500359,25 C116.939569,25 110,31.939012 110,40.5 C110,49.0602697 116.939569,56 125.500359,56 C134.060431,56 141,49.0602697 141,40.5 C141,31.939012 134.060431,25 125.500359,25 L125.500359,25 Z" id="Fill-29" fill="#F5AB1B"></path>
                    <path d="M113,37 L126,28.2068829 C119.990031,27.0335954 114.169479,30.9696866 113,37" id="Fill-31" fill="#F5AB1B"></path>
                    <path d="M113,37 L126,28.2068829 C119.990031,27.0335954 114.169479,30.9696866 113,37" id="Fill-33" fill="#F5AB1B"></path>
                    <path d="M127.802878,45.2472507 C127.560211,45.4762988 127.184915,45.6295032 126.679905,45.7083807 L126.679905,43.07281 C127.156495,43.2116041 127.524504,43.3837694 127.782474,43.5862723 C128.038987,43.7895336 128.167972,44.0610542 128.167972,44.3978005 C128.167972,44.7360637 128.047003,45.0189609 127.802878,45.2472507 L127.802878,45.2472507 Z M125.507378,40.9582859 C125.038805,40.8187334 124.681727,40.6496018 124.43323,40.4516496 C124.185462,40.2529389 124.060849,39.9897611 124.060849,39.662116 C124.060849,39.3147516 124.179632,39.0219947 124.417927,38.7838453 C124.65695,38.5456959 125.019858,38.386424 125.507378,38.306788 L125.507378,40.9582859 Z M128.390235,41.8213879 C127.936965,41.6241942 127.366369,41.4398938 126.679905,41.2707622 L126.679905,38.2620402 C127.499727,38.362154 128.273638,38.629124 128.997996,39.0667425 L129.584624,37.5620023 C129.203498,37.303375 128.756786,37.0955631 128.246675,36.9362912 C127.736564,36.7777778 127.214064,36.6837315 126.679905,36.6541524 L126.679905,35 L125.507378,35 L125.507378,36.6837315 C124.437602,36.7929465 123.622153,37.1304513 123.059574,37.6962457 C122.496265,38.2620402 122.214975,38.9469094 122.214975,39.7516117 C122.214975,40.3970421 122.36728,40.915055 122.672618,41.3086841 C122.977956,41.7000379 123.356896,41.9981039 123.810166,42.2013652 C124.264165,42.4053849 124.828931,42.5919606 125.507378,42.7603337 L125.507378,45.7387182 C124.963017,45.6886614 124.437602,45.5627607 123.931864,45.358741 C123.426125,45.1554797 122.996903,44.9044369 122.644926,44.6071293 L122,46.1118695 C122.372381,46.4486159 122.873019,46.7269625 123.50337,46.9446341 C124.132993,47.1630641 124.80051,47.298066 125.507378,47.3473644 L125.507378,49 L126.679905,49 L126.679905,47.3321957 C127.757697,47.213121 128.580434,46.8733409 129.148114,46.3120971 C129.715795,45.7516117 130,45.0690178 130,44.2643155 C130,43.6196435 129.84478,43.1001138 129.53507,42.7080015 C129.224631,42.3158893 128.843505,42.020857 128.390235,41.8213879 L128.390235,41.8213879 Z" id="Fill-35" fill="#FFFFFF"></path>
                    <path d="M102,65.5334668 C102,65.9050343 102.172379,66.2019451 102.515121,66.4267735 C102.858871,66.6516018 103.352823,66.8421053 104,67 L104,64 C103.325605,64.090103 102.823589,64.2703089 102.493952,64.5397597 C102.164315,64.8092105 102,65.1404462 102,65.5334668" id="Fill-37" fill="#F5AB1B"></path>
                    <path d="M104,69 L104,72 C104.678746,71.9093786 105.183154,71.7350403 105.509305,71.4743959 C105.837414,71.2146145 106,70.8926928 106,70.5077675 C106,70.1245685 105.826641,69.8155926 105.481881,69.5842923 C105.135162,69.353855 104.640548,69.1588032 104,69" id="Fill-39" fill="#F5AB1B"></path>
                    <path d="M107.693955,71.5878904 C107.135111,72.118732 106.323424,72.4405413 105.261047,72.5540365 L105.261047,74.1336315 L104.10529,74.1336315 L104.10529,72.5676847 C103.408532,72.5217119 102.750562,72.3938502 102.129944,72.1869728 C101.509326,71.9808138 101.015131,71.7171888 100.648076,71.3975345 L101.283778,69.9730976 C101.631439,70.2546807 102.053804,70.492446 102.553027,70.6849569 C103.050814,70.8781861 103.568714,70.9974279 104.10529,71.0448373 L104.10529,68.2232598 C103.436546,68.0645101 102.879857,67.8878024 102.43307,67.6945732 C101.986283,67.5020623 101.612044,67.2197609 101.311074,66.8483872 C101.010103,66.4762953 100.859976,65.9856799 100.859976,65.3743859 C100.859976,64.612244 101.137243,63.9635972 101.693213,63.4277273 C102.247028,62.8918574 103.050814,62.5714848 104.10529,62.4687645 L104.10529,60.8740847 L105.261047,60.8740847 L105.261047,62.4407498 C105.788285,62.4687645 106.302593,62.5578367 106.806126,62.7079664 C107.308223,62.8588145 107.748546,63.0556354 108.124939,63.3005839 L107.545983,64.7250209 C106.831986,64.3112661 106.069143,64.058416 105.261047,63.9635972 L105.261047,66.8131894 C105.938411,66.9733757 106.500127,67.1472101 106.946915,67.3346927 C107.393702,67.523612 107.769377,67.8023218 108.075376,68.1744138 C108.380657,68.5457874 108.533656,69.0371211 108.533656,69.6484151 C108.533656,70.4098387 108.253516,71.0570488 107.693955,71.5878904 L107.693955,71.5878904 Z M92.2503418,62.2554222 C93.3457608,56.625197 98.7977153,52.9502503 104.427092,54.0456947 L92.2503418,62.2554222 Z M104.500359,51 C95.9395695,51 89,57.939012 89,66.5 C89,75.0602697 95.9395695,82 104.500359,82 C113.060431,82 120,75.0602697 120,66.5 C120,57.939012 113.060431,51 104.500359,51 L104.500359,51 Z" id="Fill-41" fill="#F5AB1B"></path>
                    <path d="M91,63 L104,54.2068829 C97.9900307,53.0335954 92.1694785,56.9696866 91,63" id="Fill-43" fill="#F5AB1B"></path>
                    <path d="M91,63 L104,54.2068829 C97.9900307,53.0335954 92.1694785,56.9696866 91,63" id="Fill-45" fill="#F5AB1B"></path>
                    <path d="M105.802878,71.2472507 C105.560211,71.4762988 105.184915,71.6295032 104.679905,71.7083807 L104.679905,69.07281 C105.156495,69.2116041 105.524504,69.3837694 105.782474,69.5862723 C106.038987,69.7895336 106.167972,70.0610542 106.167972,70.3978005 C106.167972,70.7360637 106.047003,71.0189609 105.802878,71.2472507 L105.802878,71.2472507 Z M103.507378,66.9582859 C103.038805,66.8187334 102.681727,66.6496018 102.43323,66.4516496 C102.185462,66.2529389 102.060849,65.9897611 102.060849,65.662116 C102.060849,65.3147516 102.179632,65.0219947 102.417927,64.7838453 C102.65695,64.5456959 103.019858,64.386424 103.507378,64.306788 L103.507378,66.9582859 Z M106.390235,67.8213879 C105.936965,67.6241942 105.366369,67.4398938 104.679905,67.2707622 L104.679905,64.2620402 C105.499727,64.362154 106.273638,64.629124 106.997996,65.0667425 L107.584624,63.5620023 C107.203498,63.303375 106.756786,63.0955631 106.246675,62.9362912 C105.736564,62.7777778 105.214064,62.6837315 104.679905,62.6541524 L104.679905,61 L103.507378,61 L103.507378,62.6837315 C102.437602,62.7929465 101.622153,63.1304513 101.059574,63.6962457 C100.496265,64.2620402 100.214975,64.9469094 100.214975,65.7516117 C100.214975,66.3970421 100.36728,66.915055 100.672618,67.3086841 C100.977956,67.7000379 101.356896,67.9981039 101.810166,68.2013652 C102.264165,68.4053849 102.828931,68.5919606 103.507378,68.7603337 L103.507378,71.7387182 C102.963017,71.6886614 102.437602,71.5627607 101.931864,71.358741 C101.426125,71.1554797 100.996903,70.9044369 100.644926,70.6071293 L100,72.1118695 C100.372381,72.4486159 100.873019,72.7269625 101.50337,72.9446341 C102.132993,73.1630641 102.80051,73.298066 103.507378,73.3473644 L103.507378,75 L104.679905,75 L104.679905,73.3321957 C105.757697,73.213121 106.580434,72.8733409 107.148114,72.3120971 C107.715795,71.7516117 108,71.0690178 108,70.2643155 C108,69.6196435 107.84478,69.1001138 107.53507,68.7080015 C107.224631,68.3158893 106.843505,68.020857 106.390235,67.8213879 L106.390235,67.8213879 Z" id="Fill-47" fill="#FFFFFF"></path>
                    <path d="M94,94.5334668 C94,94.9050343 94.172379,95.2019451 94.515121,95.4267735 C94.858871,95.6516018 95.3528226,95.8421053 96,96 L96,93 C95.3256048,93.090103 94.8235887,93.2703089 94.4939516,93.5397597 C94.1643145,93.8092105 94,94.1404462 94,94.5334668" id="Fill-49" fill="#F5AB1B"></path>
                    <path d="M97,98 L97,101 C97.6787463,100.909379 98.1831538,100.73504 98.5093046,100.474396 C98.8374143,100.214614 99,99.8926928 99,99.5077675 C99,99.1245685 98.8266405,98.8155926 98.4818805,98.5842923 C98.1351616,98.353855 97.6405485,98.1588032 97,98" id="Fill-51" fill="#F5AB1B"></path>
                    <path d="M99.6939546,100.58789 C99.1351113,101.118732 98.3234238,101.440541 97.2610469,101.554037 L97.2610469,103.133631 L96.10529,103.133631 L96.10529,101.567685 C95.4085316,101.521712 94.7505619,101.39385 94.1299442,101.186973 C93.5093264,100.980814 93.0151308,100.717189 92.6480756,100.397535 L93.2837778,98.9730976 C93.6314387,99.2546807 94.0538036,99.492446 94.5530273,99.6849569 C95.0508145,99.8781861 95.5687142,99.9974279 96.10529,100.044837 L96.10529,97.2232598 C95.4365456,97.0645101 94.8798573,96.8878024 94.43307,96.6945732 C93.9862826,96.5020623 93.6120444,96.2197609 93.3110735,95.8483872 C93.0101026,95.4762953 92.8599764,94.9856799 92.8599764,94.3743859 C92.8599764,93.612244 93.1372431,92.9635972 93.6932132,92.4277273 C94.2470283,91.8918574 95.0508145,91.5714848 96.10529,91.4687645 L96.10529,89.8740847 L97.2610469,89.8740847 L97.2610469,91.4407498 C97.7882846,91.4687645 98.3025929,91.5578367 98.8061265,91.7079664 C99.3082235,91.8588145 99.748546,92.0556354 100.124939,92.3005839 L99.5459833,93.7250209 C98.8319855,93.3112661 98.0691429,93.058416 97.2610469,92.9635972 L97.2610469,95.8131894 C97.9384109,95.9733757 98.5001274,96.1472101 98.9469148,96.3346927 C99.3937021,96.523612 99.7693769,96.8023218 100.075376,97.1744138 C100.380657,97.5457874 100.533656,98.0371211 100.533656,98.6484151 C100.533656,99.4098387 100.253516,100.057049 99.6939546,100.58789 L99.6939546,100.58789 Z M84.2503418,91.2554222 C85.3457608,85.625197 90.7977153,81.9502503 96.4270918,83.0456947 L84.2503418,91.2554222 Z M96.5003592,80 C87.9395695,80 81,86.939012 81,95.5 C81,104.06027 87.9395695,111 96.5003592,111 C105.060431,111 112,104.06027 112,95.5 C112,86.939012 105.060431,80 96.5003592,80 L96.5003592,80 Z" id="Fill-53" fill="#F5AB1B"></path>
                    <path d="M84,92 L97,83.2068829 C90.9900307,82.0335954 85.1694785,85.9696866 84,92" id="Fill-55" fill="#F5AB1B"></path>
                    <path d="M84,92 L97,83.2068829 C90.9900307,82.0335954 85.1694785,85.9696866 84,92" id="Fill-57" fill="#F5AB1B"></path>
                    <path d="M98.8028785,100.247251 C98.5602113,100.476299 98.1849153,100.629503 97.6799053,100.708381 L97.6799053,98.07281 C98.1564948,98.2116041 98.5245036,98.3837694 98.782474,98.5862723 C99.0389871,98.7895336 99.1679723,99.0610542 99.1679723,99.3978005 C99.1679723,99.7360637 99.0470031,100.018961 98.8028785,100.247251 L98.8028785,100.247251 Z M96.5073784,95.9582859 C96.0388049,95.8187334 95.6817271,95.6496018 95.4332301,95.4516496 C95.1854618,95.2529389 95.060849,94.9897611 95.060849,94.662116 C95.060849,94.3147516 95.179632,94.0219947 95.4179268,93.7838453 C95.6569503,93.5456959 96.0198579,93.386424 96.5073784,93.306788 L96.5073784,95.9582859 Z M99.390235,96.8213879 C98.9369648,96.6241942 98.3663691,96.4398938 97.6799053,96.2707622 L97.6799053,93.2620402 C98.4997267,93.362154 99.2736382,93.629124 99.997996,94.0667425 L100.584624,92.5620023 C100.203498,92.303375 99.7567863,92.0955631 99.2466752,91.9362912 C98.736564,91.7777778 98.2140645,91.6837315 97.6799053,91.6541524 L97.6799053,90 L96.5073784,90 L96.5073784,91.6837315 C95.4376025,91.7929465 94.6221534,92.1304513 94.0595737,92.6962457 C93.4962653,93.2620402 93.2149754,93.9469094 93.2149754,94.7516117 C93.2149754,95.3970421 93.36728,95.915055 93.672618,96.3086841 C93.9779559,96.7000379 94.3568956,96.9981039 94.8101658,97.2013652 C95.2641647,97.4053849 95.8289306,97.5919606 96.5073784,97.7603337 L96.5073784,100.738718 C95.9630169,100.688661 95.4376025,100.562761 94.9318637,100.358741 C94.426125,100.15548 93.9969029,99.9044369 93.6449262,99.6071293 L93,101.11187 C93.3723811,101.448616 93.8730188,101.726962 94.5033704,101.944634 C95.1329933,102.163064 95.8005101,102.298066 96.5073784,102.347364 L96.5073784,104 L97.6799053,104 L97.6799053,102.332196 C98.7576972,102.213121 99.5804336,101.873341 100.148114,101.312097 C100.715795,100.751612 101,100.069018 101,99.2643155 C101,98.6196435 100.84478,98.1001138 100.53507,97.7080015 C100.224631,97.3158893 99.8435052,97.020857 99.390235,96.8213879 L99.390235,96.8213879 Z" id="Fill-59" fill="#FFFFFF"></path>
                    <path d="M97,126.533467 C97,126.905034 97.172379,127.201945 97.515121,127.426773 C97.858871,127.651602 98.3528226,127.842105 99,128 L99,125 C98.3256048,125.090103 97.8235887,125.270309 97.4939516,125.53976 C97.1643145,125.809211 97,126.140446 97,126.533467" id="Fill-61" fill="#F5AB1B"></path>
                    <path d="M99,129 L99,132 C99.6787463,131.909379 100.183154,131.73504 100.509305,131.474396 C100.837414,131.214614 101,130.892693 101,130.507768 C101,130.124568 100.826641,129.815593 100.481881,129.584292 C100.135162,129.353855 99.6405485,129.158803 99,129" id="Fill-63" fill="#F5AB1B"></path>
                    <path d="M102.693955,132.58789 C102.135111,133.118732 101.323424,133.440541 100.261047,133.554037 L100.261047,135.133631 L99.10529,135.133631 L99.10529,133.567685 C98.4085316,133.521712 97.7505619,133.39385 97.1299442,133.186973 C96.5093264,132.980814 96.0151308,132.717189 95.6480756,132.397535 L96.2837778,130.973098 C96.6314387,131.254681 97.0538036,131.492446 97.5530273,131.684957 C98.0508145,131.878186 98.5687142,131.997428 99.10529,132.044837 L99.10529,129.22326 C98.4365456,129.06451 97.8798573,128.887802 97.43307,128.694573 C96.9862826,128.502062 96.6120444,128.219761 96.3110735,127.848387 C96.0101026,127.476295 95.8599764,126.98568 95.8599764,126.374386 C95.8599764,125.612244 96.1372431,124.963597 96.6932132,124.427727 C97.2470283,123.891857 98.0508145,123.571485 99.10529,123.468764 L99.10529,121.874085 L100.261047,121.874085 L100.261047,123.44075 C100.788285,123.468764 101.302593,123.557837 101.806126,123.707966 C102.308223,123.858815 102.748546,124.055635 103.124939,124.300584 L102.545983,125.725021 C101.831986,125.311266 101.069143,125.058416 100.261047,124.963597 L100.261047,127.813189 C100.938411,127.973376 101.500127,128.14721 101.946915,128.334693 C102.393702,128.523612 102.769377,128.802322 103.075376,129.174414 C103.380657,129.545787 103.533656,130.037121 103.533656,130.648415 C103.533656,131.409839 103.253516,132.057049 102.693955,132.58789 L102.693955,132.58789 Z M87.2503418,123.255422 C88.3457608,117.625197 93.7977153,113.95025 99.4270918,115.045695 L87.2503418,123.255422 Z M99.5003592,112 C90.9395695,112 84,118.939012 84,127.5 C84,136.06027 90.9395695,143 99.5003592,143 C108.060431,143 115,136.06027 115,127.5 C115,118.939012 108.060431,112 99.5003592,112 L99.5003592,112 Z" id="Fill-65" fill="#F5AB1B"></path>
                    <path d="M86,124 L99,115.206883 C92.9900307,114.033595 87.1694785,117.969687 86,124" id="Fill-67" fill="#F5AB1B"></path>
                    <path d="M86,124 L99,115.206883 C92.9900307,114.033595 87.1694785,117.969687 86,124" id="Fill-69" fill="#F5AB1B"></path>
                    <path d="M100.802878,132.247251 C100.560211,132.476299 100.184915,132.629503 99.6799053,132.708381 L99.6799053,130.07281 C100.156495,130.211604 100.524504,130.383769 100.782474,130.586272 C101.038987,130.789534 101.167972,131.061054 101.167972,131.397801 C101.167972,131.736064 101.047003,132.018961 100.802878,132.247251 L100.802878,132.247251 Z M98.5073784,127.958286 C98.0388049,127.818733 97.6817271,127.649602 97.4332301,127.45165 C97.1854618,127.252939 97.060849,126.989761 97.060849,126.662116 C97.060849,126.314752 97.179632,126.021995 97.4179268,125.783845 C97.6569503,125.545696 98.0198579,125.386424 98.5073784,125.306788 L98.5073784,127.958286 Z M101.390235,128.821388 C100.936965,128.624194 100.366369,128.439894 99.6799053,128.270762 L99.6799053,125.26204 C100.499727,125.362154 101.273638,125.629124 101.997996,126.066743 L102.584624,124.562002 C102.203498,124.303375 101.756786,124.095563 101.246675,123.936291 C100.736564,123.777778 100.214064,123.683732 99.6799053,123.654152 L99.6799053,122 L98.5073784,122 L98.5073784,123.683732 C97.4376025,123.792947 96.6221534,124.130451 96.0595737,124.696246 C95.4962653,125.26204 95.2149754,125.946909 95.2149754,126.751612 C95.2149754,127.397042 95.36728,127.915055 95.672618,128.308684 C95.9779559,128.700038 96.3568956,128.998104 96.8101658,129.201365 C97.2641647,129.405385 97.8289306,129.591961 98.5073784,129.760334 L98.5073784,132.738718 C97.9630169,132.688661 97.4376025,132.562761 96.9318637,132.358741 C96.426125,132.15548 95.9969029,131.904437 95.6449262,131.607129 L95,133.11187 C95.3723811,133.448616 95.8730188,133.726962 96.5033704,133.944634 C97.1329933,134.163064 97.8005101,134.298066 98.5073784,134.347364 L98.5073784,136 L99.6799053,136 L99.6799053,134.332196 C100.757697,134.213121 101.580434,133.873341 102.148114,133.312097 C102.715795,132.751612 103,132.069018 103,131.264316 C103,130.619644 102.84478,130.100114 102.53507,129.708002 C102.224631,129.315889 101.843505,129.020857 101.390235,128.821388 L101.390235,128.821388 Z" id="Fill-71" fill="#FFFFFF"></path>
                    <path d="M51,112.984502 C50.9094066,112.719438 50.8121843,112.455823 50.723064,112.189311 C48.15625,106.938731 45.8273359,101.583864 43.7201178,96.1406431 C39.6603535,93.9752317 36.0137837,91.3803592 32.8916246,88.4030997 C31.8693182,87.3131518 30.9044613,86.1775782 30,85 C30.5884891,87.9084589 31.1364689,91.1840962 31.1556187,94.2649189 C31.2837753,94.1794612 31.4126684,94.0961761 31.5393519,94.0078216 C33.3357534,102.988847 36.5485059,111.512167 40.5500842,120 C39.8592172,118.53201 39.1897096,117.064021 38.5481902,115.59241 C42.7037037,114.716831 46.8805766,113.96292 51,112.984502" id="Fill-73" fill="#E7B7C8"></path>
                    <path d="M44,125 C42.9694892,123.666447 41.9688036,122.333553 41,121 C41.969832,122.333553 42.9694892,123.666447 44,125" id="Fill-75" fill="#E7B7C8"></path>
                    <path d="M68.2237917,130 C68.1575811,130.102241 68.0748179,130.178692 68,130.268959 C68.6753476,132.162726 69.8141691,132.976973 71,133 C69.8783933,132.805649 68.8369013,131.888241 68.2237917,130" id="Fill-77" fill="#F7CEDB"></path>
                    <path d="M54.9314382,122.488207 C53.5637154,119.349629 52.3233572,116.19383 51.2349683,113 C47.1875218,113.969414 43.0836296,114.716387 39,115.583909 C39.6303104,117.041977 40.2888436,118.497175 40.9676394,119.950938 C41.0030988,120.026281 41.0385583,120.102342 41.0740178,120.176968 C41.7557082,121.632166 42.4598322,123.085211 43.1849424,124.539691 C45.1699497,128.517807 50.3868354,126.54023 51.1104982,123.047181 C51.5273281,122.902952 51.8920542,122.664725 52.180072,122.349001 C52.9565622,124.07974 54.403888,124.737736 55.865687,124.647324 C56.945392,127.01525 58.0880557,129.377435 59.2849941,131.741773 C61.3626302,135.847613 66.7589843,133.771731 67.4898838,130.151675 C67.8169794,130.036867 68.0977606,129.850303 68.3510426,129.632167 C68.4328165,129.561847 68.5232744,129.50229 68.5956407,129.422641 C69.2657525,130.893625 70.4040742,131.608308 71.6299591,131.759712 C74.6447387,132.130687 78.1906868,129.076781 76.6109307,125.353397 C75.5985263,122.967532 74.5745434,120.530004 73.6019405,118.05875 C73.4000385,118.124765 73.1966892,118.181452 72.9947873,118.245314 C67.0918692,120.109518 60.9877729,121.169344 54.9314382,122.488207" id="Fill-79" fill="#D293A8"></path>
                    <path d="M12.6552943,45.1559105 C13.8789016,44.897513 15.3658075,45.1522608 16.1908099,45.7624878 C16.2778447,45.8274522 16.3509833,45.8902267 16.4116882,45.9508115 C14.6512443,47.7486453 11.7630045,48.5457361 9.38088326,47.7807626 C9.04810304,47.6734619 8.72629359,47.5376937 8.41545493,47.3734579 C9.62297173,46.2814728 11.0828164,45.4865718 12.6552943,45.1559105 L12.6552943,45.1559105 Z M73.9190358,63.3568798 L72.1103205,58.3276166 L67.3702136,56.3750362 L78.0484361,46.9223571 L65.5863654,41.5894403 L72.899485,32.8477194 L67.7059194,30.4819949 L71.3950258,26.2578518 L61.3487201,23.0271523 L65.3376944,16.9219625 C62.4428722,17.3723334 57.3634027,18.621255 49.6977555,22.041008 L52.9260893,17.5132112 C52.9260893,17.5132112 57.0203831,15.6511429 63.2576352,14.0190047 L61.8109555,12 C40.2446031,18.0540942 24.7421645,34.9404477 22.0916249,53.9961728 C21.6798551,56.9648249 21.5759984,59.9845727 21.8129672,63.0254886 C21.6623018,63.0605256 21.5101737,63.0926428 21.358777,63.1254899 C21.3755989,63.5138162 21.4165565,63.9021425 21.4465432,64.2897388 C21.4165565,63.9021425 21.3755989,63.5138162 21.358777,63.1254899 C17.3098291,64.0123629 12.8286326,64.2335337 9.42988606,61.9787595 C6.4436407,59.9984415 4.76584328,56.0107978 5.44018034,52.4976129 C5.52136409,52.0742497 5.63619155,51.655996 5.78319995,51.2486914 C6.46411948,51.644317 7.1896535,51.9713286 7.95102539,52.2158574 C12.7225818,53.7472644 18.2057759,51.83994 20.9908903,47.682951 L21.4472746,47.0011903 L21.3755989,46.1851211 C21.231516,44.5391141 20.3772582,43.0602625 18.9693419,42.0193729 C17.0787114,40.6215443 14.2219212,40.0631428 11.6891346,40.5981863 C9.28287765,41.1011127 7.0667808,42.2974788 5.2558713,43.9427559 C4.85214672,43.0420141 4.63858227,42.0682787 4.67003183,41.1003827 L0.00598905307,40.9463661 C-0.0781202334,43.4646474 0.727866146,45.9172344 2.15991817,47.9267499 C1.54921161,49.0866191 1.10233532,50.3304311 0.854395768,51.621689 C-0.173200296,56.9830734 2.2908361,62.8378949 6.8459025,65.8583726 C11.4360754,68.9022082 16.969735,68.7824986 21.8605072,67.7802957 C22.0513987,67.741609 22.2422902,67.7043823 22.4302562,67.6620459 C22.4309876,67.6627759 22.4309876,67.6627759 22.4309876,67.6635058 C23.6772678,74.1614015 26.4089911,80.05053 30.2582709,85.1425678 C31.1564118,86.3294447 32.1145263,87.4739853 33.1296888,88.57181 C36.2300303,91.5733093 39.8518493,94.1886722 43.8825126,96.3711826 C45.9750053,101.857386 48.287645,107.254537 50.8365221,112.546578 C50.9250197,112.814465 51.0215625,113.080891 51.1115229,113.348048 C52.2122575,116.596266 53.4658515,119.806527 54.847438,123 C60.9691312,121.658377 67.1376332,120.57953 73.1035414,118.683155 C71.1982832,113.780171 69.5241428,108.729739 68.6435551,103.625293 C75.0585338,104.23333 81.8099497,104.033327 88.6864324,102.926743 L90,99.269031 L85.0163419,97.4923653 L84.5936013,91.3025028 L78.5501663,89.4272957 L85.9693367,81.6147842 L79.4600093,81.2169687 L78.2437159,75.8891614 L72.762716,73.0205106 L81.6980477,62.905779 L73.9190358,63.3568798 Z" id="Fill-81" fill="#F7CEDB"></path>
                    <path d="M50,22 C57.3512907,18.5896269 62.2236251,17.344131 65,16.8949955 L63.004349,14 C57.0230079,15.6276615 53.0955387,17.4846224 53.0955387,17.4846224 L50,22 Z" id="Fill-83" fill="#383838"></path>
                    <g id="Group-87" transform="translate(109.000000, 0.000000)">
                        <mask id="mask-2" fill="white">
                            <use xlink:href="#path-1"></use>
                        </mask>
                        <g id="Clip-86"></g>
                        <path d="M68.082078,34.5394949 C66.8760071,33.2611559 65.599637,32.0170712 64.2566291,30.8138 C65.599637,32.0170712 66.8760071,33.2611559 68.082078,34.5394949 C70.3008969,36.8928339 72.2707394,39.3693424 73.9923378,41.931122 C72.2707394,39.3693424 70.3008969,36.8928339 68.082078,34.5394949 L68.082078,34.5394949 Z M60.0994559,68.720122 L56.0301567,65.276478 C55.403322,65.3551898 54.7537866,65.3180203 54.1071803,65.1627831 L51.1494874,70.2615627 L45.3878811,66.9505627 L48.0797551,62.3102068 C47.9860228,62.094478 47.929637,61.848139 47.9332984,61.5646305 C47.9457472,60.6485119 48.1844717,59.7702915 48.585763,58.9758847 L43.2115346,54.4288169 L47.5217551,49.3839695 L52.9252748,53.9572746 L56.4717236,47.8432576 L62.2333299,51.1542576 L59.2382906,56.3171729 C60.293511,57.4227831 60.8478496,58.9525627 60.6852827,60.5246136 L64.4089441,63.6767322 L60.0994559,68.720122 Z M47.0501646,19.4333763 C48.2415898,15.9081051 50.6302984,12.9877492 54.0346843,11.3654102 C56.5661882,10.1592237 58.8245504,13.9140712 56.271078,15.1311898 C53.9182512,16.2521051 52.1109756,18.0632068 51.2849598,20.5608508 C51.1787787,20.8822576 51.0213378,21.1475458 50.8309441,21.3647322 C51.4621724,21.7101898 52.0853457,22.0643932 52.7004638,22.4244271 C52.0853457,22.0643932 51.4621724,21.7109186 50.8309441,21.365461 C49.6014402,20.6905797 48.3367866,20.0506814 47.0501646,19.4333763 C46.0051961,18.9326814 44.9360622,18.4567661 43.8552118,17.9932407 C44.9360622,18.4567661 46.0044638,18.9326814 47.0501646,19.4333763 L47.0501646,19.4333763 Z M43.5557079,15.1129695 C45.242889,12.7589017 47.2808339,10.7109356 49.6468417,9.03174915 C51.1670622,7.95310508 53.0439047,10.1723424 51.5148969,11.2582746 C49.3334244,12.8055458 47.4858732,14.6239356 45.9297709,16.7943424 C44.8408654,18.3146475 42.4646055,16.635461 43.5557079,15.1129695 L43.5557079,15.1129695 Z M61.4131724,25.9839525 C62.5936134,22.4149525 64.9977,19.4603424 68.4328417,17.8234271 C70.9643457,16.6165119 73.2227079,20.3720881 70.6685031,21.588478 C68.3156764,22.710122 66.5098654,24.5204949 65.6831173,27.0188678 C64.801448,29.6826814 60.5293063,28.6557831 61.4131724,25.9839525 L61.4131724,25.9839525 Z M76.9419756,46.8681051 C76.2792591,45.594139 75.5440465,44.3398508 74.7590386,43.1015966 C75.5440465,44.3398508 76.2792591,45.594139 76.9419756,46.8681051 L76.9419756,46.8681051 Z M79.7641961,53.5075966 C79.0297157,51.3029356 78.1041094,49.1288847 77.0064165,47.0000203 C78.1041094,49.1288847 79.0297157,51.3029356 79.7641961,53.5075966 L79.7641961,53.5075966 Z M82.8932433,89.5590881 C80.4093378,88.9425119 78.981385,85.3633085 78.8451803,80.4270542 C77.4977787,83.5223254 75.7359047,86.4062407 73.6056921,89.0481898 C75.7359047,86.4062407 77.4977787,83.5223254 78.8451803,80.4263254 C78.7646291,77.4702576 79.1468811,74.0280712 80.0453929,70.4423085 C80.5352906,68.4883593 81.1416213,66.6459186 81.8277709,64.9543424 C81.722322,61.1557661 81.0303142,57.3732237 79.8147236,53.6752237 C81.0303142,57.3732237 81.722322,61.1557661 81.8277709,64.9536136 C84.5035346,58.3614949 88.4175898,54.1103254 91.5773929,54.8938 C91.820511,54.9542915 92.0533772,55.0439356 92.2767236,55.1598169 C92.1324638,54.8551729 91.972826,54.5585458 91.7875583,54.2772237 C90.8238732,52.8137661 89.397385,51.8269525 87.7834323,51.4989864 C86.1021094,51.1571729 84.390763,50.746122 82.6772197,50.2789525 C81.9478654,45.5795627 80.7491173,40.7263932 77.8148575,36.3484102 C77.141889,35.3441051 76.4066764,34.3769695 75.6209362,33.4615797 C76.5069992,27.7986983 78.8319992,22.5497831 82.3821094,18.2162576 C83.6247945,16.6995966 83.9228339,14.6968169 83.1605268,12.9906644 C82.4568024,11.4120542 80.9761252,10.3778678 79.2918732,10.2925966 C74.7341409,10.0608339 70.0651016,11.0928339 65.6479677,13.2552237 C66.5669835,11.5818678 67.6309913,10.0003424 68.8238811,8.54490169 C70.0658339,7.02824068 70.3638732,5.02618983 69.6022984,3.31785085 C68.8963772,1.73924068 67.4142354,0.705054237 65.7329126,0.621240678 C55.9034717,0.12200339 45.5607,5.62090169 38.6655189,14.9912576 C38.4062906,15.2062576 38.1338811,15.4438508 37.8600071,15.6916475 C38.973078,16.0655288 40.063448,16.4707492 41.1442984,16.8883593 C40.063448,16.4707492 38.973078,16.0655288 37.8600071,15.6916475 C37.5129047,16.0057661 37.1614087,16.3395627 36.8208969,16.7076136 C34.0045346,15.2623763 31.0739362,14.0372407 28.0671803,13.0343932 C27.2038181,12.7472407 26.3367945,12.4710203 25.4609835,12.2210373 C23.7298654,11.7261729 21.9958181,11.3209525 20.2661646,10.9820542 L20.6447551,13.4308678 C22.814511,13.8958508 25.1973614,14.497122 27.6871252,15.2784102 L23.974448,18.0916305 C23.974448,18.0916305 23.1564874,17.589478 21.1881094,16.9532237 L14.8589835,20.5980203 L22.3707472,27.995478 L17.162015,30.1002915 L20.7311646,34.5438678 L10.2390071,39.0428339 L18.9568417,49.4000034 L5.13572362,53.0178339 L8.48592047,56.8892915 L7.8246685,62.1833932 L14.9783457,65.2823085 L2.41455827,70.2732237 L6.01226693,75.295478 L4.68610157,80.5895797 L10.3210228,83.8714271 L0.154731496,87.4943593 L4.70440866,91.8840034 L2.27908583,97.5884271 L5.92732205,101.413241 L3.09704646,104.081427 C4.79447953,104.62002 6.52193622,105.115614 8.2852748,105.552902 C9.06808583,105.747495 9.85016457,105.923139 10.631511,106.092953 C13.4822906,106.710258 16.319889,107.172325 19.1311252,107.486444 L19.1318575,107.486444 C19.9073457,107.527986 20.6923535,107.562241 21.4964008,107.597224 C21.6626291,107.605241 21.8215346,107.622732 21.9767787,107.648241 C21.9833693,107.613986 21.9892276,107.579003 21.9950858,107.544749 C22.6468181,107.600139 23.2985504,107.648241 23.9495504,107.687597 C24.6005504,107.727681 25.2515504,107.758292 25.9003535,107.780885 C25.8842433,107.838461 25.8695976,107.896766 25.8534874,107.954342 C25.5657,108.954275 25.3072039,109.95858 25.0772669,110.966529 C25.1907709,111.860054 25.0201488,112.7718 24.5632039,113.493325 C24.547826,113.578597 24.537574,113.664597 24.5229283,113.751325 C23.7701409,118.060071 23.5380071,122.437325 23.8228654,126.858308 C23.8536213,127.334953 23.8931646,127.812325 23.935637,128.289698 C23.6039126,124.451037 23.6661567,120.642986 24.111385,116.880851 C26.7124559,118.157732 30.1571173,119.097902 33.9957472,119.433885 C37.988889,119.783715 41.6744717,119.413478 44.5062118,118.535986 C44.5413614,116.600258 44.7237,114.669631 45.0971646,112.760139 C45.6009756,110.187427 46.4020937,107.724037 47.4470622,105.375071 C41.8868339,106.946393 35.8865031,107.821698 29.6393929,107.954342 C29.3230465,107.961631 29.0103614,107.977664 28.6932827,107.981308 C29.0103614,107.977664 29.3230465,107.961631 29.6393929,107.954342 C35.8865031,107.821698 41.8868339,106.946393 47.4470622,105.375071 C47.4639047,105.338631 47.4770858,105.300003 47.4946606,105.262105 C47.9852906,105.124359 48.4788496,104.989529 48.9636213,104.840851 C49.6819913,104.619292 50.3937709,104.386071 51.0982276,104.14119 C51.8026843,103.89558 52.4990858,103.639037 53.1874323,103.370105 C53.8772433,103.101173 54.5575346,102.821308 55.2305031,102.529783 C56.0718969,102.165376 56.8993772,101.784207 57.7136764,101.385546 C58.1427945,101.174919 58.5572669,100.947529 58.9790622,100.728156 C59.3569205,100.531376 59.7421016,100.342614 60.1141016,100.138546 C60.4699913,99.9424949 60.8119677,99.7318678 61.1619992,99.5292576 C61.5845268,99.2851051 62.0143772,99.0475119 62.427385,98.7931559 C63.1831016,98.3296305 63.9227079,97.8500712 64.6469362,97.354478 C64.6476685,97.354478 64.6491331,97.3537492 64.6498654,97.3537492 L64.6505976,97.3522915 C66.0836764,96.3720373 67.454511,95.333478 68.7535819,94.2395288 C64.5034087,92.3365966 60.0606449,91.6639017 55.4267551,92.4342576 C52.6374874,92.8977831 51.7162748,88.6218339 54.5070071,88.1575797 C60.014511,87.241461 65.4949205,87.8959356 70.5593929,90.271139 C71.076385,90.5138339 71.4227551,90.8833424 71.6380465,91.303139 C72.0576449,92.1179525 71.9529283,93.1244441 71.4901252,93.8197322 L75.8750386,94.3933085 C76.1108339,94.4239186 76.3517551,94.4384949 76.6036606,94.4384949 C80.9072906,95.1352407 84.2816528,92.1594949 86.7794717,88.3660203 C85.4481803,89.411139 84.1146921,89.8622746 82.8932433,89.5590881 L82.8932433,89.5590881 Z" id="Fill-85" fill="#F7CEDB" mask="url(#mask-2)"></path>
                    </g>
                    <path d="M138,108.518 C138.335139,108.513 138.665635,108.492 139,108.482 C138.665635,108.492 138.335139,108.513 138,108.518" id="Fill-88" fill="#E7B7C8"></path>
                    <path d="M119.509,114.2425 C119.502,114.4135 119.498,114.5865 119.491,114.7575 C119.498,114.5865 119.502,114.4135 119.509,114.2425" id="Fill-90" fill="#E7B7C8"></path>
                    <path d="M119.5175,115 C119.5055,115.333994 119.4945,115.666997 119.4825,116 C119.4945,115.667988 119.5045,115.335976 119.5175,115.003964 L119.5175,115 Z" id="Fill-92" fill="#E7B7C8"></path>
                    <path d="M132.721983,113.777148 C132.736753,113.689814 132.745897,113.602481 132.761371,113.515147 C133.200272,112.782431 133.363453,111.856545 133.255135,110.949902 C133.475288,109.92632 133.72428,108.906439 134,107.890999 C131.870909,107.830309 129.716496,107.671184 127.5445,107.415103 L127.543796,107.415103 C124.843571,107.096853 122.118025,106.627619 119.379115,106 C119.225781,107.656382 119.096361,109.320904 119,110.995789 C123.035919,113.518847 128.027009,114.478039 132.721983,113.777148" id="Fill-94" fill="#E7B7C8"></path>
                    <path d="M119.5055,114.3465 L119.5055,114.3465 L119.5035,114.3465 C119.4995,114.4475 119.4985,114.5485 119.4945,114.6495 L119.4945,114.6535 C119.4985,114.5505 119.5015,114.4495 119.5055,114.3465" id="Fill-96" fill="#F7CEDB"></path>
                    <path d="M118.5,122.481 L118.5,122.519 L118.5,122.481 Z" id="Fill-98" fill="#F7CEDB"></path>
                    <path d="M125,126.275 C124.359034,126.538 123.678124,126.689 123,126.725 C123.679052,126.69 124.357176,126.538 125,126.275" id="Fill-100" fill="#F7CEDB"></path>
                    <path d="M133,114.766132 C128.311101,115.463 123.326467,114.509313 119.29577,112.000736 C119.294365,112.000736 119.294365,112.000736 119.29296,112 C119.290852,112.038265 119.289448,112.077266 119.28734,112.114796 C119.231144,113.096445 119.186186,114.082509 119.146849,115.070781 C119.141932,115.196615 119.139824,115.32392 119.134907,115.449754 C119.132097,115.524813 119.12999,115.599871 119.12718,115.67493 C119.118048,115.921446 119.111024,116.167962 119.102594,116.414478 C119.080115,117.139309 119.060447,117.865612 119.046397,118.593386 C119.044993,118.668445 119.043588,118.742032 119.042183,118.817091 C119.036563,119.086419 119.030943,119.355747 119.026729,119.625811 C119.026026,119.67585 119.024621,119.724417 119.023919,119.77372 C119.009167,120.872373 118.999333,121.973969 119.000035,123.081452 L119.000035,123.087338 L119.000035,123.115301 L119.000035,123.118981 C119.000738,123.391988 119.025324,123.645127 119.063256,123.889436 C119.075198,123.964494 119.091355,124.035138 119.106809,124.106517 C119.141229,124.276503 119.183377,124.43913 119.234656,124.593662 C119.257837,124.662834 119.281018,124.732742 119.307009,124.79897 C119.371635,124.962333 119.446095,125.116129 119.528985,125.262567 C119.550761,125.300832 119.569025,125.343513 119.592206,125.381042 C119.700385,125.555443 119.822612,125.715863 119.954674,125.863772 C119.995417,125.909396 120.042481,125.949133 120.084629,125.992549 C120.181568,126.088948 120.281317,126.180932 120.387388,126.264085 C120.449906,126.312652 120.513127,126.359748 120.577753,126.4039 C120.674692,126.469392 120.773739,126.528998 120.874893,126.58566 C120.949353,126.625397 121.021004,126.669549 121.097571,126.704871 C121.204345,126.754174 121.315333,126.794647 121.426321,126.833648 C121.591399,126.893253 121.759988,126.94182 121.93209,126.980086 C121.998121,126.994067 122.06345,127.011728 122.129481,127.022766 C122.25803,127.044842 122.38939,127.058824 122.520047,127.069126 C122.570623,127.073541 122.621903,127.076484 122.673182,127.078692 C122.818591,127.085315 122.964702,127.088258 123.111515,127.0809 C123.114325,127.0809 123.117837,127.080164 123.120647,127.080164 C123.633441,127.053672 124.147639,126.942556 124.633037,126.749023 C124.637251,126.747551 124.640764,126.746079 124.643574,126.744607 C124.805841,126.679851 124.963894,126.607 125.117029,126.523847 C125.117732,126.523847 125.118434,126.523847 125.118434,126.523111 C126.039355,126.150025 126.877386,125.49363 127.607941,124.773214 C128.108091,125.40459 128.686915,125.94619 129.33739,126.388447 C129.401314,126.453203 129.468047,126.51428 129.534078,126.576829 C130.212651,127.243527 131.033823,127.737295 132.013048,127.963942 C132.115607,127.98749 132.223785,127.98749 132.328451,128 C132.055196,123.536954 132.278577,119.116589 133,114.766132" id="Fill-102" fill="#D293A8"></path>
                    <path d="M154.0125,124 C154.2685,125.309606 154.7255,126.659161 154.9875,128 C154.7395,126.660614 154.2825,125.311785 154.0125,124" id="Fill-104" fill="#F7CEDB"></path>
                    <path d="M133.544,132.831 C133.544,132.839 133.548,132.845 133.549,132.852 C133.513,132.617 133.485,132.383 133.451,132.148 C133.484,132.376 133.508,132.603 133.544,132.831" id="Fill-106" fill="#F7CEDB"></path>
                    <path d="M135,107.583 C134.328248,107.552 133.655739,107.51 132.982473,107.455 C132.30845,107.401 131.635183,107.335 130.96116,107.259 C130.954344,107.306 130.948285,107.354 130.942227,107.4 C130.781673,107.366 130.617332,107.342 130.444661,107.331 C129.61387,107.283 128.801255,107.236 128,107.179 C130.338635,107.524 132.658336,107.739 134.951531,107.821 C134.968192,107.742 134.983339,107.662 135,107.583" id="Fill-108" fill="#E7B7C8"></path>
                    <path d="M135,107.583 C134.328248,107.552 133.655739,107.51 132.982473,107.455 C132.30845,107.401 131.635183,107.335 130.96116,107.259 C130.954344,107.306 130.948285,107.354 130.942227,107.4 C130.781673,107.366 130.617332,107.342 130.444661,107.331 C129.61387,107.283 128.801255,107.236 128,107.179 C130.338635,107.524 132.658336,107.739 134.951531,107.821 C134.968192,107.742 134.983339,107.662 135,107.583" id="Fill-110" fill="#F6E610"></path>
                    <path d="M154.712066,17.3776187 C156.302236,15.1183252 158.190236,13.2261005 160.419467,11.6160031 C161.981949,10.4867355 160.064017,8.17738716 158.510515,9.29982906 C156.092708,11.0464397 154.010146,13.1783209 152.286028,15.6272161 C151.171038,17.2115277 153.599321,18.9596551 154.712066,17.3776187" id="Fill-112" fill="#F7CEDB"></path>
                    <path d="M154.712066,17.3776187 C156.302236,15.1183252 158.190236,13.2261005 160.419467,11.6160031 C161.981949,10.4867355 160.064017,8.17738716 158.510515,9.29982906 C156.092708,11.0464397 154.010146,13.1783209 152.286028,15.6272161 C151.171038,17.2115277 153.599321,18.9596551 154.712066,17.3776187" id="Fill-114" fill="#FFFFFF"></path>
                    <path d="M160.655183,20.999288 C160.839252,20.7871041 160.991463,20.5279264 161.093409,20.2139227 C161.892692,17.7738077 163.639931,16.0044217 165.914597,14.9093249 C168.383244,13.7202405 166.199904,10.0518797 163.752496,11.2302837 C160.461203,12.8152548 158.151846,15.6683452 157,19.1131296 C158.243881,19.7155041 159.465815,20.3406634 160.655183,21 L160.655183,20.999288 Z" id="Fill-116" fill="#D293A8"></path>
                    <path d="M143.347386,119.638382 C139.479991,119.291167 136.009516,118.319567 133.388954,117 C132.940389,120.88715 132.877679,124.823257 133.211889,128.789491 C133.218529,128.867821 133.226644,128.945399 133.233284,129.023729 C133.282715,129.584847 133.340999,130.146717 133.405923,130.708588 C133.464206,131.207945 133.533557,131.707301 133.604383,132.207411 C133.629467,132.384408 133.649387,132.560652 133.676684,132.737648 C133.681849,132.77832 133.686276,132.819745 133.692915,132.860416 C133.900229,134.218396 134.959668,134.646201 135.974103,134.427779 C136.112066,134.45866 136.255194,134.482761 136.410126,134.488787 C138.201434,134.558832 139.674762,133.915618 141.220393,133.051724 C142.557971,132.303065 143.489776,131.250122 145.129103,132.125315 C145.88163,132.526006 146.436433,133.478775 147.155022,133.992443 C150.37613,136.292647 154.214753,134.453387 154.889075,130.512761 C155.070567,129.450028 155.007856,128.354907 154.855138,127.253008 C154.661842,125.863395 154.32468,124.463238 154.135811,123.106012 C154.090069,122.772354 154.051705,122.441709 154.028096,122.114077 C153.946204,120.976025 153.935875,119.83948 153.960222,118.703688 C153.952844,118.705948 153.943991,118.707454 153.936613,118.710467 C151.083653,119.617293 147.370451,119.999154 143.347386,119.638382" id="Fill-118" fill="#D293A8"></path>
                    <path d="M137,15.5858617 C134.525944,14.915233 132.156702,14.3991242 130,14 L130.540085,17.0234595 C132.496621,17.5695965 133.30966,18 133.30966,18 L137,15.5858617 Z" id="Fill-120" fill="#383838"></path>
                    <path d="M170.55556,100.168666 C170.209596,100.370774 169.872318,100.58088 169.51984,100.776445 C169.152887,100.980007 168.771458,101.168302 168.398714,101.365322 C167.981097,101.583424 167.571441,101.810251 167.147309,102.020356 C166.343197,102.41803 165.524608,102.798255 164.692992,103.161759 C164.027844,103.45329 163.355458,103.731734 162.673663,104.000727 C161.993316,104.268266 161.305007,104.524173 160.608736,104.769175 C159.912466,105.01345 159.208958,105.246092 158.498936,105.467103 C158.020521,105.615413 157.531974,105.749909 157.047045,105.887314 C157.030399,105.925118 157.016647,105.96365 157,106 C163.335916,104.194111 169.091366,101.485278 174,98 C173.284188,98.4936387 172.553176,98.9720102 171.806965,99.4343875 C171.398033,99.6881134 170.973178,99.9251181 170.55556,100.168666" id="Fill-122" fill="#F6E610"></path>
                    <path d="M164,103 C165.01563,102.681529 166.016219,102.348408 167,102 C166.016219,102.348408 165.01563,102.681529 164,103" id="Fill-124" fill="#F7CEDB"></path>
                    <path d="M164,103 C165.01563,102.681529 166.016219,102.348408 167,102 C166.016219,102.348408 165.01563,102.681529 164,103" id="Fill-126" fill="#F6E610"></path>
                    <path d="M168,100.905 C168.332903,100.634 168.672258,100.376 169,100.095 C168.672258,100.376 168.332903,100.634 168,100.905" id="Fill-128" fill="#F7CEDB"></path>
                    <path d="M168,100.905 C168.332903,100.634 168.672258,100.376 169,100.095 C168.672258,100.376 168.332903,100.634 168,100.905" id="Fill-130" fill="#F6E610"></path>
                    <path d="M170,100 C170.333719,99.6683168 170.673222,99.3455446 171,99 C170.673222,99.3455446 170.333719,99.6683168 170,100" id="Fill-132" fill="#F7CEDB"></path>
                    <path d="M170,100 C170.333719,99.6683168 170.673222,99.3455446 171,99 C170.673222,99.3455446 170.333719,99.6683168 170,100" id="Fill-134" fill="#F6E610"></path>
                    <path d="M169,100.918 C169.339623,100.649 169.665968,100.36 170,100.082 C169.665968,100.36 169.339623,100.649 169,100.918" id="Fill-136" fill="#F7CEDB"></path>
                    <path d="M169,100.918 C169.339623,100.649 169.665968,100.36 170,100.082 C169.665968,100.36 169.339623,100.649 169,100.918" id="Fill-138" fill="#F6E610"></path>
                    <path d="M171,100 C172.019446,99.3562753 173.018128,98.6902834 173.996045,98.0020243 C173.997034,98.0020243 173.999011,98.0010121 174,98 C173.999011,98.0010121 173.997034,98.0020243 173.996045,98.0020243 C173.019117,98.6902834 172.019446,99.3562753 171,100" id="Fill-140" fill="#F7CEDB"></path>
                    <path d="M171,100 C172.019446,99.3562753 173.018128,98.6902834 173.996045,98.0020243 C173.997034,98.0020243 173.999011,98.0010121 174,98 C173.999011,98.0010121 173.997034,98.0020243 173.996045,98.0020243 C173.019117,98.6902834 172.019446,99.3562753 171,100" id="Fill-142" fill="#F6E610"></path>
                    <path d="M167,101.9505 C167.338924,101.6615 167.666281,101.3495 168,101.0495 C167.666281,101.3495 167.338924,101.6615 167,101.9505" id="Fill-144" fill="#F7CEDB"></path>
                    <path d="M167,101.9505 C167.338924,101.6615 167.666281,101.3495 168,101.0495 C167.666281,101.3495 167.338924,101.6615 167,101.9505" id="Fill-146" fill="#F6E610"></path>
                    <path d="M180.737793,91.6059999 L180.737793,91.6059999 C180.52344,91.1786305 180.177851,90.8024564 179.663112,90.5553835 C174.62071,88.1373336 169.164913,87.4717948 163.680681,88.4044394 C160.90284,88.8763264 161.820038,93.2294099 164.596421,92.7582648 C169.210117,91.9732704 173.634248,92.6581001 177.865899,94.5953595 C178.008072,94.6606521 178.153162,94.7155571 178.295335,94.7838175 C179.309502,95.2698018 180.126814,94.8810144 180.590517,94.1679901 C181.051303,93.4601596 181.154834,92.4355119 180.737793,91.6059999" id="Fill-148" fill="#383838"></path>
                    <path d="M163,65.8681431 C163.672506,66.0015118 164.348058,66.0332959 165,65.9653651 L163.612338,65 L163,65.8681431 Z" id="Fill-150" fill="#383838"></path>
                    <path d="M157.810493,60 C157.312136,60.7147541 157.015669,61.504918 157.000209,62.3291803 C156.995662,62.5836066 157.065686,62.8052459 157.182091,63 L159,60.7291803 L157.810493,60 Z" id="Fill-152" fill="#383838"></path>
                    <path d="M169.968163,60 C170.153204,58.5054564 169.52223,57.0510999 168.320295,56 L167,57.9019574 L169.968163,60 Z" id="Fill-154" fill="#383838"></path>
                    <path d="M174.181222,27.4418101 C174.968717,24.9404894 176.689488,23.1279804 178.930606,22.0057425 C181.362843,20.7871878 179.211705,17.0279099 176.800393,18.2362492 C173.528347,19.8743662 171.238403,22.8331923 170.114008,26.4056737 C169.272106,29.0806568 173.341413,30.1087668 174.181222,27.4418101" id="Fill-156" fill="#D293A8"></path>
                    <path d="M200.850347,73.6165476 C199.40469,78.5943274 197.687834,82.4756929 197.015763,82.285394 C196.343692,82.0950951 196.970563,77.9048599 198.415479,72.9270801 C199.860394,67.9493003 201.57651,64.0679348 202.249322,64.2582337 C202.921393,64.4485326 202.294522,68.6380359 200.850347,73.6165476 M201.601703,55.3610286 C201.375703,55.2439216 201.140071,55.1538956 200.894065,55.0931464 C197.695985,54.3063336 193.735434,58.5756161 191.028626,65.1965536 L191.027885,65.1972855 C190.334325,66.8953372 189.720051,68.7463598 189.225075,70.7079023 C188.315889,74.3089428 187.929096,77.7665273 188.010605,80.73519 L188.010605,80.7359219 C188.147686,85.693208 189.593343,89.2876613 192.106014,89.9068646 C193.341973,90.2113428 194.691302,89.758285 196.039148,88.7087135 C199.073471,86.3460796 202.094456,80.9489102 203.775004,74.2921087 C206.052784,65.2675497 205.055422,57.1410552 201.601703,55.3610286" id="Fill-158" fill="#D293A8"></path>
                    <path d="M201.719465,65.0066939 C201.020965,64.8168231 199.236594,68.6894582 197.734857,73.6560416 C196.233121,78.6233553 195.581598,82.8034352 196.280868,82.9933061 C196.979368,83.1831769 198.762969,79.3105418 200.265476,74.3439584 C201.767213,69.3766447 202.417965,65.1965648 201.719465,65.0066939" id="Fill-160" fill="#383838"></path>
                </g>
            </g>
        </g>
    </g>
</svg>