<?xml version="1.0" encoding="UTF-8"?>
<svg width="253px" height="125px" viewBox="0 0 253 125" version="1.1" xmlns="http://www.w3.org/2000/svg" xmlns:xlink="http://www.w3.org/1999/xlink">
    <!-- Generator: Sketch 53.2 (72643) - https://sketchapp.com -->
    <title>Group 140</title>
    <desc>Created with Sketch.</desc>
    <defs>
        <polygon id="path-1" points="0.291049086 6.60574413e-05 47.9660256 6.60574413e-05 47.9660256 47.5613577 0.291049086 47.5613577"></polygon>
        <polygon id="path-3" points="0 6.60574413e-05 80.9947462 6.60574413e-05 80.9947462 47.5613577 0 47.5613577"></polygon>
        <polygon id="path-5" points="0.66011201 6.60574413e-05 35.6763029 6.60574413e-05 35.6763029 10.3155961 0.66011201 10.3155961"></polygon>
    </defs>
    <g id="Page-1" stroke="none" stroke-width="1" fill="none" fill-rule="evenodd">
        <g id="B-1b" transform="translate(-61.000000, -230.000000)">
            <g id="bus" transform="translate(61.000000, 230.000000)">
                <g id="Group-140" transform="translate(0.000000, 0.000000)">
                    <path d="M27.1311123,68.8972507 L13.7373055,68.8972507 C10.2270131,68.8972507 7.35483551,66.0250731 7.35483551,62.5147807 L7.35483551,17.5759034 C7.35483551,14.065611 10.2270131,11.1934334 13.7373055,11.1934334 L27.1311123,11.1934334 C30.6414047,11.1934334 33.5135822,14.065611 33.5135822,17.5759034 L33.5135822,62.5147807 C33.5135822,66.0250731 30.6414047,68.8972507 27.1311123,68.8972507 L27.1311123,68.8972507 Z M37.7412585,17.5759034 C37.7412585,14.065611 40.613436,11.1934334 44.1237285,11.1934334 L57.5175352,11.1934334 C61.0278277,11.1934334 63.9000052,14.065611 63.9000052,17.5759034 L63.9000052,62.5147807 C63.9000052,66.0250731 61.0278277,68.8972507 57.5175352,68.8972507 L44.1237285,68.8972507 C40.613436,68.8972507 37.7412585,66.0250731 37.7412585,62.5147807 L37.7412585,17.5759034 Z M67.467107,17.5759034 C67.467107,14.065611 70.3392846,11.1934334 73.849577,11.1934334 L87.2433838,11.1934334 C90.7536762,11.1934334 93.6258538,14.065611 93.6258538,17.5759034 L93.6258538,62.5147807 C93.6258538,66.0250731 90.7536762,68.8972507 87.2433838,68.8972507 L73.849577,68.8972507 C70.3392846,68.8972507 67.467107,66.0250731 67.467107,62.5147807 L67.467107,17.5759034 Z M130.882251,17.5759034 C130.882251,14.065611 133.754428,11.1934334 137.264721,11.1934334 L150.658527,11.1934334 C154.16882,11.1934334 157.040997,14.065611 157.040997,17.5759034 L157.040997,62.5147807 C157.040997,66.0250731 154.16882,68.8972507 150.658527,68.8972507 L137.264721,68.8972507 C133.754428,68.8972507 130.882251,66.0250731 130.882251,62.5147807 L130.882251,17.5759034 Z M161.268674,17.5759034 C161.268674,14.065611 164.140851,11.1934334 167.651144,11.1934334 L181.04495,11.1934334 C184.555243,11.1934334 187.42742,14.065611 187.42742,17.5759034 L187.42742,62.5147807 C187.42742,66.0250731 184.555243,68.8972507 181.04495,68.8972507 L167.651144,68.8972507 C164.140851,68.8972507 161.268674,66.0250731 161.268674,62.5147807 L161.268674,17.5759034 Z M57.1575222,76.1345039 C68.0094386,76.1345039 77.1590548,83.3882715 80.0431227,93.3094386 L96.8355849,93.3094386 L96.8355849,17.1042533 C96.8355849,11.8725039 101.116107,7.59198172 106.347856,7.59198172 L118.36965,7.59198172 C123.601399,7.59198172 127.882582,11.8725039 127.882582,17.1042533 L127.882582,93.3094386 L159.781721,93.3094386 C162.664467,83.3882715 171.814744,76.1345039 182.666661,76.1345039 C193.518577,76.1345039 202.668193,83.3882715 205.552261,93.3094386 L216.666426,93.3094386 L216.666426,64.9470157 C215.70529,67.2596867 213.421023,68.8972507 210.770799,68.8972507 L197.376992,68.8972507 C193.8667,68.8972507 190.994522,66.0250731 190.994522,62.5147807 L190.994522,17.5759034 C190.994522,14.065611 193.8667,11.1934334 197.376992,11.1934334 L210.770799,11.1934334 C213.421023,11.1934334 215.70529,12.8309974 216.666426,15.1436684 L216.666426,0 L203.18212,0 L3.30287206,0 L3.30287206,77.8242533 C7.41362663,77.773389 11.9848016,77.5402063 11.9848016,79.8693916 L11.9848016,86.3694439 C11.9848016,88.896141 7.27226371,89.2713473 6.00792428,89.2713473 L3.30287206,89.2713473 L3.30287206,93.3094386 L34.2725822,93.3094386 C37.155329,83.3882715 46.3056057,76.1345039 57.1575222,76.1345039 L57.1575222,76.1345039 Z" id="Fill-1" fill="#6BC0C6"></path>
                    <path d="M99.1743486,17.5759695 C99.1743486,14.065677 102.047187,11.1934995 105.556819,11.1934995 L118.950625,11.1934995 C122.461578,11.1934995 125.333756,14.065677 125.333756,17.5759695 L125.333756,62.5148467 C125.333756,66.0251392 122.461578,68.8973167 118.950625,68.8973167 L105.556819,68.8973167 C102.047187,68.8973167 99.1743486,66.0251392 99.1743486,62.5148467 L99.1743486,17.5759695 Z M158.828842,99.9720582 C158.828842,99.9535621 158.830163,99.9344055 158.830163,99.9152488 C158.830163,99.8960922 158.828842,99.8769355 158.828842,99.8584394 L158.830824,99.8584394 C158.841393,97.5854029 159.176965,95.3896535 159.78139,93.3095047 L127.882252,93.3095047 L127.882252,17.1043193 C127.882252,11.87257 123.60173,7.59204778 118.36998,7.59204778 L106.347526,7.59204778 C101.115777,7.59204778 96.8352546,11.87257 96.8352546,17.1043193 L96.8352546,93.3095047 L80.0427924,93.3095047 C80.647218,95.3896535 80.9827898,97.5854029 80.993359,99.8584394 L80.9946802,99.8584394 C80.9946802,99.8769355 80.9946802,99.8960922 80.9946802,99.9152488 C80.9946802,99.9344055 80.9946802,99.9535621 80.9946802,99.9720582 L80.993359,99.9720582 C80.9880744,101.214599 80.8856854,102.434019 80.6967611,103.625035 L159.126761,103.625035 C158.938497,102.434019 158.836108,101.214599 158.830824,99.9720582 L158.828842,99.9720582 Z" id="Fill-3" fill="#63B1BC"></path>
                    <path d="M33.3207606,99.9152488 L33.3207606,99.9152488 C33.3207606,99.8960922 33.3194394,99.8769355 33.3194394,99.8584394 L33.3214211,99.8584394 C33.3326509,97.5854029 33.6675621,95.3896535 34.2719877,93.3095047 L3.30293812,93.3095047 L6.60574413e-05,93.3095047 L6.60574413e-05,99.9152488 L3.30293812,99.9152488 L33.3207606,99.9152488 Z" id="Fill-5" fill="#63B1BC"></path>
                    <path d="M221.752849,11.1934334 C229.648034,11.8104099 236.636911,15.4891488 241.410222,20.9996606 C245.512389,25.7359791 247.978974,31.8172272 247.978974,38.4507154 C247.978974,39.3464543 247.931413,40.2309634 247.842896,41.1049034 C247.886493,41.322893 247.938018,41.5441854 247.978974,41.7608538 L247.978974,67.2055196 L221.752849,67.2055196 L221.752849,11.1934334 Z M251.801057,99.9151828 L251.801057,93.3094386 L251.801057,89.6340026 L251.755478,89.6340026 L251.755478,90.4471697 L241.358037,90.4471697 L241.358037,73.338953 L251.755478,73.338953 L251.755478,74.4196527 C251.770671,74.4196527 251.785864,74.4196527 251.801057,74.4196527 L251.801057,62.1957232 L251.801057,33.9938198 C251.755478,33.7527102 251.698668,33.5076371 251.650446,33.2665274 C251.747551,32.2981253 251.801057,31.3171723 251.801057,30.324329 C251.801057,22.9721358 249.06694,16.2316345 244.520206,10.9820496 C238.709133,4.27325587 229.939347,0 220.124533,0 L216.666426,0 L216.666426,15.1436684 C216.978217,15.8947415 217.153269,16.7151749 217.153269,17.5759034 L217.153269,62.5147807 C217.153269,63.3755091 216.978217,64.1959426 216.666426,64.9470157 L216.666426,93.3094386 L205.552261,93.3094386 C206.156687,95.3895875 206.491598,97.5853368 206.502167,99.8583734 L206.504149,99.8583734 C206.504149,99.8768695 206.503488,99.8960261 206.503488,99.9151828 C206.503488,99.9343394 206.504149,99.9534961 206.504149,99.9719922 L206.502167,99.9719922 C206.496883,101.214533 206.395154,102.434614 206.20623,103.624969 L217.328982,103.624969 L217.328982,99.9151828 L251.801057,99.9151828 Z" id="Fill-7" fill="#63B1BC"></path>
                    <path d="M184.652942,116.12733 L184.652942,116.089017 C184.569049,116.099586 184.485156,116.120725 184.401263,116.129312 C184.492422,108.643022 184.090793,105.165758 185.229623,104.490651 C185.526221,104.278607 185.945686,104.284552 186.518404,104.472816 C186.604279,104.499239 186.696759,104.533589 186.789239,104.567939 C186.80113,104.572563 186.811699,104.575866 186.822929,104.58049 C188.43473,105.196805 191.160921,107.054341 195.762482,109.711171 C193.144626,113.18249 189.18184,115.576411 184.652942,116.12733 M182.665934,104.476779 C182.169843,104.476779 181.772837,104.07449 181.772837,103.583022 C181.772837,103.08627 182.169843,102.688604 182.665934,102.688604 C183.157401,102.688604 183.560352,103.08627 183.560352,103.583022 C183.560352,104.07449 183.157401,104.476779 182.665934,104.476779 M180.680247,116.12733 C180.618814,116.120064 180.559362,116.10355 180.497268,116.095623 C180.495947,116.14979 180.493965,116.199993 180.493305,116.254821 C178.3722,115.951617 176.278179,115.228949 174.328824,114.048503 C174.31231,114.037933 174.296456,114.028025 174.280602,114.018116 C174.263427,114.008208 174.247574,113.99896 174.231059,113.989051 C172.281044,112.807944 170.667921,111.291265 169.417454,109.551973 C173.831412,107.124362 176.550997,105.401584 178.211681,104.731761 C181.550224,103.278497 180.680247,106.14539 180.680247,116.12733 M167.497164,106.152657 C167.45819,106.173795 167.422519,106.192291 167.382884,106.21343 C166.602746,104.218495 166.199796,102.03992 166.267835,99.7615992 C166.267835,99.7424426 166.269156,99.7232859 166.269816,99.7047898 C166.270477,99.6856332 166.270477,99.6664765 166.271138,99.6473198 C166.277083,99.4438629 166.306148,99.2476723 166.31936,99.0461971 C166.416464,97.0664556 166.840553,95.1758916 167.579075,93.4418838 C167.610783,93.4603799 167.639848,93.4768943 167.671555,93.4947298 C167.703923,93.4220666 167.727704,93.3447794 167.761393,93.2721162 C170.774934,95.1329543 173.067127,96.4329648 174.655148,97.4304321 C176.414918,98.4695157 177.308015,99.1697245 177.324529,99.8587037 C177.335098,99.9564687 177.323208,100.053573 177.298767,100.151999 C177.215534,100.757745 176.460498,101.36085 175.012519,102.186568 C173.393451,103.168842 170.92026,104.462247 167.58436,106.388482 C167.551331,106.311855 167.528871,106.229944 167.497164,106.152657 M171.960004,87.5799465 C174.362514,85.5037611 177.366806,84.1059856 180.680247,83.7030352 L180.680247,83.8582702 C180.685532,83.8576097 180.690816,83.8562885 180.696762,83.8556279 C180.690816,84.291607 180.687514,84.7104112 180.685532,85.1199674 C180.72979,91.308889 181.01714,94.3904687 180.137916,95.2320405 C180.058647,95.3403747 179.971451,95.4328551 179.868401,95.4942885 C178.757315,96.2869778 176.027822,94.1255783 169.408205,90.1945 C170.144746,89.2393094 171.004814,88.3680117 171.960004,87.5799465 M184.60472,83.7301188 C184.620574,83.7321005 184.637088,83.7373851 184.652942,83.7393668 L184.652942,83.7030352 C189.186464,84.2546149 193.144626,86.647876 195.762482,90.1191945 C195.683874,90.1647742 195.613192,90.2063903 195.535905,90.2513094 C195.582145,90.3134034 195.635652,90.3702128 195.680571,90.4329674 C189.121067,94.0403642 186.291166,96.1026775 185.143749,95.4440849 C183.906493,94.8674034 184.44354,91.4277924 184.60472,83.7301188 M180.431211,99.9723225 C180.431211,99.9531658 180.433853,99.9346697 180.434514,99.9161736 C180.433853,99.897017 180.431211,99.8778603 180.431211,99.8580431 C180.431211,98.6214478 181.429999,97.6233198 182.665934,97.6233198 C183.897905,97.6233198 184.901318,98.6214478 184.901318,99.8580431 C184.901318,99.8771997 184.898675,99.8956958 184.898015,99.9141919 C184.898675,99.9333486 184.901318,99.9525052 184.901318,99.9723225 C184.901318,101.208918 183.90319,102.207046 182.666595,102.207046 C181.435284,102.207046 180.431211,101.208918 180.431211,99.9723225 M178.847153,100.155962 C179.319464,100.007333 179.821501,100.260333 179.974754,100.731983 C180.128668,101.203633 179.870383,101.70567 179.398733,101.859584 C178.932367,102.013497 178.425046,101.755213 178.271793,101.282902 C178.121843,100.816537 178.375503,100.310537 178.847153,100.155962 M179.974754,99.0983825 C179.821501,99.5700326 179.319464,99.8230326 178.847814,99.6744034 C178.380788,99.519829 178.122503,99.013829 178.277078,98.5468029 C178.425046,98.0751527 178.932367,97.8168681 179.398733,97.970782 C179.871044,98.1246958 180.128668,98.6267324 179.974754,99.0983825 M181.003268,97.5684922 C180.600318,97.8565026 180.044114,97.7673251 179.75148,97.3696593 C179.463469,96.972654 179.552647,96.4118264 179.950313,96.1238159 C180.351942,95.8305209 180.908145,95.9196984 181.20144,96.3173642 C181.489451,96.719654 181.400273,97.2758577 181.003268,97.5684922 M183.560352,96.2473433 C183.560352,96.7440953 183.162686,97.1417611 182.666595,97.1417611 C182.174467,97.1417611 181.772837,96.7440953 181.772837,96.2473433 C181.772837,95.755876 182.174467,95.3535862 182.666595,95.3535862 C183.162686,95.3535862 183.560352,95.755876 183.560352,96.2473433 M185.576425,97.3696593 C185.289075,97.7673251 184.727587,97.8565026 184.330581,97.5684922 C183.927631,97.2758577 183.843738,96.719654 184.131749,96.3173642 C184.424383,95.9196984 184.980587,95.8305209 185.382877,96.1238159 C185.780542,96.4118264 185.86972,96.972654 185.576425,97.3696593 M186.485375,99.6744034 C186.014386,99.8230326 185.512349,99.5700326 185.357775,99.0983825 C185.203861,98.6267324 185.462806,98.1246958 185.933796,97.970782 C186.400822,97.8168681 186.907482,98.0751527 187.061396,98.5468029 C187.210686,99.013829 186.957025,99.519829 186.485375,99.6744034 M187.056772,101.282902 C186.907482,101.755213 186.400822,102.013497 185.933796,101.859584 C185.462806,101.70567 185.203861,101.203633 185.357775,100.731983 C185.512349,100.260333 186.014386,100.007333 186.485375,100.155962 C186.951741,100.310537 187.210686,100.816537 187.056772,101.282902 M181.20144,103.513001 C180.908806,103.910007 180.351942,103.999845 179.950313,103.70655 C179.552647,103.418539 179.463469,102.857711 179.756764,102.460046 C180.044114,102.06304 180.605602,101.973863 181.003268,102.261873 C181.405558,102.554508 181.489451,103.110711 181.20144,103.513001 M184.131749,103.513001 C183.843738,103.110711 183.932916,102.554508 184.330581,102.261873 C184.732871,101.973863 185.289075,102.06304 185.581709,102.460046 C185.86972,102.857711 185.780542,103.418539 185.382877,103.70655 C184.980587,103.999845 184.424383,103.910007 184.131749,103.513001 M199.055446,99.9723225 C199.055446,102.251965 198.593704,104.416667 197.754114,106.388482 C197.673524,106.342242 197.6002,106.300625 197.520271,106.255046 C197.456856,106.406317 197.405331,106.563534 197.336631,106.712824 C190.966051,102.780424 187.777459,101.333766 187.784725,100.010636 C187.734521,99.3711997 188.437373,98.7588473 189.887994,97.913312 C191.484602,96.8993303 194.095853,95.5510979 197.74883,93.4418838 C198.58842,95.4136984 199.055446,97.5784008 199.055446,99.8580431 C199.055446,99.8771997 199.054125,99.8956958 199.054125,99.9148525 C199.054125,99.9340091 199.055446,99.9531658 199.055446,99.9723225 M200.54438,99.9155131 C200.513333,90.0689909 192.520383,82.093876 182.666595,82.093876 C172.812806,82.093876 164.820516,90.0689909 164.789469,99.9155131 C164.820516,109.761375 172.812806,117.73649 182.665934,117.73649 C192.520383,117.73649 200.513333,109.761375 200.54438,99.9155131" id="Fill-9" fill="#FFFFFF"></path>
                    <g id="Group-13" transform="translate(158.537859, 76.134504)">
                        <mask id="mask-2" fill="white">
                            <use xlink:href="#path-1"></use>
                        </mask>
                        <g id="Clip-12"></g>
                        <path d="M6.25141201,23.7807449 C6.28245901,13.9342227 14.2747488,5.95910783 24.1285373,5.95910783 C33.9823258,5.95910783 41.9752762,13.9342227 42.0063232,23.7807449 C41.9752762,33.6272671 33.9823258,41.602382 24.1278768,41.602382 C14.2747488,41.602382 6.28245901,33.6272671 6.25141201,23.7807449 L6.25141201,23.7807449 Z M47.9660256,23.8375543 C47.9660256,23.8190582 47.965365,23.7999016 47.965365,23.7807449 C47.965365,23.7615883 47.9660256,23.7424316 47.9660256,23.7239355 L47.9640439,23.7239355 C47.9541352,21.450899 47.6185634,19.2551496 47.0141379,17.1750008 C44.1307305,7.25383368 34.9804538,6.60574413e-05 24.1285373,6.60574413e-05 C13.2772815,6.60574413e-05 4.12634413,7.25383368 1.24359739,17.1750008 C0.639171802,19.2551496 0.3036,21.450899 0.292370235,23.7239355 L0.291049086,23.7239355 C0.291049086,23.7424316 0.292370235,23.7615883 0.292370235,23.7807449 C0.292370235,23.7999016 0.291049086,23.8190582 0.291049086,23.8375543 L0.292370235,23.8375543 C0.298315405,25.0800948 0.400704439,26.2995151 0.588968146,27.4905308 C2.39497859,38.8656222 12.2454642,47.5614238 24.1278768,47.5614238 C36.012271,47.5614238 45.8627567,38.8656222 47.6681065,27.4905308 C47.8570308,26.2995151 47.9594198,25.0800948 47.9640439,23.8375543 L47.9660256,23.8375543 Z" id="Fill-11" fill="#414242" mask="url(#mask-2)"></path>
                    </g>
                    <path d="M178.276879,98.547001 C178.122966,99.0140272 178.38059,99.5200272 178.847616,99.6746016 C179.319266,99.8232308 179.821302,99.5695702 179.974556,99.0979201 C180.12913,98.6269305 179.870845,98.124894 179.398535,97.9709802 C178.932169,97.8170663 178.425509,98.0753509 178.276879,98.547001" id="Fill-14" fill="#414242"></path>
                    <path d="M184.901318,99.9723225 C184.901318,99.9525052 184.898675,99.9333486 184.898015,99.9141919 C184.898675,99.8956958 184.901318,99.8771997 184.901318,99.8580431 C184.901318,98.6214478 183.897905,97.6233198 182.665934,97.6233198 C181.429999,97.6233198 180.431211,98.6214478 180.431211,99.8580431 C180.431211,99.8778603 180.433853,99.897017 180.434514,99.9161736 C180.433853,99.9346697 180.431211,99.9531658 180.431211,99.9723225 C180.431211,101.208918 181.435284,102.207046 182.666595,102.207046 C183.90319,102.207046 184.901318,101.208918 184.901318,99.9723225" id="Fill-16" fill="#414242"></path>
                    <path d="M185.934126,97.9709141 C185.462476,98.1248279 185.204191,98.6268645 185.358105,99.0985146 C185.512019,99.5695042 186.014055,99.8231648 186.485705,99.6745355 C186.957356,99.5199611 187.211016,99.0139611 187.061726,98.546935 C186.907813,98.0752849 186.401152,97.8170003 185.934126,97.9709141" id="Fill-18" fill="#414242"></path>
                    <path d="M181.772639,96.2475415 C181.772639,96.7442935 182.174268,97.1419593 182.667057,97.1419593 C183.162488,97.1419593 183.560154,96.7442935 183.560154,96.2475415 C183.560154,95.7560742 183.162488,95.3537843 182.667057,95.3537843 C182.174268,95.3537843 181.772639,95.7560742 181.772639,96.2475415" id="Fill-20" fill="#414242"></path>
                    <path d="M185.398664,90.9403546 C185.421124,90.2804407 185.447547,89.6231692 185.47397,88.9652371 C186.454262,89.2420178 187.387654,89.6443076 188.253006,90.1595556 C189.123643,90.6906574 189.923599,91.3366992 190.62645,92.0864512 C190.049769,92.4160778 189.473087,92.7457044 188.893763,93.0693859 C188.251685,93.429399 187.605643,93.7867697 186.933839,94.099882 C186.712547,94.2075556 185.894095,94.5609629 185.583625,94.5708715 C185.448868,94.290788 185.390737,93.3957097 185.380829,93.1473337 C185.355066,92.4121144 185.376865,91.6762345 185.398664,90.9403546 M185.143683,95.4441509 C186.291761,96.102083 189.121001,94.0404303 195.680505,90.4330334 C195.635586,90.3702789 195.582079,90.3134695 195.535839,90.2513755 C195.613126,90.2064564 195.683808,90.1648402 195.762416,90.1192606 C193.14522,86.647942 189.186398,84.2540204 184.652876,83.7031013 L184.652876,83.7394329 C184.637022,83.7374512 184.620508,83.7321666 184.604654,83.7301849 C184.443474,91.4278585 183.906427,94.8674695 185.143683,95.4441509" id="Fill-22" fill="#414242"></path>
                    <path d="M179.756698,102.460112 C179.463403,102.857778 179.552581,103.418605 179.950246,103.706616 C180.351876,103.999911 180.90874,103.910073 181.202035,103.513067 C181.489385,103.110778 181.405492,102.554574 181.003202,102.261939 C180.605536,101.973929 180.044709,102.063107 179.756698,102.460112" id="Fill-24" fill="#414242"></path>
                    <path d="M171.182178,99.8713867 C171.215207,98.8527809 171.383653,97.8374781 171.69016,96.8565251 C172.260896,97.1960603 172.832293,97.5362561 173.398405,97.881076 C174.028593,98.2622274 174.65746,98.6480029 175.260564,99.0786974 C175.463361,99.2180786 176.174799,99.7564467 176.335319,100.021998 C176.158285,100.276979 175.407873,100.768447 175.197149,100.900562 C174.568943,101.284355 173.918277,101.627854 173.266951,101.971353 C172.681682,102.276538 172.097074,102.577099 171.511144,102.877661 C171.269374,101.889442 171.160379,100.878763 171.182178,99.8713867 M175.012849,102.1867 C176.460168,101.360982 177.215865,100.757878 177.299097,100.152131 C177.323538,100.053705 177.334768,99.9559402 177.32486,99.8581752 C177.307685,99.1698567 176.415249,98.4689872 174.655478,97.4305642 C173.067457,96.4330969 170.775264,95.1330864 167.761063,93.2722483 C167.728034,93.3449115 167.703593,93.4221987 167.671886,93.4948619 C167.640178,93.4770264 167.611113,93.460512 167.579405,93.4420159 C166.840883,95.1760238 166.416134,97.0659272 166.31969,99.0463292 C166.305818,99.2478044 166.276752,99.443995 166.270807,99.647452 C166.270147,99.6666086 166.270147,99.6857653 166.269486,99.7049219 C166.269486,99.723418 166.268165,99.7425747 166.268165,99.7610708 C166.200126,102.040052 166.602416,104.218627 167.383215,106.213562 C167.422849,106.192423 167.45786,106.173927 167.497494,106.152789 C167.529202,106.230076 167.551661,106.311987 167.58469,106.388614 C170.920591,104.462379 173.393781,103.168974 175.012849,102.1867" id="Fill-26" fill="#414242"></path>
                    <path d="M185.383207,103.706748 C185.780873,103.418737 185.86939,102.857249 185.58204,102.460244 C185.288745,102.063239 184.733202,101.973401 184.330251,102.261411 C183.933246,102.554706 183.844068,103.11091 184.131418,103.513199 C184.424713,103.910205 184.980917,103.999382 185.383207,103.706748" id="Fill-28" fill="#414242"></path>
                    <path d="M185.358039,100.732247 C185.204125,101.203897 185.46241,101.705934 185.93406,101.859848 C186.401086,102.013101 186.907746,101.755477 187.056376,101.283166 C187.21095,100.816801 186.952005,100.31014 186.485639,100.156226 C186.013989,100.006937 185.511953,100.260597 185.358039,100.732247" id="Fill-30" fill="#414242"></path>
                    <path d="M184.131749,96.3172321 C183.843738,96.7195219 183.927631,97.2757256 184.330581,97.5690206 C184.727587,97.8570311 185.289075,97.767193 185.577085,97.3701877 C185.86972,96.9731825 185.780542,96.4116943 185.383537,96.1236838 C184.980587,95.8310493 184.424383,95.9195663 184.131749,96.3172321" id="Fill-32" fill="#414242"></path>
                    <path d="M183.560154,103.58289 C183.560154,103.086138 183.157864,102.688472 182.665736,102.688472 C182.170305,102.688472 181.772639,103.086138 181.772639,103.58289 C181.772639,104.074357 182.170305,104.476647 182.665736,104.476647 C183.157864,104.476647 183.560154,104.074357 183.560154,103.58289" id="Fill-34" fill="#414242"></path>
                    <path d="M179.950246,96.1236838 C179.552581,96.4116943 179.463403,96.9731825 179.751414,97.3701877 C180.044709,97.767193 180.600252,97.8570311 181.003202,97.5690206 C181.400207,97.2757256 181.489385,96.7195219 181.202035,96.3172321 C180.908079,95.9195663 180.351876,95.8310493 179.950246,96.1236838" id="Fill-36" fill="#414242"></path>
                    <path d="M179.398667,101.859517 C179.870317,101.705604 180.128602,101.203567 179.974688,100.731917 C179.821434,100.260927 179.319398,100.007267 178.847087,100.155896 C178.375437,100.31047 178.121777,100.81647 178.271727,101.282836 C178.42498,101.755147 178.932301,102.013431 179.398667,101.859517" id="Fill-38" fill="#414242"></path>
                    <path d="M179.699294,109.044916 C179.676835,109.70483 179.649751,110.362101 179.623989,111.020033 C178.643696,110.743252 177.710305,110.340963 176.844952,109.825715 C175.973655,109.294613 175.173699,108.648571 174.470848,107.898819 C175.04819,107.569192 175.625532,107.239566 176.204195,106.915884 C176.846273,106.555871 177.492315,106.198501 178.163459,105.885388 C178.385412,105.777715 179.203203,105.424307 179.514333,105.414399 C179.64843,105.694482 179.706561,106.589561 179.71713,106.837937 C179.742232,107.573156 179.720433,108.309036 179.699294,109.044916 M178.211681,104.732025 C176.550997,105.401848 173.831412,107.124626 169.417454,109.552237 C170.667921,111.290869 172.281044,112.808208 174.231059,113.988655 C174.247574,113.999224 174.263427,114.008472 174.280602,114.01838 C174.296456,114.027628 174.31231,114.038198 174.328824,114.048106 C176.278179,115.229213 178.3722,115.951882 180.493305,116.255085 C180.493965,116.200258 180.495947,116.150054 180.497268,116.095226 C180.559362,116.103814 180.618814,116.119668 180.680247,116.127595 C180.680247,106.144994 181.550224,103.278762 178.211681,104.732025" id="Fill-40" fill="#414242"></path>
                    <path d="M187.112062,105.828116 C186.890109,105.715158 186.082887,105.324759 185.773078,105.304281 C185.628412,105.57908 185.532629,106.46491 185.518096,106.711304 C185.459305,107.449827 185.452039,108.188349 185.449396,108.924229 C185.446093,109.587445 185.448075,110.251983 185.450717,110.916521 C186.450167,110.67343 187.406018,110.296242 188.297133,109.79949 C189.172394,109.300096 189.982919,108.685761 190.704926,107.969699 C190.14608,107.622237 189.587234,107.275435 189.024425,106.930615 C188.394237,106.549464 187.76471,106.168312 187.112062,105.828116" id="Fill-42" fill="#A4AAAF"></path>
                    <path d="M188.297067,109.799622 C187.405952,110.295713 186.450101,110.673562 185.450651,110.916653 C185.44867,110.252115 185.446027,109.587578 185.44933,108.924361 C185.451973,108.188481 185.459239,107.449959 185.51803,106.711437 C185.532563,106.465042 185.628346,105.578551 185.773012,105.303752 C186.082821,105.324891 186.890043,105.71463 187.111996,105.828249 C187.764644,106.168444 188.394171,106.549596 189.024359,106.930747 C189.587168,107.275567 190.146014,107.622369 190.705521,107.96917 C189.982852,108.685893 189.172328,109.300228 188.297067,109.799622 M186.823325,104.580423 C186.811435,104.575799 186.800866,104.572497 186.789636,104.568533 C186.696495,104.533523 186.604014,104.499173 186.5188,104.47275 C185.945422,104.284486 185.526617,104.278541 185.229359,104.490585 C184.091189,105.165692 184.492158,108.643617 184.401659,116.129907 C184.484892,116.120658 184.568785,116.100181 184.652678,116.088951 L184.652678,116.127264 C189.182236,115.576345 193.145022,113.182423 195.762879,109.711105 C191.160657,107.054275 188.434466,105.196739 186.823325,104.580423" id="Fill-44" fill="#414242"></path>
                    <path d="M177.985302,94.1571538 C178.207255,94.270112 179.015137,94.6605115 179.324286,94.6809893 C179.469613,94.4061903 179.564735,93.5203601 179.579928,93.2739658 C179.638059,92.5354436 179.645986,91.7969214 179.648628,91.0610415 C179.651931,90.3978248 179.649949,89.7332869 179.646646,89.0687491 C178.647197,89.3118405 177.691346,89.6890285 176.800892,90.1857804 C175.925631,90.6851747 175.115106,91.2995089 174.392438,92.0155715 C174.951944,92.3630337 175.51079,92.7098352 176.073599,93.0546551 C176.704448,93.4358065 177.333315,93.816958 177.985302,94.1571538" id="Fill-46" fill="#A4AAAF"></path>
                    <path d="M176.800892,90.1856483 C177.691346,89.6895569 178.647197,89.3117084 179.646646,89.068617 C179.649289,89.7331548 179.651931,90.3976927 179.648628,91.0609094 C179.645986,91.7967893 179.638059,92.5353115 179.579928,93.2738337 C179.564735,93.5202279 179.469613,94.4067188 179.324286,94.6815178 C179.015137,94.6603794 178.207255,94.2706405 177.985302,94.1570217 C177.333315,93.8168258 176.704448,93.4356744 176.073599,93.054523 C175.51079,92.7097031 174.951944,92.3629016 174.392438,92.0161 C175.115106,91.2993768 175.925631,90.6850426 176.800892,90.1856483 M179.868599,95.4946849 C179.971649,95.4332514 180.058845,95.3401104 180.138114,95.2317762 C181.017338,94.390865 180.729328,91.3092854 180.68573,85.1197031 C180.687712,84.7108076 180.691015,84.2913428 180.696299,83.8553637 C180.691015,83.8560243 180.68573,83.8573454 180.680445,83.858006 L180.680445,83.7034316 C177.366344,84.106382 174.362712,85.5034969 171.960203,87.5803428 C171.005012,88.3677475 170.144944,89.2390452 169.408404,90.1942358 C176.02802,94.1259747 178.757513,96.2867136 179.868599,95.4946849" id="Fill-48" fill="#414242"></path>
                    <path d="M173.267083,101.971155 C173.917749,101.627656 174.569075,101.284157 175.197281,100.900363 C175.408005,100.768249 176.158417,100.277442 176.335451,100.021799 C176.174271,99.7562486 175.463493,99.218541 175.260697,99.0791598 C174.656932,98.6484653 174.028065,98.2620292 173.398537,97.8808778 C172.832425,97.536058 172.261028,97.1958621 171.689631,96.8563269 C171.383125,97.8379405 171.215339,98.8525828 171.18231,99.8711885 C171.160511,100.878564 171.269506,101.889243 171.511276,102.878123 C172.097206,102.576901 172.681154,102.27634 173.267083,101.971155" id="Fill-50" fill="#A4AAAF"></path>
                    <path d="M191.830875,98.0141157 C191.179549,98.3576144 190.528223,98.7011131 189.901338,99.0849068 C189.689954,99.2170217 188.939541,99.7078285 188.761847,99.9634708 C188.923687,100.229022 189.634466,100.766729 189.836601,100.90611 C190.441027,101.336805 191.070554,101.723241 191.699421,102.104392 C192.265533,102.449212 192.83627,102.788748 193.408327,103.128943 C193.714173,102.14733 193.88262,101.132687 193.915648,100.114082 C193.937447,99.1067057 193.828452,98.0960269 193.586022,97.107147 C193.000753,97.4083689 192.416144,97.7089303 191.830875,98.0141157" id="Fill-52" fill="#A4AAAF"></path>
                    <path d="M193.915846,100.113884 C193.882818,101.132489 193.713711,102.147132 193.407865,103.128745 C192.836468,102.788549 192.265732,102.449014 191.699619,102.104194 C191.070092,101.723043 190.440564,101.336607 189.836799,100.906573 C189.634664,100.767192 188.923225,100.228823 188.762045,99.9632726 C188.939739,99.7082909 189.690152,99.2168235 189.901536,99.0847086 C190.528421,98.7009149 191.179087,98.3574162 191.831074,98.0139175 C192.415682,97.7087321 193.000951,97.4081708 193.58622,97.1069488 C193.828651,98.0958287 193.937645,99.1065076 193.915846,100.113884 M199.055115,99.8582413 C199.055115,97.578599 198.588089,95.413236 197.74916,93.442082 C194.095523,95.5512961 191.484272,96.8995285 189.887664,97.9128496 C188.437042,98.7583849 187.734852,99.3713979 187.785055,100.010834 C187.777789,101.333964 190.965721,102.780622 197.336961,106.713022 C197.405001,106.563732 197.456525,106.405855 197.520601,106.254583 C197.59987,106.300163 197.673194,106.34244 197.754444,106.38868 C198.593374,104.416865 199.055115,102.251502 199.055115,99.9725206 C199.055115,99.9527034 199.053794,99.9342073 199.053794,99.9150507 C199.053794,99.895894 199.055115,99.8773979 199.055115,99.8582413" id="Fill-54" fill="#414242"></path>
                    <path d="M179.514135,105.414663 C179.203005,105.423911 178.385214,105.777318 178.163261,105.884992 C177.492117,106.198765 176.846075,106.556136 176.203997,106.916149 C175.625334,107.239169 175.047992,107.568796 174.47065,107.898423 C175.174161,108.648835 175.974117,109.294877 176.844754,109.825318 C177.710767,110.341227 178.644159,110.743517 179.623791,111.019637 C179.649553,110.362365 179.676637,109.705094 179.699096,109.04518 C179.720234,108.3093 179.742694,107.57342 179.717592,106.838201 C179.706362,106.589825 179.648232,105.694746 179.514135,105.414663" id="Fill-56" fill="#A4AAAF"></path>
                    <path d="M185.583823,94.5706073 C185.894293,94.5613593 186.712745,94.207952 186.934037,94.1002783 C187.605842,93.7865055 188.251883,93.4291347 188.893962,93.0691217 C189.473285,92.7461008 190.049967,92.4164742 190.626648,92.0868475 C189.923137,91.336435 189.123181,90.6903932 188.253204,90.159952 C187.387191,89.6440433 186.4538,89.2417535 185.474168,88.9656334 C185.447745,89.622905 185.421322,90.2801765 185.398862,90.9400903 C185.377063,91.6759702 185.354604,92.4118501 185.380366,93.1470695 C185.390936,93.3954454 185.449066,94.2905238 185.583823,94.5706073" id="Fill-58" fill="#A4AAAF"></path>
                    <path d="M59.1438034,116.12733 L59.1438034,116.089017 C59.0599104,116.099586 58.9760175,116.120725 58.8921245,116.129312 C58.9832838,108.643022 58.5816546,105.165758 59.7204849,104.490651 C60.0170828,104.278607 60.4365475,104.284552 61.0092655,104.472816 C61.0951402,104.499239 61.1876206,104.533589 61.280101,104.567939 C61.2919914,104.572563 61.3025606,104.575866 61.3137903,104.58049 C62.9255919,105.196805 65.6517825,107.054341 70.2533439,109.711171 C67.6354875,113.18249 63.6727016,115.576411 59.1438034,116.12733 M57.1567956,104.476779 C56.6607042,104.476779 56.263699,104.07449 56.263699,103.583022 C56.263699,103.08627 56.6607042,102.688604 57.1567956,102.688604 C57.6482629,102.688604 58.0512133,103.08627 58.0512133,103.583022 C58.0512133,104.07449 57.6482629,104.476779 57.1567956,104.476779 M55.1711089,116.12733 C55.1096755,116.120064 55.0502238,116.10355 54.9881298,116.095623 C54.9868086,116.14979 54.9848269,116.199993 54.9841663,116.254821 C52.8630619,115.951617 50.769041,115.228949 48.8196859,114.048503 C48.8031715,114.037933 48.7873178,114.028025 48.771464,114.018116 C48.754289,114.008208 48.7384352,113.99896 48.7219209,113.989051 C46.7719052,112.807944 45.1587825,111.291265 43.9083151,109.551973 C48.3222734,107.124362 51.0418582,105.401584 52.7025423,104.731761 C56.0410854,103.278497 55.1711089,106.14539 55.1711089,116.12733 M41.9880253,106.152657 C41.9490514,106.173795 41.9133804,106.192291 41.873746,106.21343 C41.0936076,104.218495 40.6906572,102.03992 40.7586963,99.7615992 C40.7586963,99.7424426 40.7600175,99.7232859 40.7606781,99.7047898 C40.7613386,99.6856332 40.7613386,99.6664765 40.7619992,99.6473198 C40.7679444,99.4438629 40.7970097,99.2476723 40.8102211,99.0461971 C40.9073256,97.0664556 41.3314144,95.1758916 42.0699366,93.4418838 C42.1016441,93.4603799 42.1307094,93.4768943 42.162417,93.4947298 C42.1947851,93.4220666 42.2185658,93.3447794 42.2522551,93.2721162 C45.2657956,95.1329543 47.5579888,96.4329648 49.1460097,97.4304321 C50.9057799,98.4695157 51.7988765,99.1697245 51.8153909,99.8587037 C51.8259601,99.9564687 51.8140697,100.053573 51.7896285,100.151999 C51.7063961,100.757745 50.9513595,101.36085 49.5033804,102.186568 C47.8843125,103.168842 45.4111219,104.462247 42.0752211,106.388482 C42.0421924,106.311855 42.0197329,106.229944 41.9880253,106.152657 M46.4508661,87.5799465 C48.8533752,85.5037611 51.8576676,84.1059856 55.1711089,83.7030352 L55.1711089,83.8582702 C55.1763935,83.8576097 55.1816781,83.8562885 55.1876232,83.8556279 C55.1816781,84.291607 55.1783752,84.7104112 55.1763935,85.1199674 C55.220652,91.308889 55.5080018,94.3904687 54.6287773,95.2320405 C54.5495084,95.3403747 54.4623125,95.4328551 54.3592629,95.4942885 C53.2481768,96.2869778 50.5186833,94.1255783 43.8990671,90.1945 C44.6356076,89.2393094 45.4956755,88.3680117 46.4508661,87.5799465 M59.0955815,83.7301188 C59.1114352,83.7321005 59.1279496,83.7373851 59.1438034,83.7393668 L59.1438034,83.7030352 C63.6773256,84.2546149 67.6354875,86.647876 70.2533439,90.1191945 C70.1747355,90.1647742 70.104054,90.2063903 70.0267668,90.2513094 C70.073007,90.3134034 70.1265136,90.3702128 70.1714326,90.4329674 C63.6119287,94.0403642 60.7820279,96.1026775 59.6346102,95.4440849 C58.3973543,94.8674034 58.9344013,91.4277924 59.0955815,83.7301188 M54.9220723,99.9723225 C54.9220723,99.9531658 54.9247146,99.9346697 54.9253752,99.9161736 C54.9247146,99.897017 54.9220723,99.8778603 54.9220723,99.8580431 C54.9220723,98.6214478 55.9208608,97.6233198 57.1567956,97.6233198 C58.3887668,97.6233198 59.3921794,98.6214478 59.3921794,99.8580431 C59.3921794,99.8771997 59.3895371,99.8956958 59.3888765,99.9141919 C59.3895371,99.9333486 59.3921794,99.9525052 59.3921794,99.9723225 C59.3921794,101.208918 58.3940514,102.207046 57.1574561,102.207046 C55.9261454,102.207046 54.9220723,101.208918 54.9220723,99.9723225 M53.3380149,100.155962 C53.8103256,100.007333 54.3123621,100.260333 54.4656154,100.731983 C54.6195292,101.203633 54.3612446,101.70567 53.8895945,101.859584 C53.423229,102.013497 52.9159078,101.755213 52.7626546,101.282902 C52.6127042,100.816537 52.8663648,100.310537 53.3380149,100.155962 M54.4656154,99.0983825 C54.3123621,99.5700326 53.8103256,99.8230326 53.3386755,99.6744034 C52.8716493,99.519829 52.6133648,99.013829 52.7679392,98.5468029 C52.9159078,98.0751527 53.423229,97.8168681 53.8895945,97.970782 C54.3619052,98.1246958 54.6195292,98.6267324 54.4656154,99.0983825 M55.4941298,97.5684922 C55.0911794,97.8565026 54.5349757,97.7673251 54.2423413,97.3696593 C53.9543308,96.972654 54.0435084,96.4118264 54.4411742,96.1238159 C54.8428034,95.8305209 55.399007,95.9196984 55.6923021,96.3173642 C55.9803125,96.719654 55.891135,97.2758577 55.4941298,97.5684922 M58.0512133,96.2473433 C58.0512133,96.7440953 57.6535475,97.1417611 57.1574561,97.1417611 C56.6653282,97.1417611 56.263699,96.7440953 56.263699,96.2473433 C56.263699,95.755876 56.6653282,95.3535862 57.1574561,95.3535862 C57.6535475,95.3535862 58.0512133,95.755876 58.0512133,96.2473433 M60.0672864,97.3696593 C59.7799366,97.7673251 59.2184483,97.8565026 58.8214431,97.5684922 C58.4184927,97.2758577 58.3345997,96.719654 58.6226102,96.3173642 C58.9152446,95.9196984 59.4714483,95.8305209 59.8737381,96.1238159 C60.2714039,96.4118264 60.3605815,96.972654 60.0672864,97.3696593 M60.9762368,99.6744034 C60.5052473,99.8230326 60.0032107,99.5700326 59.8486363,99.0983825 C59.6947225,98.6267324 59.9536676,98.1246958 60.4246572,97.970782 C60.8916833,97.8168681 61.3983439,98.0751527 61.5522577,98.5468029 C61.7015475,99.013829 61.4478869,99.519829 60.9762368,99.6744034 M61.5476337,101.282902 C61.3983439,101.755213 60.8916833,102.013497 60.4246572,101.859584 C59.9536676,101.70567 59.6947225,101.203633 59.8486363,100.731983 C60.0032107,100.260333 60.5052473,100.007333 60.9762368,100.155962 C61.4426023,100.310537 61.7015475,100.816537 61.5476337,101.282902 M55.6923021,103.513001 C55.3996676,103.910007 54.8428034,103.999845 54.4411742,103.70655 C54.0435084,103.418539 53.9543308,102.857711 54.2476258,102.460046 C54.5349757,102.06304 55.096464,101.973863 55.4941298,102.261873 C55.8964196,102.554508 55.9803125,103.110711 55.6923021,103.513001 M58.6226102,103.513001 C58.3345997,103.110711 58.4237773,102.554508 58.8214431,102.261873 C59.2237329,101.973863 59.7799366,102.06304 60.072571,102.460046 C60.3605815,102.857711 60.2714039,103.418539 59.8737381,103.70655 C59.4714483,103.999845 58.9152446,103.910007 58.6226102,103.513001 M73.5463073,99.9723225 C73.5463073,102.251965 73.0845658,104.416667 72.2449757,106.388482 C72.1643856,106.342242 72.0910619,106.300625 72.0111324,106.255046 C71.9477172,106.406317 71.8961924,106.563534 71.8274927,106.712824 C65.4569131,102.780424 62.2683204,101.333766 62.2755867,100.010636 C62.225383,99.3711997 62.9282342,98.7588473 64.3788556,97.913312 C65.975464,96.8993303 68.5867146,95.5510979 72.2396911,93.4418838 C73.0792812,95.4136984 73.5463073,97.5784008 73.5463073,99.8580431 C73.5463073,99.8771997 73.5449862,99.8956958 73.5449862,99.9148525 C73.5449862,99.9340091 73.5463073,99.9531658 73.5463073,99.9723225 M75.035242,99.9155131 C75.004195,90.0689909 67.0112446,82.093876 57.1574561,82.093876 C47.3036676,82.093876 39.3113778,90.0689909 39.2803308,99.9155131 C39.3113778,109.761375 47.3036676,117.73649 57.1567956,117.73649 C67.0112446,117.73649 75.004195,109.761375 75.035242,99.9155131" id="Fill-60" fill="#FFFFFF"></path>
                    <g id="Group-64" transform="translate(0.000000, 76.134504)">
                        <mask id="mask-4" fill="white">
                            <use xlink:href="#path-3"></use>
                        </mask>
                        <g id="Clip-63"></g>
                        <path d="M39.2801326,23.7807449 C39.3111796,13.9342227 47.3034695,5.95910783 57.157258,5.95910783 C67.0110465,5.95910783 75.0039969,13.9342227 75.0350439,23.7807449 C75.0039969,33.6272671 67.0110465,41.602382 57.1565974,41.602382 C47.3034695,41.602382 39.3111796,33.6272671 39.2801326,23.7807449 L39.2801326,23.7807449 Z M80.9947462,23.8375543 C80.9947462,23.8190582 80.9940856,23.7999016 80.9940856,23.7807449 C80.9940856,23.7615883 80.9947462,23.7424316 80.9947462,23.7239355 L80.9927645,23.7239355 C80.9828559,21.450899 80.6472841,19.2551496 80.0428585,17.1750008 C77.1594512,7.25383368 68.0091744,6.60574413e-05 57.157258,6.60574413e-05 C46.3060021,6.60574413e-05 37.1550648,7.25383368 34.272318,17.1750008 C33.6678924,19.2551496 33.3323206,21.450899 33.3210909,23.7239355 L33.3197697,23.7239355 C33.3197697,23.7424316 33.3210909,23.7615883 33.3210909,23.7807449 L3.30260783,23.7807449 L-0.000264229765,23.7807449 L-0.000264229765,27.4905308 L-0.000264229765,34.0962749 L35.0161248,34.0962749 L35.0161248,32.5492097 C38.5237749,41.3434368 47.1112423,47.5614238 57.1565974,47.5614238 C69.0409916,47.5614238 78.8914773,38.8656222 80.6968272,27.4905308 C80.8857514,26.2995151 80.9881405,25.0800948 80.9927645,23.8375543 L80.9947462,23.8375543 Z" id="Fill-62" fill="#414242" mask="url(#mask-4)"></path>
                    </g>
                    <path d="M52.767741,98.547001 C52.6138272,99.0140272 52.8714512,99.5200272 53.3384773,99.6746016 C53.8101274,99.8232308 54.312164,99.5695702 54.4654172,99.0979201 C54.6199916,98.6269305 54.361707,98.124894 53.8893963,97.9709802 C53.4230308,97.8170663 52.9163702,98.0753509 52.767741,98.547001" id="Fill-65" fill="#414242"></path>
                    <path d="M59.3921794,99.9723225 C59.3921794,99.9525052 59.3895371,99.9333486 59.3888765,99.9141919 C59.3895371,99.8956958 59.3921794,99.8771997 59.3921794,99.8580431 C59.3921794,98.6214478 58.3887668,97.6233198 57.1567956,97.6233198 C55.9208608,97.6233198 54.9220723,98.6214478 54.9220723,99.8580431 C54.9220723,99.8778603 54.9247146,99.897017 54.9253752,99.9161736 C54.9247146,99.9346697 54.9220723,99.9531658 54.9220723,99.9723225 C54.9220723,101.208918 55.9261454,102.207046 57.1574561,102.207046 C58.3940514,102.207046 59.3921794,101.208918 59.3921794,99.9723225" id="Fill-67" fill="#414242"></path>
                    <path d="M60.4249875,97.9709141 C59.9533373,98.1248279 59.6950527,98.6268645 59.8489666,99.0985146 C60.0028804,99.5695042 60.504917,99.8231648 60.9765671,99.6745355 C61.4482172,99.5199611 61.7018778,99.0139611 61.552588,98.546935 C61.3986742,98.0752849 60.8920136,97.8170003 60.4249875,97.9709141" id="Fill-69" fill="#414242"></path>
                    <path d="M56.2635008,96.2475415 C56.2635008,96.7442935 56.66513,97.1419593 57.1579185,97.1419593 C57.6533493,97.1419593 58.0510151,96.7442935 58.0510151,96.2475415 C58.0510151,95.7560742 57.6533493,95.3537843 57.1579185,95.3537843 C56.66513,95.3537843 56.2635008,95.7560742 56.2635008,96.2475415" id="Fill-71" fill="#414242"></path>
                    <path d="M59.8895258,90.9403546 C59.9119854,90.2804407 59.9384084,89.6231692 59.9648313,88.9652371 C60.9451238,89.2420178 61.8785154,89.6443076 62.7438679,90.1595556 C63.614505,90.6906574 64.4144606,91.3366992 65.1173117,92.0864512 C64.5406303,92.4160778 63.9639488,92.7457044 63.3846251,93.0693859 C62.7425467,93.429399 62.096505,93.7867697 61.4247008,94.099882 C61.2034084,94.2075556 60.3849567,94.5609629 60.0744867,94.5708715 C59.9397295,94.290788 59.881599,93.3957097 59.8716903,93.1473337 C59.8459279,92.4121144 59.8677269,91.6762345 59.8895258,90.9403546 M59.6345441,95.4441509 C60.7826225,96.102083 63.6118627,94.0404303 70.1713666,90.4330334 C70.1264475,90.3702789 70.072941,90.3134695 70.0267008,90.2513755 C70.103988,90.2064564 70.1746695,90.1648402 70.2532778,90.1192606 C67.636082,86.647942 63.6772595,84.2540204 59.1437373,83.7031013 L59.1437373,83.7394329 C59.1278836,83.7374512 59.1113692,83.7321666 59.0955154,83.7301849 C58.9343352,91.4278585 58.3972883,94.8674695 59.6345441,95.4441509" id="Fill-73" fill="#414242"></path>
                    <path d="M54.2475598,102.460112 C53.9542648,102.857778 54.0434423,103.418605 54.4411081,103.706616 C54.8427373,103.999911 55.3996016,103.910073 55.6928966,103.513067 C55.9802465,103.110778 55.8963535,102.554574 55.4940637,102.261939 C55.0963979,101.973929 54.5355702,102.063107 54.2475598,102.460112" id="Fill-75" fill="#414242"></path>
                    <path d="M45.6730397,99.8713867 C45.7060684,98.8527809 45.8745149,97.8374781 46.1810214,96.8565251 C46.7517577,97.1960603 47.3231546,97.5362561 47.8892668,97.881076 C48.5194548,98.2622274 49.1483217,98.6480029 49.7514261,99.0786974 C49.9542225,99.2180786 50.6656611,99.7564467 50.8261807,100.021998 C50.6491467,100.276979 49.8987342,100.768447 49.688011,100.900562 C49.0598047,101.284355 48.4091389,101.627854 47.7578125,101.971353 C47.1725436,102.276538 46.5879352,102.577099 46.0020057,102.877661 C45.7602355,101.889442 45.6512407,100.878763 45.6730397,99.8713867 M49.5037107,102.1867 C50.9510292,101.360982 51.7067264,100.757878 51.7899587,100.152131 C51.8144,100.053705 51.8256298,99.9559402 51.8157211,99.8581752 C51.7985462,99.1698567 50.9061102,98.4689872 49.1463399,97.4305642 C47.5583191,96.4330969 45.2661258,95.1330864 42.2519248,93.2722483 C42.2188961,93.3449115 42.1944548,93.4221987 42.1627473,93.4948619 C42.1310397,93.4770264 42.1019744,93.460512 42.0702668,93.4420159 C41.3317446,95.1760238 40.9069953,97.0659272 40.8105514,99.0463292 C40.7966794,99.2478044 40.7676141,99.443995 40.7616689,99.647452 C40.7610084,99.6666086 40.7610084,99.6857653 40.7603478,99.7049219 C40.7603478,99.723418 40.7590266,99.7425747 40.7590266,99.7610708 C40.6909875,102.040052 41.0932773,104.218627 41.8740762,106.213562 C41.9137107,106.192423 41.9487211,106.173927 41.9883556,106.152789 C42.0200632,106.230076 42.0425227,106.311987 42.0755514,106.388614 C45.4114522,104.462379 47.8846428,103.168974 49.5037107,102.1867" id="Fill-77" fill="#414242"></path>
                    <path d="M59.8740684,103.706748 C60.2717342,103.418737 60.3602512,102.857249 60.0729013,102.460244 C59.7796063,102.063239 59.2240632,101.973401 58.8211128,102.261411 C58.4241076,102.554706 58.33493,103.11091 58.6222799,103.513199 C58.9155749,103.910205 59.4717786,103.999382 59.8740684,103.706748" id="Fill-79" fill="#414242"></path>
                    <path d="M59.8489005,100.732247 C59.6949867,101.203897 59.9532713,101.705934 60.4249214,101.859848 C60.8919475,102.013101 61.3986081,101.755477 61.5472373,101.283166 C61.7018117,100.816801 61.4428666,100.31014 60.976501,100.156226 C60.5048509,100.006937 60.0028144,100.260597 59.8489005,100.732247" id="Fill-81" fill="#414242"></path>
                    <path d="M58.6226102,96.3172321 C58.3345997,96.7195219 58.4184927,97.2757256 58.8214431,97.5690206 C59.2184483,97.8570311 59.7799366,97.767193 60.067947,97.3701877 C60.3605815,96.9731825 60.2714039,96.4116943 59.8743987,96.1236838 C59.4714483,95.8310493 58.9152446,95.9195663 58.6226102,96.3172321" id="Fill-83" fill="#414242"></path>
                    <path d="M58.0510151,103.58289 C58.0510151,103.086138 57.6487253,102.688472 57.1565974,102.688472 C56.6611666,102.688472 56.2635008,103.086138 56.2635008,103.58289 C56.2635008,104.074357 56.6611666,104.476647 57.1565974,104.476647 C57.6487253,104.476647 58.0510151,104.074357 58.0510151,103.58289" id="Fill-85" fill="#414242"></path>
                    <path d="M54.4411081,96.1236838 C54.0434423,96.4116943 53.9542648,96.9731825 54.2422752,97.3701877 C54.5355702,97.767193 55.0911133,97.8570311 55.4940637,97.5690206 C55.8910689,97.2757256 55.9802465,96.7195219 55.6928966,96.3172321 C55.398941,95.9195663 54.8427373,95.8310493 54.4411081,96.1236838" id="Fill-87" fill="#414242"></path>
                    <path d="M53.8895285,101.859517 C54.3611786,101.705604 54.6194632,101.203567 54.4655493,100.731917 C54.3122961,100.260927 53.8102595,100.007267 53.3379488,100.155896 C52.8662987,100.31047 52.6126381,100.81647 52.7625885,101.282836 C52.9158418,101.755147 53.4231629,102.013431 53.8895285,101.859517" id="Fill-89" fill="#414242"></path>
                    <path d="M54.1901559,109.044916 C54.1676963,109.70483 54.1406128,110.362101 54.1148504,111.020033 C53.134558,110.743252 52.2011663,110.340963 51.3358138,109.825715 C50.4645162,109.294613 49.6645606,108.648571 48.9617094,107.898819 C49.5390514,107.569192 50.1163935,107.239566 50.6950567,106.915884 C51.337135,106.555871 51.9831768,106.198501 52.6543204,105.885388 C52.8762734,105.777715 53.6940645,105.424307 54.005195,105.414399 C54.1392916,105.694482 54.1974222,106.589561 54.2079914,106.837937 C54.2330932,107.573156 54.2112943,108.309036 54.1901559,109.044916 M52.7025423,104.732025 C51.0418582,105.401848 48.3222734,107.124626 43.9083151,109.552237 C45.1587825,111.290869 46.7719052,112.808208 48.7219209,113.988655 C48.7384352,113.999224 48.754289,114.008472 48.771464,114.01838 C48.7873178,114.027628 48.8031715,114.038198 48.8196859,114.048106 C50.769041,115.229213 52.8630619,115.951882 54.9841663,116.255085 C54.9848269,116.200258 54.9868086,116.150054 54.9881298,116.095226 C55.0502238,116.103814 55.1096755,116.119668 55.1711089,116.127595 C55.1711089,106.144994 56.0410854,103.278762 52.7025423,104.732025" id="Fill-91" fill="#414242"></path>
                    <path d="M61.6029238,105.828116 C61.3809708,105.715158 60.5737488,105.324759 60.2639394,105.304281 C60.1192736,105.57908 60.0234903,106.46491 60.0089577,106.711304 C59.9501666,107.449827 59.9429003,108.188349 59.940258,108.924229 C59.9369551,109.587445 59.9389368,110.251983 59.9415791,110.916521 C60.9410282,110.67343 61.8968794,110.296242 62.7879943,109.79949 C63.6632554,109.300096 64.4737802,108.685761 65.195788,107.969699 C64.636942,107.622237 64.0780961,107.275435 63.5152867,106.930615 C62.8850987,106.549464 62.2555713,106.168312 61.6029238,105.828116" id="Fill-93" fill="#A4AAAF"></path>
                    <path d="M62.7879282,109.799622 C61.8968133,110.295713 60.9409621,110.673562 59.9415131,110.916653 C59.9395313,110.252115 59.936889,109.587578 59.9401919,108.924361 C59.9428342,108.188481 59.9501005,107.449959 60.0088916,106.711437 C60.0234243,106.465042 60.1192076,105.578551 60.2638734,105.303752 C60.5736828,105.324891 61.3809047,105.71463 61.6028577,105.828249 C62.2555052,106.168444 62.8850326,106.549596 63.5152206,106.930747 C64.07803,107.275567 64.636876,107.622369 65.1963825,107.96917 C64.4737141,108.685893 63.6631893,109.300228 62.7879282,109.799622 M61.3141867,104.580423 C61.3022963,104.575799 61.2917272,104.572497 61.2804974,104.568533 C61.1873564,104.533523 61.094876,104.499173 61.0096619,104.47275 C60.4362833,104.284486 60.0174791,104.278541 59.7202206,104.490585 C58.5820509,105.165692 58.9830196,108.643617 58.8925209,116.129907 C58.9757533,116.120658 59.0596462,116.100181 59.1435392,116.088951 L59.1435392,116.127264 C63.6730979,115.576345 67.6358838,113.182423 70.2537402,109.711105 C65.6515183,107.054275 62.9253277,105.196739 61.3141867,104.580423" id="Fill-95" fill="#414242"></path>
                    <path d="M52.4761634,94.1571538 C52.6981164,94.270112 53.505999,94.6605115 53.8151478,94.6809893 C53.9604742,94.4061903 54.0555969,93.5203601 54.0707901,93.2739658 C54.1289206,92.5354436 54.1368475,91.7969214 54.1394898,91.0610415 C54.1427927,90.3978248 54.140811,89.7332869 54.1375081,89.0687491 C53.138059,89.3118405 52.1822078,89.6890285 51.2917535,90.1857804 C50.4164924,90.6851747 49.6059676,91.2995089 48.8832992,92.0155715 C49.4428057,92.3630337 50.0016517,92.7098352 50.5644611,93.0546551 C51.1953097,93.4358065 51.8241765,93.816958 52.4761634,94.1571538" id="Fill-97" fill="#A4AAAF"></path>
                    <path d="M51.2917535,90.1856483 C52.1822078,89.6895569 53.138059,89.3117084 54.1375081,89.068617 C54.1401504,89.7331548 54.1427927,90.3976927 54.1394898,91.0609094 C54.1368475,91.7967893 54.1289206,92.5353115 54.0707901,93.2738337 C54.0555969,93.5202279 53.9604742,94.4067188 53.8151478,94.6815178 C53.505999,94.6603794 52.6981164,94.2706405 52.4761634,94.1570217 C51.8241765,93.8168258 51.1953097,93.4356744 50.5644611,93.054523 C50.0016517,92.7097031 49.4428057,92.3629016 48.8832992,92.0161 C49.6059676,91.2993768 50.4164924,90.6850426 51.2917535,90.1856483 M54.3594611,95.4946849 C54.4625107,95.4332514 54.5497065,95.3401104 54.6289755,95.2317762 C55.5082,94.390865 55.2201896,91.3092854 55.1765916,85.1197031 C55.1785734,84.7108076 55.1818762,84.2913428 55.1871608,83.8553637 C55.1818762,83.8560243 55.1765916,83.8573454 55.171307,83.858006 L55.171307,83.7034316 C51.8572052,84.106382 48.8535734,85.5034969 46.4510642,87.5803428 C45.4958736,88.3677475 44.6358057,89.2390452 43.8992653,90.1942358 C50.5188815,94.1259747 53.2483749,96.2867136 54.3594611,95.4946849" id="Fill-99" fill="#414242"></path>
                    <path d="M47.7579446,101.971155 C48.4086104,101.627656 49.0599368,101.284157 49.6881431,100.900363 C49.8988663,100.768249 50.6492789,100.277442 50.8263128,100.021799 C50.6651326,99.7562486 49.9543546,99.218541 49.7515582,99.0791598 C49.1477932,98.6484653 48.5189264,98.2620292 47.889399,97.8808778 C47.3232867,97.536058 46.7518898,97.1958621 46.180493,96.8563269 C45.8739864,97.8379405 45.7062005,98.8525828 45.6731718,99.8711885 C45.6513728,100.878564 45.7603676,101.889243 46.0021379,102.878123 C46.5880674,102.576901 47.1720151,102.27634 47.7579446,101.971155" id="Fill-101" fill="#A4AAAF"></path>
                    <path d="M66.3217371,98.0141157 C65.6704107,98.3576144 65.0190843,98.7011131 64.3921992,99.0849068 C64.1808154,99.2170217 63.4304029,99.7078285 63.2527084,99.9634708 C63.4145491,100.229022 64.1253272,100.766729 64.3274629,100.90611 C64.9318885,101.336805 65.5614159,101.723241 66.1902828,102.104392 C66.756395,102.449212 67.3271313,102.788748 67.8991888,103.128943 C68.2050347,102.14733 68.3734812,101.132687 68.4065099,100.114082 C68.4283089,99.1067057 68.3193141,98.0960269 68.0768833,97.107147 C67.4916144,97.4083689 66.907006,97.7089303 66.3217371,98.0141157" id="Fill-103" fill="#A4AAAF"></path>
                    <path d="M68.4067081,100.113884 C68.3736794,101.132489 68.2045723,102.147132 67.8987264,103.128745 C67.3273295,102.788549 66.7565932,102.449014 66.1904809,102.104194 C65.5609535,101.723043 64.9314261,101.336607 64.3276611,100.906573 C64.1255253,100.767192 63.4140867,100.228823 63.2529065,99.9632726 C63.430601,99.7082909 64.1810136,99.2168235 64.3923974,99.0847086 C65.0192825,98.7009149 65.6699483,98.3574162 66.3219352,98.0139175 C66.9065436,97.7087321 67.4918125,97.4081708 68.0770815,97.1069488 C68.3195123,98.0958287 68.428507,99.1065076 68.4067081,100.113884 M73.545977,99.8582413 C73.545977,97.578599 73.0789509,95.413236 72.2400214,93.442082 C68.5863843,95.5512961 65.9751337,96.8995285 64.3785253,97.9128496 C62.9279039,98.7583849 62.2257133,99.3713979 62.275917,100.010834 C62.2686507,101.333964 65.4565828,102.780622 71.827823,106.713022 C71.8958621,106.563732 71.9473869,106.405855 72.0114627,106.254583 C72.0907316,106.300163 72.1640554,106.34244 72.245306,106.38868 C73.0842355,104.416865 73.545977,102.251502 73.545977,99.9725206 C73.545977,99.9527034 73.5446559,99.9342073 73.5446559,99.9150507 C73.5446559,99.895894 73.545977,99.8773979 73.545977,99.8582413" id="Fill-105" fill="#414242"></path>
                    <path d="M54.0049969,105.414663 C53.6938663,105.423911 52.8760752,105.777318 52.6541222,105.884992 C51.9829786,106.198765 51.3369368,106.556136 50.6948585,106.916149 C50.1161953,107.239169 49.5388533,107.568796 48.9615112,107.898423 C49.665023,108.648835 50.4649786,109.294877 51.3356157,109.825318 C52.2016287,110.341227 53.1350204,110.743517 54.1146522,111.019637 C54.1404146,110.362365 54.1674982,109.705094 54.1899577,109.04518 C54.2110961,108.3093 54.2335556,107.57342 54.2084538,106.838201 C54.197224,106.589825 54.1390935,105.694746 54.0049969,105.414663" id="Fill-107" fill="#A4AAAF"></path>
                    <path d="M60.0746849,94.5706073 C60.3851548,94.5613593 61.2036065,94.207952 61.424899,94.1002783 C62.0967031,93.7865055 62.7427449,93.4291347 63.3848232,93.0691217 C63.964147,92.7461008 64.5408285,92.4164742 65.1175099,92.0868475 C64.4139982,91.336435 63.6140426,90.6903932 62.7440661,90.159952 C61.878053,89.6440433 60.9446614,89.2417535 59.9650295,88.9656334 C59.9386065,89.622905 59.9121836,90.2801765 59.889724,90.9400903 C59.8679251,91.6759702 59.8454655,92.4118501 59.8712279,93.1470695 C59.8817971,93.3954454 59.9399277,94.2905238 60.0746849,94.5706073" id="Fill-109" fill="#A4AAAF"></path>
                    <g id="Group-113" transform="translate(216.668407, 99.915183)">
                        <mask id="mask-6" fill="white">
                            <use xlink:href="#path-5"></use>
                        </mask>
                        <g id="Clip-112"></g>
                        <polygon id="Fill-111" fill="#414242" mask="url(#mask-6)" points="35.1328483 6.60574413e-05 0.66011201 6.60574413e-05 0.66011201 3.70985196 0.66011201 10.3155961 35.676501 10.3155961 35.676501 6.60574413e-05"></polygon>
                    </g>
                    <path d="M247.979106,41.7607877 C247.93815,41.5441193 247.885965,41.3228269 247.843028,41.1048373 C247.931545,40.231558 247.979106,39.3463883 247.979106,38.4506493 C247.979106,31.8171611 245.512521,25.7359131 241.410354,20.9995945 C236.637043,15.4890828 229.648166,11.8103439 221.752981,11.1933674 L221.752981,67.2054535 L247.979106,67.2054535 L247.979106,41.7607877 Z" id="Fill-114" fill="#C6E0EE"></path>
                    <path d="M210.770799,11.1934334 L197.376992,11.1934334 C193.8667,11.1934334 190.994522,14.065611 190.994522,17.5759034 L190.994522,62.5147807 C190.994522,66.0250731 193.8667,68.8972507 197.376992,68.8972507 L210.770799,68.8972507 C213.421023,68.8972507 215.70529,67.2596867 216.666426,64.9470157 C216.978217,64.1959426 217.153269,63.3755091 217.153269,62.5147807 L217.153269,17.5759034 C217.153269,16.7151749 216.978217,15.8947415 216.666426,15.1436684 C215.70529,12.8309974 213.421023,11.1934334 210.770799,11.1934334" id="Fill-116" fill="#C6E0EE"></path>
                    <path d="M167.650945,68.8972507 L181.044752,68.8972507 C184.555705,68.8972507 187.427222,66.0250731 187.427222,62.5147807 L187.427222,17.5759034 C187.427222,14.065611 184.555705,11.1934334 181.044752,11.1934334 L167.650945,11.1934334 C164.141314,11.1934334 161.268475,14.065611 161.268475,17.5759034 L161.268475,62.5147807 C161.268475,66.0250731 164.141314,68.8972507 167.650945,68.8972507" id="Fill-118" fill="#C6E0EE"></path>
                    <path d="M137.264522,68.8972507 L150.658329,68.8972507 C154.169282,68.8972507 157.040799,66.0250731 157.040799,62.5147807 L157.040799,17.5759034 C157.040799,14.065611 154.169282,11.1934334 150.658329,11.1934334 L137.264522,11.1934334 C133.754891,11.1934334 130.882052,14.065611 130.882052,17.5759034 L130.882052,62.5147807 C130.882052,66.0250731 133.754891,68.8972507 137.264522,68.8972507" id="Fill-120" fill="#C6E0EE"></path>
                    <path d="M73.8493789,68.8972507 L87.2431856,68.8972507 C90.7541386,68.8972507 93.6256556,66.0250731 93.6256556,62.5147807 L93.6256556,17.5759034 C93.6256556,14.065611 90.7541386,11.1934334 87.2431856,11.1934334 L73.8493789,11.1934334 C70.339747,11.1934334 67.4669089,14.065611 67.4669089,17.5759034 L67.4669089,62.5147807 C67.4669089,66.0250731 70.339747,68.8972507 73.8493789,68.8972507" id="Fill-122" fill="#C6E0EE"></path>
                    <path d="M44.1235303,68.8972507 L57.5173371,68.8972507 C61.0282901,68.8972507 63.899807,66.0250731 63.899807,62.5147807 L63.899807,17.5759034 C63.899807,14.065611 61.0282901,11.1934334 57.5173371,11.1934334 L44.1235303,11.1934334 C40.6138984,11.1934334 37.7410603,14.065611 37.7410603,17.5759034 L37.7410603,62.5147807 C37.7410603,66.0250731 40.6138984,68.8972507 44.1235303,68.8972507" id="Fill-124" fill="#C6E0EE"></path>
                    <path d="M27.1311123,11.1934334 L13.7373055,11.1934334 C10.2270131,11.1934334 7.35483551,14.065611 7.35483551,17.5759034 L7.35483551,62.5147807 C7.35483551,66.0250731 10.2270131,68.8972507 13.7373055,68.8972507 L27.1311123,68.8972507 C30.6414047,68.8972507 33.5135822,66.0250731 33.5135822,62.5147807 L33.5135822,17.5759034 C33.5135822,14.065611 30.6414047,11.1934334 27.1311123,11.1934334" id="Fill-126" fill="#C6E0EE"></path>
                    <path d="M105.556951,68.8972507 L118.950757,68.8972507 C122.46171,68.8972507 125.333227,66.0250731 125.333227,62.5147807 L125.333227,17.5759034 C125.333227,14.065611 122.46171,11.1934334 118.950757,11.1934334 L105.556951,11.1934334 C102.047319,11.1934334 99.1744807,14.065611 99.1744807,17.5759034 L99.1744807,62.5147807 C99.1744807,66.0250731 102.047319,68.8972507 105.556951,68.8972507" id="Fill-128" fill="#C6E0EE"></path>
                    <path d="M242.61577,85.7754554 L242.61577,77.1331603 C242.61577,73.9201264 247.533747,74.3732804 251.755478,74.4195206 L251.755478,73.3388209 L241.358037,73.3388209 L241.358037,90.4470376 L251.755478,90.4470376 L251.755478,89.6338705 L248.592648,89.6338705 C247.328969,89.6338705 242.61577,89.1351368 242.61577,85.7754554" id="Fill-130" fill="#4C8589"></path>
                    <path d="M11.9849997,86.3692457 L11.9849997,79.869854 C11.9849997,77.5400081 7.4138248,77.7731909 3.30240966,77.8240551 C2.95230522,77.8286791 2.60418251,77.831982 2.26332611,77.831982 L2.26332611,78.9582614 C5.74257154,78.9582614 10.0633888,78.5658802 10.0633888,80.5938436 L10.0633888,85.8077574 C10.0633888,87.8363815 6.28226084,88.1376034 5.26761854,88.1376034 L2.26332611,88.1376034 L2.26332611,89.2718097 L3.30240966,89.2718097 L6.00812245,89.2718097 C7.27180131,89.2718097 11.9849997,88.8959428 11.9849997,86.3692457" id="Fill-132" fill="#C6E0EE"></path>
                    <path d="M5.2676846,88.1374713 C6.28232689,88.1374713 10.0634548,87.8362493 10.0634548,85.8082859 L10.0634548,80.5937115 C10.0634548,78.565748 5.7426376,78.9581292 2.26339217,78.9581292 L2.26339217,88.1374713 L5.2676846,88.1374713 Z" id="Fill-134" fill="#F44336"></path>
                    <path d="M242.61577,77.1334906 L242.61577,85.7757856 C242.61577,89.1348065 247.328969,89.6342008 248.592648,89.6342008 L251.755478,89.6342008 L251.801057,89.6342008 L252.337444,89.6342008 L252.337444,88.12677 L249.333151,88.12677 C248.31917,88.12677 244.537381,87.7258013 244.537381,85.0293366 L244.537381,78.0959475 C244.537381,75.3994828 248.858198,75.9213366 252.337444,75.9213366 L252.337444,74.4238144 C252.16107,74.4238144 251.980734,74.4218326 251.801057,74.4198509 C251.785864,74.4198509 251.770671,74.4198509 251.755478,74.4198509 C247.533747,74.3729501 242.61577,73.9204567 242.61577,77.1334906" id="Fill-136" fill="#C6E0EE"></path>
                    <path d="M244.537513,78.0959475 L244.537513,85.0293366 C244.537513,87.7258013 248.319302,88.12677 249.333284,88.12677 L252.337576,88.12677 L252.337576,75.9213366 C248.858331,75.9213366 244.537513,75.3988222 244.537513,78.0959475" id="Fill-138" fill="#F44336"></path>
                </g>
            </g>
        </g>
    </g>
</svg>