<?xml version="1.0" encoding="UTF-8"?>
<svg width="230px" height="107px" viewBox="0 0 230 107" version="1.1" xmlns="http://www.w3.org/2000/svg" xmlns:xlink="http://www.w3.org/1999/xlink">
    <!-- Generator: Sketch 53.2 (72643) - https://sketchapp.com -->
    <title>Group 113</title>
    <desc>Created with Sketch.</desc>
    <defs>
        <polygon id="path-1" points="0 105.641226 229.793742 105.641226 229.793742 0 0 0"></polygon>
    </defs>
    <g id="Page-1" stroke="none" stroke-width="1" fill="none" fill-rule="evenodd">
        <g id="B-4b" transform="translate(-73.000000, -245.000000)">
            <g id="car" transform="translate(73.000000, 245.000000)">
                <g id="Group-113" transform="translate(0.000000, 0.000000)">
                    <path d="M180.648974,21.8133484 C180.4212,23.5034774 179.829877,25.1609613 179.257845,26.7628 C178.773361,28.1220258 178.271071,29.5287355 177.978748,30.9755097 C177.334748,34.1680581 178.072232,38.2687355 181.213587,39.7273806 L181.526684,39.0551871 C178.748877,37.7649613 178.118232,34.0382194 178.706587,31.121671 C178.987781,29.7275742 179.480426,28.3468323 179.956748,27.0120903 C180.541394,25.3738968 181.146071,23.6800581 181.38349,21.9127677 C182.279006,15.2598323 177.247942,8.50747742 170.617265,7.46283226 L170.500781,8.19586452 C176.641039,9.16334839 181.477716,15.6538 180.648974,21.8133484" id="Fill-1" fill="#A4AAAF"></path>
                    <path d="M189.036332,18.6984806 C188.476171,20.3092226 187.566558,21.8153516 186.685881,23.271029 C185.939494,24.5063516 185.167139,25.7839645 184.592139,27.1431903 C183.324171,30.1420935 183.227719,34.3080613 186.014429,36.3647065 L186.455139,35.7674484 C183.991171,33.9489645 184.116558,30.171771 185.276203,27.4318032 C185.829687,26.1215452 186.587945,24.8676742 187.320977,23.6546097 C188.220945,22.1662871 189.151332,20.626771 189.737461,18.9418355 C191.942494,12.6019968 188.359687,4.98157742 182.0703,2.63483548 L181.811365,3.3292871 C187.634074,5.50241613 191.078139,12.8275452 189.036332,18.6984806" id="Fill-3" fill="#A4AAAF"></path>
                    <path d="M195.0653,16.9777097 C194.251397,18.4771613 193.111042,19.8156129 192.007784,21.1102903 C191.070719,22.2090968 190.103235,23.3457419 189.316042,24.5944194 C187.579913,27.3492258 186.812752,31.4447097 189.230719,33.9235161 L189.762687,33.4063871 C187.624429,31.2139677 188.357461,27.5065161 189.943719,24.989871 C190.701977,23.7857097 191.652397,22.6705806 192.572397,21.5918065 C193.700139,20.2681935 194.866461,18.8993226 195.717461,17.3316129 C198.916687,11.4302581 196.612235,3.33129032 190.78359,0 L190.41559,0.644 C195.811687,3.72896774 198.027848,11.5140968 195.0653,16.9777097" id="Fill-5" fill="#A4AAAF"></path>
                    <path d="M100.038871,45.9324097 L100.038871,31.5692806 C100.038871,30.5187 99.0023871,29.6684419 97.7240323,29.6684419 L97.7240323,45.9309258 L100.038871,45.9324097 Z" id="Fill-7" fill="#A4AAAF"></path>
                    <path d="M93.3056581,52.6018161 C93.3056581,52.0334935 93.7619484,51.5779452 94.3317548,51.5779452 L103.567368,51.5779452 C104.134206,51.5779452 104.593465,52.0334935 104.593465,52.6018161 L104.593465,54.1762032 C104.593465,54.7430419 104.134206,55.2045258 103.567368,55.2045258 L94.3317548,55.2045258 C93.7619484,55.2045258 93.3056581,54.7430419 93.3056581,54.1762032 L93.3056581,52.6018161 Z M13.4763677,80.5334613 C13.4763677,64.8296548 30.7063355,56.1156226 43.0706903,56.1156226 C65.0089806,56.1156226 77.0698839,64.8296548 77.0698839,80.5334613 C77.0698839,81.6011065 77.5224645,83.8988806 78.9633032,86.1128161 L89.6827871,86.1128161 L89.6827871,45.9281065 L90.0685935,45.9281065 L90.0685935,86.1128161 L148.937465,86.1128161 C149.229045,85.7188484 149.479077,85.3189452 149.697206,84.9183 L149.697206,45.9733645 C145.808723,46.8495903 139.612077,47.3503968 139.612077,47.3503968 C139.106077,47.3503968 138.692819,46.8852032 138.692819,46.312429 L138.692819,45.9592677 L100.038723,45.9325581 L97.7238839,45.9310742 L97.7238839,45.9600097 L95.4097871,45.9600097 L95.4097871,45.9295903 L70.4904,45.9117839 C69.5963677,45.9117839 68.3454645,45.7500419 67.2577871,45.5141065 L67.259271,45.5148484 C67.2474,45.5126226 67.236271,45.5096548 67.2244,45.5066871 C67.0151742,45.461429 66.8111419,45.4139452 66.6189806,45.3642355 C66.6011742,45.3590419 66.5826258,45.3545903 66.5655613,45.3508806 C66.3578194,45.2944935 66.1574968,45.2381065 65.9794323,45.1780097 L48.9891097,39.5007194 C48.5758516,39.3627194 48.1544323,39.2425258 47.7293032,39.1297516 C47.5831419,39.091171 47.4354968,39.0555581 47.2885935,39.0199452 C47.0066581,38.952429 46.7224968,38.8915903 46.4353677,38.8337194 C46.260271,38.7988484 46.0851742,38.7632355 45.9078516,38.7328161 C44.972271,38.5710742 44.0166581,38.4657194 43.0410129,38.4323323 C41.7099806,38.3878161 40.4086258,38.4827839 39.1399161,38.6786548 C39.1510452,38.7535903 39.4010774,40.4051387 39.5234968,40.9504613 C40.5162065,45.3501387 38.1687226,49.5428161 34.0643355,50.7039452 C33.8692065,50.7788806 12.8961742,58.6552677 5.56956129,59.8163968 C5.06133548,59.8965258 3.57152903,59.9610742 3.50920645,59.9633 L3.50030323,59.767429 C3.4557871,60.2660097 3.43352903,60.7979774 3.43352903,61.3833645 L3.43352903,66.3706548 C7.41772258,66.3706548 12.3656903,65.9195581 12.3656903,68.2425581 L12.3656903,74.2143968 C12.3656903,76.5359129 8.0350129,76.8809129 6.87462581,76.8809129 L3.43352903,76.8809129 L3.43352903,84.5132032 C3.43352903,85.0666871 3.5144,85.5986548 3.63681935,86.1128161 L11.5569806,86.1128161 C12.8004645,83.8988806 13.4763677,81.6011065 13.4763677,80.5334613 L13.4763677,80.5334613 Z" id="Fill-9" fill="#D3425A"></path>
                    <path d="M33.9435484,50.3383935 C37.8631935,49.2284581 40.0934516,45.2309097 39.1482258,41.0352645 C39.0206129,40.4751032 38.7757742,38.8524903 38.7579677,38.7360065 C38.1762903,38.8376516 37.6005484,38.9541355 37.0351935,39.1010387 C37.0351935,39.1010387 10.8804839,49.2818774 7.07954839,53.0835548 C4.73429032,55.428071 3.78164516,57.0083935 3.51677419,59.5769742 C3.65329032,59.5710387 5.04441935,59.5087161 5.50887097,59.4352645 C12.7976452,58.2808129 33.7328387,50.4177806 33.9435484,50.3383935" id="Fill-11" fill="#D3425A"></path>
                    <path d="M120.920274,20.7743419 C120.940306,20.7743419 120.96479,20.7773097 120.985565,20.7780516 C121.004113,20.7773097 121.018952,20.7743419 121.038242,20.7743419 L120.920274,20.7743419 Z" id="Fill-13" fill="#D3425A"></path>
                    <path d="M203.530858,57.1092226 C204.621503,56.2315129 208.987794,55.7900613 210.416019,56.1907065 C210.443471,56.1981258 210.468697,56.207029 210.494665,56.2151903 C210.587406,56.2359645 210.6846,56.2522871 210.770665,56.2804806 C210.87231,56.3146097 210.970245,56.3561581 211.071148,56.391771 C211.873923,56.6507065 212.598794,56.9497065 213.266535,57.2872871 C216.186794,58.6658032 218.850342,60.6979645 221.012342,63.3808032 C222.705439,65.4775129 223.934826,67.7975452 224.739826,70.214771 C225.061084,71.1829968 224.627794,71.8077065 223.825761,71.8203194 C223.54531,71.8492548 223.218858,71.8188355 222.858277,71.7171903 L215.592503,69.6687065 C210.154116,68.1366097 204.006439,64.027029 201.796213,60.5184161 C201.109923,59.4329645 202.297019,58.1019323 203.530858,57.1092226 M152.772084,44.546771 C152.772084,45.0728032 151.567181,45.5365129 149.889665,45.9282548 L150.082568,45.9282548 L150.082568,84.1319968 C151.192503,81.6109 151.082697,79.2448677 151.082697,78.5496742 C151.082697,64.1071581 170.631213,58.9492226 185.072987,58.9492226 C199.515503,58.9492226 211.224729,70.6554806 211.224729,85.0987387 C211.224729,85.4036742 211.284826,85.7479323 211.412439,86.1129645 L227.206761,86.1129645 L227.576245,86.1129645 C227.573277,86.1263194 227.574019,86.1226097 227.572535,86.1292871 L227.573277,86.1292871 C227.599245,86.0179968 227.780277,85.2018677 227.780277,84.5133516 L227.780277,78.3819968 C227.780277,72.3404161 225.709535,66.2691581 221.4716,61.3234161 C217.232181,56.3769323 211.549697,53.3988032 205.5786,52.4750935 L158.115503,45.6581903 L125.120148,22.1188032 C124.095535,21.3887387 122.262955,20.7966742 120.985342,20.7781258 C119.756697,20.7966742 119.559342,21.4191581 120.555761,22.1878032 L141.152632,38.0533516 C144.624148,39.5409323 152.772084,43.1771581 152.772084,44.546771" id="Fill-15" fill="#D3425A"></path>
                    <path d="M215.592429,69.6685581 L222.858203,71.7177839 C223.218784,71.8186871 223.545235,71.8491065 223.826429,71.820171 C223.623139,71.8238806 223.402042,71.7986548 223.157203,71.7177839 L216.982816,69.6685581 C216.067268,69.3651065 215.127977,68.9570419 214.195365,68.4762677 C214.195365,68.4770097 214.196106,68.4770097 214.196106,68.4777516 C214.118203,68.4369452 214.0403,68.392429 213.962397,68.3516226 C213.632235,68.1765258 213.3043,67.9925258 212.97859,67.7996226 C212.904397,67.7565903 212.830203,67.7143 212.756752,67.6705258 C212.588332,67.5681387 212.422139,67.4627839 212.255203,67.357429 C212.168397,67.3025258 212.080848,67.2461387 211.9933,67.1897516 C211.830816,67.0836548 211.669816,66.9760742 211.508816,66.8670097 C211.422752,66.8083968 211.338171,66.7475581 211.252106,66.6874613 C211.091106,66.575429 210.929365,66.4626548 210.771332,66.346171 C210.711977,66.3031387 210.654848,66.2578806 210.596235,66.2148484 C210.292784,65.9893 209.997494,65.7585581 209.708881,65.5233645 C209.619106,65.4506548 209.527848,65.3786871 209.439558,65.3052355 C209.311945,65.1991387 209.188784,65.0908161 209.064139,64.9832355 C208.960268,64.8927194 208.857139,64.8022032 208.755494,64.7109452 C208.641977,64.6093 208.529203,64.5069129 208.419397,64.4030419 C208.308106,64.2999129 208.199042,64.1945581 208.090719,64.0892032 C207.993526,63.9957194 207.896332,63.9029774 207.802848,63.8080097 C207.644074,63.6484935 207.491977,63.4882355 207.342106,63.3272355 C207.269397,63.2493323 207.198913,63.171429 207.128429,63.0935258 C206.982268,62.9310419 206.839816,62.7685581 206.704042,62.6060742 C206.640235,62.5303968 206.580881,62.4547194 206.5193,62.3790419 C206.410977,62.2440097 206.305623,62.1097194 206.205461,61.976171 C206.14759,61.8982677 206.088977,61.8211065 206.034074,61.7432032 C205.933171,61.6037194 205.838945,61.4642355 205.746203,61.3254935 C205.702429,61.2587194 205.656429,61.1919452 205.614881,61.125171 C205.486526,60.9218806 205.36559,60.7185903 205.25801,60.5182677 C205.192719,60.3965903 205.153397,60.2712032 205.126687,60.1443323 C205.121494,60.1198484 205.114074,60.0953645 205.109623,60.0693968 C205.091816,59.9536548 205.088106,59.8356871 205.09701,59.7162355 C205.099235,59.675429 205.105171,59.6353645 205.111106,59.5938161 C205.125203,59.4981065 205.145977,59.4009129 205.174171,59.3044613 C205.194945,59.2310097 205.222397,59.1575581 205.251332,59.0841065 C205.27359,59.0306871 205.295848,58.9772677 205.321074,58.9238484 C205.389332,58.7769452 205.468719,58.6307839 205.560719,58.4861065 C205.562945,58.4823968 205.565171,58.4786871 205.567397,58.4742355 L205.567397,58.4749774 C205.877526,57.9897516 206.298203,57.5201065 206.732235,57.1090742 C207.236752,56.6312677 208.031365,56.3166871 208.845268,56.1868484 C208.875687,56.1816548 208.906106,56.1779452 208.936526,56.1742355 C209.112365,56.1490097 209.286719,56.134171 209.461074,56.1274935 C209.510784,56.1252677 209.559752,56.1230419 209.610203,56.1223 C209.76601,56.1215581 209.918106,56.1304613 210.067235,56.1453 C210.119913,56.1504935 210.173332,56.1527194 210.225268,56.1601387 C210.319494,56.1734935 210.4063,56.1950097 210.49459,56.2150419 C210.468623,56.2068806 210.444139,56.1987194 210.415945,56.1905581 C208.988461,55.7899129 204.621429,56.2321065 203.530784,57.1090742 C202.296945,58.1017839 201.109848,59.4328161 201.796139,60.5182677 C204.006365,64.0268806 210.154042,68.1372032 215.592429,69.6685581" id="Fill-17" fill="#993047"></path>
                    <path d="M211.071223,56.3919194 C211.816126,56.6501129 212.548416,56.9491129 213.26661,57.2874355 C212.598868,56.9498548 211.873997,56.6508548 211.071223,56.3919194" id="Fill-19" fill="#993047"></path>
                    <path d="M93.5679323,52.663471 C93.5679323,52.1211161 94.0049323,51.6841161 94.5443194,51.6841161 L103.351835,51.6841161 C103.892706,51.6841161 104.33119,52.1211161 104.33119,52.663471 L104.33119,52.916471 C104.33119,53.4588258 103.892706,53.8943419 103.351835,53.8943419 L94.5443194,53.8943419 C94.0049323,53.8943419 93.5679323,53.4588258 93.5679323,52.916471 L93.5679323,52.663471 Z M94.3313839,55.2046 L103.567739,55.2046 C104.133835,55.2046 104.593094,54.7431161 104.593094,54.1762774 L104.593094,52.6018903 C104.593094,52.0335677 104.133835,51.5780194 103.567739,51.5780194 L94.3313839,51.5780194 C93.7623194,51.5780194 93.3052871,52.0335677 93.3052871,52.6018903 L93.3052871,54.1762774 C93.3052871,54.7431161 93.7623194,55.2046 94.3313839,55.2046 L94.3313839,55.2046 Z" id="Fill-21" fill="#616161"></path>
                    <path d="M94.5446161,53.8944161 L103.35139,53.8944161 C103.893003,53.8944161 104.330745,53.4589 104.330745,52.9165452 L104.330745,52.6635452 C104.330745,52.1204484 103.893003,51.6841903 103.35139,51.6841903 L94.5446161,51.6841903 C94.0044871,51.6841903 93.568229,52.1204484 93.568229,52.6635452 L93.568229,52.9165452 C93.568229,53.4589 94.0044871,53.8944161 94.5446161,53.8944161" id="Fill-23" fill="#CFD8DC"></path>
                    <path d="M47.2882226,39.0202419 C47.4351258,39.0558548 47.582771,39.0914677 47.7296742,39.1293065 C48.1540613,39.2428226 48.5754806,39.3630161 48.9887387,39.5002742 L65.9790613,45.1783065 L44.6996097,35.0531129 L44.6996097,38.5580161 C45.1069323,38.6040161 45.5090613,38.6641129 45.9082226,38.732371 C46.0855452,38.7627903 46.2599,38.7991452 46.4357387,38.8340161 C46.7221258,38.8911452 47.0062871,38.9519839 47.2882226,39.0202419" id="Fill-25" fill="#6D4C41"></path>
                    <path d="M66.5655613,45.3505839 C66.5826258,45.3550355 66.6011742,45.3594871 66.6189806,45.3646806 C66.8126258,45.4136484 67.0151742,45.4611323 67.2244,45.5071323 C67.236271,45.5101 67.2474,45.5130677 67.259271,45.5152935 L67.2577871,45.5145516 L48.9423677,33.2021323 L44.6992387,35.0532613 L65.9794323,45.1784548 C66.1574968,45.2385516 66.3578194,45.2949387 66.5655613,45.3505839" id="Fill-27" fill="#8D6E63"></path>
                    <mask id="mask-2" fill="white">
                        <use xlink:href="#path-1"></use>
                    </mask>
                    <g id="Clip-30"></g>
                    <polygon id="Fill-29" fill="#D1D3D4" mask="url(#mask-2)" points="89.6829355 86.1127419 90.0687419 86.1127419 90.0687419 45.9280323 89.6829355 45.9280323"></polygon>
                    <path d="M149.889813,45.9280323 C149.825265,45.9436129 149.762942,45.9584516 149.69691,45.9740323 L149.69691,84.9182258 C149.840103,84.6548387 149.966974,84.3929355 150.082716,84.1317742 L150.082716,45.9280323 L149.889813,45.9280323 Z" id="Fill-31" fill="#D1D3D4" mask="url(#mask-2)"></path>
                    <path d="M97.7238839,45.9599355 L97.7238839,45.931 L97.7238839,29.6685161 C96.446271,29.6685161 95.4097871,30.5187742 95.4097871,31.5693548 L95.4097871,45.9295161 L95.4097871,45.9599355 L97.7238839,45.9599355 Z" id="Fill-32" fill="#EAEAEA" mask="url(#mask-2)"></path>
                    <path d="M205.567545,58.4750516 L205.567545,58.4743097 C205.565319,58.4787613 205.563094,58.482471 205.560868,58.4861806 C205.468868,58.6308581 205.389481,58.7770194 205.321223,58.9231806 C205.295997,58.9773419 205.273739,59.0307613 205.251481,59.0841806 C205.222545,59.1576323 205.195094,59.2310839 205.174319,59.3045355 C205.146126,59.4009871 205.12461,59.4981806 205.111255,59.5938903 C205.105319,59.6346968 205.099384,59.6755032 205.096416,59.7163097 C205.088255,59.8357613 205.091223,59.953729 205.109771,60.069471 C205.114223,60.0954387 205.1209,60.1199226 205.126094,60.1444065 C205.152803,60.2712774 205.192868,60.3966645 205.258158,60.5183419 C205.365739,60.7186645 205.486674,60.9219548 205.614287,61.1252452 C205.656577,61.1920194 205.702577,61.2587935 205.746352,61.3255677 C205.838352,61.4643097 205.933319,61.6037935 206.034223,61.7432774 C206.089126,61.8211806 206.146997,61.8983419 206.204868,61.9762452 C206.305771,62.1097935 206.411126,62.2440839 206.519448,62.3791161 C206.580287,62.4547935 206.639642,62.530471 206.703448,62.6061484 C206.839965,62.7686323 206.981674,62.9311161 207.128577,63.0936 C207.198319,63.1715032 207.269545,63.2494065 207.342255,63.3273097 C207.492126,63.4883097 207.644223,63.6485677 207.802997,63.8073419 C207.896481,63.9023097 207.993674,63.9950516 208.090126,64.0892774 C208.19919,64.1946323 208.307513,64.2999871 208.419545,64.4031161 C208.529352,64.5069871 208.642126,64.6093742 208.755642,64.7110194 C208.857287,64.8022774 208.959674,64.8927935 209.064287,64.9825677 C209.188932,65.0908903 209.312094,65.1992129 209.439706,65.3053097 C209.527997,65.3787613 209.619255,65.450729 209.709029,65.5234387 C209.997642,65.7586323 210.292932,65.9893742 210.595642,66.2149226 C210.654255,66.2579548 210.712126,66.3032129 210.771481,66.3462452 C210.929513,66.462729 211.090513,66.5755032 211.252255,66.6875355 C211.337577,66.7476323 211.4229,66.807729 211.508965,66.8670839 C211.669965,66.9761484 211.830223,67.083729 211.993448,67.1898258 C212.080255,67.2462129 212.167803,67.3018581 212.255352,67.3575032 C212.421545,67.4628581 212.588481,67.5682129 212.756158,67.6706 C212.830352,67.7143742 212.904545,67.7566645 212.977997,67.7996968 C213.304448,67.9926 213.632384,68.1766 213.961803,68.3516968 C214.040448,68.3925032 214.11761,68.4370194 214.196255,68.4770839 C214.196255,68.4763419 214.195513,68.4763419 214.195513,68.4756 C213.428352,66.6853097 212.414868,64.968471 211.132803,63.380729 C209.522803,61.3826968 207.630868,59.7526645 205.567545,58.4750516" id="Fill-33" fill="#FFAB40" mask="url(#mask-2)"></path>
                    <path d="M12.3658387,74.2143226 L12.3658387,68.2424839 C12.3658387,65.9194839 7.41787097,66.3705806 3.43367742,66.3705806 L3.43367742,67.4048387 C6.63067742,67.4048387 10.6000323,67.0442581 10.6000323,68.908 L10.6000323,73.6986774 C10.6000323,75.5616774 7.12629032,75.8384194 6.19441935,75.8384194 L3.43367742,75.8384194 L3.43367742,76.8808387 L6.87477419,76.8808387 C8.03516129,76.8808387 12.3658387,76.5358387 12.3658387,74.2143226" id="Fill-34" fill="#A4AAAF" mask="url(#mask-2)"></path>
                    <path d="M210.067013,56.1455968 C209.917884,56.1300161 209.766529,56.1218548 209.609981,56.1225968 C209.559529,56.1233387 209.510561,56.1255645 209.461594,56.1277903 C209.286497,56.1337258 209.112142,56.1493065 208.937045,56.1737903 C208.906626,56.1782419 208.876206,56.1819516 208.845787,56.1871452 C208.031142,56.3162419 207.237271,56.6308226 206.732013,57.109371 C206.297981,57.5204032 205.878045,57.9893065 205.567916,58.4752742 C207.631239,59.7521452 209.523174,61.3829194 211.133174,63.3809516 C212.414497,64.9686935 213.427981,66.6855323 214.195142,68.4758226 C215.127755,68.9573387 216.067045,69.3646613 216.982594,69.6688548 L223.157723,71.7173387 C223.402561,71.7989516 223.622916,71.8241774 223.826206,71.8204677 C224.627497,71.8071129 225.060787,71.1831452 224.739529,70.2149194 C223.934529,67.7976935 222.705142,65.4776613 221.012787,63.3809516 C218.850787,60.6981129 216.186497,58.6652097 213.266239,57.2874355 C212.548787,56.9491129 211.815755,56.6501129 211.071594,56.3919194 C210.97069,56.3563065 210.872013,56.3147581 210.770368,56.280629 C210.684303,56.2524355 210.58711,56.2361129 210.494368,56.2153387 C210.406077,56.1945645 210.319271,56.1730484 210.225045,56.1604355 C210.173852,56.1530161 210.11969,56.1507903 210.067013,56.1455968" id="Fill-35" fill="#FFFFFF" mask="url(#mask-2)"></path>
                    <path d="M10.6001065,73.6984548 L10.6001065,68.9077774 C10.6001065,67.0440355 6.63000968,67.4053581 3.43375161,67.4053581 L3.43375161,75.8389387 L6.19449355,75.8389387 C7.12562258,75.8389387 10.6001065,75.5621968 10.6001065,73.6984548" id="Fill-36" fill="#F44336" mask="url(#mask-2)"></path>
                    <path d="M5.56956129,59.8161742 C12.8961742,58.6557871 33.8692065,50.7786581 34.0643355,50.7044645 C38.1687226,49.5425935 40.5162065,45.3499161 39.5234968,40.9502387 C39.4010774,40.4049161 39.1510452,38.7533677 39.1399161,38.6791742 C39.1391742,38.6784323 39.1376903,38.6680452 39.1376903,38.6680452 L38.7563355,38.7251742 C38.7563355,38.7259161 38.7578194,38.7348194 38.7578194,38.7363032 C38.7756258,38.8520452 39.0204645,40.4754 39.1480774,41.0355613 C40.0933032,45.2312065 37.8630452,49.2280129 33.9434,50.3386903 C33.7326903,50.4180774 12.7974968,58.2811097 5.50872258,59.4348194 C5.04427097,59.5090129 3.65314194,59.5713355 3.51662581,59.577271 C3.51069032,59.577271 3.49288387,59.5780129 3.4914,59.5780129 L3.50030323,59.7679484 L3.50920645,59.9630774 C3.57152903,59.9608516 5.06059355,59.8963032 5.56956129,59.8161742" id="Fill-37" fill="#D1D3D4" mask="url(#mask-2)"></path>
                    <path d="M20.2322097,89.8761355 C20.2336935,89.8731677 20.2344355,89.8709419 20.2359194,89.8687161 C20.2344355,89.8716839 20.2329516,89.8753935 20.2307258,89.8783613 C20.2314677,89.8776194 20.2314677,89.8768774 20.2322097,89.8761355" id="Fill-38" fill="#993047" mask="url(#mask-2)"></path>
                    <path d="M65.0932645,87.3735871 C65.0940065,87.3787806 65.0940065,87.3839742 65.0947484,87.3891677 C65.0940065,87.3832323 65.0940065,87.3772968 65.0932645,87.3706194 L65.0932645,87.3735871 Z" id="Fill-39" fill="#993047" mask="url(#mask-2)"></path>
                    <path d="M21.0401032,87.0895 C21.0452968,87.0345968 21.0512323,86.9796935 21.0556839,86.9255323 C21.0556839,86.9203387 21.0556839,86.9158871 21.0556839,86.9106935 C21.0519742,86.9715323 21.0452968,87.0345968 21.0393613,87.0961774 C21.0401032,87.0939516 21.0401032,87.0917258 21.0401032,87.0895" id="Fill-40" fill="#993047" mask="url(#mask-2)"></path>
                    <path d="M65.1997323,88.3212613 C65.2012161,88.3294226 65.2027,88.3375839 65.2041839,88.3457452 C65.2027,88.3368419 65.2012161,88.3279387 65.1997323,88.3190355 L65.1997323,88.3212613 Z" id="Fill-41" fill="#993047" mask="url(#mask-2)"></path>
                    <path d="M20.9400903,87.8473871 L20.9400903,87.8451613 C20.9371226,87.8629677 20.9334129,87.8807742 20.9297032,87.8985806 C20.9334129,87.8815161 20.9371226,87.8644516 20.9400903,87.8473871" id="Fill-42" fill="#993047" mask="url(#mask-2)"></path>
                    <path d="M20.460429,89.444329 C20.4663645,89.4324581 20.4708161,89.4205871 20.4752677,89.4079742 C20.4700742,89.4205871 20.4656226,89.4332 20.4596871,89.4458129 C20.460429,89.445071 20.460429,89.445071 20.460429,89.444329" id="Fill-43" fill="#993047" mask="url(#mask-2)"></path>
                    <path d="M20.9857935,87.5575871 C20.9946968,87.4967484 21.0028581,87.4373935 21.0102774,87.3765548 C21.0102774,87.3758129 21.0110194,87.375071 21.0110194,87.3735871 C21.0028581,87.4351677 20.9939548,87.4974903 20.9850516,87.5598129 C20.9850516,87.559071 20.9857935,87.558329 20.9857935,87.5575871" id="Fill-44" fill="#993047" mask="url(#mask-2)"></path>
                    <path d="M4.5298871,91.4585355 L4.96020968,91.4585355 C4.83779032,91.4585355 4.70646774,91.4577935 4.57143548,91.4563097 C4.55659677,91.4563097 4.54398387,91.4585355 4.5298871,91.4585355" id="Fill-45" fill="#993047" mask="url(#mask-2)"></path>
                    <path d="M65.4258,89.2950516 C65.4317355,89.3136 65.4384129,89.3328903 65.4436065,89.3514387 C65.4361871,89.3276968 65.4287677,89.3032129 65.4213484,89.278729 C65.4228323,89.2839226 65.4243161,89.2891161 65.4258,89.2950516" id="Fill-46" fill="#993047" mask="url(#mask-2)"></path>
                    <path d="M77.0700323,80.5338323 C77.0700323,64.8300258 65.009129,56.1159935 43.0708387,56.1159935 C30.7064839,56.1159935 13.4765161,64.8300258 13.4765161,80.5338323 C13.4765161,81.6007355 12.8006129,83.8985097 11.557129,86.1131871 L21.0858065,86.1131871 C21.0858065,73.9691871 30.9305484,64.1303806 43.0708387,64.1303806 C55.211871,64.1303806 65.055871,73.9691871 65.055871,86.1131871 L78.9634516,86.1131871 C77.521871,83.8985097 77.0700323,81.6007355 77.0700323,80.5338323" id="Fill-47" fill="#993047" mask="url(#mask-2)"></path>
                    <path d="M207.285497,88.0343548 C207.285497,88.0350968 207.286239,88.0350968 207.286239,88.0358387 C207.284755,88.0284194 207.283271,88.0217419 207.281045,88.0150645 L207.285497,88.0343548 Z" id="Fill-48" fill="#993047" mask="url(#mask-2)"></path>
                    <path d="M207.155806,87.3778903 C207.158774,87.3964387 207.163226,87.416471 207.166194,87.4350194 C207.162484,87.4142452 207.158032,87.392729 207.155065,87.3712129 C207.155806,87.3734387 207.155806,87.3756645 207.155806,87.3778903" id="Fill-49" fill="#993047" mask="url(#mask-2)"></path>
                    <path d="M207.744087,89.3138968 C207.751506,89.3294774 207.759668,89.3450581 207.767087,89.3598968 C207.758184,89.3428323 207.750023,89.3257677 207.741119,89.3079613 C207.742603,89.3094452 207.742603,89.311671 207.744087,89.3138968" id="Fill-50" fill="#993047" mask="url(#mask-2)"></path>
                    <path d="M207.418823,88.5125323 C207.419565,88.5147581 207.421048,88.5177258 207.421048,88.5199516 C207.409177,88.4821129 207.399532,88.4442742 207.387661,88.4064355 C207.398048,88.4420484 207.407694,88.4769194 207.418823,88.5125323" id="Fill-51" fill="#993047" mask="url(#mask-2)"></path>
                    <path d="M224.847777,91.4585355 C224.643745,91.4585355 224.447132,91.4540839 224.247552,91.4511161 C224.099165,91.4563097 223.955229,91.4585355 223.815745,91.4585355 L224.847777,91.4585355 Z" id="Fill-52" fill="#993047" mask="url(#mask-2)"></path>
                    <path d="M163.08521,86.5012194 C163.085952,86.4923161 163.08521,86.4856387 163.085952,86.4774774 C163.084468,86.5182839 163.082984,86.5642839 163.0815,86.6073161 C163.082984,86.5717032 163.084468,86.5346065 163.08521,86.5012194" id="Fill-53" fill="#993047" mask="url(#mask-2)"></path>
                    <path d="M162.970729,88.0299774 C162.979632,87.9706226 162.987794,87.9097839 162.995213,87.8489452 C162.995955,87.8467194 162.995955,87.8444935 162.995955,87.8422677 C162.987794,87.9068161 162.97889,87.9713645 162.969987,88.0359129 C162.969987,88.0336871 162.969987,88.0314613 162.970729,88.0299774" id="Fill-54" fill="#993047" mask="url(#mask-2)"></path>
                    <path d="M163.063471,87.0779258 C163.065697,87.0430548 163.067181,87.0089258 163.068665,86.9747968 C163.067181,87.018571 163.064213,87.0623452 163.061245,87.1068613 C163.061987,87.0972161 163.062729,87.087571 163.063471,87.0779258" id="Fill-55" fill="#993047" mask="url(#mask-2)"></path>
                    <path d="M163.028006,87.5503161 C163.0332,87.4924452 163.039877,87.4360581 163.043587,87.3781871 C163.043587,87.3722516 163.044329,87.3670581 163.045071,87.3611226 C163.039877,87.4264129 163.033942,87.4931871 163.027265,87.5592194 C163.027265,87.5562516 163.028006,87.5532839 163.028006,87.5503161" id="Fill-56" fill="#993047" mask="url(#mask-2)"></path>
                    <path d="M162.423032,89.8761355 C162.423774,89.8746516 162.424516,89.8724258 162.425258,89.8702 C162.423774,89.8731677 162.423032,89.8761355 162.421548,89.8791032 C162.42229,89.8776194 162.42229,89.8768774 162.423032,89.8761355" id="Fill-57" fill="#993047" mask="url(#mask-2)"></path>
                    <path d="M162.665719,89.3037323 C162.667203,89.3015065 162.667203,89.2985387 162.668687,89.2963129 C162.655332,89.3319258 162.644203,89.3690226 162.630848,89.4046355 C162.642719,89.3712484 162.653848,89.3371194 162.665719,89.3037323" id="Fill-58" fill="#993047" mask="url(#mask-2)"></path>
                    <path d="M207.118116,87.0909839 C207.118116,87.0924677 207.118116,87.0932097 207.118858,87.0946935 C207.116632,87.0798548 207.115148,87.0665 207.113665,87.0516613 L207.118116,87.0909839 Z" id="Fill-59" fill="#993047" mask="url(#mask-2)"></path>
                    <path d="M211.224803,85.0985161 C211.224803,70.6552581 199.515577,58.9497419 185.073061,58.9497419 C170.631287,58.9497419 151.082029,64.1069355 151.082029,78.5501935 C151.082029,79.2446452 151.192577,81.6114194 150.082642,84.1317742 C149.967642,84.3929355 149.840029,84.6548387 149.696835,84.9182258 C149.478706,85.318871 149.228674,85.7187742 148.937835,86.1127419 L163.088029,86.1127419 C163.088029,73.9694839 172.932771,64.1299355 185.073061,64.1299355 C197.214094,64.1299355 207.058094,73.9694839 207.058094,86.1127419 L211.412513,86.1127419 C211.2849,85.7477097 211.224803,85.4034516 211.224803,85.0985161" id="Fill-60" fill="#993047" mask="url(#mask-2)"></path>
                    <path d="M139.612152,47.3503226 C139.612152,47.3503226 145.808797,46.8495161 149.697281,45.9740323 C149.763313,45.9584516 149.825635,45.9436129 149.890184,45.9280323 C151.566958,45.5370323 152.771861,45.0733226 152.771861,44.5472903 C152.771861,43.1769355 144.624668,39.5414516 141.15241,38.053871 C140.213119,37.651 139.612152,37.4039355 139.612152,37.4039355 C139.106152,37.4039355 138.692894,37.869129 138.692894,38.4404194 L138.692894,45.9591935 L138.692894,46.3130968 C138.692894,46.885129 139.106152,47.3503226 139.612152,47.3503226" id="Fill-61" fill="#A4AAAF" mask="url(#mask-2)"></path>
                    <path d="M42.9214129,100.67189 C34.7052194,100.67189 28.039671,94.0219226 28.0144452,85.8116645 C28.039671,77.6014065 34.7052194,70.9514387 42.9214129,70.9514387 C51.1376065,70.9514387 57.8031548,77.6014065 57.8283806,85.8116645 C57.8031548,94.0219226 51.1376065,100.67189 42.9214129,100.67189 L42.9214129,100.67189 Z M62.7971226,85.7641806 C62.745929,74.8302774 53.867929,65.9819548 42.9214129,65.9819548 C31.9748968,65.9819548 23.0968968,74.8302774 23.0457032,85.7641806 L23.0442194,85.7641806 C23.0442194,85.7805032 23.0449613,85.7953419 23.0449613,85.8116645 C23.0449613,85.8272452 23.0442194,85.8435677 23.0442194,85.8591484 L23.0457032,85.8591484 C23.0968968,96.7930516 31.9748968,105.641374 42.9214129,105.641374 C53.867929,105.641374 62.745929,96.7930516 62.7971226,85.8591484 L62.7986065,85.8591484 C62.7986065,85.8435677 62.7978645,85.8272452 62.7978645,85.8116645 C62.7978645,85.7953419 62.7986065,85.7805032 62.7986065,85.7641806 L62.7971226,85.7641806 Z" id="Fill-62" fill="#414242" mask="url(#mask-2)"></path>
                    <path d="M40.1971,84.1906097 C39.8075839,84.0622548 39.3846806,84.2774161 39.2607774,84.6706419 C39.1316806,85.0601581 39.3475839,85.4823194 39.7371,85.6106742 C40.1303258,85.7353194 40.5487774,85.5238677 40.6763903,85.1306419 C40.8054871,84.7366742 40.5895839,84.3189645 40.1971,84.1906097" id="Fill-63" fill="#414242" mask="url(#mask-2)"></path>
                    <path d="M42.9214129,83.9008097 C41.8893806,83.9008097 41.057671,84.7332613 41.057671,85.7645516 C41.057671,85.7801323 41.0598968,85.7964548 41.0606387,85.8127774 C41.0598968,85.8283581 41.057671,85.8431968 41.057671,85.8595194 C41.057671,86.8900677 41.8938323,87.7225194 42.9214129,87.7225194 C43.9527032,87.7225194 44.7851548,86.8900677 44.7851548,85.8595194 C44.7851548,85.8431968 44.782929,85.8276161 44.7821871,85.8105516 C44.782929,85.7957129 44.7851548,85.7801323 44.7851548,85.7645516 C44.7851548,84.7332613 43.9489935,83.9008097 42.9214129,83.9008097" id="Fill-64" fill="#414242" mask="url(#mask-2)"></path>
                    <path d="M46.586129,84.6710129 C46.4577742,84.2777871 46.0356129,84.0626258 45.6460968,84.1909806 C45.252871,84.3185935 45.0369677,84.7370452 45.1660645,85.130271 C45.2944194,85.5234968 45.712129,85.7356903 46.1060968,85.6110452 C46.4993226,85.4826903 46.7107742,85.0597871 46.586129,84.6710129" id="Fill-65" fill="#414242" mask="url(#mask-2)"></path>
                    <path d="M42.9214129,83.4986806 C43.3361548,83.4986806 43.6663161,83.1677774 43.6663161,82.7537774 C43.6663161,82.3434871 43.3361548,82.0081323 42.9214129,82.0081323 C42.5111226,82.0081323 42.1757677,82.3434871 42.1757677,82.7537774 C42.1757677,83.1677774 42.5111226,83.4986806 42.9214129,83.4986806" id="Fill-66" fill="#414242" mask="url(#mask-2)"></path>
                    <path d="M48.1134774,80.1034355 C47.5785419,80.4031774 47.0398968,80.7021774 46.4797355,80.9625968 C46.2949935,81.052371 45.6124129,81.3476613 45.3534774,81.3550806 C45.2414452,81.1221129 45.1932194,80.3757258 45.1843161,80.1679839 C45.1628,79.5551452 45.1820903,78.9415645 45.1991548,78.3279839 C45.2184452,77.7774677 45.2399613,77.2299194 45.2629613,76.681629 C46.0790903,76.911629 46.8581226,77.2469839 47.5800258,77.6765645 C48.3056387,78.1195 48.9726387,78.6588871 49.5587677,79.2843387 C49.0779935,79.5588548 48.5964774,79.8341129 48.1134774,80.1034355 M44.5774129,72.2938226 L44.5774129,72.3235 C44.5648,72.3220161 44.5507032,72.3175645 44.5373484,72.3160806 C44.4023161,78.7345645 43.955671,81.6028871 44.9869613,82.0836613 C45.9440581,82.6319516 48.3034129,80.913629 53.7737032,77.9050806 C53.7358645,77.8531452 53.6913484,77.8049194 53.6520258,77.7537258 C53.7173161,77.7158871 53.776671,77.6810161 53.8419613,77.6439194 C51.6591871,74.7488871 48.3583161,72.7530806 44.5774129,72.2938226" id="Fill-67" fill="#414242" mask="url(#mask-2)"></path>
                    <path d="M40.4949129,87.9336 C40.2508161,88.2652452 40.3250097,88.7326645 40.6566548,88.9730516 C40.9912677,89.2171484 41.4557194,89.1429548 41.6998161,88.8120516 C41.9402032,88.4759548 41.8697194,88.0122452 41.5343645,87.7681484 C41.2027194,87.5277613 40.7345581,87.6026968 40.4949129,87.9336" id="Fill-68" fill="#414242" mask="url(#mask-2)"></path>
                    <path d="M33.6196935,88.2821613 C33.4178871,87.457871 33.326629,86.6150323 33.3444355,85.7751613 C33.372629,84.9256452 33.5128548,84.0798387 33.7680806,83.2607419 C34.2444032,83.5441613 34.7207258,83.8283226 35.1933387,84.1154516 C35.7178871,84.4337419 36.2424355,84.755 36.7462097,85.1140968 C36.914629,85.2305806 37.5074355,85.6794516 37.6424677,85.9005484 C37.4948226,86.1134839 36.868629,86.5230323 36.6935323,86.6328387 C36.1697258,86.9533548 35.626629,87.2397419 35.0835323,87.5253871 C34.5945968,87.7806129 34.1078871,88.0313871 33.6196935,88.2821613 M38.4459839,86.0096129 C38.4660161,85.9272581 38.4756613,85.8463871 38.4667581,85.7640323 C38.4534032,85.1897742 37.7092419,84.605871 36.2409516,83.7400323 C34.9173387,82.9083226 33.005371,81.8243548 30.4924355,80.2729677 C30.4649839,80.3330645 30.4449516,80.3976129 30.4182419,80.4584516 C30.3907903,80.4436129 30.3677903,80.4295161 30.3403387,80.4146774 C29.7252742,81.8599677 29.370629,83.4365806 29.2897581,85.0866452 C29.279371,85.2550645 29.2548871,85.4190323 29.2496935,85.5881935 C29.2489516,85.6045161 29.2489516,85.6200968 29.2489516,85.6364194 L29.2467258,85.6839032 C29.1910806,87.584 29.5256935,89.4002581 30.1771129,91.0636774 C30.2097581,91.045871 30.2401774,91.0302903 30.2720806,91.0132258 C30.2980484,91.0777742 30.3180806,91.1452903 30.3447903,91.2090968 C33.1270484,89.6035484 35.1888871,88.5247742 36.5399516,87.7064194 C37.7463387,87.0171613 38.3755,86.514129 38.4459839,86.0096129" id="Fill-69" fill="#414242" mask="url(#mask-2)"></path>
                    <path d="M45.1863194,88.9733484 C45.5179645,88.7329613 45.5921581,88.2655419 45.3525129,87.9338968 C45.1084161,87.6022516 44.6447065,87.5280581 44.3078677,87.7684452 C43.9777065,88.0125419 43.902771,88.4762516 44.1431581,88.8116065 C44.3879968,89.1432516 44.8517065,89.2174452 45.1863194,88.9733484" id="Fill-70" fill="#414242" mask="url(#mask-2)"></path>
                    <path d="M46.1058,86.0128774 C45.7125742,85.8882323 45.2941226,86.0996839 45.1657677,86.4929097 C45.0374129,86.8868774 45.2533161,87.3045871 45.6458,87.4329419 C46.0353161,87.5612968 46.4582194,87.3461355 46.5821226,86.9529097 C46.7104774,86.5633935 46.4945742,86.1412323 46.1058,86.0128774" id="Fill-71" fill="#414242" mask="url(#mask-2)"></path>
                    <path d="M45.3479129,83.6899516 C45.5920097,83.3583065 45.5178161,82.8901452 45.186171,82.6505 C44.8515581,82.4064032 44.3871065,82.4805968 44.1430097,82.8115 C43.9026226,83.1468548 43.9731065,83.6113065 44.3084613,83.8554032 C44.6401065,84.0950484 45.1082677,84.0208548 45.3479129,83.6899516" id="Fill-72" fill="#414242" mask="url(#mask-2)"></path>
                    <path d="M42.9214129,88.1242032 C42.506671,88.1242032 42.1765097,88.4558484 42.1765097,88.8698484 C42.1765097,89.2801387 42.506671,89.6154935 42.9214129,89.6154935 C43.3317032,89.6154935 43.6663161,89.2801387 43.6663161,88.8698484 C43.6663161,88.4558484 43.3317032,88.1242032 42.9214129,88.1242032" id="Fill-73" fill="#414242" mask="url(#mask-2)"></path>
                    <path d="M40.6565065,82.6502032 C40.3248613,82.8898484 40.2506677,83.3580097 40.4903129,83.6896548 C40.7344097,84.0213 41.1981194,84.0947516 41.5349581,83.8551065 C41.8651194,83.6110097 41.9400548,83.1465581 41.6996677,82.8119452 C41.454829,82.4803 40.9911194,82.4061065 40.6565065,82.6502032" id="Fill-74" fill="#414242" mask="url(#mask-2)"></path>
                    <path d="M39.7362839,86.0128774 C39.3438,86.1412323 39.1323484,86.5633935 39.2569935,86.9529097 C39.3846065,87.3461355 39.8075097,87.5612968 40.1962839,87.4329419 C40.5895097,87.3045871 40.8054129,86.8868774 40.6770581,86.4929097 C40.5487032,86.0996839 40.1302516,85.8882323 39.7362839,86.0128774" id="Fill-75" fill="#414242" mask="url(#mask-2)"></path>
                    <path d="M40.4470581,93.4242194 C40.4285097,93.9747355 40.4055097,94.5222839 40.3839935,95.0713161 C39.5663806,94.8405742 38.7888323,94.5052194 38.066929,94.0756387 C37.3405742,93.6327032 36.6743161,93.0940581 36.0874452,92.4686065 C36.5682194,92.1940903 37.0497355,91.9188323 37.5319935,91.6495097 C38.067671,91.3490258 38.6070581,91.0515097 39.1664774,90.7896065 C39.3512194,90.6998323 40.0330581,90.4052839 40.2927355,90.3978645 C40.4047677,90.6308323 40.4537355,91.3772194 40.4626387,91.5849613 C40.4834129,92.1978 40.4648645,92.8113806 40.4470581,93.4242194 M39.2065419,89.8280581 C37.8220903,90.3867355 35.5539935,91.8231226 31.8732516,93.8471226 C32.9171548,95.2968645 34.2615419,96.5618645 35.8871226,97.5471548 C35.9004774,97.5553161 35.9153161,97.5634774 35.927929,97.5716387 C35.9420258,97.5798 35.9553806,97.5879613 35.9687355,97.5961226 C37.5943161,98.5814129 39.3408323,99.1838645 41.1088645,99.4368645 C41.1103484,99.3908645 41.1118323,99.3485742 41.1118323,99.3040581 C41.1637677,99.3107355 41.2127355,99.3240903 41.2654129,99.3300258 C41.2654129,91.0062516 41.9902839,88.6164774 39.2065419,89.8280581" id="Fill-76" fill="#414242" mask="url(#mask-2)"></path>
                    <path d="M45.2993903,91.4788645 C45.2504226,92.094671 45.2444871,92.7104774 45.2422613,93.3240581 C45.2385516,93.8768 45.2415194,94.4310258 45.2430032,94.9859935 C46.0761968,94.7827032 46.8737774,94.4673806 47.6164548,94.0541226 C48.3457774,93.6371548 49.0224226,93.1252194 49.6248742,92.5279613 C49.1581968,92.2378645 48.6915194,91.9492516 48.2218742,91.6621226 C47.6973258,91.3438323 47.1720355,91.0262839 46.6281968,90.7421226 C46.4434548,90.6478968 45.7705194,90.3221871 45.5115839,90.3051226 C45.3906484,90.5351226 45.3112613,91.2740903 45.2993903,91.4788645" id="Fill-77" fill="#A4AAAF" mask="url(#mask-2)"></path>
                    <path d="M48.222171,91.6621226 C48.6918161,91.9492516 49.1584935,92.2378645 49.625171,92.5279613 C49.0219774,93.1252194 48.3460742,93.6371548 47.6167516,94.0541226 C46.8740742,94.4673806 46.0757516,94.7827032 45.2425581,94.9852516 C45.2410742,94.4310258 45.2388484,93.8768 45.2418161,93.3240581 C45.2440419,92.7104774 45.2499774,92.094671 45.2996871,91.4788645 C45.3108161,91.2740903 45.3909452,90.5343806 45.5118806,90.3051226 C45.7700742,90.3221871 46.4437516,90.6478968 46.6284935,90.7421226 C47.1723323,91.0262839 47.6976226,91.3438323 48.222171,91.6621226 M46.359171,89.6915419 C46.2820097,89.6626065 46.2048484,89.6344129 46.1343645,89.6121548 C45.6558161,89.4548645 45.3063645,89.4504129 45.0585581,89.6269935 C44.1096226,90.1901226 44.4442355,93.0896065 44.3678161,99.3322516 C44.4375581,99.3240903 44.5073,99.3077677 44.5777839,99.2988645 L44.5777839,99.3300258 C48.3542355,98.8707677 51.6595581,96.8742194 53.8415903,93.979929 C50.0043,91.7652516 47.7310097,90.2160903 46.3866226,89.701929 C46.3777194,89.6982194 46.3688161,89.6952516 46.359171,89.6915419" id="Fill-78" fill="#414242" mask="url(#mask-2)"></path>
                    <path d="M40.4043226,78.4282935 C40.4072903,77.8755516 40.4058065,77.3213258 40.4028387,76.7678419 C39.5696452,76.9696484 38.7728065,77.284971 38.030129,77.698971 C37.3000645,78.1151968 36.6249032,78.6278742 36.0224516,79.2243903 C36.489129,79.5144871 36.9543226,79.8038419 37.4239677,80.090229 C37.9492581,80.4085194 38.4738065,80.7268097 39.0176452,81.010229 C39.203129,81.1044548 39.8760645,81.4301645 40.135,81.447229 C40.2551935,81.217971 40.3345806,80.4790032 40.3479355,80.274229 C40.3961613,79.6576806 40.4020968,79.0418742 40.4043226,78.4282935" id="Fill-79" fill="#A4AAAF" mask="url(#mask-2)"></path>
                    <path d="M39.017571,81.0106 C38.4744742,80.7264387 37.9499258,80.4081484 37.4246355,80.0906 C36.9542484,79.803471 36.4890548,79.5141161 36.0223774,79.2247613 C36.624829,78.6275032 37.3007323,78.1155677 38.0300548,77.6986 C38.7727323,77.2853419 39.569571,76.9700194 40.4027645,76.767471 C40.4057323,77.3209548 40.4072161,77.8751806 40.4042484,78.4286645 C40.4020226,79.0422452 40.3960871,79.6580516 40.3478613,80.2746 C40.3345065,80.4786323 40.2551194,81.2176 40.1349258,81.4476 C39.8759903,81.4297935 39.2030548,81.1048258 39.017571,81.0106 M40.5882484,82.125729 C40.673571,82.0745355 40.7462806,81.9966323 40.8130548,81.9068581 C41.5460871,81.205729 41.3057,78.6356645 41.2693452,73.4747613 C41.270829,73.133471 41.2737968,72.7840194 41.2782484,72.420471 L41.2648935,72.4226968 L41.2648935,72.2936 C38.5019258,72.6296968 35.9971516,73.7945355 33.9939258,75.525471 C33.1970871,76.1828258 32.4796355,76.9099226 31.8653129,77.7060194 C37.3860548,80.9846323 39.661571,82.7867935 40.5882484,82.125729" id="Fill-80" fill="#414242" mask="url(#mask-2)"></path>
                    <path d="M37.6423935,85.9005484 C37.5073613,85.6794516 36.9152968,85.2305806 36.7461355,85.1140968 C36.2423613,84.755 35.7178129,84.433 35.1932645,84.1154516 C34.7206516,83.8283226 34.244329,83.5441613 33.7680065,83.2607419 C33.5135226,84.0798387 33.3725548,84.9256452 33.3443613,85.7751613 C33.3272968,86.6150323 33.4178129,87.457871 33.6196194,88.2821613 C34.1078129,88.0313871 34.5952645,87.7806129 35.0834581,87.5253871 C35.6265548,87.2397419 36.1696516,86.9533548 36.6934581,86.6328387 C36.8685548,86.5230323 37.4947484,86.1134839 37.6423935,85.9005484" id="Fill-81" fill="#A4AAAF" mask="url(#mask-2)"></path>
                    <path d="M48.0047839,85.8520258 C48.1383323,86.0738645 48.7311387,86.5219935 48.9003,86.6384774 C49.4033323,86.9975742 49.9286226,87.3195742 50.4539129,87.6371226 C50.9257839,87.9249935 51.4013645,88.2084129 51.878429,88.4918323 C52.1329129,87.6727355 52.2738806,86.826929 52.3013323,85.9774129 C52.3198806,85.1375419 52.2286226,84.2947032 52.0275581,83.4704129 C51.5393645,83.7211871 51.050429,83.9719613 50.5622355,84.2271871 C50.0198806,84.5128323 49.4767839,84.7992194 48.9537194,85.1197355 C48.7778806,85.2295419 48.152429,85.6390903 48.0047839,85.8520258" id="Fill-82" fill="#A4AAAF" mask="url(#mask-2)"></path>
                    <path d="M50.5624581,84.2268161 C51.0506516,83.9715903 51.5388452,83.7208161 52.0277806,83.4700419 C52.2288452,84.2950742 52.3201032,85.1379129 52.3015548,85.9770419 C52.2741032,86.8273 52.1331355,87.6731065 51.8779097,88.4914613 C51.4015871,88.2080419 50.9252645,87.9246226 50.4541355,87.6374935 C49.9288452,87.3192032 49.4035548,86.9972032 48.9005226,86.6381065 C48.7306194,86.5223645 48.1378129,86.0734935 48.0050065,85.8516548 C48.1526516,85.6387194 48.7781032,85.2299129 48.9539419,85.1193645 C49.4770065,84.7988484 50.0201032,84.5132032 50.5624581,84.2268161 M47.1888774,85.8909774 C47.1829419,86.9942355 49.8412968,88.2006226 55.1535548,91.4799774 C55.2114258,91.3553323 55.2537161,91.2240097 55.3078774,91.0978806 C55.3731677,91.1364613 55.4347484,91.1705903 55.5022645,91.209171 C56.2019097,89.5657839 56.5862323,87.7606548 56.5862323,85.8590742 L56.5862323,85.8115903 L56.5862323,85.7641065 C56.5862323,83.8632677 56.1982,82.0573968 55.4978129,80.4140097 C52.4521677,82.1723968 50.2738452,83.297171 48.9428129,84.1422355 C47.7334581,84.8470742 47.1465871,85.3582677 47.1888774,85.8909774" id="Fill-83" fill="#414242" mask="url(#mask-2)"></path>
                    <path d="M40.2927355,90.3977903 C40.0330581,90.4052097 39.3512194,90.6997581 39.1664774,90.7895323 C38.6070581,91.0514355 38.067671,91.3489516 37.5319935,91.6494355 C37.0497355,91.9187581 36.5682194,92.1940161 36.0874452,92.4685323 C36.6743161,93.0939839 37.3405742,93.632629 38.066929,94.0755645 C38.7888323,94.5051452 39.5663806,94.8405 40.3839935,95.0712419 C40.4055097,94.5229516 40.4285097,93.9746613 40.4470581,93.4241452 C40.4648645,92.8113065 40.4834129,92.1977258 40.4626387,91.5848871 C40.4537355,91.3771452 40.4047677,90.6307581 40.2927355,90.3977903" id="Fill-84" fill="#A4AAAF" mask="url(#mask-2)"></path>
                    <path d="M45.2631097,76.6814065 C45.2401097,77.2296968 45.2178516,77.7779871 45.1993032,78.3285032 C45.1822387,78.9413419 45.1629484,79.5549226 45.1844645,80.1677613 C45.1933677,80.3755032 45.2415935,81.1218903 45.3536258,81.3556 C45.6125613,81.3474387 46.2951419,81.0528903 46.4798839,80.9631161 C47.0400452,80.7019548 47.5786903,80.4036968 48.1136258,80.1032129 C48.5966258,79.8338903 49.0781419,79.5586323 49.5589161,79.2841161 C48.9727871,78.6586645 48.3057871,78.1192774 47.5801742,77.6770839 C46.857529,77.2475032 46.0792387,76.9121484 45.2631097,76.6814065" id="Fill-85" fill="#A4AAAF" mask="url(#mask-2)"></path>
                    <path d="M3.63652258,86.1128161 L1.78094194,86.1128161 C0.076716129,86.1128161 0.000296774194,86.9326548 0.000296774194,87.9461387 L0.000296774194,89.7802032 C0.000296774194,91.2670419 2.78923226,91.4399129 4.57136129,91.4562355 C4.70639355,91.4577194 4.83771613,91.4584613 4.96013548,91.4584613 L17.3467484,91.4584613 C17.5403935,91.4584613 17.7229097,91.4443645 17.8972645,91.4206226 C17.9551355,91.4132032 18.0085548,91.3991065 18.0642,91.3887194 C18.1769742,91.3686871 18.2875226,91.347171 18.3921355,91.3174935 C18.4537161,91.2996871 18.5115871,91.277429 18.5702,91.2573968 C18.6607161,91.2254935 18.7504903,91.1921065 18.834329,91.1527839 C18.8922,91.1268161 18.9478452,91.0978806 19.0027484,91.0689452 C19.0799097,91.0266548 19.156329,90.9813968 19.2290387,90.9339129 C19.2794903,90.9005258 19.3299419,90.8663968 19.3789097,90.8293 C19.4486516,90.7773645 19.5139419,90.7217194 19.5784903,90.6638484 C19.6215226,90.6252677 19.6652968,90.588171 19.7053613,90.5488484 C19.7721355,90.4820742 19.8329742,90.4115903 19.893071,90.3403645 C19.9242323,90.3025258 19.9591032,90.2676548 19.9880387,90.2290742 C20.0681677,90.1252032 20.1431032,90.0176226 20.2121032,89.9055903 C20.2180387,89.8966871 20.2247161,89.8877839 20.2306516,89.8781387 C20.2328774,89.875171 20.2343613,89.8714613 20.2358452,89.8684935 C20.3182,89.7327194 20.3923935,89.5910097 20.4599097,89.4455903 C20.4658452,89.4337194 20.4695548,89.4203645 20.4747484,89.4077516 C20.6943613,88.9277194 20.8382968,88.4091065 20.9302968,87.8986548 C20.9332645,87.8808484 20.9369742,87.8630419 20.9399419,87.8452355 C20.9577484,87.7495258 20.9718452,87.6545581 20.9852,87.5595903 C20.9941032,87.4972677 21.0030065,87.4349452 21.0111677,87.3733645 C21.0222968,87.2791387 21.0312,87.1878806 21.0393613,87.0958806 C21.0452968,87.0343 21.0519742,86.9712355 21.0564258,86.9103968 C21.0772,86.6240097 21.0861032,86.3539452 21.0861032,86.1128161 L11.5574258,86.1128161 L3.63652258,86.1128161 Z" id="Fill-86" fill="#A4AAAF" mask="url(#mask-2)"></path>
                    <path d="M227.5735,86.1295097 L227.572758,86.1295097 C227.452565,86.1220903 227.336823,86.1131871 227.206984,86.1131871 L211.412661,86.1131871 L207.058242,86.1131871 C207.058242,86.3928968 207.076048,86.7134129 207.113887,87.0517355 C207.115371,87.0665742 207.116855,87.079929 207.119081,87.0947677 C207.129468,87.1860258 207.141339,87.2772839 207.154694,87.3715097 C207.157661,87.3922839 207.162113,87.4138 207.165823,87.4353161 C207.196242,87.6259935 207.234081,87.8188968 207.280823,88.0147677 C207.283048,88.0221871 207.284532,88.0288645 207.286016,88.0355419 C207.315694,88.1594452 207.349823,88.2826065 207.387661,88.4065097 C207.399532,88.4443484 207.409177,88.4821871 207.421048,88.5200258 C207.507855,88.7886065 207.615435,89.0519935 207.741565,89.3079613 C207.749726,89.3257677 207.757887,89.3428323 207.767532,89.3598968 C207.925565,89.6692839 208.113274,89.9630903 208.34179,90.2272194 C208.342532,90.2279613 208.342532,90.2287032 208.344016,90.2294452 C208.442694,90.3429613 208.548048,90.4498 208.661565,90.5507032 C208.669726,90.5581226 208.676403,90.5662839 208.684565,90.5737032 C208.791403,90.6671871 208.906403,90.7517677 209.026597,90.8341226 C209.043661,90.8452516 209.059242,90.8600903 209.077048,90.8727032 C209.189823,90.944671 209.3115,91.0077355 209.435403,91.0685742 C209.466565,91.0841548 209.493274,91.1034452 209.525177,91.1175419 C209.645371,91.1724452 209.777435,91.2154774 209.9095,91.2585097 C209.951048,91.2718645 209.987403,91.289671 210.029694,91.3022839 C210.1625,91.3393806 210.307919,91.3646065 210.452597,91.3890903 C210.501565,91.3972516 210.545339,91.4113484 210.59579,91.4180258 C210.794629,91.4439935 211.003855,91.4588323 211.224952,91.4588323 L223.816339,91.4588323 C223.955081,91.4588323 224.099016,91.4566065 224.248145,91.4514129 C226.48879,91.3764774 229.764435,90.7183806 229.764435,88.7863806 C229.764435,87.8878968 229.779274,87.700929 229.792629,87.448671 C229.83121,86.7683161 229.037339,86.2111226 227.5735,86.1295097" id="Fill-87" fill="#A4AAAF" mask="url(#mask-2)"></path>
                    <path d="M90.068371,86.1128161 L89.6825645,86.1128161 L78.9630806,86.1128161 L65.0555,86.1128161 C65.0555,86.4800742 65.0621774,86.9133645 65.0933387,87.3703968 C65.0940806,87.3770742 65.0940806,87.3830097 65.0948226,87.3896871 C65.1155968,87.6931387 65.1489839,88.0054935 65.1994355,88.3193323 C65.2009194,88.3274935 65.2024032,88.3371387 65.2038871,88.3460419 C65.2565645,88.6635903 65.3270484,88.9766871 65.4212742,89.2786548 C65.4286935,89.3031387 65.4361129,89.3276226 65.4442742,89.3513645 C65.5103065,89.5553968 65.5882097,89.7512677 65.6794677,89.9367516 C65.7284355,90.036171 65.780371,90.1341065 65.8375,90.2268484 C65.8619839,90.2683968 65.8909194,90.3054935 65.918371,90.3455581 C65.9658548,90.4145581 66.0125968,90.4835581 66.0645323,90.5473645 C66.0979194,90.588171 66.1350161,90.6260097 66.170629,90.6645903 C66.2225645,90.7217194 66.2767258,90.7773645 66.3345968,90.8293 C66.3746613,90.8656548 66.4169516,90.9005258 66.4599839,90.9339129 C66.5200806,90.9813968 66.5838871,91.0266548 66.6491774,91.0689452 C66.6951774,91.0978806 66.7419194,91.1268161 66.7908871,91.1527839 C66.8628548,91.1921065 66.9385323,91.2254935 67.0171774,91.2573968 C67.067629,91.277429 67.1165968,91.2996871 67.1692742,91.3174935 C67.2590484,91.347171 67.3562419,91.3686871 67.4534355,91.3887194 C67.5024032,91.3991065 67.5476613,91.4132032 67.5981129,91.4206226 C67.7502097,91.4443645 67.9097258,91.4584613 68.080371,91.4584613 L89.6825645,91.4584613 L89.8754677,91.4584613 L90.068371,91.4584613 L134.669081,91.4584613 L149.696984,91.4584613 L150.08279,91.4584613 L159.734629,91.4584613 C159.922339,91.4584613 160.098919,91.4443645 160.265855,91.4206226 C160.3215,91.4132032 160.371952,91.3991065 160.425371,91.3887194 C160.532952,91.3686871 160.639048,91.347171 160.738468,91.3174935 C160.796339,91.2996871 160.849758,91.278171 160.906145,91.2573968 C160.99221,91.2254935 161.07679,91.1921065 161.156177,91.1527839 C161.209597,91.1268161 161.260048,91.0986226 161.3105,91.0696871 C161.384694,91.0266548 161.455919,90.9813968 161.524177,90.932429 C161.570177,90.8997839 161.615435,90.8663968 161.658468,90.8307839 C161.723758,90.7773645 161.786081,90.7202355 161.845435,90.6616226 C161.882532,90.6245258 161.921113,90.588171 161.955984,90.5488484 C162.018306,90.4820742 162.073952,90.4093645 162.128113,90.335171 C162.155565,90.3003 162.183758,90.2669129 162.208984,90.2298161 C162.281694,90.1237194 162.348468,90.013171 162.410048,89.8989129 C162.413758,89.8914935 162.41821,89.8855581 162.421919,89.8788806 C162.422661,89.8759129 162.423403,89.8729452 162.424887,89.8699774 C162.503532,89.7208484 162.570306,89.5643 162.631145,89.4047839 C162.643758,89.369171 162.655629,89.3320742 162.668984,89.2964613 C162.812177,88.8906226 162.907887,88.4617839 162.97021,88.0359129 C162.979113,87.9713645 162.988016,87.9068161 162.996177,87.8422677 C163.008048,87.7473 163.017694,87.6530742 163.027339,87.5588484 C163.034016,87.4928161 163.039952,87.4267839 163.045145,87.3614935 C163.051823,87.2746871 163.057016,87.1908484 163.061468,87.1070097 C163.064435,87.0624935 163.067403,87.0187194 163.068887,86.9749452 C163.074081,86.8480742 163.078532,86.7263968 163.0815,86.6069452 C163.082984,86.5639129 163.084468,86.5186548 163.085952,86.4771065 C163.087435,86.3494935 163.088177,86.2278161 163.088177,86.1128161 L148.937984,86.1128161 L90.068371,86.1128161 Z" id="Fill-88" fill="#A4AAAF" mask="url(#mask-2)"></path>
                    <path d="M185.373026,100.67189 C177.156832,100.67189 170.491284,94.0219226 170.466058,85.8116645 C170.491284,77.6014065 177.156832,70.9514387 185.373026,70.9514387 C193.589219,70.9514387 200.254768,77.6014065 200.279994,85.8116645 C200.254768,94.0219226 193.589219,100.67189 185.373026,100.67189 L185.373026,100.67189 Z M205.248735,85.7641806 C205.197542,74.8302774 196.319542,65.9819548 185.373026,65.9819548 C174.42651,65.9819548 165.54851,74.8302774 165.497316,85.7641806 L165.495832,85.7641806 C165.495832,85.7805032 165.496574,85.7953419 165.496574,85.8116645 C165.496574,85.8272452 165.495832,85.8435677 165.495832,85.8591484 L165.497316,85.8591484 C165.54851,96.7930516 174.42651,105.641374 185.373026,105.641374 C196.319542,105.641374 205.197542,96.7930516 205.248735,85.8591484 L205.250219,85.8591484 C205.250219,85.8435677 205.249477,85.8272452 205.249477,85.8116645 C205.249477,85.7953419 205.250219,85.7805032 205.250219,85.7641806 L205.248735,85.7641806 Z" id="Fill-89" fill="#414242" mask="url(#mask-2)"></path>
                    <path d="M182.648713,84.1906097 C182.259197,84.0622548 181.836294,84.2774161 181.71239,84.6706419 C181.583294,85.0601581 181.799197,85.4823194 182.188713,85.6106742 C182.581939,85.7353194 183.00039,85.5238677 183.128003,85.1306419 C183.2571,84.7366742 183.041197,84.3189645 182.648713,84.1906097" id="Fill-90" fill="#414242" mask="url(#mask-2)"></path>
                    <path d="M185.373026,83.9008097 C184.340994,83.9008097 183.509284,84.7332613 183.509284,85.7645516 C183.509284,85.7801323 183.51151,85.7964548 183.512252,85.8127774 C183.51151,85.8283581 183.509284,85.8431968 183.509284,85.8595194 C183.509284,86.8900677 184.345445,87.7225194 185.373026,87.7225194 C186.404316,87.7225194 187.236768,86.8900677 187.236768,85.8595194 C187.236768,85.8431968 187.234542,85.8276161 187.2338,85.8105516 C187.234542,85.7957129 187.236768,85.7801323 187.236768,85.7645516 C187.236768,84.7332613 186.400606,83.9008097 185.373026,83.9008097" id="Fill-91" fill="#414242" mask="url(#mask-2)"></path>
                    <path d="M189.037742,84.6710129 C188.909387,84.2777871 188.487226,84.0626258 188.09771,84.1909806 C187.704484,84.3185935 187.488581,84.7370452 187.617677,85.130271 C187.746032,85.5234968 188.163742,85.7356903 188.55771,85.6110452 C188.950935,85.4826903 189.162387,85.0597871 189.037742,84.6710129" id="Fill-92" fill="#414242" mask="url(#mask-2)"></path>
                    <path d="M185.373026,83.4986806 C185.787768,83.4986806 186.117929,83.1677774 186.117929,82.7537774 C186.117929,82.3434871 185.787768,82.0081323 185.373026,82.0081323 C184.962735,82.0081323 184.627381,82.3434871 184.627381,82.7537774 C184.627381,83.1677774 184.962735,83.4986806 185.373026,83.4986806" id="Fill-93" fill="#414242" mask="url(#mask-2)"></path>
                    <path d="M190.56509,80.1034355 C190.030155,80.4031774 189.49151,80.7021774 188.931348,80.9625968 C188.746606,81.052371 188.064026,81.3476613 187.80509,81.3550806 C187.693058,81.1221129 187.644832,80.3757258 187.635929,80.1679839 C187.614413,79.5551452 187.633703,78.9415645 187.650768,78.3279839 C187.670058,77.7774677 187.691574,77.2299194 187.714574,76.681629 C188.530703,76.911629 189.309735,77.2469839 190.031639,77.6765645 C190.757252,78.1195 191.424252,78.6588871 192.010381,79.2843387 C191.529606,79.5588548 191.04809,79.8341129 190.56509,80.1034355 M187.029026,72.2938226 L187.029026,72.3235 C187.016413,72.3220161 187.002316,72.3175645 186.988961,72.3160806 C186.853929,78.7345645 186.407284,81.6028871 187.438574,82.0836613 C188.395671,82.6319516 190.755026,80.913629 196.225316,77.9050806 C196.187477,77.8531452 196.142961,77.8049194 196.103639,77.7537258 C196.168929,77.7158871 196.228284,77.6810161 196.293574,77.6439194 C194.1108,74.7488871 190.809929,72.7530806 187.029026,72.2938226" id="Fill-94" fill="#414242" mask="url(#mask-2)"></path>
                    <path d="M182.946526,87.9336 C182.702429,88.2652452 182.776623,88.7326645 183.108268,88.9730516 C183.442881,89.2171484 183.907332,89.1429548 184.151429,88.8120516 C184.391816,88.4759548 184.321332,88.0122452 183.985977,87.7681484 C183.654332,87.5277613 183.186171,87.6026968 182.946526,87.9336" id="Fill-95" fill="#414242" mask="url(#mask-2)"></path>
                    <path d="M176.071306,88.2821613 C175.8695,87.457871 175.778242,86.6150323 175.796048,85.7751613 C175.824242,84.9256452 175.964468,84.0798387 176.219694,83.2607419 C176.696016,83.5441613 177.172339,83.8283226 177.644952,84.1154516 C178.1695,84.4337419 178.694048,84.755 179.197823,85.1140968 C179.366242,85.2305806 179.959048,85.6794516 180.094081,85.9005484 C179.946435,86.1134839 179.320242,86.5230323 179.145145,86.6328387 C178.621339,86.9533548 178.078242,87.2397419 177.535145,87.5253871 C177.04621,87.7806129 176.5595,88.0313871 176.071306,88.2821613 M180.897597,86.0096129 C180.917629,85.9272581 180.927274,85.8463871 180.918371,85.7640323 C180.905016,85.1897742 180.160855,84.605871 178.692565,83.7400323 C177.368952,82.9083226 175.456984,81.8243548 172.944048,80.2729677 C172.916597,80.3330645 172.896565,80.3976129 172.869855,80.4584516 C172.842403,80.4436129 172.819403,80.4295161 172.791952,80.4146774 C172.176887,81.8599677 171.822242,83.4365806 171.741371,85.0866452 C171.730984,85.2550645 171.7065,85.4190323 171.701306,85.5881935 C171.700565,85.6045161 171.700565,85.6200968 171.700565,85.6364194 L171.698339,85.6839032 C171.642694,87.584 171.977306,89.4002581 172.628726,91.0636774 C172.661371,91.045871 172.69179,91.0302903 172.723694,91.0132258 C172.749661,91.0777742 172.769694,91.1452903 172.796403,91.2090968 C175.578661,89.6035484 177.6405,88.5247742 178.991565,87.7064194 C180.197952,87.0171613 180.827113,86.514129 180.897597,86.0096129" id="Fill-96" fill="#414242" mask="url(#mask-2)"></path>
                    <path d="M187.637932,88.9733484 C187.969577,88.7329613 188.043771,88.2655419 187.804126,87.9338968 C187.560029,87.6022516 187.096319,87.5280581 186.759481,87.7684452 C186.429319,88.0125419 186.354384,88.4762516 186.594771,88.8116065 C186.83961,89.1432516 187.303319,89.2174452 187.637932,88.9733484" id="Fill-97" fill="#414242" mask="url(#mask-2)"></path>
                    <path d="M188.557413,86.0128774 C188.164187,85.8882323 187.745735,86.0996839 187.617381,86.4929097 C187.489026,86.8868774 187.704929,87.3045871 188.097413,87.4329419 C188.486929,87.5612968 188.909832,87.3461355 189.033735,86.9529097 C189.16209,86.5633935 188.946187,86.1412323 188.557413,86.0128774" id="Fill-98" fill="#414242" mask="url(#mask-2)"></path>
                    <path d="M187.799526,83.6899516 C188.043623,83.3583065 187.969429,82.8901452 187.637784,82.6505 C187.303171,82.4064032 186.838719,82.4805968 186.594623,82.8115 C186.354235,83.1468548 186.424719,83.6113065 186.760074,83.8554032 C187.091719,84.0950484 187.559881,84.0208548 187.799526,83.6899516" id="Fill-99" fill="#414242" mask="url(#mask-2)"></path>
                    <path d="M185.373026,88.1242032 C184.958284,88.1242032 184.628123,88.4558484 184.628123,88.8698484 C184.628123,89.2801387 184.958284,89.6154935 185.373026,89.6154935 C185.783316,89.6154935 186.117929,89.2801387 186.117929,88.8698484 C186.117929,88.4558484 185.783316,88.1242032 185.373026,88.1242032" id="Fill-100" fill="#414242" mask="url(#mask-2)"></path>
                    <path d="M183.108119,82.6502032 C182.776474,82.8898484 182.702281,83.3580097 182.941926,83.6896548 C183.186023,84.0213 183.649732,84.0947516 183.986571,83.8551065 C184.316732,83.6110097 184.391668,83.1465581 184.151281,82.8119452 C183.906442,82.4803 183.442732,82.4061065 183.108119,82.6502032" id="Fill-101" fill="#414242" mask="url(#mask-2)"></path>
                    <path d="M182.187897,86.0128774 C181.795413,86.1412323 181.583961,86.5633935 181.708606,86.9529097 C181.836219,87.3461355 182.259123,87.5612968 182.647897,87.4329419 C183.041123,87.3045871 183.257026,86.8868774 183.128671,86.4929097 C183.000316,86.0996839 182.581865,85.8882323 182.187897,86.0128774" id="Fill-102" fill="#414242" mask="url(#mask-2)"></path>
                    <path d="M182.898671,93.4242194 C182.880123,93.9747355 182.857123,94.5222839 182.835606,95.0713161 C182.017994,94.8405742 181.240445,94.5052194 180.518542,94.0756387 C179.792187,93.6327032 179.125929,93.0940581 178.539058,92.4686065 C179.019832,92.1940903 179.501348,91.9188323 179.983606,91.6495097 C180.519284,91.3490258 181.058671,91.0515097 181.61809,90.7896065 C181.802832,90.6998323 182.484671,90.4052839 182.744348,90.3978645 C182.856381,90.6308323 182.905348,91.3772194 182.914252,91.5849613 C182.935026,92.1978 182.916477,92.8113806 182.898671,93.4242194 M181.658155,89.8280581 C180.273703,90.3867355 178.005606,91.8231226 174.324865,93.8471226 C175.368768,95.2968645 176.713155,96.5618645 178.338735,97.5471548 C178.35209,97.5553161 178.366929,97.5634774 178.379542,97.5716387 C178.393639,97.5798 178.406994,97.5879613 178.420348,97.5961226 C180.045929,98.5814129 181.792445,99.1838645 183.560477,99.4368645 C183.561961,99.3908645 183.563445,99.3485742 183.563445,99.3040581 C183.615381,99.3107355 183.664348,99.3240903 183.717026,99.3300258 C183.717026,91.0062516 184.441897,88.6164774 181.658155,89.8280581" id="Fill-103" fill="#414242" mask="url(#mask-2)"></path>
                    <path d="M187.751003,91.4788645 C187.702035,92.094671 187.6961,92.7104774 187.693874,93.3240581 C187.690165,93.8768 187.693132,94.4310258 187.694616,94.9859935 C188.52781,94.7827032 189.32539,94.4673806 190.068068,94.0541226 C190.79739,93.6371548 191.474035,93.1252194 192.076487,92.5279613 C191.60981,92.2378645 191.143132,91.9492516 190.673487,91.6621226 C190.148939,91.3438323 189.623648,91.0262839 189.07981,90.7421226 C188.895068,90.6478968 188.222132,90.3221871 187.963197,90.3051226 C187.842261,90.5351226 187.762874,91.2740903 187.751003,91.4788645" id="Fill-104" fill="#A4AAAF" mask="url(#mask-2)"></path>
                    <path d="M190.673784,91.6621226 C191.143429,91.9492516 191.610106,92.2378645 192.076784,92.5279613 C191.47359,93.1252194 190.797687,93.6371548 190.068365,94.0541226 C189.325687,94.4673806 188.527365,94.7827032 187.694171,94.9852516 C187.692687,94.4310258 187.690461,93.8768 187.693429,93.3240581 C187.695655,92.7104774 187.70159,92.094671 187.7513,91.4788645 C187.762429,91.2740903 187.842558,90.5343806 187.963494,90.3051226 C188.221687,90.3221871 188.895365,90.6478968 189.080106,90.7421226 C189.623945,91.0262839 190.149235,91.3438323 190.673784,91.6621226 M188.810784,89.6915419 C188.733623,89.6626065 188.656461,89.6344129 188.585977,89.6121548 C188.107429,89.4548645 187.757977,89.4504129 187.510171,89.6269935 C186.561235,90.1901226 186.895848,93.0896065 186.819429,99.3322516 C186.889171,99.3240903 186.958913,99.3077677 187.029397,99.2988645 L187.029397,99.3300258 C190.805848,98.8707677 194.111171,96.8742194 196.293203,93.979929 C192.455913,91.7652516 190.182623,90.2160903 188.838235,89.701929 C188.829332,89.6982194 188.820429,89.6952516 188.810784,89.6915419" id="Fill-105" fill="#414242" mask="url(#mask-2)"></path>
                    <path d="M182.855935,78.4282935 C182.858903,77.8755516 182.857419,77.3213258 182.854452,76.7678419 C182.021258,76.9696484 181.224419,77.284971 180.481742,77.698971 C179.751677,78.1151968 179.076516,78.6278742 178.474065,79.2243903 C178.940742,79.5144871 179.405935,79.8038419 179.875581,80.090229 C180.400871,80.4085194 180.925419,80.7268097 181.469258,81.010229 C181.654742,81.1044548 182.327677,81.4301645 182.586613,81.447229 C182.706806,81.217971 182.786194,80.4790032 182.799548,80.274229 C182.847774,79.6576806 182.85371,79.0418742 182.855935,78.4282935" id="Fill-106" fill="#A4AAAF" mask="url(#mask-2)"></path>
                    <path d="M181.469184,81.0106 C180.926087,80.7264387 180.401539,80.4081484 179.876248,80.0906 C179.405861,79.803471 178.940668,79.5141161 178.47399,79.2247613 C179.076442,78.6275032 179.752345,78.1155677 180.481668,77.6986 C181.224345,77.2853419 182.021184,76.9700194 182.854377,76.767471 C182.857345,77.3209548 182.858829,77.8751806 182.855861,78.4286645 C182.853635,79.0422452 182.8477,79.6580516 182.799474,80.2746 C182.786119,80.4786323 182.706732,81.2176 182.586539,81.4476 C182.327603,81.4297935 181.654668,81.1048258 181.469184,81.0106 M183.039861,82.125729 C183.125184,82.0745355 183.197894,81.9966323 183.264668,81.9068581 C183.9977,81.205729 183.757313,78.6356645 183.720958,73.4747613 C183.722442,73.133471 183.72541,72.7840194 183.729861,72.420471 L183.716506,72.4226968 L183.716506,72.2936 C180.953539,72.6296968 178.448765,73.7945355 176.445539,75.525471 C175.6487,76.1828258 174.931248,76.9099226 174.316926,77.7060194 C179.837668,80.9846323 182.113184,82.7867935 183.039861,82.125729" id="Fill-107" fill="#414242" mask="url(#mask-2)"></path>
                    <path d="M180.094006,85.9005484 C179.958974,85.6794516 179.36691,85.2305806 179.197748,85.1140968 C178.693974,84.755 178.169426,84.433 177.644877,84.1154516 C177.172265,83.8283226 176.695942,83.5441613 176.219619,83.2607419 C175.965135,84.0798387 175.824168,84.9256452 175.795974,85.7751613 C175.77891,86.6150323 175.869426,87.457871 176.071232,88.2821613 C176.559426,88.0313871 177.046877,87.7806129 177.535071,87.5253871 C178.078168,87.2397419 178.621265,86.9533548 179.145071,86.6328387 C179.320168,86.5230323 179.946361,86.1134839 180.094006,85.9005484" id="Fill-108" fill="#A4AAAF" mask="url(#mask-2)"></path>
                    <path d="M190.456397,85.8520258 C190.589945,86.0738645 191.182752,86.5219935 191.351913,86.6384774 C191.854945,86.9975742 192.380235,87.3195742 192.905526,87.6371226 C193.377397,87.9249935 193.852977,88.2084129 194.330042,88.4918323 C194.584526,87.6727355 194.725494,86.826929 194.752945,85.9774129 C194.771494,85.1375419 194.680235,84.2947032 194.479171,83.4704129 C193.990977,83.7211871 193.502042,83.9719613 193.013848,84.2271871 C192.471494,84.5128323 191.928397,84.7992194 191.405332,85.1197355 C191.229494,85.2295419 190.604042,85.6390903 190.456397,85.8520258" id="Fill-109" fill="#A4AAAF" mask="url(#mask-2)"></path>
                    <path d="M193.014071,84.2268161 C193.502265,83.9715903 193.990458,83.7208161 194.479394,83.4700419 C194.680458,84.2950742 194.771716,85.1379129 194.753168,85.9770419 C194.725716,86.8273 194.584748,87.6731065 194.329523,88.4914613 C193.8532,88.2080419 193.376877,87.9246226 192.905748,87.6374935 C192.380458,87.3192032 191.855168,86.9972032 191.352135,86.6381065 C191.182232,86.5223645 190.589426,86.0734935 190.456619,85.8516548 C190.604265,85.6387194 191.229716,85.2299129 191.405555,85.1193645 C191.928619,84.7988484 192.471716,84.5132032 193.014071,84.2268161 M189.64049,85.8909774 C189.634555,86.9942355 192.29291,88.2006226 197.605168,91.4799774 C197.663039,91.3553323 197.705329,91.2240097 197.75949,91.0978806 C197.824781,91.1364613 197.886361,91.1705903 197.953877,91.209171 C198.653523,89.5657839 199.037845,87.7606548 199.037845,85.8590742 L199.037845,85.8115903 L199.037845,85.7641065 C199.037845,83.8632677 198.649813,82.0573968 197.949426,80.4140097 C194.903781,82.1723968 192.725458,83.297171 191.394426,84.1422355 C190.185071,84.8470742 189.5982,85.3582677 189.64049,85.8909774" id="Fill-110" fill="#414242" mask="url(#mask-2)"></path>
                    <path d="M182.744348,90.3977903 C182.484671,90.4052097 181.802832,90.6997581 181.61809,90.7895323 C181.058671,91.0514355 180.519284,91.3489516 179.983606,91.6494355 C179.501348,91.9187581 179.019832,92.1940161 178.539058,92.4685323 C179.125929,93.0939839 179.792187,93.632629 180.518542,94.0755645 C181.240445,94.5051452 182.017994,94.8405 182.835606,95.0712419 C182.857123,94.5229516 182.880123,93.9746613 182.898671,93.4241452 C182.916477,92.8113065 182.935026,92.1977258 182.914252,91.5848871 C182.905348,91.3771452 182.856381,90.6307581 182.744348,90.3977903" id="Fill-111" fill="#A4AAAF" mask="url(#mask-2)"></path>
                    <path d="M187.714723,76.6814065 C187.691723,77.2296968 187.669465,77.7779871 187.650916,78.3285032 C187.633852,78.9413419 187.614561,79.5549226 187.636077,80.1677613 C187.644981,80.3755032 187.693206,81.1218903 187.805239,81.3556 C188.064174,81.3474387 188.746755,81.0528903 188.931497,80.9631161 C189.491658,80.7019548 190.030303,80.4036968 190.565239,80.1032129 C191.048239,79.8338903 191.529755,79.5586323 192.010529,79.2841161 C191.4244,78.6586645 190.7574,78.1192774 190.031787,77.6770839 C189.309142,77.2475032 188.530852,76.9121484 187.714723,76.6814065" id="Fill-112" fill="#A4AAAF" mask="url(#mask-2)"></path>
                </g>
            </g>
        </g>
    </g>
</svg>