<?xml version="1.0" encoding="UTF-8"?>
<svg width="210px" height="138px" viewBox="0 0 210 138" version="1.1" xmlns="http://www.w3.org/2000/svg" xmlns:xlink="http://www.w3.org/1999/xlink">
    <!-- Generator: Sketch 53.2 (72643) - https://sketchapp.com -->
    <title>Group 44</title>
    <desc>Created with Sketch.</desc>
    <defs>
        <polygon id="path-1" points="0.950165158 0.7522 208.791 0.7522 208.791 35.9999022 0.950165158 35.9999022"></polygon>
        <polygon id="path-3" points="0 137.398 209.791 137.398 209.791 0 0 0"></polygon>
    </defs>
    <g id="Page-1" stroke="none" stroke-width="1" fill="none" fill-rule="evenodd">
        <g id="B-3b" transform="translate(-82.000000, -240.000000)">
            <g id="phone" transform="translate(82.000000, 240.000000)">
                <g id="Group-44">
                    <g id="Group-3" transform="translate(1.000000, 101.398000)">
                        <mask id="mask-2" fill="white">
                            <use xlink:href="#path-1"></use>
                        </mask>
                        <g id="Clip-2"></g>
                        <path d="M207.7611,18.5322 C204.7681,13.3322 197.8621,10.1472 191.3751,7.9732 C181.6531,4.7172 171.5041,2.3712 161.1231,0.7522 C160.1901,1.9432 159.7351,3.4482 159.2601,4.9452 C159.9071,6.3562 160.2451,7.9502 160.1811,9.6952 C159.9151,16.8622 152.9151,20.5492 146.5081,20.2022 C142.4681,19.9832 138.7911,19.3182 135.1951,21.5152 C132.0921,23.4112 128.9921,25.1442 125.7301,25.3242 C125.6331,25.3432 125.5401,25.3722 125.4421,25.3852 C110.9021,27.3812 95.6671,25.2342 81.0651,24.4632 C73.8071,24.0802 66.5461,23.7302 59.2901,23.3122 C52.1941,22.9042 45.3861,21.1032 43.0011,13.5712 C42.0221,10.4752 43.5081,6.8992 46.1021,4.9742 C45.9671,4.5882 45.8371,4.2002 45.7121,3.8112 C37.2101,5.0022 28.7261,6.2772 20.2501,7.5622 C20.2311,7.5532 20.2091,7.5472 20.1901,7.5392 C19.3411,7.7612 18.4781,7.9492 17.6081,8.1092 C14.2611,9.1632 9.2011,10.9942 5.9081,13.2312 C5.0701,13.7112 4.3311,14.2942 3.7521,14.9492 C2.8981,15.5032 2.1631,16.1802 1.6281,17.0452 C-0.1489,19.9212 1.7891,22.2232 4.8711,23.8572 C5.2391,24.0532 5.6131,24.2422 5.9851,24.4322 C6.2401,24.5932 6.5051,24.7492 6.7851,24.8952 C7.1811,25.1012 7.5991,25.2832 8.0271,25.4532 C16.8271,29.7202 26.7621,32.9352 36.9501,34.3612 C41.0201,34.9302 45.0721,35.1182 49.1171,35.0942 C49.3141,35.1022 49.5091,35.1162 49.7051,35.1232 C56.5821,35.3642 62.2571,34.1222 68.9611,34.5232 C73.4351,34.7922 77.6201,34.4582 81.7571,33.7102 C86.3981,33.8822 90.9711,34.3752 95.6231,34.9962 C101.3631,35.7612 107.1431,36.3882 112.9551,35.7112 C120.3641,34.8452 127.4871,32.7862 134.8621,31.7252 C138.4071,31.2162 141.9741,30.8302 145.5561,30.5542 C147.2301,30.1092 149.0631,29.9932 150.9461,29.8752 C153.0141,29.5062 155.1101,29.2572 157.2291,29.0972 C159.8561,28.5922 162.4531,28.0342 165.2111,28.2692 C165.2921,28.2762 165.3681,28.2912 165.4481,28.2992 C165.9031,28.2562 166.3591,28.2222 166.8171,28.2142 C171.0161,28.1372 175.1621,28.7792 179.2551,29.4282 C186.0211,30.4982 193.4671,31.8312 200.2221,30.0752 C201.7371,29.7572 203.1771,29.1942 204.4161,28.4332 C208.4091,26.1512 210.0211,22.4602 207.7611,18.5322" id="Fill-1" fill="#6597AD" mask="url(#mask-2)"></path>
                    </g>
                    <path d="M147.0717,113.0473 C140.5817,113.0653 134.1077,114.9573 128.6287,118.4363 C125.9727,120.1223 124.8517,121.5783 121.7107,121.4113 C118.5697,121.2443 115.5147,120.2233 112.3717,120.1253 C108.1787,119.9943 104.0597,121.5113 99.8687,121.3353 C95.1777,121.1383 90.8207,118.8473 86.1727,118.1953 C81.3927,117.5263 76.5637,118.6153 71.7447,118.8643 C66.9257,119.1133 62.1547,118.6993 58.9257,115.1143 C56.1357,116.3153 52.7677,115.0583 50.6747,112.8603 C48.9557,111.0573 47.9247,108.7433 47.1017,106.3723 C44.5087,108.2973 43.0217,111.8733 44.0017,114.9693 C46.3857,122.5013 53.1937,124.3023 60.2907,124.7103 C67.5467,125.1283 74.8067,125.4783 82.0647,125.8603 C96.6677,126.6323 111.9017,128.7783 126.4417,126.7823 C126.5407,126.7703 126.6337,126.7403 126.7297,126.7223 C129.9927,126.5423 133.0927,124.8093 136.1947,122.9133 C139.7917,120.7163 143.4677,121.3813 147.5087,121.6003 C153.9157,121.9463 160.9157,118.2603 161.1807,111.0933 C161.2457,109.3483 160.9067,107.7543 160.2597,106.3433 C159.7957,107.8133 159.3087,109.2753 158.3247,110.4233 C155.7297,113.4513 151.0597,113.0353 147.0717,113.0473" id="Fill-4" fill="#53747D"></path>
                    <path d="M27.8617,54.0088 C29.5597,55.2428 37.8577,56.5758 37.8577,56.5758 C37.8577,56.5758 34.0277,49.0938 32.3307,47.8608 C30.6327,46.6268 28.2567,47.0028 27.0217,48.7008 C25.7877,50.3978 26.1647,52.7748 27.8617,54.0088" id="Fill-6" fill="#AECEDA"></path>
                    <path d="M52.0658,59.6015 C52.0658,59.6015 51.7208,52.7895 50.8748,51.3105 C50.0288,49.8315 48.1438,49.3195 46.6658,50.1655 C45.1868,51.0115 44.6738,52.8955 45.5208,54.3745 C46.3668,55.8525 52.0658,59.6015 52.0658,59.6015" id="Fill-8" fill="#AECEDA"></path>
                    <path d="M167.308,58.5425 C169.006,57.3085 169.382,54.9325 168.148,53.2335 C166.914,51.5365 164.537,51.1605 162.839,52.3945 C161.142,53.6275 157.312,61.1095 157.312,61.1095 C157.312,61.1095 165.61,59.7765 167.308,58.5425" id="Fill-10" fill="#AECEDA"></path>
                    <path d="M154.4731,71.6352 C153.2401,69.9382 150.6781,69.6962 148.7511,71.0962 C146.8251,72.4962 142.1791,80.5712 142.1791,80.5712 C142.1791,80.5712 151.2931,78.6452 153.2191,77.2442 C155.1461,75.8442 155.7071,73.3332 154.4731,71.6352" id="Fill-12" fill="#AECEDA"></path>
                    <path d="M149.6488,58.9082 C150.4958,57.4292 149.9828,55.5452 148.5038,54.6992 C147.0258,53.8532 145.1408,54.3662 144.2948,55.8442 C143.4498,57.3232 143.1038,64.1352 143.1038,64.1352 C143.1038,64.1352 148.8028,60.3872 149.6488,58.9082" id="Fill-14" fill="#AECEDA"></path>
                    <path d="M161.4672,35.7793 C162.0722,34.7203 161.7052,33.3693 160.6472,32.7633 C159.5872,32.1573 158.2372,32.5243 157.6302,33.5843 C157.0242,34.6433 156.7772,39.5253 156.7772,39.5253 C156.7772,39.5253 160.8612,36.8393 161.4672,35.7793" id="Fill-16" fill="#AECEDA"></path>
                    <path d="M207.2231,43.2549 C206.3221,42.4329 204.9231,42.4979 204.1011,43.3999 C203.2791,44.3019 201.9761,49.0129 201.9761,49.0129 C201.9761,49.0129 206.5461,47.2789 207.3691,46.3769 C208.1911,45.4749 208.1251,44.0769 207.2231,43.2549" id="Fill-18" fill="#AECEDA"></path>
                    <path d="M205.7846,88.3628 C205.1616,87.3128 203.8056,86.9668 202.7566,87.5908 C201.7066,88.2148 199.0866,92.3408 199.0866,92.3408 C199.0866,92.3408 203.9636,92.0148 205.0126,91.3918 C206.0616,90.7678 206.4076,89.4128 205.7846,88.3628" id="Fill-20" fill="#AECEDA"></path>
                    <path d="M1.8148,39.5703 C3.4408,40.3873 10.7278,40.3643653 10.7278,40.3643653 C10.7278,40.3643653 6.4018,34.5003 4.7758,33.6833 C3.1508,32.8653 1.1688,33.5203 0.3518,35.1463 C-0.4652,36.7723 0.1898,38.7523 1.8148,39.5703" id="Fill-22" fill="#AECEDA"></path>
                    <path d="M4.8715,78.3618 C6.9925,78.2218 14.3145,73.8798 14.3145,73.8798 C14.3145,73.8798 6.4845,70.5398 4.3625,70.6798 C2.2415,70.8208 0.6365,72.6538 0.7755,74.7748 C0.9165,76.8968 2.7505,78.5028 4.8715,78.3618" id="Fill-24" fill="#AECEDA"></path>
                    <path d="M50.6742,112.8608 C52.7682,115.0578 56.1362,116.3148 58.9252,115.1148 C62.1542,118.6998 66.9262,119.1138 71.7442,118.8648 C76.5642,118.6158 81.3932,117.5268 86.1722,118.1958 C90.8202,118.8468 95.1782,121.1378 99.8682,121.3358 C104.0602,121.5108 108.1792,119.9948 112.3712,120.1258 C115.5152,120.2228 118.5702,121.2448 121.7102,121.4118 C124.8522,121.5788 125.9732,120.1228 128.6282,118.4358 C134.1082,114.9578 140.5812,113.0648 147.0712,113.0478 C151.0602,113.0358 155.7302,113.4518 158.3242,110.4228 C159.3092,109.2748 159.7952,107.8128 160.2602,106.3428 C160.7352,104.8458 161.1902,103.3408 162.1232,102.1498 C162.2602,101.9748 162.4042,101.8058 162.5642,101.6458 C164.6342,99.5628 167.9242,99.5368 170.8602,99.4568 C173.7952,99.3778 177.1872,98.8318 178.6562,96.2898 C179.4142,94.9768 179.4802,93.3948 179.7982,91.9138 C180.7272,87.5868 183.8972,83.4428 187.9692,81.7118 C191.9732,80.0078 194.1352,74.8968 192.5702,70.8388 C192.2312,70.8218 191.8772,70.7878 191.5392,70.7708 C189.7332,69.1808 186.8252,70.9368 185.7522,73.0908 C184.6782,75.2448 184.4002,77.8528 182.7462,79.6018 C180.2422,82.2508 176.0072,81.6768 172.3662,81.8458 C166.2382,82.1298 160.5982,85.0488 154.8622,87.2268 C149.6942,89.1898 143.7332,89.9898 138.2912,88.8768 L138.2912,108.3398 C138.2912,111.8798 135.3952,114.7768 131.8542,114.7768 L81.2532,114.7768 C77.7122,114.7768 74.8162,111.8798 74.8162,108.3398 L74.8162,79.4688 C73.5472,79.3888 72.2792,79.3088 71.0112,79.2288 C72.5332,80.9598 74.1642,83.1668 73.4362,85.3538 C72.6892,87.5968 69.8912,88.3718 67.5272,88.3188 C63.4872,88.2298 59.4952,86.6908 56.4412,84.0468 C53.8092,81.7678 51.9192,78.7668 49.5802,76.1888 C47.2402,73.6108 44.1562,71.3498 40.6762,71.3388 C37.7972,71.3298 34.3202,72.6618 32.4242,70.4958 C31.4842,69.4228 31.3942,67.8758 30.9582,66.5168 C30.5222,65.1588 29.2902,63.7558 27.9132,64.1318 C26.5662,64.5018 26.1952,66.3128 26.6062,67.6488 C27.9692,72.0888 34.1072,73.2948 36.1882,77.4458 C37.9332,80.9288 36.2382,85.2748 37.5182,88.9548 C38.5462,91.9108 41.2812,93.8888 43.0822,96.4488 C44.8302,98.9318 45.6672,101.9208 46.5842,104.8138 C46.6252,104.9458 46.6702,105.0778 46.7122,105.2098 C46.8372,105.5978 46.9672,105.9858 47.1022,106.3728 C47.9242,108.7438 48.9552,111.0568 50.6742,112.8608" id="Fill-26" fill="#AECEDA"></path>
                    <path d="M73.8568,62.2905 C72.3178,60.8825 69.7528,60.3745 68.1588,61.7195 C66.2318,63.3445 66.8208,66.5955 68.4778,68.4945 C70.1348,70.3935 72.5268,71.4675 74.4798,73.0605 C74.5928,73.1515 74.7058,73.2485 74.8158,73.3485 L74.8158,63.3815 C74.5328,62.9885 74.2178,62.6205 73.8568,62.2905" id="Fill-28" fill="#AECEDA"></path>
                    <path d="M76.5668,8.4663 C76.5668,4.9253 79.4628,2.0293 83.0038,2.0293 L120.1398,2.0293 L120.1398,2.0133 L122.6768,2.0133 L122.6768,2.0293 L123.7168,2.0293 L123.7168,2.0133 L124.9848,2.0133 L124.9848,2.0293 L130.1038,2.0293 C133.6438,2.0293 136.5418,4.9253 136.5418,8.4663 L136.5418,106.2503 C136.5418,109.7913 133.6438,112.6883 130.1038,112.6883 L124.9848,112.6883 L124.9848,112.7973 L123.7168,112.7973 L123.7168,112.6883 L122.6768,112.6883 L122.6768,112.7973 L120.1398,112.7973 L120.1398,112.6883 L83.0038,112.6883 C79.4628,112.6883 76.5668,109.7913 76.5668,106.2503 L76.5668,8.4663 Z M81.2538,114.7773 L131.8538,114.7773 C135.3948,114.7773 138.2918,111.8793 138.2918,108.3393 L138.2918,88.8763 L138.2918,30.6693 L139.1598,30.6693 L139.1598,22.7613 L138.2918,22.7613 L138.2918,6.4383 C138.2918,2.8973 135.3948,0.0003 131.8538,0.0003 L81.2538,0.0003 C77.7128,0.0003 74.8158,2.8973 74.8158,6.4383 L74.8158,15.6083 L74.0008,15.6083 L74.0008,20.6763 L74.8158,20.6763 L74.8158,22.7613 L74.0008,22.7613 L74.0008,30.6693 L74.8158,30.6693 L74.8158,32.7753 L74.0008,32.7753 L74.0008,40.6833 L74.8158,40.6833 L74.8158,63.3813 L74.8158,73.3483 L74.8158,79.4693 L74.8158,108.3393 C74.8158,111.8793 77.7128,114.7773 81.2538,114.7773 L81.2538,114.7773 Z" id="Fill-30" fill="#63B1BC"></path>
                    <mask id="mask-4" fill="white">
                        <use xlink:href="#path-3"></use>
                    </mask>
                    <g id="Clip-33"></g>
                    <polygon id="Fill-32" fill="#FFFFFF" mask="url(#mask-4)" points="122.677 15.886 123.717 15.886 123.717 2.029 122.677 2.029"></polygon>
                    <path d="M101.5678,6.105 C102.3118,6.105 102.9158,6.709 102.9158,7.453 C102.9158,8.197 102.3118,8.8 101.5678,8.8 C100.8238,8.8 100.2198,8.197 100.2198,7.453 C100.2198,6.709 100.8238,6.105 101.5678,6.105 L101.5678,6.105 Z M105.3608,6.579 L113.7448,6.579 C114.1828,6.579 114.5428,6.938 114.5428,7.377 C114.5428,7.817 114.1828,8.176 113.7448,8.176 L105.3608,8.176 C104.9218,8.176 104.5618,7.817 104.5618,7.377 C104.5618,6.938 104.9218,6.579 105.3608,6.579 L105.3608,6.579 Z M76.5668,106.251 C76.5668,109.792 79.4638,112.688 83.0048,112.688 L120.1398,112.688 L120.1398,102.717 L82.4548,102.717 L134.2208,50.818 L134.2208,50.685 L134.2548,50.652 L134.1998,102.717 L124.9848,102.717 L124.9848,112.688 L130.1038,112.688 C133.6438,112.688 136.5418,109.792 136.5418,106.251 L136.5418,8.466 C136.5418,4.926 133.6438,2.029 130.1038,2.029 L124.9848,2.029 L124.9848,15.886 L134.1998,15.886 L134.1998,22.324 L134.1998,39.261 L131.9588,41.491 L81.1488,92.034 L78.9078,94.263 L78.9078,86.981 L81.1488,84.832 L131.9588,36.106 L134.1548,34.001 L134.1998,22.324 L131.9588,24.542 L81.1488,74.852 L78.9078,77.072 L78.9078,15.886 L120.1398,15.886 L120.1398,2.029 L83.0048,2.029 C79.4638,2.029 76.5668,4.926 76.5668,8.466 L76.5668,106.251 Z" id="Fill-34" fill="#FFFFFF" mask="url(#mask-4)"></path>
                    <polygon id="Fill-35" fill="#FFFFFF" mask="url(#mask-4)" points="122.677 112.688 123.717 112.688 123.717 102.717 122.677 102.717"></polygon>
                    <polygon id="Fill-36" fill="#A4AAAF" mask="url(#mask-4)" points="131.9584 36.1064 131.9584 41.4904 134.1994 39.2614 134.1994 22.3234 134.1544 34.0004"></polygon>
                    <polygon id="Fill-37" fill="#A4AAAF" mask="url(#mask-4)" points="78.9076 15.8862 78.9076 77.0722 81.1486 74.8522 81.1486 19.4062 131.9586 19.4062 131.9586 24.5422 134.1996 22.3232 134.1996 15.8862 124.9846 15.8862 124.9846 2.0292 124.9846 2.0132 123.7176 2.0132 123.7176 2.0292 123.7176 15.8862 122.6776 15.8862 122.6776 2.0292 122.6776 2.0132 120.1396 2.0132 120.1396 2.0292 120.1396 15.8862"></polygon>
                    <polygon id="Fill-38" fill="#A4AAAF" mask="url(#mask-4)" points="78.9076 86.9809 78.9076 94.2629 81.1486 92.0339 81.1486 84.8319"></polygon>
                    <polygon id="Fill-39" fill="#A4AAAF" mask="url(#mask-4)" points="134.1996 102.7173 134.2546 50.6523 134.2206 50.6843 134.2206 50.8183 82.4546 102.7173 120.1396 102.7173 120.1396 112.6883 120.1396 112.7973 122.6776 112.7973 122.6776 112.6883 122.6776 102.7173 123.7176 102.7173 123.7176 112.6883 123.7176 112.7973 124.9846 112.7973 124.9846 112.6883 124.9846 102.7173"></polygon>
                    <polygon id="Fill-40" fill="#EAEAEA" mask="url(#mask-4)" points="81.1488 19.4057 81.1488 74.8517 131.9588 24.5427 131.9588 19.4057"></polygon>
                    <polygon id="Fill-41" fill="#EAEAEA" mask="url(#mask-4)" points="81.1488 84.8315 81.1488 92.0335 131.9588 41.4905 131.9588 36.1065"></polygon>
                    <path d="M101.5678,8.7998 C102.3118,8.7998 102.9158,8.1968 102.9158,7.4528 C102.9158,6.7088 102.3118,6.1048 101.5678,6.1048 C100.8238,6.1048 100.2198,6.7088 100.2198,7.4528 C100.2198,8.1968 100.8238,8.7998 101.5678,8.7998" id="Fill-42" fill="#A4AAAF" mask="url(#mask-4)"></path>
                    <path d="M105.3607,8.1762 L113.7447,8.1762 C114.1827,8.1762 114.5427,7.8172 114.5427,7.3772 C114.5427,6.9382 114.1827,6.5792 113.7447,6.5792 L105.3607,6.5792 C104.9217,6.5792 104.5617,6.9382 104.5617,7.3772 C104.5617,7.8172 104.9217,8.1762 105.3607,8.1762" id="Fill-43" fill="#A4AAAF" mask="url(#mask-4)"></path>
                </g>
            </g>
        </g>
    </g>
</svg>