<?xml version="1.0" encoding="UTF-8"?>
<svg width="157px" height="155px" viewBox="0 0 157 155" version="1.1" xmlns="http://www.w3.org/2000/svg" xmlns:xlink="http://www.w3.org/1999/xlink">
    <!-- Generator: Sketch 53.2 (72643) - https://sketchapp.com -->
    <title>path_symbol</title>
    <desc>Created with Sketch.</desc>
    <defs>
        <polygon id="path-1" points="0 0.585110039 155.410934 0.585110039 155.410934 154.99982 0 154.99982"></polygon>
    </defs>
    <g id="Page-1" stroke="none" stroke-width="1" fill="none" fill-rule="evenodd">
        <g id="A1-desktop" transform="translate(-220.000000, -130.000000)">
            <g id="path_symbol" transform="translate(220.000000, 130.000000)">
                <g id="Group-190">
                    <path d="M26.975,128.4745 C26.992,128.4915 27.009,128.5085 27.025,128.5255 C27.009,128.5085 26.992,128.4915 26.975,128.4745" id="Fill-1" fill="#F4BA53"></path>
                    <g id="Group-5" transform="translate(0.500000, 0.000000)">
                        <mask id="mask-2" fill="white">
                            <use xlink:href="#path-1"></use>
                        </mask>
                        <g id="Clip-4"></g>
                        <path d="M77.7058888,154.653315 C77.0282826,154.653315 76.3524834,154.644338 75.6796958,154.626983 C75.4628618,154.621597 75.2490394,154.610226 75.0328077,154.602446 C74.5774564,154.587485 74.122105,154.573122 73.6679583,154.549782 C73.4005297,154.536017 73.1337035,154.516268 72.8668772,154.499512 C72.4681436,154.474975 72.0682054,154.452234 71.6700741,154.421712 C71.3869853,154.400168 71.1044988,154.371442 70.8208077,154.346905 C70.4413483,154.31399 70.0612865,154.282272 69.683634,154.243373 C69.3933174,154.214048 69.1060124,154.178141 68.8162981,154.145226 C68.4494873,154.103334 68.0814718,154.063836 67.7152633,154.017156 C67.4177189,153.978257 67.1225838,153.934569 66.826244,153.892678 C66.4708772,153.843006 66.1149081,153.795129 65.7613483,153.741268 C65.4619969,153.694589 65.1644525,153.643122 64.8669081,153.59345 C64.5175645,153.535998 64.1688232,153.479145 63.8224911,153.416905 C63.5225375,153.363044 63.2249931,153.303199 62.926244,153.245747 C62.5841282,153.180515 62.2402054,153.115882 61.8992942,153.044666 C61.6011475,152.983624 61.3048077,152.917195 61.0072633,152.851963 C60.669966,152.778353 60.3314641,152.705342 59.9959737,152.626944 C59.6966224,152.557523 59.399078,152.483315 59.1015336,152.410303 C58.7708618,152.328913 58.4395876,152.248122 58.1101205,152.163141 C57.8125761,152.08594 57.5168386,152.00455 57.2204988,151.923759 C56.8934409,151.834589 56.5651784,151.746017 56.2393251,151.65206 C55.9453946,151.568276 55.6526687,151.479705 55.3593405,151.39233 C55.0358965,151.29538 54.7124525,151.198431 54.3902131,151.097292 C54.0986919,151.005728 53.8083753,150.911172 53.518661,150.816017 C53.1988309,150.711288 52.8783985,150.606558 52.5609776,150.498237 C52.2712633,150.399492 51.983356,150.297755 51.6954486,150.195419 C51.3804371,150.082909 51.0654255,149.970998 50.7516185,149.854898 C50.4649158,149.749569 50.1800201,149.640651 49.8951243,149.531133 C49.5837266,149.412041 49.2729313,149.292349 48.9633405,149.169068 C48.6802517,149.055959 48.3983676,148.941056 48.1164834,148.824956 C47.8093019,148.698681 47.5021205,148.570612 47.1973483,148.440149 C46.9166687,148.320458 46.6377961,148.198971 46.3589236,148.076288 C46.0559583,147.942234 45.7541977,147.807581 45.4530394,147.670535 C45.1765761,147.543662 44.9001127,147.415593 44.6248541,147.285728 C44.326105,147.145091 44.0285606,147.002658 43.7316185,146.858431 C43.4581668,146.725573 43.1859197,146.590921 42.9148772,146.45567 C42.6203444,146.307851 42.3264139,146.157639 42.0330857,146.00623 C41.7644525,145.86679 41.4958193,145.726153 41.2283907,145.584319 C40.9380741,145.429319 40.6489622,145.272523 40.3604525,145.114531 C40.0948309,144.968508 39.8298116,144.821886 39.5665992,144.673469 C39.2804988,144.511886 38.9956031,144.347909 38.7113097,144.182736 C38.4499042,144.030728 38.1891012,143.878122 37.9295027,143.723122 C37.6476185,143.555554 37.3675413,143.384396 37.0880664,143.213237 C36.8314795,143.054647 36.5742903,142.896056 36.3195104,142.73567 C36.0412402,142.560322 35.7653792,142.381983 35.4901205,142.203643 C35.2371475,142.040264 34.9853792,141.876288 34.7354178,141.710515 C34.461966,141.527986 34.1903212,141.343662 33.9198811,141.158141 C33.6717266,140.988778 33.4235722,140.820014 33.1784293,140.647658 C32.9091938,140.458546 32.6423676,140.267041 32.3755413,140.074936 C32.1328077,139.900187 31.8894718,139.726037 31.6485452,139.548295 C31.3841282,139.353199 31.1227228,139.15511 30.8613174,138.956423 C30.6228,138.776288 30.3842826,138.596751 30.1481745,138.413025 C29.8861668,138.210149 29.6283753,138.00428 29.3693792,137.798411 C29.1380896,137.614087 28.9061977,137.431558 28.6779197,137.244241 C28.4195259,137.034183 28.1647459,136.819936 27.9093637,136.606288 C27.683495,136.417774 27.4576263,136.230458 27.2347691,136.03955 C26.9799892,135.821712 26.7288232,135.599087 26.4770548,135.378257 C26.2590162,135.186751 26.039773,134.995844 25.8235413,134.801944 C25.571773,134.575129 25.3236185,134.344724 25.0748618,134.114917 C24.864051,133.91982 24.6514332,133.727118 24.4424293,133.530226 C24.1930703,133.295033 23.9485297,133.055052 23.7015799,132.816268 C23.4992015,132.619975 23.2944139,132.42428 23.0932402,132.225593 C22.8450857,131.980226 22.6023521,131.730071 22.3572093,131.481114 C22.1849467,131.305766 22.0120819,131.132813 21.8416263,130.956268 L26.4752479,127.546268 C26.4662131,127.536095 26.4553714,127.525921 26.4457344,127.515747 C26.2861205,127.353566 26.123495,127.193778 25.9662903,127.0304 L25.9680973,127.029203 C13.6392788,114.243797 6.06273822,96.8975618 6.06273822,77.7924653 C6.06273822,38.4787201 38.1385066,6.60856564 77.7058888,6.60856564 C104.542707,6.60856564 127.928854,21.2725232 140.201657,42.9737201 L140.206476,42.9707278 C140.267912,43.0796467 140.325132,43.1921564 140.386568,43.3022722 C140.442584,43.4028127 140.496792,43.5045502 140.552808,43.6056892 L145.185827,40.1962876 C145.253286,40.3141834 145.319541,40.4326776 145.385796,40.5511718 C145.636962,41.0012104 145.88331,41.4542413 146.126043,41.9090676 C146.232051,42.1083533 146.339263,42.3070405 146.443464,42.5075232 C146.760885,43.1161525 147.07168,43.7277741 147.372236,44.3465772 C147.389703,44.3818861 147.408978,44.4177934 147.425842,44.4531023 C147.743263,45.1066158 148.048036,45.7661139 148.346785,46.4292027 C148.43653,46.6284884 148.523263,46.828971 148.611804,47.0294537 C148.822012,47.5088166 149.028607,47.9905734 149.230383,48.4747239 C149.322537,48.6973494 149.415294,48.9199749 149.505642,49.1443958 C149.714646,49.6614614 149.917626,50.1809208 150.115186,50.7027741 C150.178429,50.8709402 150.245889,51.0379093 150.307927,51.2066737 C150.562105,51.8913069 150.806646,52.5795309 151.041549,53.2737394 C151.094553,53.4305347 151.144545,53.5897239 151.196344,53.7477162 C151.376437,54.2917124 151.551711,54.8381023 151.719758,55.3874846 C151.790831,55.6196853 151.859495,55.8524846 151.928761,56.0852838 C152.078136,56.5903803 152.22209,57.0966737 152.360622,57.6059595 C152.420854,57.8255927 152.48229,58.0452259 152.540715,58.2654575 C152.724422,58.9632568 152.9009,59.6634498 153.065333,60.369029 C153.070151,60.3869826 153.07497,60.4061332 153.079788,60.4240869 C153.247232,61.1476197 153.402028,61.8759402 153.549595,62.6066544 C153.594167,62.828083 153.635124,63.0513069 153.678491,63.273334 C153.779078,63.798778 153.875449,64.3254189 153.965194,64.8550521 C154.007958,65.099222 154.048916,65.3445888 154.087464,65.5899556 C154.179619,66.1596853 154.263943,66.7312104 154.342846,67.3051293 C154.366939,67.4834691 154.394646,67.6612104 154.418136,67.8401486 C154.514507,68.5864228 154.601842,69.3362876 154.677132,70.0891448 C154.694599,70.2626969 154.70785,70.4380444 154.724113,70.612195 C154.778321,71.1986815 154.827711,71.7863649 154.868669,72.3764421 C154.886738,72.6277934 154.901796,72.8809402 154.916854,73.1334884 C154.949981,73.678083 154.975881,74.224473 154.997564,74.7720598 C155.006599,75.0072529 155.017441,75.2418475 155.024066,75.4764421 C155.047557,76.246056 155.063217,77.0174653 155.063217,77.7924653 C155.063217,120.241519 120.428808,154.653315 77.7058888,154.653315 M77.7058888,0.585110039 C34.7902286,0.585110039 -0.000180694981,35.1519054 -0.000180694981,77.7924653 C-0.000180694981,120.433025 34.7902286,154.99982 77.7058888,154.99982 C120.621549,154.99982 155.411356,120.433025 155.411356,77.7924653 C155.411356,35.1519054 120.621549,0.585110039 77.7058888,0.585110039" id="Fill-3" fill="#F4BA53" mask="url(#mask-2)"></path>
                    </g>
                    <path d="M99.751566,33.6096889 C99.751566,33.6096889 97.0413215,39.7968234 97.3625985,44.9526685 C94.5917357,44.1961892 91.6814508,43.7842748 88.6772075,43.7842748 L85.6705395,43.7842748 C88.7711659,39.009676 93.8321883,33.1280197 99.751566,33.6096889 M34.7026672,76.46923 L34.7026672,76.46923 C34.7026672,75.0909705 34.804506,73.7361631 34.9845423,72.4048077 C32.8053142,72.9327797 30.5484946,73.0602627 28.5202061,71.8413569 C27.3423924,71.1323831 26.4276622,70.1185325 25.7366135,68.9585576 C22.1116387,68.6705182 18.8327945,65.9097898 19.6311376,61.772606 C20.0190948,59.7659515 23.2591433,59.9469533 22.867549,61.9770598 C22.5511214,63.6162987 23.2427763,64.7534229 24.3375429,65.330103 C23.5537482,61.3612929 25.539604,54.6594159 30.8764397,56.9871831 C36.2532835,59.3329904 33.8752273,66.1665598 29.6537684,68.2393611 C29.5501111,68.2898732 29.4464538,68.334372 29.340978,68.3794721 C31.0546575,70.0181096 33.4242271,69.5755272 35.6677106,68.8857961 C39.0920388,55.6780771 51.2320671,45.8432454 65.5755708,45.8432454 L89.3270358,45.8432454 C100.721459,45.8432454 110.717418,52.0532306 116.066377,61.2247899 L141.5,42.540113 C129.148414,20.7345082 105.612144,6 78.6030511,6 C38.7816731,6 6.5,38.0234868 6.5,77.5263767 C6.5,96.7233909 14.1251768,114.152481 26.533138,127 L55.7960194,105.502279 C43.572944,101.419816 34.7026672,89.9259016 34.7026672,76.46923" id="Fill-6" fill="#FFDB80"></path>
                    <path d="M31.4926699,62.3777878 C31.6454332,60.5426447 29.3733388,58.9645371 28.1415553,60.853523 C27.234653,62.2476676 27.3867251,64.2648508 27.994322,66 C28.3558387,65.8897504 28.7097517,65.7455285 29.0463839,65.5615655 C30.2560478,64.9000679 31.3806896,63.7321913 31.4926699,62.3777878" id="Fill-8" fill="#FFDB80"></path>
                    <path d="M156.461226,75.4475201 C156.454562,75.2112113 156.443657,74.9761051 156.434569,74.7397963 C156.412759,74.1896117 156.386708,73.6406297 156.353387,73.0934516 C156.338241,72.8397053 156.322489,72.5853577 156.30492,72.3322127 C156.263723,71.7399375 156.214044,71.1494662 156.159519,70.5601974 C156.143161,70.3852207 156.129833,70.2090414 156.112263,70.0346659 C156.036533,69.277636 155.948687,68.5242139 155.851753,67.7743995 C155.828125,67.5946124 155.800256,67.4166292 155.776023,67.2374434 C155.696658,66.6608019 155.611841,66.0865655 155.519147,65.5135317 C155.480374,65.267001 155.439177,65.0210715 155.396162,64.7757433 C155.305892,64.2435975 155.208958,63.713857 155.107783,63.1859203 C155.063557,62.96284 155.022965,62.7391584 154.978133,62.5166794 C154.829703,61.7818974 154.674002,61.0507231 154.504973,60.3237579 C154.500732,60.3051178 154.495886,60.2864777 154.491039,60.2684388 C154.325645,59.5595125 154.148134,58.8559978 153.963354,58.1548883 C153.904587,57.9336118 153.842792,57.7129367 153.782208,57.4922616 C153.642865,56.9805599 153.497464,56.4712633 153.347821,55.964372 C153.27815,55.7304684 153.209084,55.4959635 153.137595,55.2632625 C152.967961,54.711274 152.791662,54.162292 152.611122,53.6151139 C152.55902,53.4569734 152.508735,53.2970291 152.455421,53.1388886 C152.219144,52.4419881 151.973174,51.7504993 151.71751,51.062017 C151.654502,50.8930532 151.587254,50.725292 151.523641,50.5563282 C151.32432,50.031398 151.120759,49.5094743 150.910533,48.9905571 C150.819051,48.7650716 150.726358,48.54139 150.633664,48.3177084 C150.430708,47.8306598 150.222906,47.3472189 150.011468,46.8655819 C149.92241,46.6641482 149.834563,46.4627145 149.744899,46.2624834 C149.444403,45.5956477 149.137849,44.9336223 148.818572,44.2770086 C148.801002,44.2415322 148.782221,44.2054545 148.764652,44.1693768 C148.462339,43.5482395 148.149726,42.9337164 147.830449,42.3221998 C147.725639,42.1207661 147.617799,41.9211363 147.511172,41.7209052 C147.267019,41.26332 147.019231,40.8087413 146.766596,40.3565677 C146.699954,40.2369101 146.632706,40.118455 146.565458,40 L141.905347,43.4255754 C142.08104,43.7436603 142.256733,44.0629477 142.42758,44.384039 C142.526937,44.5692378 142.626295,44.7544365 142.723835,44.9408378 C143.019484,45.5066561 143.308469,46.0766834 143.588972,46.651521 C143.604724,46.6851935 143.622899,46.7182647 143.639257,46.7513359 C143.933695,47.3592448 144.218439,47.9731666 144.497125,48.5900948 C144.580124,48.7752936 144.660701,48.9622962 144.743095,49.1486975 C144.939387,49.5942569 145.132043,50.0422213 145.319248,50.4931923 C145.405883,50.7006389 145.491912,50.9074843 145.576123,51.1161335 C145.770597,51.5971692 145.959619,52.0812114 146.1444,52.5664561 C146.203166,52.723394 146.264962,52.878528 146.323728,53.0354659 C146.560005,53.6722369 146.7878,54.3138183 147.007114,54.9584061 C147.056793,55.105122 147.102837,55.2530405 147.151304,55.3997563 C147.319121,55.9060464 147.482092,56.4147417 147.638398,56.9258421 C147.70504,57.1423081 147.768653,57.3581729 147.833478,57.5752403 C147.972215,58.0448513 148.106105,58.5168676 148.236361,58.9900865 C148.292098,59.1951279 148.349047,59.3989668 148.402966,59.6040083 C148.574419,60.2528052 148.739207,60.9046085 148.892484,61.5612222 C148.896725,61.5786598 148.900966,61.595496 148.904601,61.6129336 C149.061513,62.2857823 149.205703,62.9634413 149.343228,63.6435055 C149.385031,63.8497495 149.423199,64.0571962 149.463184,64.2634402 C149.557089,64.7528941 149.646753,65.2429492 149.730965,65.7360108 C149.769738,65.9633001 149.808512,66.1905895 149.844862,66.4190814 C149.930286,66.9494233 150.009045,67.481569 150.082351,68.0161199 C150.104767,68.1814759 150.130818,68.3462307 150.152023,68.5127893 C150.242898,69.2078858 150.323475,69.9053876 150.393146,70.6058958 C150.41011,70.7682454 150.421621,70.9305949 150.437373,71.0929445 C150.488263,71.6383187 150.533701,72.1854968 150.571869,72.7344788 C150.588832,72.9689837 150.602767,73.2046911 150.617307,73.439196 C150.647599,73.9460874 150.672438,74.4547826 150.692431,74.9640792 C150.700912,75.1829504 150.710606,75.4006191 150.717876,75.6194903 C150.73908,76.3356322 150.753014,77.053578 150.753014,77.7745302 C150.753014,117.274776 118.489683,149.295518 78.6909296,149.295518 C78.0596457,149.295518 77.4301794,149.287701 76.8031363,149.271466 C76.6019979,149.266656 76.4020712,149.255833 76.2003269,149.248617 C75.7762398,149.234787 75.3521528,149.220957 74.9298832,149.199311 C74.6802777,149.186684 74.4318838,149.168044 74.1828842,149.15241 C73.8115051,149.129561 73.4389143,149.109117 73.0687469,149.080255 C72.8039954,149.060412 72.5404556,149.033955 72.2769157,149.011106 C71.9237118,148.979838 71.5692962,148.950375 71.2179098,148.914899 C70.9477057,148.887239 70.6793192,148.853566 70.409721,148.8229 C70.0674222,148.784418 69.7245175,148.747137 69.3840362,148.703243 C69.1071679,148.667766 68.8309055,148.626878 68.5552489,148.588396 C68.2238551,148.542697 67.8930672,148.496999 67.5640968,148.44649 C67.2848052,148.403798 67.0079369,148.355695 66.7304628,148.309996 C66.4057333,148.25588 66.080398,148.203567 65.757486,148.145241 C65.4781943,148.094733 65.2007202,148.040015 64.9226403,147.9865 C64.6033633,147.925168 64.2840863,147.865038 63.9666269,147.799497 C63.6885469,147.741773 63.4116787,147.680441 63.1348104,147.61971 C62.820986,147.551162 62.505344,147.483216 62.1927313,147.410459 C61.9134397,147.34552 61.6365714,147.276371 61.3597031,147.209026 C61.0513313,147.133263 60.7429594,147.058101 60.4357992,146.978129 C60.1589309,146.906575 59.8838802,146.830811 59.6082236,146.756251 C59.3028809,146.672671 58.9975382,146.589692 58.694013,146.503106 C58.4195681,146.424938 58.1475466,146.34256 57.8737075,146.261385 C57.5719999,146.171191 57.270898,146.080997 56.9710079,145.987195 C56.6995922,145.901811 56.4293881,145.813421 56.1591841,145.725031 C55.8611115,145.628222 55.5630389,145.530211 55.2667838,145.429194 C54.9971856,145.337196 54.728799,145.242191 54.4610184,145.147186 C54.1665808,145.043162 53.8733549,144.938537 53.5819465,144.830905 C53.3147716,144.732894 53.0488084,144.631276 52.7834511,144.529657 C52.4938602,144.419019 52.2036635,144.307178 51.916496,144.192331 C51.6517445,144.087104 51.3888105,143.980675 51.1264824,143.872442 C50.8405265,143.754588 50.5539649,143.635532 50.2704324,143.514672 C50.0087101,143.403432 49.7488053,143.289787 49.4895063,143.175541 C49.2077914,143.051073 48.9260764,142.926004 48.6455731,142.797928 C48.3874858,142.680075 48.1306102,142.561018 47.8743405,142.440158 C47.5962605,142.309076 47.3181806,142.176791 47.0419182,142.042101 C46.7874659,141.918836 46.5336195,141.793766 46.2815906,141.667495 C46.0071457,141.529798 45.7327008,141.390298 45.4600734,141.249595 C45.2092562,141.119715 44.9596507,140.989234 44.7100452,140.856348 C44.4392353,140.712639 44.1696371,140.566524 43.9012506,140.419207 C43.6540684,140.283916 43.4074921,140.148023 43.1621274,140.009124 C42.8949526,139.8588 42.6295952,139.706072 42.3654496,139.55214 C42.1219024,139.411437 41.8783553,139.269532 41.6372315,139.125221 C41.3742975,138.968884 41.1137869,138.810143 40.8538821,138.650198 C40.61397,138.502881 40.3746637,138.355564 40.1365691,138.205841 C39.877876,138.043492 39.6210004,137.876933 39.3641249,137.710976 C39.1296653,137.558848 38.8939941,137.406721 38.6619579,137.252188 C38.4068998,137.082623 38.1542651,136.910653 37.9016303,136.738683 C37.6708058,136.580542 37.4399813,136.423003 37.2109743,136.263059 C36.9601571,136.087481 36.7117632,135.908896 36.4633694,135.730312 C36.2373915,135.567361 36.0108079,135.405612 35.7860417,135.239655 C35.5394654,135.058665 35.2959183,134.874068 35.0523711,134.689471 C34.8306342,134.521709 34.6082914,134.354549 34.388372,134.184383 C34.1448248,133.995577 33.9043069,133.803764 33.6631831,133.611349 C33.4475045,133.440582 33.231826,133.269814 33.0179649,133.096641 C32.7780528,132.900619 32.5405641,132.700989 32.3024695,132.502562 C32.0928493,132.326984 31.8820174,132.15321 31.6742148,131.975227 C31.4373319,131.77259 31.2028723,131.565745 30.9684127,131.359501 C30.764851,131.180916 30.5606833,131.004136 30.3595449,130.823747 C30.1250853,130.612693 29.8942608,130.398031 29.6622246,130.18397 C29.4659329,130.00298 29.2678236,129.823795 29.0727436,129.639798 C28.8413132,129.420927 28.612912,129.197847 28.3832992,128.975368 C28.1936717,128.793176 28.0034384,128.611585 27.8162342,128.426386 C27.5957089,128.208116 27.3788187,127.985637 27.1607168,127.76436 L22.5,131.190537 C22.6714523,131.367919 22.845328,131.541693 23.0185979,131.717873 C23.2651742,131.968011 23.5093272,132.219352 23.7589327,132.465883 C23.9612828,132.665513 24.167268,132.861535 24.3708298,133.059361 C24.6192236,133.299277 24.8651941,133.539795 25.1160113,133.776705 C25.3262373,133.974531 25.5394925,134.168148 25.7521419,134.363569 C26.0023533,134.595067 26.2519588,134.826566 26.5051994,135.054456 C26.7226954,135.249276 26.9432207,135.440488 27.1625343,135.633503 C27.4157749,135.855381 27.6684096,136.079062 27.9246793,136.297934 C28.1488396,136.489747 28.3760291,136.677952 28.6032186,136.86736 C28.8600942,137.082022 29.116364,137.296684 29.3756629,137.50834 C29.6058816,137.695944 29.8391295,137.87994 30.0717715,138.065139 C30.3322822,138.271383 30.5915811,138.478829 30.8551209,138.682668 C31.0920038,138.867266 31.3325218,139.047053 31.5718281,139.228644 C31.8353679,139.427672 32.0983018,139.626701 32.364265,139.823324 C32.6059946,140.001307 32.8513593,140.176284 33.0955123,140.351862 C33.363293,140.545479 33.6322853,140.737893 33.9030952,140.927301 C34.1496715,141.101075 34.3986712,141.27064 34.6488826,141.440806 C34.9209041,141.627208 35.1941374,141.812407 35.4691881,141.995801 C35.7206112,142.16236 35.9738517,142.327115 36.228304,142.491268 C36.5051722,142.670454 36.7826463,142.84964 37.0625438,143.025819 C37.3188136,143.186966 37.5775067,143.346309 37.8355939,143.505652 C38.1167031,143.677622 38.398418,143.849593 38.6819505,144.017955 C38.9424612,144.17369 39.2053951,144.327021 39.4683291,144.479749 C39.754285,144.645707 40.0408466,144.80986 40.32862,144.972811 C40.5933715,145.121932 40.8599405,145.269249 41.1271153,145.415364 C41.4167062,145.574707 41.7081146,145.732246 42.0001289,145.88738 C42.2691212,146.030488 42.5393253,146.171792 42.8095293,146.311894 C43.1045727,146.46342 43.400222,146.614345 43.6964771,146.763466 C43.9691045,146.899359 44.2423377,147.03465 44.5179943,147.167536 C44.8166728,147.31305 45.1159571,147.456158 45.416453,147.597462 C45.6933213,147.727943 45.9714013,147.85662 46.2494812,147.984094 C46.5524005,148.12119 46.8559257,148.257082 47.1606625,148.391772 C47.4411658,148.515038 47.7216691,148.6371 48.0033841,148.757359 C48.3105443,148.888442 48.619522,149.017119 48.9284997,149.143992 C49.2120322,149.260643 49.4949589,149.376091 49.7803089,149.489736 C50.09171,149.613603 50.4037169,149.733862 50.7175413,149.853519 C51.004103,149.963556 51.2906647,150.072391 51.5790439,150.17882 C51.89408,150.295471 52.2115394,150.407913 52.528393,150.520956 C52.8179839,150.623177 53.1075748,150.725397 53.3989832,150.82461 C53.7182602,150.934046 54.0399605,151.039272 54.3622667,151.144499 C54.653675,151.240105 54.9456893,151.335109 55.2389152,151.426506 C55.5630389,151.528125 55.8883742,151.625535 56.2137096,151.723546 C56.508753,151.811335 56.8031906,151.899725 57.0988399,151.984508 C57.4265986,152.078309 57.7567806,152.167902 58.085751,152.257495 C58.3838237,152.33867 58.6812904,152.420446 58.9805747,152.498013 C59.3119685,152.583397 59.6445739,152.664572 59.9777852,152.746348 C60.2770695,152.819706 60.5757479,152.894266 60.8774556,152.964016 C61.2149077,153.042786 61.555389,153.116144 61.8946587,153.190103 C62.1933371,153.255043 62.4920156,153.322388 62.7919057,153.38372 C63.1348104,153.454673 63.4801384,153.520214 63.8248606,153.585755 C64.1253566,153.643479 64.4246409,153.703609 64.7263486,153.757124 C65.0747058,153.82026 65.4254864,153.877383 65.7762669,153.935107 C66.0761571,153.984413 66.3754414,154.036726 66.6765432,154.083026 C67.0321705,154.137744 67.3902211,154.185847 67.7470601,154.235755 C68.0457386,154.277845 68.3425995,154.32174 68.6418838,154.360223 C69.0096279,154.407124 69.3804011,154.44741 69.7493569,154.489501 C70.0407653,154.522572 70.3297503,154.558048 70.6217645,154.588113 C71.0010195,154.627197 71.3839096,154.658465 71.7655879,154.692137 C72.0509379,154.71679 72.3350762,154.745652 72.6198204,154.767299 C73.0196739,154.797965 73.4225566,154.820814 73.8236218,154.845467 C74.0920084,154.861702 74.359789,154.881545 74.6293872,154.895976 C75.0861896,154.919427 75.5442036,154.933256 76.0016118,154.94889 C76.2197137,154.956105 76.4347864,154.968131 76.6528884,154.973543 C77.3296101,154.990981 78.0093611,155 78.6909296,155 C121.663066,155 156.5,120.424958 156.5,77.7745302 C156.5,76.9958537 156.484854,76.2207849 156.461226,75.4475201" id="Fill-10" fill="#E19A45"></path>
                    <path d="M27.5,128 L27.5,128 C27.831793,128.333938 28.163586,128.669691 28.5,129 C28.163586,128.669691 27.831793,128.333938 27.5,128" id="Fill-12" fill="#E19A45"></path>
                    <path d="M129.24092,82.2194973 C129.24092,84.9878057 126.949758,87.2528397 124.149516,87.2528397 L120.424939,87.2528397 C121.585956,83.9633042 122.226998,80.4367929 122.226998,76.7684552 C122.226998,73.099519 121.585956,69.5730077 120.424939,66.2828738 L124.149516,66.2828738 C126.949758,66.2828738 129.24092,68.5479078 129.24092,71.3162162 L129.24092,82.2194973 Z M94.6113801,117.627035 L90.9945521,117.627035 C88.6398305,117.627035 86.7124697,115.721654 86.7124697,113.393187 L86.7124697,109.592598 L90.0617433,109.592598 C93.1180387,109.592598 96.0774818,109.171906 98.8940678,108.399939 L98.8940678,113.393187 C98.8940678,115.721654 96.9673123,117.627035 94.6113801,117.627035 L94.6113801,117.627035 Z M61.3559322,117.627035 L57.7397094,117.627035 C55.3843826,117.627035 53.4576271,115.721654 53.4576271,113.393187 L53.4576271,108.210239 L53.9079903,107.880507 C57.2257869,108.985197 60.7699758,109.592598 64.4527845,109.592598 L65.6386199,109.592598 L65.6386199,113.393187 C65.6386199,115.721654 63.7112591,117.627035 61.3559322,117.627035 L61.3559322,117.627035 Z M27.6670702,128.230506 C27.8541162,128.414222 28.0441889,128.594946 28.2336562,128.776867 C28.4630751,128.997685 28.6912833,129.219701 28.9225182,129.437527 C29.1174334,129.620644 29.3153753,129.799573 29.5115012,129.979699 C29.7433414,130.192139 29.9739709,130.405776 30.2082324,130.615823 C30.409201,130.79535 30.6131961,130.971885 30.816586,131.149617 C31.0508475,131.354278 31.285109,131.560136 31.5217918,131.761805 C31.7294189,131.938938 31.9400726,132.111883 32.1489104,132.286622 C32.3874092,132.484102 32.6246973,132.682779 32.8644068,132.877865 C33.0780872,133.050211 33.2935835,133.220762 33.5090799,133.390714 C33.75,133.581611 33.9903148,133.772509 34.2336562,133.960414 C34.4533898,134.129768 34.6755448,134.296129 34.8970944,134.463688 C35.1404358,134.646806 35.3837772,134.830522 35.62954,135.011246 C35.8547215,135.175812 36.0811138,135.337387 36.3069007,135.498961 C36.5550847,135.676693 36.8032688,135.854425 37.0538741,136.029165 C37.2826877,136.188944 37.5133172,136.345132 37.7439467,136.502518 C37.996368,136.673667 38.2487893,136.844816 38.503632,137.013572 C38.7354722,137.167367 38.9709443,137.318768 39.2052058,137.470169 C39.4618644,137.635933 39.718523,137.801097 39.9769976,137.962672 C40.214891,138.111679 40.4539952,138.258892 40.6937046,138.405505 C40.9533898,138.564088 41.2136804,138.722072 41.4763923,138.87826 C41.7173123,139.021284 41.9606538,139.162512 42.2039952,139.303141 C42.4679177,139.456338 42.7330508,139.607739 43,139.757345 C43.2451574,139.895581 43.4915254,140.030824 43.7384988,140.16547 C44.0066586,140.312084 44.2760291,140.457501 44.5466102,140.601122 C44.7960048,140.732776 45.0453995,140.862634 45.2960048,140.991893 C45.5684019,141.131924 45.842615,141.271357 46.1168281,141.407798 C46.3686441,141.533467 46.622276,141.657939 46.8765133,141.780616 C47.1525424,141.914663 47.4303874,142.046914 47.7082324,142.176772 C47.9642857,142.297654 48.2209443,142.416142 48.4788136,142.532834 C48.7590799,142.660299 49.0405569,142.784771 49.3220339,142.908644 C49.5811138,143.022345 49.840799,143.135447 50.1023002,143.246155 C50.3855932,143.367037 50.6719128,143.484926 50.9576271,143.602218 C51.2197337,143.709934 51.4824455,143.816453 51.746368,143.920579 C52.0338983,144.034878 52.3238499,144.146185 52.6131961,144.256295 C52.8783293,144.357428 53.1440678,144.458562 53.4110169,144.556105 C53.7021792,144.663821 53.9951574,144.767349 54.2893462,144.870876 C54.5569007,144.966025 54.8250605,145.060576 55.094431,145.151537 C55.3904358,145.252072 55.6882567,145.349615 55.9860775,145.445961 C56.2560533,145.534528 56.5260291,145.621898 56.7972155,145.706874 C57.0968523,145.800228 57.3976998,145.889992 57.6991525,145.979755 C57.9727603,146.061141 58.2445521,146.142526 58.5187651,146.220322 C58.8220339,146.307093 59.1271186,146.389077 59.4322034,146.472258 C59.7076271,146.546463 59.9824455,146.621864 60.2590799,146.693076 C60.5659806,146.772667 60.874092,146.84747 61.1822034,146.922871 C61.4588378,146.989895 61.7354722,147.059312 62.0145278,147.123343 C62.3268765,147.195752 62.6422518,147.263374 62.9558111,147.332193 C63.2324455,147.392035 63.5090799,147.453673 63.7869249,147.510523 C64.1041162,147.575751 64.4231235,147.635594 64.7421308,147.696633 C65.0199758,147.749893 65.2972155,147.804948 65.5762712,147.855215 C65.8989104,147.912664 66.2239709,147.964727 66.5484262,148.018585 C66.8256659,148.064065 67.1023002,148.111939 67.3813559,148.155026 C67.7100484,148.205293 68.0405569,148.250175 68.3716707,148.295655 C68.6470944,148.333954 68.9225182,148.375246 69.1997579,148.409954 C69.5399516,148.454238 69.8825666,148.490741 70.2245763,148.529639 C70.4939467,148.55956 70.7621065,148.593072 71.0320823,148.620599 C71.3831719,148.656505 71.7372881,148.685229 72.0901937,148.716347 C72.3535109,148.739087 72.6168281,148.765418 72.8813559,148.785166 C73.2512107,148.81389 73.6234867,148.834237 73.9945521,148.856977 C74.2433414,148.872536 74.4915254,148.891087 74.7409201,148.904252 C75.1628329,148.925795 75.5865617,148.938961 76.0102906,148.953323 C76.2118644,148.959906 76.4116223,148.970677 76.6125908,148.976063 C77.2391041,148.991622 77.8680387,149 78.4987893,149 C118.263923,149 150.5,117.13154 150.5,77.8198857 C150.5,77.1023756 150.486077,76.3878576 150.464891,75.6751349 C150.457627,75.4573087 150.447942,75.2406793 150.439467,75.0234514 C150.419492,74.5159881 150.394673,74.0097216 150.364407,73.5052503 C150.349879,73.271865 150.335956,73.0372829 150.319007,72.8044961 C150.280872,72.2581352 150.235472,71.7129711 150.184625,71.1702008 C150.168886,71.0092248 150.157385,70.8470519 150.140436,70.6860759 C150.070823,69.9889122 149.990315,69.2941422 149.899516,68.6023643 C149.878329,68.4371994 149.8523,68.2726328 149.829903,68.1080663 C149.756659,67.5760676 149.677966,67.0470609 149.592615,66.5192512 C149.556295,66.2918501 149.517554,66.0650475 149.478814,65.8388433 C149.394673,65.3487343 149.305085,64.8604205 149.211259,64.3739019 C149.171308,64.1680442 149.133172,63.961588 149.091404,63.7563286 C148.953995,63.0801097 148.809927,62.4056862 148.653148,61.73605 C148.649516,61.7180972 148.645278,61.7013414 148.641041,61.6845855 C148.487893,61.0311067 148.323245,60.3824154 148.151937,59.7367161 C148.098063,59.5320552 148.041162,59.3291895 147.985472,59.125127 C147.855327,58.6541675 147.72155,58.1844049 147.58293,57.7176343 C147.51816,57.5010049 147.4546,57.2861708 147.388015,57.0713366 C147.23184,56.562078 147.069007,56.0558115 146.901332,55.5519387 C146.852906,55.4059233 146.806901,55.258711 146.757264,55.1126956 C146.538136,54.4711853 146.310533,53.8326672 146.074455,53.1989364 C146.015738,53.0427478 145.953995,52.8883544 145.895278,52.7327643 C145.710654,52.2492379 145.521792,51.7675067 145.327482,51.2887677 C145.243341,51.0817131 145.157385,50.8752569 145.070823,50.6688007 C144.883777,50.2199828 144.691283,49.7741571 144.495157,49.3307251 C144.412833,49.1452137 144.332324,48.9591039 144.249395,48.7747894 C143.970944,48.1608066 143.686441,47.549816 143.392252,46.9454079 C143.375908,46.9118962 143.357748,46.8789829 143.34201,46.8460696 C143.061743,46.2739765 142.772397,45.7060723 142.477603,45.1429555 C142.380145,44.9574442 142.280872,44.7737281 142.181598,44.5888151 C142.010896,44.2692568 141.835351,43.9526906 141.659806,43.6349276 C141.835351,43.9526906 142.010896,44.2692568 142.181598,44.5888151 C142.010896,44.2692568 141.835351,43.9520922 141.659806,43.6349276 C141.603511,43.533794 141.549031,43.432062 141.492736,43.3315268 C141.430993,43.2214168 141.373487,43.1095116 141.311138,43 L141.306901,43.0029921 L115.909201,61.5972156 C118.527845,66.072827 120.03753,71.2533817 120.03753,76.7684552 C120.03753,93.5309035 106.163438,107.246178 89.2070218,107.246178 L65.4897094,107.246178 C62.0792978,107.246178 58.7972155,106.683061 55.7239709,105.660355 L26.501816,127.054005 L26.5,127.055202 C26.6585956,127.218571 26.8220339,127.378351 26.9818402,127.540523 C26.9921308,127.550697 27.0030266,127.561468 27.0121065,127.571043 C27.2300242,127.791263 27.4467312,128.01268 27.6670702,128.230506 L27.6670702,128.230506 Z" id="Fill-14" fill="#FAD26E"></path>
                    <path d="M90.7993441,110.163305 L87.5,110.163305 L87.5,113.870355 C87.5,116.141514 89.3980322,118 91.7182469,118 L95.2811568,118 C97.6013715,118 99.5,116.141514 99.5,113.870355 L99.5,109 C96.7254025,109.752967 93.8100775,110.163305 90.7993441,110.163305" id="Fill-16" fill="#F2F2F2"></path>
                    <path d="M65.3317845,109.580954 C61.7036973,109.580954 58.2127665,109.019525 54.9436714,108 L54.5,108.303923 L54.5,113.09044 C54.5,115.24056 56.3987229,117 58.7184565,117 L62.2815435,117 C64.6012771,117 66.5,115.24056 66.5,113.09044 L66.5,109.580954 L65.3317845,109.580954 Z" id="Fill-18" fill="#F2F2F2"></path>
                    <path d="M98.1246771,45 C97.8058378,40.0122614 100.5,34.0268587 100.5,34.0268587 C94.6150336,33.5608943 89.5823144,39.250779 86.5,43.8697019 L89.4894954,43.8697019 C92.47658,43.8697019 95.3702428,44.2681858 98.1246771,45" id="Fill-20" fill="#FFFFFF"></path>
                    <path d="M41.5,138.895 C41.1643465,138.634 40.8325599,138.371 40.5,138.105" id="Stroke-22" stroke-linecap="round" stroke-linejoin="round"></path>
                    <path d="M40.5,137.9115 C40.165098,137.6405 39.8317647,137.3645 39.5,137.0885" id="Stroke-24" stroke-linecap="round" stroke-linejoin="round"></path>
                    <path d="M43.5,139.88 C43.1646388,139.63 42.8315589,139.376 42.5,139.12" id="Stroke-26" stroke-linecap="round" stroke-linejoin="round"></path>
                    <path d="M39.5,136.927 C39.1645418,136.645 38.8322709,136.359 38.5,136.073" id="Stroke-28" stroke-linecap="round" stroke-linejoin="round"></path>
                    <path d="M38.5,135.943 C38.1645057,135.651 37.8322528,135.354 37.5,135.057" id="Stroke-30" stroke-linecap="round" stroke-linejoin="round"></path>
                    <path d="M49.5,143.814 C49.1661881,143.607 48.8323762,143.399 48.5,143.186" id="Stroke-32" stroke-linecap="round" stroke-linejoin="round"></path>
                    <path d="M45.5,140.864 C45.1651685,140.625 44.8318352,140.382 44.5,140.136" id="Stroke-34" stroke-linecap="round" stroke-linejoin="round"></path>
                    <path d="M46.5,141.8475 C46.1656827,141.6185 45.8321033,141.3865 45.5,141.1525" id="Stroke-36" stroke-linecap="round" stroke-linejoin="round"></path>
                    <path d="M48.5,142.831 C48.1659389,142.613 47.8318777,142.393 47.5,142.169" id="Stroke-38" stroke-linecap="round" stroke-linejoin="round"></path>
                    <path d="M35.5,134.9575 C35.1647399,134.6555 34.8319571,134.3495 34.5,134.0425" id="Stroke-40" stroke-linecap="round" stroke-linejoin="round"></path>
                    <path d="M29.5,130 C29.1637401,129.67029 28.832748,129.334239 28.5,129" id="Stroke-42" stroke-linecap="round" stroke-linejoin="round"></path>
                    <path d="M27.5,128 C27.831793,128.333938 28.163586,128.669691 28.5,129" id="Stroke-44" stroke-linecap="round" stroke-linejoin="round"></path>
                    <path d="M27.025,128.5255 C27.009,128.5085 26.992,128.4915 26.975,128.4745" id="Stroke-46" stroke-linecap="round" stroke-linejoin="round"></path>
                    <path d="M31.5,130 C31.1629018,129.669802 30.8318853,129.33396 30.5,129" id="Stroke-48" stroke-linecap="round" stroke-linejoin="round"></path>
                    <path d="M32.5,132 C32.1635193,131.670577 31.8321888,131.334311 31.5,131" id="Stroke-50" stroke-linecap="round" stroke-linejoin="round"></path>
                    <path d="M34.5,134.976 C34.1641604,134.663 33.8324979,134.343 33.5,134.024" id="Stroke-52" stroke-linecap="round" stroke-linejoin="round"></path>
                    <path d="M33.5,133.994 C33.1649746,133.668 32.8333333,133.336 32.5,133.006" id="Stroke-54" stroke-linecap="round" stroke-linejoin="round"></path>
                    <path d="M54.5,144.763 C54.1657478,144.59 53.8314955,144.416 53.5,144.237" id="Stroke-56" stroke-linecap="round" stroke-linejoin="round"></path>
                    <path d="M142.431,45 C142.149,44.6649937 141.859,44.3331242 141.569,44" id="Stroke-58" stroke-linecap="round" stroke-linejoin="round"></path>
                    <path d="M51.5,143.7975 C51.165959,143.6015 50.8319179,143.4035 50.5,143.2025" id="Stroke-60" stroke-linecap="round" stroke-linejoin="round"></path>
                    <path d="M53.5,143.7805 C53.1655028,143.5965 52.8317039,143.4105 52.5,143.2195" id="Stroke-62" stroke-linecap="round" stroke-linejoin="round"></path>
                    <path d="M57.5,146.746 C57.1662144,146.585 56.8324288,146.422 56.5,146.254" id="Stroke-64" stroke-linecap="round" stroke-linejoin="round"></path>
                    <path d="M61.5,147.692 C61.1655738,147.566 60.8318033,147.441 60.5,147.308" id="Stroke-66" stroke-linecap="round" stroke-linejoin="round"></path>
                    <path d="M58.5,146.728 C58.1657718,146.579 57.8322148,146.428 57.5,146.272" id="Stroke-68" stroke-linecap="round" stroke-linejoin="round"></path>
                    <path d="M59.5,147.7105 C59.166004,147.5715 58.832008,147.4345 58.5,147.2895" id="Stroke-70" stroke-linecap="round" stroke-linejoin="round"></path>
                    <path d="M150.1115,73 C150.0485,72.3311355 149.9725,71.6644689 149.8885,71" id="Stroke-72" stroke-linecap="round" stroke-linejoin="round"></path>
                    <path d="M147.4025,58 C147.1435,57.3293932 146.8755,56.6635146 146.5975,56" id="Stroke-74" stroke-linecap="round" stroke-linejoin="round"></path>
                    <path d="M146.5,55 C146.179965,54.329581 145.846631,53.6622889 145.5,53" id="Stroke-76" stroke-linecap="round" stroke-linejoin="round"></path>
                    <path d="M145.4685,53 C145.1635,52.3300166 144.8515,51.6633499 144.5315,51" id="Stroke-78" stroke-linecap="round" stroke-linejoin="round"></path>
                    <path d="M150.199,71 C150.084,70.3306521 149.951,69.664177 149.801,69" id="Stroke-80" stroke-linecap="round" stroke-linejoin="round"></path>
                    <path d="M149.2205,66 C149.0815,65.3308824 148.9335,64.6642157 148.7795,64" id="Stroke-82" stroke-linecap="round" stroke-linejoin="round"></path>
                    <path d="M150.062,75 C150.03,74.3312303 149.989,73.6648265 149.938,73" id="Stroke-84" stroke-linecap="round" stroke-linejoin="round"></path>
                    <path d="M149.362,64 C149.135,63.3301747 148.897,62.6627184 148.638,62" id="Stroke-86" stroke-linecap="round" stroke-linejoin="round"></path>
                    <path d="M148.404,62 C148.151,61.3290323 147.88,60.66298 147.596,60" id="Stroke-88" stroke-linecap="round" stroke-linejoin="round"></path>
                    <path d="M150.196,68 C150.075,67.3303202 149.945,66.6644068 149.804,66" id="Stroke-90" stroke-linecap="round" stroke-linejoin="round"></path>
                    <path d="M148.3325,59 C148.1175,58.3310667 147.8965,57.6638334 147.6675,57" id="Stroke-92" stroke-linecap="round" stroke-linejoin="round"></path>
                    <path d="M150.0295,78 C150.0295,77.3309152 150.0065,76.6640625 149.9705,76" id="Stroke-94" stroke-linecap="round" stroke-linejoin="round"></path>
                    <path d="M143.5,49 C143.175141,48.3289732 142.84322,47.6612165 142.5,47" id="Stroke-96" stroke-linecap="round" stroke-linejoin="round"></path>
                    <path d="M144.4755,51 C144.1655,50.6645796 143.8485,50.3313953 143.5245,50" id="Stroke-98" stroke-linecap="round" stroke-linejoin="round"></path>
                    <path d="M143.5,47 C143.17577,46.3281799 142.841737,45.6619817 142.5,45" id="Stroke-100" stroke-linecap="round" stroke-linejoin="round"></path>
                    <path d="M58.5,146.701 C58.1654357,146.571 57.8338257,146.434 57.5,146.299" id="Stroke-102" stroke-linecap="round" stroke-linejoin="round"></path>
                    <path d="M57.5,146.718 C57.1656716,146.576 56.8320896,146.43 56.5,146.282" id="Stroke-104" stroke-linecap="round" stroke-linejoin="round"></path>
                    <path d="M52.5,143.766 C52.1648773,143.591 51.8328221,143.413 51.5,143.234" id="Stroke-106" stroke-linecap="round" stroke-linejoin="round"></path>
                    <path d="M150.0575,68.913 C150.0225,68.637 149.9795,68.362 149.9425,68.087" id="Stroke-108" stroke-linecap="round" stroke-linejoin="round"></path>
                    <path d="M149.094,67 C149.033,66.6657872 148.97,66.3324538 148.906,66" id="Stroke-110" stroke-linecap="round" stroke-linejoin="round"></path>
                    <path d="M53.5,144.7505 C53.1659074,144.5875 52.8318147,144.4185 52.5,144.2495" id="Stroke-112" stroke-linecap="round" stroke-linejoin="round"></path>
                    <path d="M54.5,144.2655 C54.8323308,144.4235 55.1661654,144.5815 55.5,144.7345" id="Stroke-114" stroke-linecap="round" stroke-linejoin="round"></path>
                    <path d="M150.037,74 C150.014,73.6663823 149.99,73.3327645 149.963,73" id="Stroke-116" stroke-linecap="round" stroke-linejoin="round"></path>
                    <path d="M150.021,76 C150.009,75.666055 149.994,75.3330275 149.979,75" id="Stroke-118" stroke-linecap="round" stroke-linejoin="round"></path>
                    <path d="M143.2445,44.963 C143.0835,44.653 142.9195,44.346 142.7555,44.037" id="Stroke-120" stroke-linecap="round" stroke-linejoin="round"></path>
                    <path d="M60.5,147.6845 C60.1654466,147.5655 59.8330893,147.4395 59.5,147.3155" id="Stroke-122" stroke-linecap="round" stroke-linejoin="round"></path>
                    <path d="M150.036,70.905 C150.011,70.635 149.991,70.365 149.964,70.095" id="Stroke-124" stroke-linecap="round" stroke-linejoin="round"></path>
                    <path d="M62.5,147.6675 C62.1647273,147.5605 61.8323636,147.4445 61.5,147.3325" id="Stroke-126" stroke-linecap="round" stroke-linejoin="round"></path>
                    <path d="M145.212,52 C145.072,51.6650579 144.931,51.3330116 144.788,51" id="Stroke-128" stroke-linecap="round" stroke-linejoin="round"></path>
                    <path d="M33.5,131.9385 C33.1660232,131.6465 32.8310811,131.3575 32.5,131.0615" id="Stroke-130" stroke-linecap="round" stroke-linejoin="round"></path>
                    <path d="M31.5,130.946 C31.1656716,130.649 30.8303483,130.354 30.5,130.054" id="Stroke-132" stroke-linecap="round" stroke-linejoin="round"></path>
                    <path d="M34.5,134.928 C34.1663534,134.644 33.8308271,134.36 33.5,134.072" id="Stroke-134" stroke-linecap="round" stroke-linejoin="round"></path>
                    <path d="M146.148,52.8895 C146.051,52.6285 145.95,52.3705 145.852,52.1105" id="Stroke-136" stroke-linecap="round" stroke-linejoin="round"></path>
                    <path d="M34.5,134.9205 C34.1669708,134.6415 33.8321168,134.3625 33.5,134.0795" id="Stroke-138" stroke-linecap="round" stroke-linejoin="round"></path>
                    <path d="M149.099,65 C149.033,64.6663434 148.97,64.3326867 148.901,64" id="Stroke-140" stroke-linecap="round" stroke-linejoin="round"></path>
                    <path d="M143.0415,47.583 C143.0145,47.527 142.9845,47.473 142.9585,47.417" id="Stroke-142" stroke-linecap="round" stroke-linejoin="round"></path>
                    <path d="M144.203,49.9645 C144.067,49.6545 143.933,49.3435 143.797,49.0355" id="Stroke-144" stroke-linecap="round" stroke-linejoin="round"></path>
                    <path d="M28.468,129.9565 C28.156,129.6525 27.841,129.3515 27.532,129.0435" id="Stroke-146" stroke-linecap="round" stroke-linejoin="round"></path>
                    <path d="M36.5,135.9075 C36.1663685,135.6365 35.8318426,135.3675 35.5,135.0925" id="Stroke-148" stroke-linecap="round" stroke-linejoin="round"></path>
                    <path d="M29.4865,129.9525 C29.1625,129.6515 28.8355,129.3525 28.5135,129.0475" id="Stroke-150" stroke-linecap="round" stroke-linejoin="round"></path>
                    <path d="M47.5,142.8115 C47.1653386,142.6065 46.8314741,142.3985 46.5,142.1885" id="Stroke-152" stroke-linecap="round" stroke-linejoin="round"></path>
                    <path d="M149.0105,61.543 C149.0045,61.514 148.9965,61.485 148.9895,61.457" id="Stroke-154" stroke-linecap="round" stroke-linejoin="round"></path>
                    <path d="M148.1375,60 C148.0485,59.6650343 147.9535,59.3330069 147.8625,59" id="Stroke-156" stroke-linecap="round" stroke-linejoin="round"></path>
                    <path d="M45.5,141.8265 C45.1655897,141.6105 44.8327948,141.3935 44.5,141.1735" id="Stroke-158" stroke-linecap="round" stroke-linejoin="round"></path>
                    <path d="M49.5,143.782 C49.1648565,143.596 48.8328161,143.408 48.5,143.218" id="Stroke-160" stroke-linecap="round" stroke-linejoin="round"></path>
                    <path d="M48.5,142.7975 C48.1653574,142.6025 47.8322859,142.4035 47.5,142.2025" id="Stroke-162" stroke-linecap="round" stroke-linejoin="round"></path>
                    <path d="M41.5,138.8695 C41.1655405,138.6245 40.8319257,138.3795 40.5,138.1305" id="Stroke-164" stroke-linecap="round" stroke-linejoin="round"></path>
                    <path d="M39.5,137.8815 C39.1660915,137.6285 38.8313201,137.3755 38.5,137.1185" id="Stroke-166" stroke-linecap="round" stroke-linejoin="round"></path>
                    <path d="M38.5,136.8955 C38.1657895,136.6325 37.8315789,136.3715 37.5,136.1045" id="Stroke-168" stroke-linecap="round" stroke-linejoin="round"></path>
                    <path d="M44.5,140.841 C44.1655738,140.616 43.8319672,140.39 43.5,140.159" id="Stroke-170" stroke-linecap="round" stroke-linejoin="round"></path>
                    <path d="M147.119,56.867 C147.039,56.623 146.963,56.377 146.881,56.133" id="Stroke-172" stroke-linecap="round" stroke-linejoin="round"></path>
                    <path d="M42.5,139.855 C42.1663894,139.621 41.8311148,139.384 41.5,139.145" id="Stroke-174" stroke-linecap="round" stroke-linejoin="round"></path>
                    <path d="M147.1605,58 C147.0545,57.6657407 146.9485,57.3324074 146.8395,57" id="Stroke-176" stroke-linecap="round" stroke-linejoin="round"></path>
                    <path d="M27.634286,66.4678413 C27.1039179,64.8580097 26.9713259,62.9865136 27.7626592,61.6930582 C28.8360518,59.9399059 30.817097,61.4040379 30.684505,63.1072361 C30.5862664,64.3638205 29.6056881,65.4467549 28.5509789,66.0604772 C28.2574684,66.2317485 27.9488907,66.3655542 27.634286,66.4678413 M88.9146986,47 L65.3000609,47 C51.0391872,47 38.9690951,56.7261896 35.5644938,69.7880074 C33.3339345,70.4695245 30.9780155,70.9078126 29.2742081,69.2872766 C29.3790763,69.2426747 29.4821365,69.1986675 29.5851967,69.1487133 C33.7823366,67.0988096 36.1466933,60.3407283 30.8008243,58.0208344 C25.494733,55.7187812 23.5203174,62.3466249 24.2995968,66.2715929 C23.2111369,65.7012831 22.5234665,64.5767203 22.8380712,62.9555896 C23.2274096,60.947909 20.0060264,60.7689067 19.6203041,62.7533943 C18.8265601,66.8448761 22.0865156,69.5751076 25.6906076,69.8599651 C26.3776753,71.0071262 27.287136,72.0097771 28.4581645,72.7109192 C30.4747685,73.9163601 32.718587,73.7902854 34.8852611,73.2681457 C34.7062618,74.5841993 34.6050098,75.9246354 34.6050098,77.2876697 C34.6050098,90.59569 43.4241867,101.962635 55.5768475,106 L80.5830986,87.7268952 L73.2115853,87.7268952 L73.2115853,58.3473204 L80.841653,58.3473204 L80.841653,87.5377831 L102.34868,71.8218544 C101.770097,71.1819657 101.414509,70.3398817 101.414509,69.4145407 C101.414509,67.4139964 103.05865,65.7916763 105.086103,65.7916763 C106.414434,65.7916763 107.574614,66.4898449 108.21889,67.5323402 L115.5,62.2116298 C110.181855,53.1413855 100.243481,47 88.9146986,47" id="Fill-178" fill="#FFFFFF"></path>
                    <path d="M76.9385483,100.080465 C74.5862715,100.080465 72.6797526,98.1712855 72.6797526,95.8170735 C72.6797526,93.4616554 74.5862715,91.5524763 76.9385483,91.5524763 C79.2902227,91.5524763 81.1973439,93.4616554 81.1973439,95.8170735 C81.1973439,98.1712855 79.2902227,100.080465 76.9385483,100.080465 M108.65242,69.3038463 C108.65242,71.3324244 107.010344,72.9774783 104.98335,72.9774783 C103.894255,72.9774783 102.919009,72.499279 102.24736,71.7448939 L80.7515859,87.6810519 L80.7515859,87.872814 L80.4931668,87.872814 L55.5,106.401379 C58.558261,107.43195 61.8243416,108 65.2181259,108 L88.8204074,108 C105.693551,108 119.5,94.1792559 119.5,77.2873024 C119.5,71.7298183 117.997675,66.5094256 115.391798,62 L108.114498,67.3952702 C108.453636,67.9518628 108.65242,68.6037335 108.65242,69.3038463" id="Fill-180" fill="#F2F2F2"></path>
                    <polygon id="Fill-182" fill="#F4BA53" points="80.5 87.8068943 80.5 58 73.5 58 73.5 88 80.2627962 88 80.5 88"></polygon>
                    <path d="M76.5,91 C74.2906648,91 72.5,92.7909772 72.5,95 C72.5,97.2090228 74.2906648,99 76.5,99 C78.7087694,99 80.5,97.2090228 80.5,95 C80.5,92.7909772 78.7087694,91 76.5,91" id="Fill-184" fill="#F4BA53"></path>
                    <path d="M106,72 C107.933273,72 109.5,70.4326986 109.5,68.5 C109.5,67.8329777 109.310407,67.2119173 108.986376,66.6816316 C108.372209,65.6744911 107.266251,65 106,65 C104.067876,65 102.5,66.5673014 102.5,68.5 C102.5,69.3939593 102.838969,70.2074852 103.390512,70.825673 C104.031106,71.5444025 104.961261,72 106,72" id="Fill-186" fill="#FFDB80"></path>
                    <path d="M122.879841,66 L119.5,66 C120.554106,69.2948462 121.135265,72.8264083 121.135265,76.5 C121.135265,80.174191 120.554106,83.7057531 119.5,87 L122.879841,87 C125.420901,87 127.5,84.7317219 127.5,81.9594487 L127.5,71.0405513 C127.5,68.2682781 125.420901,66 122.879841,66" id="Fill-188" fill="#F2F2F2"></path>
                </g>
            </g>
        </g>
    </g>
</svg>