<?xml version="1.0" encoding="UTF-8"?>
<svg width="335px" height="294px" viewBox="0 0 335 294" version="1.1" xmlns="http://www.w3.org/2000/svg" xmlns:xlink="http://www.w3.org/1999/xlink">
    <!-- Generator: Sketch 53.2 (72643) - https://sketchapp.com -->
    <title>Group 136</title>
    <desc>Created with Sketch.</desc>
    <defs>
        <polygon id="path-1" points="0.570978947 0.594932495 150.641202 0.594932495 150.641202 133.238112 0.570978947 133.238112"></polygon>
    </defs>
    <g id="Page-1" stroke="none" stroke-width="1" fill="none" fill-rule="evenodd">
        <g id="B-3a" transform="translate(-29.000000, -119.000000)">
            <g id="pig_group" transform="translate(29.000000, 119.000000)">
                <g id="Group-136" transform="translate(-0.000000, 0.000000)">
                    <path d="M283.212725,98.221328 C282.404835,103.967766 281.365655,109.677555 280.075639,115.337666 C280.048763,115.615378 280.015373,115.892275 279.986869,116.169987 C284.133816,116.222924 288.28565,116.047012 292.443999,115.993261 C293.81627,108.48771 294.595655,101.044054 294.370065,93.5075551 L293.852104,84.4106576 C293.24863,85.7560537 292.576747,87.0737601 291.838896,88.3580759 C289.517029,91.9267961 286.606348,95.2357213 283.212725,98.221328" id="Fill-1" fill="#E7B7C8"></path>
                    <path d="M281.156028,125.542072 C281.331125,125.665047 281.520881,125.764404 281.721224,125.83933 C281.520881,125.764404 281.331125,125.665047 281.156028,125.542072" id="Fill-3" fill="#E7B7C8"></path>
                    <path d="M223.140055,113.353858 C222.979617,113.321282 222.822437,113.300922 222.668515,113.287077 C222.670958,113.252872 222.674216,113.218667 222.676659,113.184462 C221.403745,112.980861 220.138975,112.747127 218.885606,112.480817 C218.888864,112.540268 218.888049,112.59972 218.890493,112.658357 C218.925512,113.68695 218.932027,114.713099 218.910853,115.735991 C218.589163,116.566684 218.532969,117.482889 218.79765,118.285077 C218.79195,118.370589 218.780548,118.456102 218.774847,118.541614 C223.280947,120.369952 228.473589,120.701415 233.084747,119.316927 C233.382819,117.709293 233.646686,116.102473 233.884493,114.498096 C231.011274,114.41177 228.189362,114.17885 225.427717,113.810739 C224.676022,113.665775 223.916997,113.511853 223.140055,113.353858" id="Fill-5" fill="#E7B7C8"></path>
                    <path d="M230.740891,129.966406 C230.741706,129.964777 230.74252,129.963148 230.743335,129.960705 C230.748221,129.941973 230.752293,129.924057 230.75718,129.905325 C230.752293,129.924057 230.748221,129.941973 230.743335,129.960705 C230.74252,129.963148 230.741706,129.964777 230.740891,129.966406" id="Fill-7" fill="#E7B7C8"></path>
                    <path d="M225.699402,132.709075 C225.194471,132.556782 224.707458,132.322233 224.269308,132.017646 C224.709086,132.323048 225.192843,132.556782 225.699402,132.709075" id="Fill-9" fill="#E7B7C8"></path>
                    <path d="M218.774521,118.541696 C218.46179,122.858854 217.635984,127.119003 216.305247,131.296084 C216.412748,131.309114 216.52025,131.336804 216.627751,131.339247 C217.657158,131.367751 218.592095,131.102255 219.426859,130.636416 C219.507485,130.593253 219.588926,130.551718 219.667109,130.505297 C220.420433,130.247131 221.125707,129.875762 221.773973,129.399336 C222.330211,130.265862 223.010239,131.098183 223.838488,131.682111 C223.839302,131.682111 223.839302,131.682926 223.840117,131.682926 C223.973679,131.8002 224.113757,131.90933 224.258721,132.011131 C224.261978,132.013574 224.26605,132.015203 224.269308,132.017646 C224.707458,132.322233 225.194471,132.555967 225.699402,132.709075 C225.701845,132.709075 225.704289,132.710704 225.706732,132.710704 C225.850881,132.754682 225.997474,132.788073 226.144881,132.818206 C226.195375,132.828793 226.246682,132.838566 226.297989,132.84671 C226.430737,132.869513 226.5643,132.888244 226.698676,132.899646 C226.767086,132.905347 226.835496,132.905347 226.903906,132.90779 C227.087147,132.914305 227.267945,132.911048 227.447114,132.89476 C227.566017,132.884172 227.68492,132.874399 227.802194,132.854039 C227.886893,132.83938 227.969147,132.815762 228.053031,132.795402 C228.167048,132.766898 228.28025,132.735951 228.391009,132.696859 C228.465934,132.670798 228.540859,132.642294 228.614156,132.611347 C228.739574,132.557596 228.86092,132.495701 228.979009,132.428106 C229.03276,132.397158 229.088139,132.371098 229.141075,132.336893 C229.308028,132.230206 229.466837,132.108045 229.615873,131.968782 C229.648449,131.938649 229.676953,131.902001 229.707901,131.870239 C229.824361,131.752965 229.93512,131.625103 230.037735,131.486654 C230.080084,131.429646 230.119989,131.368566 230.159081,131.3083 C230.247037,131.173923 230.327663,131.030588 230.401773,130.878294 C230.433535,130.813142 230.466926,130.749618 230.497059,130.681208 C230.59153,130.458876 230.676228,130.225142 230.740566,129.966161 C230.74138,129.964532 230.742194,129.962904 230.743009,129.96046 C230.747895,129.942543 230.751967,129.923812 230.756854,129.905081 C231.017463,128.861829 231.267485,127.82102 231.510992,126.781025 C231.598948,126.400699 231.685275,126.022001 231.771602,125.642488 C231.927967,124.94943 232.081075,124.258001 232.229297,123.566571 C232.322139,123.134937 232.415796,122.703302 232.504566,122.271668 C232.700837,121.322887 232.88815,120.374106 233.064876,119.427768 C233.072206,119.390305 233.079535,119.353657 233.086865,119.316194 C233.085236,119.316194 233.085236,119.316194 233.084422,119.317009 C228.473264,120.701496 223.280621,120.370034 218.774521,118.541696" id="Fill-11" fill="#D293A8"></path>
                    <path d="M182.701373,85.2656194 C187.485184,85.2411873 191.816187,83.7589712 195.722071,81.0225723 C197.998331,79.4287828 200.00991,83.2638133 197.75401,84.8437579 C193.237323,88.0085335 188.027578,89.5624172 182.52709,89.5909213 C179.741013,89.6055806 179.91611,85.2802787 182.701373,85.2656194 M199.775362,15.957359 C202.666498,18.347636 204.256215,21.7591762 204.530669,25.4663452 C204.735899,28.2434643 200.405711,28.2117025 200.201295,25.4435418 C200.00991,22.8472205 198.716636,20.6776471 196.736004,19.0406942 C194.586791,17.2636637 197.64488,14.1958022 199.775362,15.957359 M206.394841,56.4047551 C208.364071,57.8210044 209.468403,60.4075529 208.894248,62.8475086 C208.507406,64.4909767 206.484425,64.4926055 205.718885,63.4648271 C204.827112,64.2767884 203.655184,64.7898632 202.356209,64.8354698 C199.444714,64.9372704 197.002315,62.6593812 196.900514,59.7470709 C196.798714,56.8355751 199.075788,54.3923618 201.988913,54.2905612 C203.781417,54.2278521 205.394752,55.0699463 206.394841,56.4047551 M215.082093,13.1867551 C217.973229,15.5770321 219.563761,18.9877579 219.837401,22.6957413 C220.04263,25.4728604 215.712442,25.4410986 215.508841,22.672938 C215.316642,20.0766166 214.023367,17.9078576 212.042736,16.2700903 C209.894337,14.4930598 212.951611,11.4251983 215.082093,13.1867551 M219.834957,11.9912094 C221.694243,14.1672981 223.152027,16.6194698 224.200165,19.2817579 C224.878564,21.0042233 222.205689,22.0515474 221.528104,20.3323396 C220.560592,17.8760958 219.230669,15.6894199 217.516348,13.6835418 C216.314287,12.2770654 218.640226,10.5936914 219.834957,11.9912094 M257.202276,24.2308936 L261.300359,27.8859407 C247.44734,25.1308105 242.203389,26.8092981 242.203389,26.8092981 L239.327727,23.2226609 C249.357932,22.6102288 257.202276,24.2308936 257.202276,24.2308936 M278.366204,38.0985723 C281.679201,40.8642898 284.465279,44.1422676 286.695932,47.8347773 C288.139871,50.2242399 284.430259,52.4548936 282.989578,50.069503 C280.931578,46.6636637 278.401223,43.7489102 275.347207,41.2006388 C273.206137,39.4130211 276.237351,36.3223562 278.366204,38.0985723 M305.72042,43.8523396 C303.597268,45.1114089 300.644237,44.9762177 298.558547,43.6300072 C298.60334,43.5575252 298.659534,43.4809712 298.729572,43.4003452 C299.388425,42.6315474 300.762326,42.0598355 301.995334,42.0411042 C303.58098,42.0150432 305.158481,42.4613368 306.559257,43.2488659 C306.296204,43.474456 306.016049,43.6772427 305.72042,43.8523396 M184.348099,93.232938 C188.020248,97.3815141 192.477484,101.092755 197.547151,104.161431 C197.975528,104.419597 198.415306,104.666362 198.851827,104.916384 C198.858342,104.95629 198.863229,104.996196 198.869744,105.036101 C199.306265,107.540395 199.482176,110.096811 199.346985,112.688245 C199.259029,114.391165 199.021223,116.074539 198.672658,117.73511 C201.156592,119.214883 204.530669,120.416129 208.359184,121.020417 C212.107888,121.612489 215.62693,121.531049 218.417894,120.924317 C218.386132,121.171896 218.345412,121.418661 218.310392,121.66624 C218.345412,121.65891 218.382874,121.653209 218.417894,121.64588 C217.942281,125.36445 217.090414,129.0366 215.854148,132.643597 C216.008885,132.195675 216.161179,131.746938 216.305329,131.296572 C217.636065,127.118678 218.461871,122.859342 218.774603,118.54137 C218.781118,118.455858 218.791705,118.370345 218.797406,118.284833 C218.532725,117.483459 218.588919,116.566439 218.910608,115.736561 C218.931783,114.712855 218.925268,113.686705 218.891063,112.658927 C218.888619,112.599475 218.889434,112.540024 218.886176,112.480572 C220.139545,112.746883 221.4035,112.980617 222.676414,113.184218 C222.673971,113.218423 222.670714,113.253442 222.66827,113.287647 C222.823007,113.300678 222.979373,113.321038 223.139811,113.353614 C223.916752,113.512423 224.675777,113.666345 225.427473,113.810495 C228.189118,114.178606 231.011029,114.41234 233.885063,114.497852 C234.671777,114.52147 235.46175,114.538572 236.256608,114.538572 C245.053805,114.538572 253.416924,113.145126 260.994143,110.643276 C261.267783,115.740633 260.766924,120.959337 260.015229,126.08927 C266.335822,126.673198 272.158813,126.337664 278.512797,126.287985 C279.140702,122.909021 279.641561,119.540644 279.986869,116.169824 C280.015373,115.892112 280.048763,115.615215 280.075639,115.337503 C281.365655,109.678207 282.404835,103.967603 283.212725,98.2211651 C286.606348,95.2355584 289.517029,91.9274476 291.838896,88.357913 C292.576747,87.0735972 293.24863,85.7558909 293.852104,84.4104947 C296.432952,78.6648715 297.764503,72.397215 297.53647,65.868949 L297.53647,65.8681346 C297.726226,65.8665058 297.91924,65.860805 298.110625,65.856733 C303.032885,65.7508604 308.381079,64.6530432 312.12734,60.7153978 C315.842653,56.8062565 316.927439,50.6257413 314.761938,45.685564 C314.240719,44.4949047 313.537074,43.3946443 312.695794,42.4108438 C313.631545,40.1614587 313.868536,37.6213313 313.234115,35.2139518 L308.783395,36.384251 C309.026088,37.3086 309.034232,38.2948438 308.844475,39.2509546 C306.741683,38.0627385 304.348963,37.3957413 301.924481,37.4372759 C299.371323,37.4779961 296.746498,38.6417801 295.235777,40.4025224 C294.11027,41.7137136 293.612669,43.3262343 293.835816,44.9436416 L293.946575,45.7458299 L294.534575,46.3020681 C298.126099,49.6981346 303.817157,50.3333701 308.068348,47.8127884 C308.747561,47.4104726 309.373024,46.9364892 309.941478,46.4054975 C310.171955,46.7662787 310.374741,47.1433479 310.545766,47.5334476 C311.965273,50.7715197 311.226608,54.9803618 308.78991,57.5432925 C306.016863,60.4604892 301.658985,61.229287 297.571489,61.2618632 C297.418381,61.2626776 297.265273,61.2659352 297.11298,61.2651208 C296.672387,58.2835861 295.910919,55.395708 294.861966,52.626733 C287.600736,33.4491374 266.519877,19.9699296 242.187101,20.8169102 C241.290442,20.848672 240.395412,20.9073091 239.501196,20.9781623 C236.387727,21.2241125 233.292991,21.7021679 230.256076,22.4188438 C230.017456,21.9847662 229.762547,21.5800072 229.50601,21.1956083 C229.304038,20.8926499 229.100437,20.5994643 228.903351,20.3315252 C224.557689,9.68970249 215.987711,1.94471634 206.473024,0.0813590028 C204.846658,-0.238701939 203.182016,0.401419945 202.129805,1.74844488 C200.992896,3.20785762 200.799068,5.20151967 201.622431,6.95411801 C202.414032,8.63586316 203.052525,10.4080072 203.530581,12.2339019 C199.825855,9.10496011 195.611312,7.00135346 191.199683,6.13808476 C189.568431,5.81802382 187.907046,6.45814571 186.85565,7.80679945 C185.718741,9.26458338 185.524099,11.2582454 186.34909,13.0100294 C188.703534,18.0178022 189.669417,23.6127607 189.160414,29.2614698 C188.189644,29.9537136 187.256337,30.7078521 186.372708,31.5116693 C182.518946,35.0168659 180.210924,39.3918465 178.389916,43.7301789 C176.639761,43.7708992 174.906708,43.7578687 173.216819,43.6853867 C171.596154,43.6153479 169.995849,44.2228936 168.725378,45.3988936 C168.296187,45.7955086 167.918304,46.2483175 167.597428,46.7361457 C167.915046,46.64819 168.261168,46.5960681 168.639866,46.5960681 C169.83134,46.5960681 170.714968,47.0733091 171.295639,47.7793978 C174.085788,50.2633313 176.077007,56.7582066 176.077007,64.3794033 C176.077007,74.1432981 172.809617,82.0584947 168.778315,82.0584947 C167.716331,82.0584947 166.708099,81.5038853 165.797594,80.5160127 C167.319716,84.2305114 169.747456,87.2625391 173.621578,87.5858576 C173.861827,87.6453091 174.096376,87.6884726 174.329295,87.7153479 L180.57822,88.4295806 C181.714315,90.0868936 182.981528,91.6880127 184.348099,93.232938" id="Fill-13" fill="#F7CEDB"></path>
                    <path d="M279.98695,116.170069 C279.641643,119.540889 279.140784,122.908451 278.512878,126.287415 C272.158895,126.337908 266.335903,126.672628 260.01531,126.089515 C259.980291,126.086257 259.946086,126.084628 259.910252,126.080556 C259.516895,128.718412 258.534723,131.334279 258.083543,133.89721 C257.094856,139.521487 265.934402,141.851498 267.050136,136.349382 C267.412546,136.605919 267.550994,136.617321 268.019277,136.579858 C269.538956,139.966152 275.247116,140.805803 276.349006,136.321692 C276.983427,133.739216 277.56654,131.170584 278.087759,128.610911 C279.527626,128.375548 280.788324,127.410479 281.156435,125.542235 C281.330717,125.66521 281.521288,125.764567 281.721632,125.839493 C281.921975,125.914418 282.13372,125.964911 282.351981,125.989343 C282.444823,126.193758 282.553139,126.387587 282.675299,126.571642 C283.408263,127.67516 284.632313,128.406495 285.900341,128.627199 C286.323017,128.700495 286.750579,128.717598 287.165925,128.671991 C288.621266,128.513182 289.932457,127.595348 290.387709,125.697786 C290.387709,125.696157 290.387709,125.693714 290.388524,125.692085 C290.768036,124.107254 291.128003,122.528939 291.465166,120.95388 C291.482269,120.871625 291.500186,120.790999 291.516474,120.709559 C291.73392,119.692368 291.937521,118.67762 292.134607,117.662872 C292.184285,117.41285 292.230706,117.162828 292.277942,116.912806 C292.336579,116.605775 292.397659,116.298745 292.454668,115.992529 C292.450596,115.992529 292.447338,115.993343 292.44408,115.993343 C288.284917,116.047094 284.133898,116.223005 279.98695,116.170069" id="Fill-15" fill="#D293A8"></path>
                    <path d="M261.300115,27.8859407 L257.202846,24.2308936 C257.202846,24.2308936 249.357688,22.6102288 239.328298,23.2226609 L242.203145,26.8092981 C242.203145,26.8092981 247.447095,25.1308105 261.300115,27.8859407" id="Fill-17" fill="#383838"></path>
                    <path d="M221.527941,20.3320139 C222.205526,22.0512216 224.878401,21.0047119 224.200002,19.2822465 C223.151864,16.6199584 221.69408,14.1677867 219.834794,11.9916981 C218.640063,10.5933657 216.314939,12.277554 217.516185,13.6840305 C219.230506,15.6899086 220.561243,17.8757701 221.527941,20.3320139" id="Fill-19" fill="#F7CEDB"></path>
                    <path d="M221.527941,20.3320139 C222.205526,22.0512216 224.878401,21.0047119 224.200002,19.2822465 C223.151864,16.6199584 221.69408,14.1677867 219.834794,11.9916981 C218.640063,10.5933657 216.314939,12.277554 217.516185,13.6840305 C219.230506,15.6899086 220.561243,17.8757701 221.527941,20.3320139" id="Fill-21" fill="#FFFFFF"></path>
                    <path d="M282.989252,50.0696659 C284.430748,52.4550565 288.139546,50.2235884 286.696421,47.8349402 C284.464953,44.1424305 281.67969,40.8644526 278.365878,38.0987352 C276.237025,36.3225191 273.205812,39.4131839 275.346881,41.2008017 C278.400898,43.7490731 280.932066,46.6638266 282.989252,50.0696659" id="Fill-23" fill="#F7CEDB"></path>
                    <path d="M282.989252,50.0696659 C284.430748,52.4550565 288.139546,50.2235884 286.696421,47.8349402 C284.464953,44.1424305 281.67969,40.8644526 278.365878,38.0987352 C276.237025,36.3225191 273.205812,39.4131839 275.346881,41.2008017 C278.400898,43.7490731 280.932066,46.6638266 282.989252,50.0696659" id="Fill-25" fill="#FFFFFF"></path>
                    <path d="M196.900188,59.7471524 C197.001989,62.6594626 199.444388,64.9373518 202.355884,64.8355512 C203.655673,64.7899446 204.826787,64.2768698 205.71856,63.4649086 C206.484914,64.492687 208.507895,64.4910582 208.894737,62.84759 C209.468892,60.4076343 208.363745,57.8210859 206.394515,56.4048366 C205.395241,55.0700277 203.781091,54.2279335 201.988587,54.2906427 C199.076277,54.3924432 196.798388,56.8356565 196.900188,59.7471524" id="Fill-27" fill="#383838"></path>
                    <path d="M200.20154,25.4435418 C200.405955,28.2117025 204.735329,28.2434643 204.530099,25.4663452 C204.256459,21.7591762 202.665927,18.347636 199.775606,15.9581734 C197.64431,14.1958022 194.586221,17.2636637 196.736249,19.0406942 C198.71688,20.6776471 200.010155,22.8472205 200.20154,25.4435418" id="Fill-29" fill="#D293A8"></path>
                    <path d="M215.509004,22.6726122 C215.712605,25.4407729 220.041979,25.4725346 219.836749,22.6962299 C219.563924,18.9882465 217.972577,15.5767064 215.082256,13.1872438 C212.95096,11.4248726 209.893685,14.4935485 212.042899,16.2705789 C214.02353,17.9075319 215.316804,20.0762909 215.509004,22.6726122" id="Fill-31" fill="#D293A8"></path>
                    <path d="M166.867396,63.6779568 C166.689042,58.5773418 165.99354,54.4621562 165.312698,54.485774 C164.63267,54.5093917 164.225468,58.6636687 164.403823,63.7642837 C164.581363,68.8648986 165.277679,72.9800842 165.957706,72.9564665 C166.638548,72.9328488 167.045751,68.7785717 166.867396,63.6779568" id="Fill-33" fill="#383838"></path>
                    <path d="M165.957543,72.9565479 C165.277516,72.9801657 164.582014,68.8649801 164.40366,63.7643651 C164.225305,58.6637501 164.632507,54.5094731 165.312535,54.4858554 C165.993377,54.4622377 166.688879,58.5774233 166.867233,63.6780382 C167.045588,68.7786532 166.638386,72.9329302 165.957543,72.9565479 M168.77864,82.0583319 C172.809128,82.0583319 176.077333,74.1431352 176.077333,64.3792404 C176.077333,56.7580438 174.0853,50.2631684 171.295965,47.7792349 C170.715294,47.0731463 169.831665,46.5959053 168.640192,46.5959053 C168.260679,46.5959053 167.914557,46.6480271 167.597754,46.7359828 C166.560203,47.024282 165.852485,47.7385147 165.477045,48.6115562 C163.105499,51.5311961 161.479948,57.493451 161.479948,64.3792404 C161.479948,71.5704316 163.253721,77.7542044 165.79792,80.5158499 C166.708424,81.5045368 167.715843,82.0583319 168.77864,82.0583319" id="Fill-35" fill="#D293A8"></path>
                    <path d="M218.310066,121.666077 C218.345086,121.418498 218.38662,121.172548 218.418382,120.924155 C215.626604,121.530886 212.108377,121.613141 208.358859,121.021069 C204.530343,120.415966 201.15708,119.21472 198.673147,117.734947 C198.619396,117.703185 198.560759,117.673866 198.508637,117.642105 C198.268388,118.702459 197.994748,119.757113 197.653512,120.795479 C196.838294,123.276155 195.081623,125.746243 194.891053,128.396315 C194.871507,128.671584 194.874765,128.937894 194.889424,129.199318 C194.667906,132.974897 197.858742,135.545972 201.421762,134.180216 C202.222321,133.873185 202.969945,133.119047 203.775391,132.924404 C205.53369,132.49847 206.174626,133.698088 207.269186,134.709578 C208.535584,135.877434 209.784066,136.823772 211.500831,137.182925 C211.648238,137.213872 211.78913,137.225274 211.927579,137.229346 C212.839712,137.671567 213.944044,137.524975 214.454676,136.312326 C214.47015,136.275678 214.483994,136.23903 214.498654,136.202382 C214.565435,136.042758 214.62733,135.882321 214.692482,135.721883 C214.874094,135.275589 215.055706,134.83011 215.225917,134.381373 C215.418116,133.873999 215.602986,133.364997 215.779712,132.854365 C215.804144,132.784326 215.830205,132.714288 215.853823,132.643434 C217.090089,129.036437 217.94277,125.365102 218.418382,121.645717 C218.383363,121.653047 218.345086,121.658747 218.310066,121.666077" id="Fill-37" fill="#D293A8"></path>
                    <path d="M182.527172,89.5910028 C188.027659,89.5624986 193.23659,88.008615 197.754091,84.8438393 C200.009992,83.2638947 197.998413,79.4288643 195.722152,81.0226537 C191.816269,83.7590526 187.485266,85.2412687 182.701454,85.2657008 C179.916191,85.2803601 179.741094,89.605662 182.527172,89.5910028" id="Fill-39" fill="#383838"></path>
                    <path d="M35.8819263,207.801725 C35.8534222,207.524013 35.8192172,207.247115 35.7931562,206.969403 C34.5031396,201.309293 33.4631452,195.599503 32.6560704,189.853065 C29.2616327,186.867459 26.3509512,183.558534 24.0290842,179.990628 C23.2920482,178.704683 22.6201645,177.387791 22.0158765,176.041581 L21.4979152,185.139293 C21.2731396,192.675791 22.0525247,200.120262 23.4247961,207.624999 C27.5831452,207.67875 31.7349789,207.854661 35.8819263,207.801725" id="Fill-41" fill="#E7B7C8"></path>
                    <path d="M33.5166515,217.62108 C33.9539867,217.571402 34.3620033,217.419922 34.7121972,217.173972 C34.3620033,217.419922 33.9539867,217.571402 33.5166515,217.62108" id="Fill-43" fill="#E7B7C8"></path>
                    <path d="M97.0934593,210.173759 C97.0877584,210.088247 97.0763568,210.002734 97.0714704,209.916407 C97.3353374,209.115033 97.2791435,208.198828 96.9574537,207.368136 C96.9362792,206.345244 96.9427945,205.319094 96.9778139,204.290501 C96.9794427,204.23105 96.9794427,204.171598 96.9818859,204.112147 C95.7293319,204.378457 94.4645618,204.612191 93.192462,204.815792 C93.1940909,204.849997 93.1973485,204.885017 93.1997917,204.919222 C93.0450548,204.932252 92.8886892,204.952612 92.7282515,204.986003 C91.9521241,205.143997 91.1922848,205.29792 90.4405895,205.442069 C87.678944,205.810994 84.8570327,206.043914 81.9829994,206.129427 C82.2208055,207.734618 82.485487,209.340623 82.7843734,210.948258 C87.3947169,212.332745 92.5873596,212.002097 97.0934593,210.173759" id="Fill-45" fill="#E7B7C8"></path>
                    <path d="M85.1120227,221.536818 C85.1160947,221.55555 85.1201668,221.573466 85.1250532,221.592198 C85.1258676,221.594641 85.126682,221.59627 85.1274964,221.597899 C85.126682,221.59627 85.1258676,221.594641 85.1250532,221.592198 C85.1209812,221.573466 85.1160947,221.55555 85.1120227,221.536818" id="Fill-47" fill="#E7B7C8"></path>
                    <path d="M91.5985911,223.649628 C91.1604416,223.954215 90.6742421,224.187949 90.168497,224.341057 C90.6758709,224.188763 91.1596271,223.955029 91.5985911,223.649628" id="Fill-49" fill="#E7B7C8"></path>
                    <path d="M82.7841291,210.94842 C82.7833147,210.94842 82.7825003,210.94842 82.7816859,210.94842 C82.7882011,210.985069 82.7963452,211.021717 82.8028604,211.05918 C82.9804006,212.006332 83.168528,212.954299 83.363985,213.90308 C83.4527551,214.334714 83.547226,214.766348 83.6392537,215.198797 C83.7874753,215.889412 83.939769,216.581656 84.096949,217.2739 C84.1832759,217.653412 84.2687884,218.032925 84.3583729,218.413252 C84.600251,219.452432 84.8502731,220.49324 85.111697,221.536493 C85.115769,221.555224 85.1206554,221.573955 85.1247274,221.591872 C85.1255418,221.594315 85.1263562,221.595944 85.1271706,221.598387 C85.192323,221.856553 85.2770211,222.091102 85.371492,222.31262 C85.4008105,222.381844 85.4350155,222.444553 85.4667773,222.509706 C85.5417025,222.661999 85.6206997,222.806149 85.7094698,222.939711 C85.7485612,222.999977 85.7876526,223.061058 85.8300017,223.118066 C85.933431,223.257329 86.04419,223.384376 86.1606499,223.502465 C86.1924116,223.533412 86.2209158,223.57006 86.2526776,223.600193 C86.4017136,223.739457 86.5613368,223.861617 86.7282898,223.969119 C86.7795972,224.002509 86.8357911,224.029384 86.8887274,224.059517 C87.0084449,224.127113 87.1289767,224.189822 87.2535806,224.242758 C87.3276914,224.273706 87.4026166,224.30221 87.4775418,224.329085 C87.5883008,224.367362 87.701503,224.399124 87.8155197,224.426814 C87.8985889,224.447174 87.9816582,224.470792 88.0655418,224.485451 C88.1836305,224.505811 88.3017191,224.516398 88.4206222,224.526171 C88.6006055,224.542459 88.7814033,224.546531 88.9638299,224.539202 C89.0322399,224.536758 89.1006499,224.537573 89.1698742,224.531058 C89.3034366,224.52047 89.4369989,224.501739 89.5705612,224.478936 C89.6218687,224.469977 89.6723618,224.460204 89.7236693,224.450432 C89.8710765,224.420299 90.0176693,224.386094 90.1626332,224.34293 C90.1650765,224.342116 90.1667053,224.341301 90.1683341,224.340487 C90.6740792,224.188193 91.1602787,223.954459 91.5984283,223.649872 C91.6025003,223.647429 91.6057579,223.644986 91.6098299,223.642542 C91.7547939,223.540742 91.8956859,223.431612 92.0284338,223.315152 C92.0292482,223.314337 92.0300626,223.314337 92.0300626,223.313523 C92.8583119,222.729595 93.5375252,221.898088 94.0953922,221.030747 C94.7436582,221.507174 95.4489324,221.878542 96.2014421,222.137523 C96.2796249,222.18313 96.3610654,222.225479 96.4425058,222.267828 C97.2756416,222.733667 98.2105778,222.999163 99.239985,222.971473 C99.3483008,222.968216 99.4558022,222.94134 99.5633036,222.927495 C98.2333812,218.750415 97.4059463,214.49108 97.093215,210.173922 C92.5871152,212.001445 87.3944726,212.332908 82.7841291,210.94842" id="Fill-51" fill="#D293A8"></path>
                    <path d="M133.340809,181.222659 C131.966094,181.215329 130.609296,181.113529 129.276931,180.913999 C125.279019,180.316227 121.501812,178.84867 118.114704,176.475495 C115.858803,174.895551 117.869568,171.06052 120.145828,172.65431 C122.587413,174.364559 125.194321,175.585351 127.974698,176.266193 C128.808648,176.469794 129.658886,176.625346 130.523784,176.731218 C131.389496,176.837091 132.269867,176.893285 133.166526,176.897357 C135.951789,176.912016 136.127701,181.237318 133.340809,181.222659 M113.51169,156.467207 C112.212715,156.421601 111.040787,155.908526 110.149014,155.096565 C109.383474,156.125157 107.360493,156.122714 106.973651,154.479246 C106.40031,152.03929 107.503828,149.452742 109.473058,148.036493 C110.473961,146.701684 112.086482,145.859589 113.879801,145.922299 C116.792111,146.024099 119.070814,148.467312 118.969014,151.378808 C118.867213,154.291119 116.424,156.569008 113.51169,156.467207 M54.5675402,119.517678 L58.6656233,115.862631 C58.6656233,115.862631 66.5107812,114.241966 76.5409861,114.854398 L73.6661385,118.441035 C73.6661385,118.441035 68.421374,116.762548 54.5675402,119.517678 M40.5206925,132.832376 C37.4666759,135.380648 34.9371357,138.295401 32.8791357,141.70124 C31.4376399,144.086631 27.7280277,141.855977 29.1719668,139.466515 C31.4026205,135.774005 34.1886981,132.496027 37.5025097,129.731124 C39.6313629,127.954094 42.6625762,131.044758 40.5206925,132.832376 M13.8733795,133.672842 C15.1055734,133.691573 16.4802881,134.263285 17.1391413,135.032083 C17.2083657,135.112709 17.265374,135.190077 17.3101662,135.261745 C15.223662,136.607955 12.2706316,136.743146 10.1482936,135.484077 C9.85185042,135.30898 9.57169529,135.107008 9.30864266,134.880603 C10.7102327,134.093074 12.2877341,133.647595 13.8733795,133.672842 M120.379562,130.356587 C120.19795,130.433955 120.017152,130.511324 119.833911,130.588692 C119.366443,130.788221 118.894089,130.98775 118.416848,131.189722 C118.182299,131.28908 117.946122,131.388437 117.709945,131.488609 C117.227817,131.691396 116.740803,131.894182 116.250532,132.097783 C116.050188,132.180853 115.851474,132.263922 115.650316,132.346991 C115.583535,132.374681 115.519197,132.401556 115.452416,132.429246 L115.451601,132.427617 C105.861175,136.375035 94.7193075,140.276033 83.6401496,139.952714 C83.6401496,139.952714 77.9034848,139.751556 76.6949086,139.147268 L75.084831,131.799711 L76.0914349,131.397396 C76.0914349,131.397396 74.3893296,120.40375 78.4580942,112.814315 C77.7617784,112.736132 77.0646482,112.664465 76.3667036,112.609085 C75.4724875,112.539047 74.5774571,112.480409 73.6807978,112.448648 C49.3488366,111.601667 28.2671634,125.080875 21.0059335,144.25847 C19.957795,147.027445 19.1955125,149.915324 18.7557341,152.896858 C18.6034404,152.897673 18.4503324,152.894415 18.29641,152.893601 C14.2097285,152.861024 9.85103601,152.091412 7.07798892,149.17503 C4.64210526,146.612099 3.90262604,142.402443 5.32294737,139.165185 C5.4947867,138.775085 5.696759,138.398016 5.92723546,138.037235 C6.49487535,138.568227 7.12196676,139.04221 7.80036565,139.444526 C12.0507424,141.965107 17.7434294,141.329872 21.3341385,137.933806 L21.9213241,137.377567 L22.0320831,136.575379 C22.2552299,134.957972 21.7584432,133.345451 20.6329363,132.03426 C19.1222161,130.273517 16.4965762,129.109734 13.9450471,129.069013 C11.5197507,129.027479 9.12703047,129.694476 7.02342382,130.882692 C6.83366759,129.926581 6.84262604,128.941152 7.08531856,128.015988 L2.63378393,126.844875 C2.00099169,129.253069 2.23716898,131.793196 3.17291967,134.042581 C2.33082548,135.027196 1.62799446,136.126642 1.10596122,137.317301 C-1.05872576,142.257479 0.0252465374,148.437994 3.74137396,152.347135 C7.48681994,156.284781 12.8350139,157.382598 17.7580886,157.48847 C17.9502881,157.492542 18.1416731,157.498243 18.3314294,157.499872 L18.3314294,157.500686 C18.1042105,164.028952 19.4357618,170.295794 22.015795,176.042232 C22.6200831,177.387628 23.2919668,178.705335 24.0290028,179.990465 C26.3508698,183.559185 29.2615512,186.867296 32.6559889,189.852902 C33.4630637,195.59934 34.5030582,201.309944 35.7930748,206.96924 C35.8191357,207.246952 35.8533407,207.52385 35.8818449,207.801562 C36.2271524,211.172382 36.7271967,214.540758 37.3551025,217.919722 C43.7099003,217.969401 49.5320776,218.304936 55.8534848,217.721008 C55.1017895,212.591074 54.6009307,207.372371 54.8737562,202.275013 C62.4517895,204.776864 70.8149086,206.17031 79.6112909,206.17031 C80.406964,206.17031 81.1961219,206.153207 81.9828366,206.129589 C84.8568698,206.044077 87.6795956,205.810343 90.4404266,205.442232 C91.1921219,205.298083 91.9519612,205.14416 92.7280886,204.986166 C92.8885263,204.952775 93.044892,204.932415 93.1996288,204.919384 C93.1971856,204.88518 93.193928,204.85016 93.1922992,204.815955 C94.4652133,204.612354 95.729169,204.37862 96.981723,204.11231 C96.9800942,204.171761 96.9800942,204.231213 96.9784654,204.290664 C96.943446,205.318443 96.9361163,206.345407 96.9572909,207.368299 C97.2789806,208.198991 97.3351745,209.115196 97.0713075,209.91657 C97.0770083,210.002083 97.0875956,210.087595 97.0932964,210.173922 C97.4060277,214.49108 98.2334626,218.750415 99.5625706,222.927495 C99.7067202,223.378675 99.8590139,223.827412 100.014565,224.275335 C98.7782992,220.668337 97.9256177,216.996188 97.4508199,213.277617 C97.4850249,213.285761 97.5233019,213.290648 97.5575069,213.297977 C97.5233019,213.050398 97.4825817,212.804448 97.4508199,212.556869 C100.241784,213.162786 103.760011,213.244227 107.508715,212.652155 C111.33723,212.047866 114.712122,210.84662 117.196055,209.366847 C116.846676,207.706276 116.609684,206.022902 116.520914,204.319983 C116.386537,201.728548 116.561634,199.172132 116.99897,196.667839 C117.005485,196.627933 117.009557,196.588027 117.016886,196.548121 C117.452593,196.298099 117.893186,196.051335 118.320748,195.793168 C123.390416,192.724493 127.848465,189.013252 131.519801,184.864675 C132.886371,183.31975 134.153584,181.718631 135.290493,180.061318 L141.538604,179.347085 C141.772338,179.32021 142.006072,179.277047 142.24795,179.217595 C146.120443,178.894276 148.548183,175.862249 150.070305,172.14775 C149.843086,172.395329 149.609352,172.615218 149.370731,172.805789 C148.772144,173.28303 148.140981,173.578659 147.485385,173.664171 C147.35508,173.681274 147.223147,173.690232 147.090399,173.690232 C146.46005,173.690232 145.848432,173.497218 145.266133,173.13318 C144.916753,172.915734 144.576332,172.636393 144.249756,172.300858 C144.030681,172.076897 143.817307,171.828504 143.610449,171.556493 C143.300161,171.147661 143.003717,170.686709 142.723562,170.177706 C142.535435,169.838099 142.355452,169.478132 142.181983,169.096991 C141.750349,168.145767 141.36595,167.071567 141.037745,165.895567 C140.906626,165.424842 140.78528,164.938642 140.672892,164.437783 C140.616698,164.187761 140.562133,163.932853 140.51164,163.675501 C140.049873,161.356891 139.791706,158.756498 139.791706,156.010326 C139.791706,154.105434 139.915496,152.270581 140.145972,150.550559 C140.549102,147.542149 141.275551,144.887191 142.226776,142.826747 C142.396986,142.458637 142.574526,142.110071 142.757767,141.781866 C143.308305,140.795623 143.918294,139.993434 144.573075,139.411135 C144.718039,139.234409 144.881734,139.072343 145.064975,138.928193 C145.613884,138.495745 146.334632,138.227806 147.228848,138.227806 C147.418604,138.227806 147.599402,138.240836 147.77287,138.264454 C147.947152,138.288886 148.112476,138.323905 148.270471,138.367883 C147.949596,137.880055 147.573341,137.427246 147.143335,137.030631 C145.87205,135.854631 144.27256,135.247085 142.651895,135.317124 C140.962006,135.389606 139.228139,135.402637 137.477983,135.361916 C137.432377,135.252786 137.381884,135.143656 137.335463,135.034526 C136.118742,134.878975 135.372748,134.718537 135.372748,134.718537 C132.672997,134.346354 121.966022,130.874548 120.379562,130.356587" id="Fill-53" fill="#F7CEDB"></path>
                    <path d="M101.361916,227.8206 C101.364359,227.825486 101.366802,227.828744 101.369245,227.83363 C101.302464,227.674007 101.242198,227.51357 101.176232,227.353946 C101.24057,227.508683 101.296763,227.665863 101.361916,227.8206" id="Fill-55" fill="#F7CEDB"></path>
                    <path d="M37.3548582,217.919315 C36.7269524,214.540351 36.226908,211.171975 35.8816006,207.801969 C31.7354676,207.854905 27.5828194,207.678994 23.4252848,207.624429 C23.4212127,207.624429 23.4179551,207.624429 23.4146975,207.624429 C23.470077,207.92983 23.5319717,208.236861 23.5906089,208.542263 C23.6370299,208.793914 23.6850798,209.045565 23.733944,209.29803 C23.9318443,210.311149 24.1354454,211.325083 24.3512626,212.341459 C24.3691795,212.422085 24.3854676,212.50434 24.4033845,212.584966 C24.7413623,214.160024 25.0997003,215.739155 25.4800271,217.323986 C25.4800271,217.325614 25.4808416,217.327243 25.4808416,217.329686 C25.9360936,219.227249 27.2472848,220.145083 28.7026255,220.303891 C29.1179717,220.348684 29.5455341,220.332396 29.96821,220.259099 C31.2354233,220.038396 32.4602875,219.30706 33.1932515,218.203542 C33.3154122,218.019487 33.423728,217.824844 33.5165701,217.621243 C33.9539053,217.571565 34.3619219,217.420085 34.7121158,217.173321 C35.0802266,219.041565 36.3409247,220.007448 37.7799773,220.242811 C38.3020105,222.802484 38.8843097,225.370301 39.5187307,227.952778 C40.6214343,232.437703 46.3304094,231.597238 47.8492737,228.210944 C48.3175562,228.249221 48.456005,228.237819 48.8176006,227.981282 C49.934149,233.483398 58.7736947,231.153387 57.7841934,225.528296 C57.3330133,222.965365 56.3508416,220.350312 55.9582986,217.713271 C55.9232792,217.715714 55.8890742,217.717343 55.8532404,217.720601 C49.5318332,218.304529 43.7104704,217.969808 37.3548582,217.919315" id="Fill-57" fill="#D293A8"></path>
                    <path d="M58.6653789,115.862712 L54.5681102,119.51776 C68.4211296,116.762629 73.6658942,118.441117 73.6658942,118.441117 L76.5407418,114.85448 C66.5113512,114.242048 58.6653789,115.862712 58.6653789,115.862712" id="Fill-59" fill="#383838"></path>
                    <path d="M37.502754,129.731043 C34.1889424,132.495946 31.4028648,135.773924 29.1722111,139.466433 C27.728272,141.855896 31.4378842,144.08655 32.8785657,141.701159 C34.9373801,138.29532 37.4669202,135.380566 40.5209368,132.832295 C42.6628205,131.044677 39.6307928,127.954012 37.502754,129.731043" id="Fill-61" fill="#F7CEDB"></path>
                    <path d="M37.502754,129.731043 C34.1889424,132.495946 31.4028648,135.773924 29.1722111,139.466433 C27.728272,141.855896 31.4378842,144.08655 32.8785657,141.701159 C34.9373801,138.29532 37.4669202,135.380566 40.5209368,132.832295 C42.6628205,131.044677 39.6307928,127.954012 37.502754,129.731043" id="Fill-63" fill="#FFFFFF"></path>
                    <path d="M118.968688,151.378727 C119.070489,148.467231 116.791785,146.024018 113.880289,145.922217 C112.086971,145.859508 110.473635,146.701602 109.473547,148.036411 C107.504317,149.45266 106.399984,152.039209 106.973325,154.479165 C107.360167,156.122633 109.383148,156.125076 110.149502,155.096483 C111.041275,155.908444 112.212389,156.421519 113.512178,156.467126 C116.423674,156.568926 118.866888,154.291037 118.968688,151.378727" id="Fill-65" fill="#383838"></path>
                    <path d="M149.910437,164.588204 C150.591279,164.611822 151.286781,160.496636 151.465135,155.396021 C151.64349,150.295406 151.236288,146.141129 150.555445,146.117511 C149.875418,146.093894 149.179916,150.209079 149.001562,155.309694 C148.823207,160.410309 149.230409,164.564586 149.910437,164.588204" id="Fill-67" fill="#383838"></path>
                    <path d="M149.001399,155.309613 C149.179753,150.208998 149.875255,146.093812 150.555283,146.11743 C151.236125,146.141048 151.643327,150.295325 151.464972,155.39594 C151.287432,160.496555 150.591116,164.61174 149.910274,164.588122 C149.230247,164.564505 148.823044,160.410228 149.001399,155.309613 M147.22844,138.22748 C146.335039,138.22748 145.614291,138.495419 145.064568,138.927868 C144.881327,139.072017 144.717632,139.234898 144.573482,139.411624 C143.918701,139.993109 143.308712,140.796111 142.758175,141.781541 C142.574119,142.109746 142.397393,142.459125 142.227183,142.826422 C141.275958,144.886865 140.548695,147.541823 140.14638,150.551048 C139.915903,152.270255 139.791299,154.105109 139.791299,156.010815 C139.791299,158.756172 140.05028,161.356566 140.511233,163.675175 C140.56254,163.932527 140.616291,164.187435 140.672485,164.437458 C140.784873,164.938316 140.907033,165.424516 141.038152,165.895242 C141.366357,167.071242 141.750756,168.146255 142.182391,169.09748 C142.355859,169.477807 142.535842,169.838588 142.723155,170.17738 C143.004125,170.686383 143.300568,171.14815 143.610856,171.556167 C143.817715,171.828178 144.030274,172.076571 144.249349,172.300532 C144.575925,172.636067 144.916346,172.915408 145.265726,173.133668 C145.848839,173.496893 146.460457,173.689906 147.089992,173.689906 C147.22274,173.689906 147.355488,173.681762 147.485792,173.66466 C148.140573,173.579147 148.772551,173.282704 149.370324,172.805463 C149.608945,172.614893 149.842679,172.395003 150.069898,172.147424 C152.614911,169.385779 154.388684,163.202006 154.388684,156.010815 C154.388684,149.125025 152.762319,143.162771 150.390773,140.243945 C150.015332,139.370904 149.307615,138.656671 148.270878,138.367557 C148.112069,138.32358 147.946745,138.28856 147.772463,138.264128 C147.598994,138.24051 147.419011,138.22748 147.22844,138.22748" id="Fill-69" fill="#D293A8"></path>
                    <path d="M97.4505756,212.556543 C97.4823374,212.804122 97.5230576,213.050073 97.558077,213.297652 C97.5230576,213.290322 97.4847806,213.285435 97.4505756,213.278106 C97.9253734,216.996676 98.7780548,220.668012 100.014321,224.275823 C100.038753,224.345862 100.063999,224.415901 100.088432,224.48594 C100.265972,224.996571 100.450842,225.505574 100.643041,226.012948 C100.813252,226.461685 100.994864,226.907978 101.176476,227.353458 C101.241628,227.513895 101.301894,227.674333 101.36949,227.833956 C101.384149,227.870604 101.398808,227.907253 101.413468,227.943901 C101.924914,229.157363 103.029246,229.303142 103.941379,228.86092 C104.079013,228.856848 104.22072,228.845447 104.368127,228.814499 C106.084891,228.455347 107.333373,227.509009 108.598143,226.341153 C109.694332,225.330477 110.334454,224.130045 112.092753,224.555978 C112.899013,224.750621 113.645822,225.50476 114.446382,225.81179 C118.010216,227.177546 121.200238,224.606471 120.97872,220.830893 C120.993379,220.569469 120.996637,220.303158 120.977905,220.028704 C120.78652,217.377818 119.02985,214.907729 118.214631,212.427053 C117.873396,211.388688 117.599756,210.334034 117.359506,209.273679 C117.308199,209.305441 117.249562,209.33476 117.195811,209.366521 C114.711878,210.846294 111.3378,212.047541 107.509285,212.652643 C103.759767,213.244715 100.242354,213.16246 97.4505756,212.556543" id="Fill-71" fill="#D293A8"></path>
                    <path d="M133.166689,176.897275 C132.269216,176.893203 131.388844,176.837009 130.523947,176.731137 C129.658235,176.625264 128.807997,176.469713 127.974861,176.266112 C125.194484,175.58527 122.587576,174.364478 120.145991,172.654228 C117.869731,171.060439 115.858966,174.895469 118.114866,176.475414 C121.501975,178.848588 125.278368,180.316145 129.277094,180.913918 C130.608645,181.113447 131.965443,181.215248 133.340972,181.222577 C136.127864,181.237237 135.951952,176.911935 133.166689,176.897275" id="Fill-73" fill="#383838"></path>
                    <path d="M76.0915163,131.397233 L75.0849125,131.799548 L76.69499,139.147105 C77.9035662,139.751393 83.640231,139.952551 83.640231,139.952551 C94.7193889,140.27587 105.861256,136.374873 115.451683,132.428269 L98.0217989,99.011626 C97.2611452,99.2445457 96.4361535,99.5711219 95.9523972,99.9946122 C95.9523972,99.9946122 95.8294222,99.9416759 95.6754997,99.8496482 C95.5541535,99.8993269 95.4328072,99.9481911 95.3139042,99.9986842 C95.3253058,99.9807673 95.3350787,99.9628504 95.3472947,99.9449335 L94.8643529,100.18844 C93.0995385,100.954795 91.4919042,101.784673 90.0520371,102.614551 L90.0121313,102.634911 C89.8533224,102.726125 89.7042864,102.817338 89.5487352,102.909366 C89.4208737,102.985105 89.2897546,103.060845 89.1651507,103.136584 C88.9534055,103.264446 88.7506188,103.391493 88.5478321,103.51854 C88.4444028,103.582878 88.3377158,103.647216 88.237544,103.71074 C87.9769346,103.876878 87.7244693,104.041388 87.4777047,104.204269 C87.4426853,104.228701 87.4044083,104.252319 87.3685745,104.275936 C87.087605,104.463249 86.8172227,104.647305 86.5574277,104.828102 C86.4751729,104.885111 86.4002476,104.939676 86.3212504,104.99587 C86.1461535,105.118845 85.9718709,105.24182 85.8073612,105.361537 C85.7120759,105.429947 85.6241202,105.495914 85.5329069,105.56351 C85.392015,105.666939 85.251123,105.770368 85.1183751,105.87054 C85.0263474,105.940579 84.9392061,106.006546 84.8512504,106.074956 C84.7282753,106.167798 84.6077435,106.261454 84.4920981,106.351039 C84.4074,106.41782 84.326774,106.481343 84.2461479,106.545681 C84.1370177,106.632008 84.0311452,106.716706 83.930159,106.798147 C83.8544194,106.860042 83.7827518,106.917864 83.7110842,106.976501 C83.6157989,107.054684 83.5245856,107.131238 83.4366299,107.204535 C83.3690343,107.261543 83.3046964,107.315294 83.2411729,107.369044 C83.1605468,107.438269 83.0831784,107.503421 83.0090676,107.567759 C82.9520593,107.616623 82.8966798,107.663859 82.8453723,107.71028 C82.7753335,107.770546 82.7126244,107.82674 82.651544,107.881305 C82.6043086,107.922839 82.5578875,107.96356 82.5163529,108.001837 C82.4577158,108.053144 82.4088515,108.098751 82.3591729,108.143543 C82.3257823,108.17449 82.2907629,108.206252 82.2614443,108.233942 C82.2158377,108.276291 82.1791895,108.310496 82.1425413,108.345515 C82.1189235,108.36669 82.0944914,108.390307 82.0757601,108.40741 C82.0374831,108.444873 82.0106078,108.470934 81.98699,108.492922 C81.9804748,108.499438 81.9723307,108.507582 81.9674443,108.512468 C81.9421978,108.5369 81.9291673,108.549931 81.9291673,108.549931 C80.4567241,109.72023 79.328774,111.191044 78.4581756,112.814967 C74.3894111,120.403587 76.0915163,131.397233 76.0915163,131.397233" id="Fill-75" fill="#D3425A"></path>
                    <path d="M153.288994,121.030271 L134.769437,118.916892 C134.769437,118.916892 134.762922,118.924222 134.760479,118.926665 L134.870423,119.11805 C134.870423,119.11805 133.207409,124.475202 123.51111,128.995961 C123.085177,129.194676 122.644584,129.390947 122.188517,129.58559 C121.41972,129.912981 120.631376,130.24933 119.834074,130.588936 C120.017315,130.511568 120.198113,130.434199 120.379725,130.356831 C121.966185,130.873978 132.67316,134.346598 135.372911,134.718781 C135.372911,134.718781 136.118905,134.879219 137.335625,135.033956 C141.566457,135.57472 151.527437,136.051961 155.905675,129.484604 C155.905675,129.484604 161.844312,121.63456 153.288994,121.030271" id="Fill-77" fill="#D3425A"></path>
                    <path d="M98.021636,99.0115446 L97.9955751,98.9610515 C98.6324393,98.7395335 99.2847773,98.5286028 99.9525889,98.3307025 C100.576423,97.2890792 99.4419573,97.0423147 99.4419573,97.0423147 C97.1599961,96.8411568 95.2143839,98.6532066 95.2143839,98.6532066 C94.7404006,99.1744255 95.303154,99.6272343 95.6753368,99.8495668 C95.8300737,99.9415945 95.9522343,99.9953452 95.9522343,99.9953452 C96.436805,99.5710404 97.2609823,99.2444643 98.021636,99.0115446" id="Fill-79" fill="#060101"></path>
                    <path d="M98.021636,99.0115446 L115.45152,132.428187 L115.452334,132.429002 C115.519115,132.402126 115.583453,132.374437 115.650234,132.347561 C115.852207,132.264492 116.050107,132.181423 116.25045,132.097539 C116.740722,131.893938 117.227736,131.691151 117.709863,131.488365 C117.94604,131.388193 118.182218,131.288835 118.416766,131.190293 C118.894007,130.98832 119.366362,130.787977 119.83383,130.588448 C120.631946,130.248841 121.419475,129.912492 122.188273,129.585916 C122.64434,129.391273 123.084932,129.195002 123.510866,128.996287 C133.207165,124.475528 134.870179,119.117561 134.870179,119.117561 L134.760234,118.926991 L128.529226,108.046547 C124.604611,99.592215 115.747148,96.8745474 115.747148,96.8745474 C115.191725,96.8126526 114.642816,96.7686748 114.097165,96.7312122 C113.959531,96.7214393 113.821896,96.7124809 113.684262,96.7043368 C113.163043,96.6750183 112.645082,96.652215 112.132822,96.6432565 C112.113276,96.6424421 112.092101,96.6416277 112.071741,96.6408133 C111.539935,96.6326693 111.01383,96.6375557 110.492611,96.6505861 C110.360678,96.6538438 110.229558,96.6579158 110.099254,96.6628022 C109.615498,96.6790903 109.135813,96.702708 108.66183,96.7360986 C108.625182,96.7385418 108.586905,96.7401706 108.549442,96.7426139 C108.042883,96.7800765 107.542024,96.8297551 107.046866,96.885949 C106.922262,96.8997939 106.796844,96.9144532 106.673054,96.9299269 C106.224317,96.984492 105.779653,97.0447579 105.340689,97.1139823 C105.292639,97.1213119 105.242146,97.1278271 105.194096,97.1359712 C104.713597,97.2125252 104.240428,97.2996665 103.772146,97.3916942 C103.654057,97.4153119 103.535968,97.4389296 103.419509,97.4633618 C103.004977,97.5488742 102.595331,97.6384587 102.190572,97.7345584 C102.131935,97.7492177 102.072484,97.7614338 102.013032,97.7752787 C101.561852,97.8852233 101.117187,98.0024975 100.678223,98.1246582 C100.567464,98.1556055 100.458334,98.1865529 100.348389,98.2183147 C100.216456,98.2557773 100.082894,98.2916111 99.9525889,98.3307025 C99.2847773,98.5286028 98.6324393,98.7395335 97.9955751,98.9610515 L98.021636,99.0115446 Z" id="Fill-81" fill="#A4AAAF"></path>
                    <path d="M301.226618,252.321957 C300.418729,258.068395 299.379548,263.778184 298.089532,269.438295 C298.063471,269.716007 298.029266,269.992905 298.000762,270.270617 C302.147709,270.323553 306.299543,270.147642 310.457892,270.093891 C311.830978,262.589154 312.609548,255.144683 312.383958,247.608184 L311.866812,238.511287 C311.262524,239.856683 310.59064,241.174389 309.853604,242.45952 C307.531737,246.027425 304.620241,249.336351 301.226618,252.321957" id="Fill-83" fill="#E7B7C8"></path>
                    <path d="M299.169921,279.642701 C299.520929,279.888652 299.928946,280.040945 300.366281,280.089809 C299.928946,280.040945 299.520929,279.888652 299.169921,279.642701" id="Fill-85" fill="#E7B7C8"></path>
                    <path d="M241.154762,267.454813 C240.99351,267.421423 240.83633,267.401877 240.683222,267.388032 C240.684851,267.353827 240.688923,267.318808 240.690552,267.285417 C239.417638,267.081816 238.152868,266.847268 236.900314,266.580957 C236.902757,266.640409 236.901942,266.69986 236.904386,266.759312 C236.939405,267.787905 236.946735,268.814054 236.92556,269.836946 C236.603056,270.667639 236.547676,271.583844 236.811543,272.385218 C236.805843,272.471545 236.794441,272.557057 236.78874,272.64257 C241.29484,274.470907 246.488297,274.801556 251.09864,273.417068 C251.396712,271.809434 251.661394,270.203428 251.8992,268.598237 C249.025981,268.512725 246.203255,268.279805 243.442424,267.91088 C242.689915,267.76673 241.93089,267.612808 241.154762,267.454813" id="Fill-87" fill="#E7B7C8"></path>
                    <path d="M248.755599,284.067035 C248.756413,284.065406 248.757228,284.063777 248.758042,284.061334 C248.762114,284.042603 248.766186,284.024686 248.771073,284.005955 C248.766186,284.024686 248.762114,284.042603 248.757228,284.061334 C248.757228,284.063777 248.756413,284.065406 248.755599,284.067035" id="Fill-89" fill="#E7B7C8"></path>
                    <path d="M243.713295,286.809705 C243.208365,286.657411 242.722165,286.422863 242.283201,286.118275 C242.72298,286.423677 243.206736,286.657411 243.713295,286.809705" id="Fill-91" fill="#E7B7C8"></path>
                    <path d="M236.788496,272.642325 C236.475765,276.959483 235.649958,281.219633 234.319222,285.396713 C234.427537,285.409743 234.534224,285.437433 234.64254,285.440691 C235.671947,285.468381 236.606069,285.202885 237.440834,284.737045 C237.52146,284.693882 237.6029,284.652347 237.681898,284.605926 C238.434407,284.34776 239.139681,283.976392 239.787947,283.499965 C240.345,284.366491 241.024213,285.198813 241.853277,285.782741 C241.853277,285.782741 241.853277,285.783555 241.854091,285.783555 C241.987654,285.900829 242.127731,286.00996 242.272695,286.11176 C242.275953,286.114203 242.280025,286.115832 242.283283,286.118275 C242.722247,286.422863 243.208446,286.656597 243.713377,286.809705 L243.720706,286.812148 C243.864856,286.855311 244.011449,286.888702 244.158856,286.918835 C244.210163,286.929422 244.260657,286.939195 244.311964,286.947339 C244.445526,286.970142 244.579089,286.988874 244.712651,287.000275 C244.781061,287.005976 244.849471,287.005976 244.918695,287.008419 C245.101122,287.014935 245.28192,287.011677 245.461089,286.995389 C245.580806,286.984802 245.698895,286.975029 245.816169,286.954669 C245.900867,286.940009 245.983936,286.916392 246.067006,286.896032 C246.181022,286.868342 246.294224,286.83658 246.404983,286.797489 C246.479909,286.771428 246.554834,286.742924 246.62813,286.711976 C246.753548,286.658225 246.874895,286.596331 246.993798,286.528735 C247.047548,286.497788 247.102114,286.471727 247.15505,286.437522 C247.322003,286.330835 247.480812,286.208674 247.630662,286.069411 C247.662424,286.039278 247.690928,286.00263 247.721875,285.970868 C247.838335,285.853594 247.949094,285.725732 248.051709,285.587284 C248.094873,285.530275 248.133964,285.469195 248.173055,285.408929 C248.261011,285.275367 248.341637,285.131217 248.415748,284.978924 C248.44751,284.913771 248.4809,284.850248 248.511033,284.781838 C248.605504,284.56032 248.690202,284.325771 248.755355,284.066791 C248.756169,284.065162 248.756983,284.063533 248.756983,284.06109 C248.76187,284.043173 248.765942,284.024442 248.770828,284.00571 C249.032252,282.962458 249.28146,281.921649 249.524967,280.881655 C249.613737,280.501328 249.699249,280.12263 249.785576,279.743117 C249.942756,279.050059 250.09505,278.35863 250.243271,277.667201 C250.336114,277.235566 250.42977,276.803932 250.51854,276.372298 C250.714812,275.423516 250.902125,274.474735 251.07885,273.528397 C251.08618,273.490935 251.09351,273.454286 251.100839,273.416824 C251.100025,273.416824 251.099211,273.417638 251.098396,273.417638 C246.488053,274.802126 241.294596,274.470663 236.788496,272.642325" id="Fill-93" fill="#D293A8"></path>
                    <g id="Group-97" transform="translate(183.240997, 153.506277)">
                        <mask id="mask-2" fill="white">
                            <use xlink:href="#path-1"></use>
                        </mask>
                        <g id="Clip-96"></g>
                        <path d="M117.762962,50.6640183 C115.704962,47.2581789 113.174608,44.3434255 110.120591,41.795154 C107.978707,40.0075363 111.009921,36.9168715 113.138774,38.6939019 C116.452586,41.458805 119.238663,44.7367828 121.470131,48.4292925 C122.913256,50.8179407 119.204458,53.0494089 117.762962,50.6640183 M76.9759596,27.4029989 L74.1011119,23.8171762 C84.1305025,23.204744 91.9764748,24.8254089 91.9764748,24.8254089 L96.0737435,28.480456 C82.2199097,25.7253258 76.9759596,27.4029989 76.9759596,27.4029989 M56.3014886,20.9260404 C55.3347906,18.4706111 54.0040537,16.2839352 52.2897324,14.2788715 C51.0884859,12.872395 53.4127961,11.1873922 54.6075274,12.5857247 C56.4676271,14.7618133 57.9245967,17.213985 58.9735496,19.8762731 C59.6519485,21.5987385 56.9790731,22.6460626 56.3014886,20.9260404 M43.6676327,63.4420238 C43.2807906,65.085492 41.25781,65.0871208 40.4914554,64.0593424 C39.5996825,64.8704892 38.4293834,65.3843784 37.1295939,65.429985 C34.2180981,65.5309712 31.7748848,63.253082 31.6730842,60.3415861 C31.5712837,57.4300903 33.8491729,54.986877 36.7614831,54.8850765 C38.5548017,54.8223673 40.1681368,55.6644615 41.1682255,56.9992704 C43.1374554,58.4155197 44.2417878,61.0020681 43.6676327,63.4420238 M32.5273945,85.4382731 C28.0107075,88.6022343 22.8001479,90.1569324 17.3004748,90.1854366 C14.5143972,90.1992814 14.6894942,85.8747939 17.4747573,85.8601346 C22.2577546,85.8357025 26.5895717,84.3534864 30.4962698,81.6170875 C32.7717158,80.0232981 34.7824803,83.8583285 32.5273945,85.4382731 M140.49299,44.4468548 C138.371466,45.7059241 135.418436,45.570733 133.331117,44.2245224 C133.376724,44.1520404 133.432104,44.0754864 133.502142,43.9948604 C134.16181,43.2260626 135.534896,42.6543507 136.768719,42.6356194 C138.35355,42.6095584 139.931865,43.0558521 141.332641,43.8433812 C141.069588,44.0689712 140.789433,44.2709435 140.49299,44.4468548 M149.535322,46.2800792 C149.014104,45.0894199 148.311273,43.989974 147.469178,43.005359 C148.404929,40.7551596 148.641106,38.2158465 148.008314,35.8076526 L143.55678,36.9787662 C143.799472,37.9039296 143.807616,38.889359 143.61786,39.8454698 C141.515068,38.6572537 139.122347,37.9894421 136.697051,38.0317911 C134.144707,38.0725114 131.519882,39.2362953 130.008347,40.9970377 C128.88284,42.3082288 128.386868,43.9207496 128.609201,45.5381568 L128.719145,46.3395307 L129.30796,46.8965834 C132.898669,50.2918355 138.590541,50.9278853 142.841732,48.4073036 C143.520131,48.0041734 144.146408,47.53019 144.714863,46.9991983 C144.945339,47.3607939 145.147311,47.7378632 145.319151,48.1279629 C146.737843,51.3652205 145.999993,55.574877 143.563295,58.1378078 C140.790248,61.05419 136.43237,61.8238022 132.344059,61.8563784 C132.191766,61.8571928 132.037843,61.8604504 131.886364,61.859636 C131.445771,58.8781014 130.683489,55.9902233 129.634536,53.2212482 C122.373306,34.0436526 101.292447,20.5644449 76.9596715,21.4114255 C76.0638266,21.4431873 75.1687961,21.50101 74.2745801,21.5718632 C71.1602975,21.8194421 68.0671895,22.2966831 65.0286465,23.013359 C64.7908404,22.5792814 64.5359319,22.1745224 64.2785801,21.7901235 C64.0766078,21.4871651 63.8730066,21.1931651 63.6767352,20.925226 C59.3302587,10.2842177 50.7610953,2.53923158 41.2472227,0.675874238 C39.6200427,0.356627701 37.9562144,0.99593518 36.9031895,2.34296011 C35.7662809,3.80155845 35.5716382,5.7960349 36.3958155,7.54863324 C37.1874166,9.23037839 37.8259097,11.0025224 38.3039651,12.8284172 C34.5992393,9.69947535 30.383882,7.5958687 25.9722532,6.7326 C24.3418155,6.41253906 22.6796161,7.05266094 21.6290343,8.40131468 C20.4921258,9.85909861 20.2974831,11.8527607 21.1216604,13.6045446 C22.1266355,15.7415418 22.8628571,17.9892981 23.3547573,20.298949 C25.3085136,20.3852759 29.0042809,21.3755917 34.9616493,25.9378853 C34.7442033,23.3863562 33.4639596,21.2509878 31.5093889,19.6352094 C29.3601756,17.8581789 32.4174499,14.7903175 34.5479319,16.5518742 C37.2558266,18.790672 38.807267,21.9285723 39.2201701,25.3637302 C45.0423474,22.4766665 48.4302698,22.2258299 50.1787961,22.467708 C49.8049845,20.2248382 48.5890787,18.3297191 46.8169346,16.8646055 C44.6669069,15.0875751 47.7241812,12.0197136 49.8554776,13.7812704 C52.7457989,16.170733 54.3363307,19.5822731 54.6099706,23.2902565 C54.6873391,24.334323 54.1229568,24.9809601 53.3777767,25.2350543 C53.7792781,26.0470155 54.0553612,26.7604338 54.0553612,26.7604338 C54.6734942,28.4576526 54.6189291,30.218395 54.2532615,31.8366166 C55.4699817,32.8082011 56.7958321,33.9573258 58.2430288,35.3328548 C58.2430288,35.3328548 53.1008792,44.8687163 50.3359762,46.6147994 C50.3359762,46.6147994 43.136641,42.3171873 38.0229956,32.5011706 L36.9422809,31.0442011 C36.7077324,31.092251 36.4666687,31.1207551 36.2158321,31.1012094 L36.1742975,31.0971374 C35.7605801,31.0637468 35.3826964,30.9252981 35.0487906,30.7225114 L33.9509734,31.7901956 C27.3323086,40.6606886 19.5384582,43.7513535 19.5384582,43.7513535 C18.517195,42.8481789 17.3061756,40.5450432 16.2401202,38.1645391 C15.027472,40.1606443 14.0363418,42.2455197 13.1633003,44.3246942 C11.4131452,44.3654144 9.67927812,44.3523839 7.99020332,44.2799019 C6.3695385,44.2098632 4.7692338,44.8174089 3.49794848,45.9934089 C3.06875734,46.3900238 2.69168809,46.8428327 2.37081274,47.3306609 C2.68843047,47.2418909 3.03373795,47.189769 3.41325042,47.189769 C4.6047241,47.189769 5.48835291,47.66701 6.06902327,48.373913 C8.85917285,50.8578465 10.8503917,57.3519075 10.8503917,64.9731042 C10.8503917,74.7378133 7.5821867,82.65301 3.55169917,82.65301 C2.48971579,82.65301 1.4814831,82.0984006 0.570978947,81.110528 C2.09391524,84.8250266 4.52002604,87.8570543 8.39414792,88.1795584 C8.63521163,88.2398244 8.86894571,88.2829878 9.10186537,88.3098632 L15.351605,89.0240958 C16.4885136,90.6814089 17.7549125,92.282528 19.1222975,93.8274532 C22.7936327,97.9760294 27.2500537,101.686456 32.3213501,104.755132 C32.7480981,105.014112 33.1878765,105.260877 33.6243972,105.510899 C33.6317269,105.550805 33.6357989,105.590711 33.6423141,105.630617 C34.0796493,108.13491 34.2555607,110.691326 34.1203695,113.282761 C34.0315994,114.98568 33.7946078,116.66824 33.4460427,118.329625 C35.9299762,119.808583 39.3032393,121.010644 43.132569,121.614932 C46.882087,122.207004 50.3994997,122.125564 53.1912781,121.518833 C53.1595163,121.767226 53.1187961,122.013176 53.0837767,122.260755 C53.1187961,122.253425 53.1562587,122.247725 53.1912781,122.240395 C52.7156659,125.958966 51.8637989,129.631115 50.6267186,133.238112 C50.7822698,132.79019 50.9345634,132.341453 51.0778986,131.890273 C52.4086355,127.713193 53.235256,123.453043 53.5471729,119.135885 C53.5536881,119.050373 53.5650898,118.96486 53.5707906,118.879348 C53.3061091,118.07716 53.362303,117.160955 53.6839928,116.330262 C53.7059817,115.30737 53.6986521,114.28122 53.6636327,113.253442 C53.6611895,113.193991 53.6620039,113.134539 53.6595607,113.075088 C54.9121147,113.341398 56.1768848,113.575132 57.4489845,113.778733 C57.4473557,113.812938 57.4440981,113.847957 57.4424693,113.882162 C57.5955773,113.895193 57.7519429,113.915553 57.9140094,113.948943 C58.6901368,114.106124 59.4483474,114.26086 60.2008571,114.40501 C62.9625025,114.773121 65.7852283,115.00604 68.6584471,115.092367 C69.4459762,115.115985 70.2351341,115.133088 71.0291784,115.133088 C79.8271895,115.133088 88.1894942,113.739642 95.766713,111.237791 C96.0403529,116.335148 95.5403086,121.553852 94.7877989,126.683786 C101.11002,127.267714 106.931383,126.932179 113.286996,126.881686 C113.914087,123.502722 114.414946,120.13516 114.759439,116.76434 C114.788757,116.486628 114.822962,116.20973 114.849023,115.932018 C116.13904,110.271907 117.177406,104.562118 117.985295,98.8156803 C121.378918,95.8300737 124.291228,92.5211485 126.612281,88.9532427 C127.349317,87.6681125 128.022015,86.3504061 128.626303,85.00501 C131.206336,79.2585723 132.537888,72.9917302 132.30904,66.4626499 L132.30904,66.4618355 C132.500425,66.4610211 132.69181,66.4553202 132.883195,66.4512482 C137.80627,66.3453756 143.154464,65.2475584 146.89991,61.309913 C150.616852,57.3999573 151.700824,51.2202565 149.535322,46.2800792" id="Fill-95" fill="#F7CEDB" mask="url(#mask-2)"></path>
                    </g>
                    <path d="M232.520854,290.289573 C232.586006,290.134837 232.6422,289.977657 232.706538,289.82292 C232.640571,289.982543 232.579491,290.142981 232.513524,290.302604 C232.515153,290.297717 232.518411,290.29446 232.520854,290.289573" id="Fill-98" fill="#F7CEDB"></path>
                    <path d="M298.000843,270.270698 C297.655536,273.641518 297.155491,277.00908 296.527586,280.388044 C290.172788,280.438537 284.350611,280.773258 278.029203,280.190144 C277.994184,280.186886 277.959979,280.185258 277.92496,280.182 C277.530788,282.819042 276.54943,285.434909 276.09825,287.997839 C275.108749,293.622116 283.948295,295.952127 285.064029,290.450011 C285.427253,290.707363 285.564888,290.71795 286.033984,290.680488 C287.552849,294.066781 293.261009,294.906432 294.362899,290.422321 C294.99732,287.839845 295.580433,285.271213 296.101652,282.71154 C297.542334,282.476177 298.802217,281.511108 299.170328,279.642864 C299.520522,279.888814 299.928539,280.041108 300.365874,280.089972 C300.45953,280.294388 300.567032,280.488216 300.689192,280.672271 C301.422156,281.775789 302.646206,282.507125 303.915048,282.727828 C304.33691,282.801939 304.764472,282.818227 305.179818,282.77262 C306.635973,282.613812 307.94635,281.695978 308.401602,279.798416 C308.401602,279.796787 308.401602,279.794343 308.402417,279.792715 C308.782743,278.207884 309.141896,276.629568 309.479059,275.05451 C309.496162,274.973069 309.514079,274.891629 309.531181,274.810188 C309.747813,273.793812 309.951414,272.779878 310.1485,271.766759 C310.198178,271.515108 310.244599,271.263457 310.292649,271.011806 C310.350472,270.70559 310.412367,270.399374 310.468561,270.093158 C310.465303,270.093158 310.461231,270.093972 310.457973,270.093972 C306.29881,270.147723 302.147791,270.323634 298.000843,270.270698" id="Fill-100" fill="#D293A8"></path>
                    <path d="M257.341865,177.323616 L260.216712,180.909439 C260.216712,180.909439 265.461477,179.231766 279.314496,181.986896 L275.217228,178.331849 C275.217228,178.331849 267.371255,176.711184 257.341865,177.323616" id="Fill-102" fill="#383838"></path>
                    <path d="M237.848606,166.092083 C236.653875,164.693751 234.329565,166.378753 235.530811,167.78523 C237.245132,169.790294 238.575869,171.97697 239.542567,174.432399 C240.220152,176.152421 242.893027,175.105097 242.214628,173.382632 C241.165675,170.720343 239.708706,168.268172 237.848606,166.092083" id="Fill-104" fill="#F7CEDB"></path>
                    <path d="M237.848606,166.092083 C236.653875,164.693751 234.329565,166.378753 235.530811,167.78523 C237.245132,169.790294 238.575869,171.97697 239.542567,174.432399 C240.220152,176.152421 242.893027,175.105097 242.214628,173.382632 C241.165675,170.720343 239.708706,168.268172 237.848606,166.092083" id="Fill-106" fill="#FFFFFF"></path>
                    <path d="M296.380016,192.200016 C294.251162,190.422986 291.219949,193.51365 293.361833,195.301268 C296.415849,197.84954 298.945389,200.764293 301.004204,204.170132 C302.444885,206.555523 306.154498,204.324869 304.710558,201.935407 C302.479905,198.242897 299.693013,194.964919 296.380016,192.200016" id="Fill-108" fill="#F7CEDB"></path>
                    <path d="M296.380016,192.200016 C294.251162,190.422986 291.219949,193.51365 293.361833,195.301268 C296.415849,197.84954 298.945389,200.764293 301.004204,204.170132 C302.444885,206.555523 306.154498,204.324869 304.710558,201.935407 C302.479905,198.242897 299.693013,194.964919 296.380016,192.200016" id="Fill-110" fill="#FFFFFF"></path>
                    <path d="M224.409386,210.505384 C223.408483,209.170576 221.795962,208.328481 220.002643,208.391191 C217.090333,208.492991 214.812444,210.936204 214.914244,213.8477 C215.016045,216.760011 217.459258,219.0379 220.370754,218.936099 C221.670543,218.890493 222.840843,218.377418 223.732616,217.565457 C224.498156,218.594049 226.521951,218.591606 226.907978,216.948138 C227.482134,214.508182 226.378616,211.921634 224.409386,210.505384" id="Fill-112" fill="#383838"></path>
                    <path d="M219.832351,179.427223 L219.8747,179.43048 C220.222451,179.458984 220.549027,179.557527 220.843027,179.708192 C221.402523,179.406863 221.941659,179.127522 222.461249,178.869356 C222.048346,175.435012 220.496905,172.297112 217.789011,170.058314 C215.658529,168.296757 212.601254,171.364619 214.750468,173.141649 C216.705038,174.757428 217.985282,176.892796 218.202728,179.444325 C218.305343,179.522508 218.408772,179.603134 218.512202,179.682946 C218.912074,179.491561 219.360811,179.388946 219.832351,179.427223" id="Fill-114" fill="#D293A8"></path>
                    <path d="M236.6191,178.74125 C237.36428,178.487156 237.927848,177.841333 237.851294,176.796452 C237.577654,173.088469 235.987122,169.677743 233.096801,167.28828 C230.965504,165.525909 227.90823,168.593771 230.057443,170.370801 C231.830402,171.835915 233.045493,173.731034 233.419305,175.973904 C234.523637,176.126197 234.978075,176.471505 234.978075,176.471505 C235.540014,176.750031 236.16059,177.8112 236.6191,178.74125" id="Fill-116" fill="#D293A8"></path>
                    <path d="M184.881371,217.778586 C184.703016,212.677971 184.007515,208.562786 183.327487,208.586403 C182.646645,208.610021 182.239443,212.764298 182.417797,217.864913 C182.595337,222.965528 183.291653,227.080714 183.972495,227.057096 C184.652523,227.033478 185.059725,222.879201 184.881371,217.778586" id="Fill-118" fill="#383838"></path>
                    <path d="M183.972251,227.057096 C183.291409,227.080714 182.595907,222.965528 182.417553,217.864913 C182.239198,212.764298 182.646401,208.610021 183.327243,208.586403 C184.00727,208.562786 184.702772,212.677971 184.881126,217.778586 C185.059481,222.879201 184.652279,227.033478 183.972251,227.057096 M186.792534,236.15888 C190.823021,236.15888 194.091226,228.243683 194.091226,218.479788 C194.091226,210.858592 192.100007,204.363716 189.309858,201.879783 C188.729187,201.173694 187.845558,200.696453 186.654085,200.696453 C186.274572,200.696453 185.929265,200.748575 185.611647,200.836531 C184.574096,201.125644 183.867193,201.839877 183.491752,202.712919 C181.119392,205.631744 179.493841,211.593999 179.493841,218.479788 C179.493841,225.67098 181.267614,231.854752 183.811813,234.616398 C184.722317,235.605085 185.73055,236.15888 186.792534,236.15888" id="Fill-120" fill="#D293A8"></path>
                    <path d="M236.324855,275.766706 C236.359875,275.519127 236.400595,275.273177 236.432357,275.025598 C233.640578,275.631515 230.123166,275.71377 226.373648,275.121698 C222.544318,274.516596 219.171055,273.315349 216.687121,271.835576 C216.633371,271.803814 216.574734,271.774496 216.522612,271.742734 C216.283177,272.803089 216.009537,273.857742 215.668301,274.896108 C214.852268,277.376784 213.096412,279.846873 212.905027,282.497759 C212.886296,282.772213 212.889553,283.038524 212.904213,283.299947 C212.68188,287.075526 215.872717,289.646601 219.435736,288.280845 C220.23711,287.973814 220.983919,287.219676 221.79018,287.025033 C223.548479,286.5991 224.188601,287.798717 225.283975,288.810208 C226.549559,289.978064 227.798041,290.924402 229.514806,291.283554 C229.662213,291.314501 229.803105,291.325903 229.941553,291.329975 C230.853686,291.772197 231.958019,291.626418 232.469465,290.412956 C232.484124,290.376307 232.497969,290.339659 232.513443,290.303011 C232.579409,290.143388 232.641304,289.98295 232.706457,289.822512 C232.888069,289.376219 233.069681,288.93074 233.239891,288.482003 C233.432091,287.974629 233.616961,287.465626 233.794501,286.954994 C233.818933,286.884956 233.84418,286.814917 233.867797,286.744064 C235.104878,283.137066 235.956745,279.465731 236.432357,275.747161 C236.397337,275.75449 236.359875,275.759377 236.324855,275.766706" id="Fill-122" fill="#D293A8"></path>
                    <path d="M213.737023,235.123202 C209.830325,237.859601 205.499322,239.341817 200.716325,239.366249 C197.930247,239.380908 197.75515,243.70621 200.541228,243.691551 C206.041715,243.663047 211.25146,242.109163 215.768147,238.944387 C218.024048,237.364443 216.012469,233.529412 213.737023,235.123202" id="Fill-124" fill="#383838"></path>
                    <path d="M220.500407,184.473843 C220.398607,184.508862 220.290291,184.528408 220.182789,184.550397 L221.263504,186.007366 C226.377964,195.823383 233.577299,200.120995 233.577299,200.120995 C236.341388,198.374912 241.484352,188.83905 241.484352,188.83905 C240.036341,187.463521 238.71049,186.314397 237.49377,185.342812 C236.693211,188.880585 234.404734,191.734258 234.404734,191.734258 C225.131925,193.349222 220.969504,185.437283 220.500407,184.473843" id="Fill-126" fill="#4C8589"></path>
                    <path d="M217.191889,185.296635 L218.289706,184.228137 C218.172432,184.157284 218.058416,184.081544 217.954986,183.993588 L217.913452,184.172757 C217.913452,184.172757 212.43251,192.478868 202.965058,189.20089 C202.965058,189.20089 201.113102,185.922098 200.933934,182.235289 C199.670792,182.960109 198.288748,183.825007 196.780471,184.855228 C196.780471,184.855228 197.988233,188.337622 199.481036,191.670979 C200.547906,194.051483 201.758111,196.354619 202.779374,197.257793 C202.779374,197.257793 210.573224,194.167129 217.191889,185.296635" id="Fill-128" fill="#4C8589"></path>
                    <path d="M217.913207,184.172432 L217.955556,183.994077 C217.337423,183.470415 216.966055,182.671484 217.036094,181.806587 C217.112648,180.855362 217.705534,180.070276 218.511794,179.683434 C218.408365,179.602808 218.304936,179.522182 218.202321,179.443999 C212.244952,174.881706 208.549185,173.89139 206.596243,173.805878 C205.385224,173.752127 204.842016,174.043684 204.842016,174.043684 C203.720581,174.39062 201.945994,177.41939 201.945994,177.41939 C201.092498,178.943955 200.856321,180.627329 200.933689,182.235778 C201.112858,185.921772 202.965628,189.201379 202.965628,189.201379 C212.43308,192.478542 217.913207,184.172432 217.913207,184.172432" id="Fill-130" fill="#6BC0C6"></path>
                    <path d="M222.254064,182.227145 C222.169366,183.286685 221.449433,184.148325 220.500652,184.474087 C220.969748,185.437527 225.131355,193.349466 234.404978,191.733688 C234.404978,191.733688 236.69264,188.880015 237.494014,185.343057 C237.859682,183.724835 237.914247,181.964093 237.296929,180.266874 C237.296929,180.266874 237.020031,179.553455 236.619344,178.741494 C236.16002,177.811444 235.539444,176.750275 234.978319,176.471749 C234.978319,176.471749 234.523067,176.126442 233.419549,175.974148 C231.671023,175.73227 228.2831,175.983106 222.460923,178.869356 C221.941333,179.127522 221.402197,179.406863 220.843516,179.708192 C221.749948,180.173217 222.340391,181.152131 222.254064,182.227145" id="Fill-132" fill="#6BC0C6"></path>
                    <path d="M222.254064,182.227145 C222.340391,181.152131 221.749948,180.173217 220.843516,179.708192 C220.548701,179.557527 220.22294,179.458984 219.874375,179.43048 L219.832025,179.427223 C219.360485,179.388946 218.911748,179.491561 218.511876,179.682946 C217.705616,180.070602 217.112729,180.854874 217.036175,181.806912 C216.966136,182.670996 217.337505,183.469926 217.955638,183.993588 C218.059067,184.081544 218.172269,184.157284 218.289543,184.228951 C218.623449,184.431738 219.001333,184.570187 219.415865,184.603577 L219.456585,184.606835 C219.707422,184.627195 219.948485,184.598691 220.183034,184.550641 C220.290535,184.528652 220.398851,184.509106 220.500652,184.474087 C221.449433,184.148325 222.169366,183.286685 222.254064,182.227145" id="Fill-134" fill="#4A4A4A"></path>
                </g>
            </g>
        </g>
    </g>
</svg>