<?xml version="1.0" encoding="UTF-8"?>
<svg width="127px" height="106px" viewBox="0 0 127 106" version="1.1" xmlns="http://www.w3.org/2000/svg" xmlns:xlink="http://www.w3.org/1999/xlink">
    <!-- Generator: Sketch 53.2 (72643) - https://sketchapp.com -->
    <title>Group 22</title>
    <desc>Created with Sketch.</desc>
    <defs>
        <polygon id="path-1" points="0.15076129 0.11628536 19.8751533 0.11628536 19.8751533 12.174762 0.15076129 12.174762"></polygon>
        <polygon id="path-3" points="0.276910422 0.194628288 114.472915 0.194628288 114.472915 19.2233251 0.276910422 19.2233251"></polygon>
        <polygon id="path-5" points="0 0.202632754 126.897896 0.202632754 126.897896 14.4496377 0 14.4496377"></polygon>
    </defs>
    <g id="Page-1" stroke="none" stroke-width="1" fill="none" fill-rule="evenodd">
        <g id="B-2" transform="translate(-124.000000, -248.000000)">
            <g id="lunchbox" transform="translate(124.000000, 248.000000)">
                <g id="Group-22" transform="translate(0.000000, -0.000000)">
                    <path d="M67.6216385,7.48698089 L65.8716856,7.37447717 L64.1333928,13.0261347 C64.7677625,12.9965119 65.3961447,12.8499734 66.0182241,12.6999685 L67.6216385,7.48698089 Z" id="Fill-1" fill="#513610"></path>
                    <g id="Group-5" transform="translate(44.434243, 0.198851)">
                        <mask id="mask-2" fill="white">
                            <use xlink:href="#path-1"></use>
                        </mask>
                        <g id="Clip-4"></g>
                        <path d="M12.7013866,1.82757097 C7.25456774,-1.30709156 0.15076129,0.823546154 0.15076129,0.823546154 L19.8751533,12.174762 C19.8751533,12.174762 18.1478903,4.9622335 12.7013866,1.82757097" id="Fill-3" fill="#6CCC6C" mask="url(#mask-2)"></path>
                    </g>
                    <path d="M62.531428,12.7656744 C63.6293635,12.5769077 64.309428,12.3736447 64.309428,12.3736447 L44.585036,1.02242878 C44.585036,1.02242878 46.3116687,8.23495732 51.7584876,11.3696199 C53.1233437,12.1552551 54.5925099,12.6096819 56.0273263,12.8504462 C57.3527903,12.6304809 58.7009442,12.4391931 60.0465769,12.2469598 C60.861835,12.1303593 61.6909591,12.4946571 62.531428,12.7656744" id="Fill-6" fill="#3D723D"></path>
                    <path d="M53.0117854,30.0206256 C53.1091625,29.3793228 53.0808002,28.1660474 53.3508722,27.7774841 C53.595103,27.4273675 54.3892469,27.4198042 54.9987208,27.2543576 C56.2929864,26.9032955 57.5270608,26.2399333 58.2723586,25.0852732 C59.584902,23.0513824 59.1966538,20.2447769 57.4183387,18.5969283 C55.4915943,16.811365 52.6537903,16.746762 50.3662146,17.8027844 C46.4963387,19.5899233 43.7319615,23.6775586 43.6556985,27.8367298 C43.2999094,29.2630375 43.3036911,30.7485908 44.0694727,32.0469531 C45.4866414,34.4498687 48.6859069,35.085499 50.948902,33.5236826 C52.1398027,32.7018067 52.7987531,31.4286553 53.0117854,30.0206256" id="Fill-8" fill="#ED6986"></path>
                    <path d="M83.7178958,40.8394499 C84.3150794,39.3819437 83.0706055,37.6354573 81.6821141,37.253827 C80.0106303,36.7946732 78.6952506,37.8267452 78.0964913,39.2899238 C76.8321638,42.3760553 74.0022382,44.7339065 70.8524491,45.6834127 C69.178129,46.1882613 68.6203375,47.686105 68.8680347,49.0279561 L77.1803896,49.0279561 C80.0900447,47.048899 82.3325558,44.22244 83.7178958,40.8394499" id="Fill-10" fill="#872E45"></path>
                    <path d="M70.8523861,45.6834127 C74.0021752,44.7339065 76.8324159,42.3760553 78.0964283,39.2896087 C78.6955027,37.8267452 80.0108824,36.7943581 81.6820511,37.2535119 C83.0705424,37.6351422 84.3150164,39.3819437 83.7178328,40.8394499 C82.3324928,44.22244 80.0899816,47.048899 77.1803266,49.0279561 L68.8679717,49.0279561 C68.6202744,47.686105 69.1783811,46.1882613 70.8523861,45.6834127 L70.8523861,45.6834127 Z M44.0695672,32.046827 C43.3037856,30.7484648 43.2996888,29.2629114 43.6554779,27.8369189 C43.7317409,23.6774325 46.4964333,19.5897973 50.3663092,17.8029734 C52.6538849,16.746636 55.4916888,16.811239 57.4184333,18.5968022 C59.1967484,20.2446509 59.5849965,23.0515715 58.2724531,25.0851471 C57.5271553,26.2401223 56.2930809,26.9031695 54.9985002,27.2545467 C54.3893414,27.4196782 53.5948824,27.4275566 53.3509667,27.7776732 C53.0805797,28.1662365 53.1089419,29.3795119 53.0118799,30.0204995 C52.7988476,31.4288444 52.1398973,32.7016806 50.9489965,33.5238717 C48.6860015,35.0856881 45.486736,34.4497427 44.0695672,32.046827 L44.0695672,32.046827 Z M51.9772868,72.1731546 L53.0036864,75.6071968 C53.0036864,76.6723581 53.7124283,77.5440256 54.5787385,77.5440256 L72.2585251,77.5440256 C73.1251504,77.5440256 73.8338923,76.6723581 73.8338923,75.6071968 L74.9204829,72.1731546 L74.1361082,69.7314772 L121.056778,69.7314772 L117.652359,59.1365888 C117.652359,53.5769511 113.952657,49.0279561 109.430763,49.0279561 L79.5186392,49.0279561 C83.9384283,45.2346583 86.8496591,39.7386782 88.0191305,33.3757576 C88.8022447,29.1125913 86.5672968,22.0926112 84.0720462,18.7219114 C80.6140536,14.0503283 75.1508476,13.5675392 68.769334,12.4081521 C67.8693042,12.2449114 66.9513117,12.4743308 66.0181926,12.6996533 C65.3964283,12.8499734 64.767731,12.9965119 64.1333613,13.0261347 C64.0589891,13.0296012 63.984932,13.0333829 63.9105598,13.0333829 C63.4476243,13.0333829 62.9878402,12.9130007 62.5315226,12.7655169 C61.6910536,12.4944995 60.8619295,12.1302017 60.0466715,12.2468022 C58.7007236,12.4393506 57.3528849,12.6306385 56.0274208,12.8502886 C50.5566516,13.7572514 45.4712943,15.155827 42.5424159,19.1870529 C39.7465251,23.0354995 39.0970288,29.1853878 39.8019891,33.3757576 C40.8611628,39.6731298 43.805798,45.2040901 48.3027955,49.0279561 L17.1521851,49.0279561 C12.6299767,49.0279561 8.93027444,53.5769511 8.93027444,59.1365888 L5.71525211,69.7314772 L52.7181727,69.7314772 L51.9772868,72.1731546 Z" id="Fill-12" fill="#D3425A"></path>
                    <g id="Group-16" transform="translate(5.987593, 85.600836)">
                        <mask id="mask-4" fill="white">
                            <use xlink:href="#path-3"></use>
                        </mask>
                        <g id="Clip-15"></g>
                        <path d="M0.276910422,0.194628288 L2.94264988,9.11456625 C2.94264988,14.674204 6.64235211,19.2235141 11.1645605,19.2235141 L103.443139,19.2235141 C107.965032,19.2235141 111.664734,14.674204 111.664734,9.11456625 L114.472915,0.241268486 L0.276910422,0.194628288 Z" id="Fill-14" fill="#D3425A" mask="url(#mask-4)"></path>
                    </g>
                    <polygon id="Fill-17" fill="#4A4A4A" points="6.26450347 85.7954645 6.26450347 85.7954645 120.460508 85.8421047 121.118829 83.9783876 5.65755062 83.9783876"></polygon>
                    <g id="Group-21" transform="translate(0.000000, 69.528876)">
                        <mask id="mask-6" fill="white">
                            <use xlink:href="#path-5"></use>
                        </mask>
                        <g id="Clip-20"></g>
                        <path d="M121.056652,0.202632754 L74.1359821,0.202632754 L74.920672,2.64431017 L73.8337663,6.07835236 C73.8337663,7.14351365 73.1250243,8.01518114 72.258399,8.01518114 L54.5789275,8.01518114 C53.7126174,8.01518114 53.0038754,7.14351365 53.0038754,6.07835236 L51.9774759,2.64431017 L52.7180467,0.202632754 L5.71512605,0.202632754 L-0.000189081886,0.202632754 L-0.000189081886,14.4496377 L5.65777122,14.4496377 L121.118734,14.4496377 L126.898022,14.4496377 L126.898022,0.202632754 L121.056652,0.202632754 Z" id="Fill-19" fill="#A4AAAF" mask="url(#mask-6)"></path>
                    </g>
                </g>
            </g>
        </g>
    </g>
</svg>