<?xml version="1.0" encoding="UTF-8"?>
<svg width="156px" height="161px" viewBox="0 0 156 161" version="1.1" xmlns="http://www.w3.org/2000/svg" xmlns:xlink="http://www.w3.org/1999/xlink">
    <!-- Generator: Sketch 53.2 (72643) - https://sketchapp.com -->
    <title>Group 115</title>
    <desc>Created with Sketch.</desc>
    <defs>
        <polygon id="path-1" points="0 0.364790698 149.9904 0.364790698 149.9904 120.845209 0 120.845209"></polygon>
        <polygon id="path-3" points="0.577537209 0.239565116 15.1662093 0.239565116 15.1662093 35.6833791 0.577537209 35.6833791"></polygon>
    </defs>
    <g id="Page-1" stroke="none" stroke-width="1" fill="none" fill-rule="evenodd">
        <g id="C1a-::-saved-enough" transform="translate(-110.000000, -199.000000)">
            <g id="pig-crown" transform="translate(110.000000, 199.000000)">
                <g id="Group-115" transform="translate(0.000000, -0.000000)">
                    <path d="M35.8620256,136.149477 C35.8339093,135.87264 35.8000256,135.595081 35.7733512,135.317523 C34.4843279,129.661105 33.4454674,123.954221 32.6380256,118.21057 C29.2460488,115.22664 26.3363744,111.919733 24.0157,108.35257 C23.282514,107.072919 22.6120488,105.761547 22.0100721,104.421337 C21.928607,107.372105 21.7267465,110.671081 21.0634907,113.665105 C21.2040721,113.610314 21.3460953,113.556965 21.4866767,113.499291 C21.2617465,121.03157 22.0403512,128.472291 23.4115605,135.972849 C27.5684442,136.026919 31.7181186,136.202826 35.8620256,136.149477" id="Fill-1" fill="#E7B7C8"></path>
                    <path d="M97.0418233,138.520328 C97.0353349,138.434537 97.0252419,138.349467 97.0187535,138.263677 C97.2833349,137.462002 97.2271023,136.546421 96.9062884,135.715909 C96.8839395,134.69363 96.8911488,133.668467 96.9257535,132.640421 C94.7932419,133.111188 92.6131488,133.494723 90.3919628,133.791026 C87.6322419,134.159421 84.8112419,134.392281 81.9397767,134.478793 C82.1769628,136.082863 82.4408233,137.687653 82.7392884,139.294607 C87.3481953,140.678793 92.5381721,140.347165 97.0418233,138.520328" id="Fill-3" fill="#E7B7C8"></path>
                    <path d="M84.1488512,146.040495 C84.2029209,146.277681 84.2555488,146.514147 84.3117814,146.750612 C84.3009674,146.703751 84.2901535,146.65617 84.2800605,146.61003 C84.2353628,146.419705 84.1928279,146.2301 84.1488512,146.040495" id="Fill-5" fill="#E7B7C8"></path>
                    <path d="M83.4392395,142.814549 C83.4911465,143.05534 83.5423326,143.296851 83.5935186,143.537642 C83.5430535,143.301177 83.4925884,143.065433 83.4428442,142.828967 C83.4421233,142.823921 83.4406814,142.818874 83.4392395,142.814549" id="Fill-7" fill="#E7B7C8"></path>
                    <path d="M85.0711372,149.900356 C85.0740209,149.91117 85.0769047,149.921984 85.0797884,149.932798 C85.0769047,149.924147 85.0754628,149.915495 85.0725791,149.906123 C85.0725791,149.90396 85.0718581,149.902519 85.0711372,149.900356" id="Fill-9" fill="#E7B7C8"></path>
                    <path d="M91.5497047,151.989179 C91.1121,152.293412 90.626914,152.526272 90.1229837,152.679109 C90.6283558,152.526993 91.1113791,152.293412 91.5497047,151.989179" id="Fill-11" fill="#F7CEDB"></path>
                    <path d="M83.396993,142.612905 L83.3955512,142.612905 C83.4092488,142.679951 83.4251093,142.747719 83.4395279,142.814765 C83.4409698,142.819091 83.4416907,142.824137 83.4424116,142.829184 C83.427993,142.757091 83.4121326,142.684998 83.396993,142.612905" id="Fill-13" fill="#F7CEDB"></path>
                    <path d="M85.0725791,149.90634 C85.0754628,149.914991 85.0769047,149.923642 85.0797884,149.933014 C85.0797884,149.934456 85.0805093,149.935177 85.0805093,149.936619 C85.0805093,149.935177 85.0797884,149.934456 85.0797884,149.933014 C85.0769047,149.923642 85.0754628,149.914991 85.0725791,149.90634" id="Fill-15" fill="#F7CEDB"></path>
                    <path d="M82.7394326,139.294751 C82.7387116,139.294751 82.7379907,139.294751 82.7372698,139.29403 C82.7444791,139.330798 82.7524093,139.368286 82.7588977,139.405053 C82.9355256,140.352356 83.1236884,141.300379 83.3197814,142.249123 C83.344293,142.37024 83.3716884,142.492077 83.3969209,142.613193 C83.4120605,142.684565 83.4279209,142.756658 83.4430605,142.828751 C83.4928047,143.065216 83.5425488,143.301681 83.5937349,143.538147 C83.7422465,144.232402 83.8958047,144.927379 84.0536884,145.623077 C84.0702698,145.693728 84.0861302,145.7651 84.1027116,145.836472 C84.1178512,145.90424 84.1337116,145.972728 84.1488512,146.040495 C84.1928279,146.2301 84.2353628,146.419705 84.2800605,146.609309 C84.2901535,146.65617 84.3009674,146.703751 84.3117814,146.750612 C84.5568977,147.798844 84.8077814,148.847798 85.0709209,149.900356 C85.0716419,149.902519 85.0723628,149.90396 85.0723628,149.906123 C85.0752465,149.914774 85.0766884,149.924147 85.0795721,149.932798 C85.0795721,149.93424 85.080293,149.93496 85.080293,149.936402 C85.1458977,150.195216 85.2309674,150.43096 85.3261302,150.653007 C85.3556884,150.722216 85.3888512,150.784216 85.4205721,150.8491 C85.4948279,151.001937 85.5755721,151.146123 85.6642465,151.280216 C85.7031767,151.340053 85.742107,151.400612 85.7839209,151.457565 C85.8877349,151.596705 85.9987581,151.724309 86.1162698,151.842542 C86.1465488,151.873542 86.1746651,151.909588 86.206386,151.939867 C86.3556186,152.079007 86.5142233,152.200844 86.6822,152.308263 C86.733386,152.342147 86.7881767,152.3681 86.8415256,152.398379 C86.9604791,152.466147 87.0815953,152.528867 87.2070372,152.582216 C87.2805721,152.613216 87.3548279,152.641333 87.4305256,152.668007 C87.5415488,152.706216 87.6547349,152.737937 87.7693628,152.766053 C87.8522698,152.78624 87.9337349,152.81003 88.0188047,152.824449 C88.1363163,152.845356 88.2567116,152.855449 88.377107,152.865542 C88.5551767,152.881402 88.7339674,152.885007 88.9149209,152.878519 C88.9841302,152.875635 89.0533395,152.876356 89.1225488,152.870588 C89.2552,152.859053 89.389293,152.840309 89.5219442,152.81724 C89.5731302,152.808588 89.6250372,152.799216 89.6762233,152.789123 C89.8225721,152.758844 89.9689209,152.725681 90.1138279,152.681705 C90.1159907,152.680984 90.1188744,152.679542 90.1224791,152.678821 C90.6264093,152.526705 91.1115953,152.293123 91.5499209,151.988891 L91.560014,151.981681 C91.7063628,151.880751 91.8455023,151.77117 91.9788744,151.654379 C91.9788744,151.654379 91.9795953,151.653658 91.9803163,151.653658 C92.8086651,151.069705 93.4870605,150.238472 94.0450605,149.371914 C94.6924558,149.847728 95.3975256,150.219007 96.1501767,150.477821 C96.2280372,150.52396 96.3087814,150.565053 96.3902465,150.607588 C97.2243628,151.073309 98.1586884,151.338612 99.1867349,151.311216 C99.2948744,151.308333 99.402293,151.280937 99.5104326,151.26724 C98.1803163,147.092333 97.3541302,142.83524 97.0419674,138.520472 C92.5383163,140.347309 87.3483395,140.678216 82.7394326,139.294751" id="Fill-17" fill="#D293A8"></path>
                    <path d="M49.0598791,156.078944 C48.9719256,156.140944 48.8702744,156.179153 48.7751116,156.23034 C49.1629721,157.838735 50.2313907,158.736293 51.4858093,159.039805 C50.3287163,158.620223 49.3821349,157.668595 49.0598791,156.078944" id="Fill-19" fill="#F7CEDB"></path>
                    <path d="M37.334886,146.261893 C36.7076767,142.884335 36.2073512,139.518312 35.8620256,136.149405 C31.7181186,136.202753 27.5684442,136.026847 23.4122814,135.972777 C23.4093977,135.972777 23.4050721,135.972777 23.4021884,135.972777 C23.4577,136.27773 23.5189791,136.583405 23.5766535,136.888358 C23.6242349,137.141405 23.6725372,137.394451 23.7215605,137.647498 C23.9190953,138.658963 24.1223977,139.671149 24.3386767,140.686219 C24.3552581,140.767684 24.3732814,140.84987 24.3905837,140.931335 C24.7287,142.507288 25.0877233,144.086847 25.4676535,145.672893 C26.506514,150.007847 32.0158628,149.225637 33.4988163,145.963428 C33.9357,145.914405 34.3437465,145.763009 34.6933977,145.516451 C35.061793,147.38366 36.3212581,148.348986 37.7602349,148.584009 C38.2807465,151.142591 38.8639791,153.709102 39.4976767,156.290033 C40.5992581,160.772056 46.3047,159.932893 47.8237,156.548126 C48.1661419,156.507753 48.4811884,156.388079 48.7753279,156.230195 C48.8704907,156.179009 48.9721419,156.141521 49.0600953,156.0788 C49.3823512,157.668451 50.3282116,158.6208 51.4860256,159.040381 C54.3308163,160.071312 58.4567,157.863823 57.7530721,153.866986 C57.3024907,151.305521 56.8519093,148.691428 56.4590023,146.054986 C56.2484907,146.075172 56.0379791,146.085986 55.8274674,146.103288 C49.6779326,146.622358 43.5118163,146.310195 37.334886,146.261893" id="Fill-21" fill="#D293A8"></path>
                    <path d="M118.483153,142.388263 C118.976991,143.605193 119.62006,144.825728 120.124712,146.070774 C119.630874,144.824286 118.986363,143.604472 118.483153,142.388263" id="Fill-23" fill="#F7CEDB"></path>
                    <path d="M101.307567,156.157742 C101.30973,156.162788 101.312614,156.165672 101.314777,156.170719 C101.248451,156.012835 101.188614,155.85423 101.12373,155.695626 C101.187172,155.849184 101.242684,156.004184 101.307567,156.157742" id="Fill-25" fill="#F7CEDB"></path>
                    <g id="Group-29" transform="translate(0.000000, 31.768512)">
                        <mask id="mask-2" fill="white">
                            <use xlink:href="#path-1"></use>
                        </mask>
                        <g id="Clip-28"></g>
                        <path d="M113.450772,53.0741628 C112.152377,53.0287442 110.981586,52.5154419 110.090516,51.7043953 C109.324888,52.7317209 107.3034,52.7295581 106.916981,51.0872791 C106.343121,48.6483721 107.446865,46.0631163 109.414284,44.6479302 C110.414214,43.3134884 112.026214,42.4721628 113.819167,42.5348837 C116.729563,42.6365349 119.00626,45.0783256 118.903888,47.9887209 C118.802958,50.8983953 116.361167,53.175814 113.450772,53.0741628 M95.5356558,94.4130233 C83.4521442,100.411163 69.7551907,100.944651 57.2311907,95.9428372 C54.6459349,94.9104651 56.7041907,91.1025116 59.2620512,92.1240698 C70.2396558,96.5080465 82.6800279,95.9846512 93.2632837,90.7312326 C95.7382372,89.5034884 98.0336791,93.1730233 95.5356558,94.4130233 M54.5385163,16.1445116 L58.6341209,12.4915581 C58.6341209,12.4915581 66.4756791,10.8716279 76.499493,11.4844186 L73.626586,15.0681628 C73.626586,15.0681628 68.3839814,13.3912791 54.5385163,16.1445116 M40.4991209,29.4521628 C37.4467023,31.9992093 34.9176791,34.9124884 32.861586,38.316 C31.4211674,40.7001163 27.7134233,38.4702791 29.1560047,36.0825581 C31.3858419,32.3921163 34.1707953,29.1162093 37.4827488,26.3521628 C39.610214,24.5765116 42.6395628,27.6656977 40.4991209,29.4521628 M13.8650744,30.2913256 C15.0978651,30.3107907 16.4705163,30.8824884 17.1301674,31.6502791 C17.1993767,31.7317442 17.2556093,31.8074419 17.3010279,31.8802558 C15.2153767,33.2255116 12.2646093,33.3610465 10.1429116,32.1030233 C9.8466093,31.9271163 9.56688837,31.7245349 9.30446977,31.4988837 C10.7037953,30.7116279 12.2811907,30.266093 13.8650744,30.2913256 M147.011516,70.287814 C142.982237,70.287814 139.717144,62.3763256 139.717144,52.617814 C139.717144,45.001186 141.706191,38.5099302 144.49547,36.0270465 C145.075098,35.3212558 145.958958,34.844 147.149214,34.844 C147.529144,34.844 147.873749,34.8966279 148.190958,34.9845814 C147.870865,34.4965116 147.493819,34.0444884 147.064144,33.6479767 C145.793865,32.4728605 144.194842,31.8658372 142.574912,31.9350465 C140.887214,32.0078605 139.153377,32.0208372 137.405121,31.9804651 C135.584051,27.6440698 133.277795,23.2716279 129.426586,19.767907 C128.544167,18.9647907 127.610563,18.2114186 126.640191,17.5193256 C126.625772,17.3664884 126.62433,17.2136512 126.613516,17.060814 C123.938144,17.9857674 116.607726,17.5719535 108.18726,15.8763256 C97.807307,13.7863488 89.7047721,10.54 90.0911907,8.62665116 C90.1445395,8.35774419 90.3694698,8.13065116 90.7357023,7.94176744 L91.3441674,2.53334884 C91.4270744,1.81097674 91.4890744,1.08644186 91.5359349,0.364790698 C89.7134233,2.83686047 88.1432372,5.5944186 86.9183767,8.59348837 C86.7222837,8.86167442 86.5189814,9.15509302 86.3156791,9.45788372 C86.0597488,9.84213953 85.8045395,10.2465814 85.5666326,10.6805814 C84.3439349,10.3914884 83.1097023,10.1528605 81.8711442,9.94090698 L73.8983767,19.2856047 L76.7647953,23.208907 L73.6460512,27.8863023 L76.127493,34.3242093 L72.6201674,38.8898605 L73.9906558,43.4771395 L84.8500279,43.4771395 C86.5680047,43.4771395 88.0834,44.3725349 88.962214,45.7177907 C90.3074698,46.5966047 91.203586,48.1127209 91.203586,49.8299767 C91.203586,52.5313023 88.992493,54.7416744 86.2918884,54.7416744 L63.6979349,54.7416744 C61.9799581,54.7416744 60.4645628,53.8455581 59.5857488,52.5010233 C58.240493,51.6222093 57.3450977,50.106093 57.3450977,48.3881163 C57.3450977,45.6867907 59.5554698,43.4771395 62.2560744,43.4771395 L73.6143302,43.4771395 L72.2337488,38.8523721 L72.5790744,38.7492791 L72.5913302,38.7939767 L74.9033535,34.1230698 L72.7578651,27.9367674 L75.4584698,23.4684419 L72.7578651,19.3526512 L79.6960977,9.61 C78.5757721,9.45932558 77.4525628,9.32955814 76.3264698,9.24016279 C75.4332372,9.16951163 74.5371209,9.11111628 73.6417256,9.07939535 C49.3218651,8.23230233 28.2526791,21.7043256 20.9957953,40.8716977 C19.9475628,43.6400698 19.1855395,46.5259535 18.7457721,49.5055581 C18.5936558,49.5062791 18.4400977,49.5033953 18.2872605,49.5026744 C14.2017488,49.4695116 9.8466093,48.701 7.07391163,45.7862791 C4.6386093,43.224814 3.90109767,39.0174651 5.31988837,35.7819302 C5.49146977,35.391907 5.69333023,35.0141395 5.92402791,34.6536744 C6.49212093,35.1842791 7.11788837,35.6579302 7.79556279,36.0602093 C12.0447256,38.5805814 17.7328651,37.9447209 21.3223767,34.5505814 L21.9099349,33.9947442 L22.0209581,33.1923488 C22.2430047,31.5767442 21.7462837,29.9647442 20.6216326,28.654093 C19.1120047,26.8943023 16.4885395,25.7307209 13.9371674,25.6910698 C11.5141209,25.6485349 9.12135349,26.3153953 7.01984186,27.5034884 C6.83023721,26.5475349 6.83888837,25.5620233 7.08112093,24.6385116 L2.63226047,23.4684419 C1.99928372,25.874186 2.23574884,28.4133023 3.17079535,30.6618837 C2.32946977,31.6452326 1.62728372,32.7446512 1.10533023,33.934186 C-1.05890233,38.8718372 0.0253767442,45.0487674 3.7396093,48.9562093 C7.4834,52.8924884 12.8283767,53.9890233 17.7487256,54.095 C17.940493,54.0986047 18.1315395,54.1043721 18.322586,54.105814 C18.322586,54.1065349 18.3218651,54.1065349 18.3218651,54.1065349 C18.0933302,60.6374419 19.4270512,66.9066512 22.0101442,72.653186 C22.6121209,73.9926744 23.282586,75.3047674 24.0157721,76.5844186 C26.3364465,80.1508605 29.2461209,83.4577674 32.6380977,86.4416977 C33.4455395,92.1853488 34.4844,97.8922326 35.7734233,103.549372 C35.8000977,103.826209 35.8339814,104.103767 35.8620977,104.380605 C36.2067023,107.749512 36.7077488,111.116256 37.3349581,114.493093 C43.5118884,114.542116 49.6780047,114.853558 55.8275395,114.335209 C55.0720047,109.194977 54.5709581,103.965349 54.8449116,98.8575581 C62.4182837,101.357744 70.7767488,102.750581 79.569214,102.750581 C80.3636791,102.750581 81.1523767,102.733279 81.9396326,102.710209 C84.8110977,102.623698 87.6320977,102.390837 90.3925395,102.022442 C91.1437488,101.878256 91.9021674,101.723977 92.6786093,101.566814 C92.8393767,101.533651 92.9958186,101.513465 93.1493767,101.499767 C93.1479349,101.465884 93.1443302,101.431279 93.1421674,101.396674 C94.4138884,101.193372 95.6784,100.959791 96.9299349,100.693767 C96.9277721,100.752884 96.928493,100.812721 96.9256093,100.871837 C96.8910047,101.899884 96.8845163,102.925047 96.9061442,103.947326 C97.2269581,104.777837 97.2831907,105.693419 97.0186093,106.495093 C97.0250977,106.580884 97.0351907,106.665953 97.0416791,106.751744 C97.3545628,111.066512 98.1800279,115.324326 99.5101442,119.499233 C99.6528884,119.949093 99.8050047,120.397512 99.9607256,120.845209 C98.7250512,117.240558 97.8736326,113.570302 97.3978186,109.853907 C100.18854,110.460209 103.703795,110.541674 107.451191,109.950512 C111.349981,109.334837 114.781609,108.102047 117.276028,106.585209 C116.845633,104.718721 116.558702,102.822674 116.458493,100.900674 C116.323679,98.311093 116.499586,95.7561163 116.935749,93.2530465 C116.942958,93.2133953 116.947284,93.1730233 116.953772,93.1333721 C117.390656,92.8832093 117.829702,92.6373721 118.256493,92.3785581 C123.324633,89.3117209 127.77926,85.6025349 131.448795,81.4564651 C132.789005,79.9425116 134.030447,78.3744884 135.14933,76.7516744 C134.819144,76.9016279 134.429842,76.9816512 133.964842,76.9427209 C129.764702,76.590907 125.559516,76.3825581 121.344237,76.3183953 C118.094284,76.2686512 118.095726,71.2221395 121.344237,71.2718837 C125.559516,71.3360465 129.764702,71.5443953 133.964842,71.8962093 C136.614981,72.1182558 137.089353,75.5729535 135.371377,76.6377674 L141.462516,75.9413488 C141.696819,75.9146744 141.9304,75.8721395 142.171191,75.8123023 C146.042586,75.4893256 148.468516,72.4592558 149.9904,68.7464651 C149.080586,69.7341395 148.072005,70.287814 147.011516,70.287814" id="Fill-27" fill="#F7CEDB" mask="url(#mask-2)"></path>
                    </g>
                    <path d="M118.256493,124.147142 C117.829702,124.405956 117.390656,124.651793 116.953772,124.901956 C116.947284,124.941607 116.942958,124.981979 116.935749,125.02163 C122.626772,121.756537 127.540633,117.761863 131.448795,113.225049 C127.77926,117.371119 123.324633,121.080305 118.256493,124.147142" id="Fill-30" fill="#F6E610"></path>
                    <path d="M96.9299349,132.462135 C95.6784,132.728158 94.4138884,132.96174 93.1421674,133.165763 C93.1443302,133.199647 93.1479349,133.234251 93.1493767,133.268856 C92.9958186,133.282553 92.8393767,133.30274 92.6786093,133.335181 C91.9021674,133.493065 91.1437488,133.647344 90.3925395,133.79153 C92.6137256,133.495228 94.7930977,133.110972 96.9256093,132.640205 C96.928493,132.581088 96.9277721,132.521972 96.9299349,132.462135" id="Fill-32" fill="#E7B7C8"></path>
                    <path d="M96.9299349,132.462135 C95.6784,132.728158 94.4138884,132.96174 93.1421674,133.165763 C93.1443302,133.199647 93.1479349,133.234251 93.1493767,133.268856 C92.9958186,133.282553 92.8393767,133.30274 92.6786093,133.335181 C91.9021674,133.493065 91.1437488,133.647344 90.3925395,133.79153 C92.6137256,133.495228 94.7930977,133.110972 96.9256093,132.640205 C96.928493,132.581088 96.9277721,132.521972 96.9299349,132.462135" id="Fill-34" fill="#F6E610"></path>
                    <path d="M20.9956512,72.6404256 C19.747,75.4102395 18.8314186,78.2946814 18.2871163,81.2714023 C18.4399535,81.2721233 18.5935116,81.275007 18.7456279,81.274286 C19.1853953,78.2939605 19.9474186,75.4080767 20.9956512,72.6404256" id="Fill-36" fill="#F6E610"></path>
                    <path d="M73.6263698,46.8365302 L76.4992767,43.252786 C66.4754628,42.6399953 58.6339047,44.2599256 58.6339047,44.2599256 L54.5383,47.9128791 C68.384486,45.1596465 73.6263698,46.8365302 73.6263698,46.8365302" id="Fill-38" fill="#383838"></path>
                    <path d="M37.4827488,58.1207465 C34.1707953,60.8840721 31.3858419,64.1599791 29.1560047,67.8511419 C27.7134233,70.2388628 31.4211674,72.4687 32.861586,70.0845837 C34.9176791,66.6810721 37.4467023,63.767793 40.4991209,61.2207465 C42.6395628,59.4342814 39.610214,56.3450953 37.4827488,58.1207465" id="Fill-40" fill="#F7CEDB"></path>
                    <path d="M37.4827488,58.1207465 C34.1707953,60.8840721 31.3858419,64.1599791 29.1560047,67.8511419 C27.7134233,70.2388628 31.4211674,72.4687 32.861586,70.0845837 C34.9176791,66.6810721 37.4467023,63.767793 40.4991209,61.2207465 C42.6395628,59.4342814 39.610214,56.3450953 37.4827488,58.1207465" id="Fill-42" fill="#FFFFFF"></path>
                    <path d="M113.818951,74.3036837 C112.026719,74.2409628 110.413998,75.0822884 109.414788,76.4167302 C107.446649,77.8319163 106.342905,80.4171721 106.916765,82.8560791 C107.303184,84.4983581 109.325393,84.5005209 110.0903,83.4724744 C110.98137,84.2835209 112.15216,84.7975442 113.450556,84.8429628 C116.360951,84.943893 118.802742,82.6671953 118.904393,79.7568 C119.006044,76.8464047 116.729347,74.4053349 113.818951,74.3036837" id="Fill-44" fill="#383838"></path>
                    <path d="M93.2632837,122.500033 C82.6800279,127.753451 70.2396558,128.276847 59.2620512,123.892149 C56.7041907,122.871312 54.6459349,126.678544 57.2311907,127.711637 C69.7551907,132.713451 83.4521442,132.179242 95.5356558,126.181102 C98.0336791,124.941823 95.7382372,121.271567 93.2632837,122.500033" id="Fill-46" fill="#E7B7C8"></path>
                    <path d="M150.474433,74.4986953 C149.794595,74.4749047 149.099619,78.5878116 148.921549,83.6862302 C148.743479,88.783207 149.150084,92.9357651 149.829921,92.9588349 C150.510479,92.9833465 151.206177,88.8697186 151.384247,83.7720209 C151.561595,78.6743233 151.15427,74.522486 150.474433,74.4986953" id="Fill-48" fill="#383838"></path>
                    <g id="Group-52" transform="translate(139.139535, 66.373163)">
                        <mask id="mask-4" fill="white">
                            <use xlink:href="#path-3"></use>
                        </mask>
                        <g id="Clip-51"></g>
                        <path d="M10.6907465,26.5859605 C10.0109093,26.5621698 9.60358372,22.4103326 9.78165349,17.3126349 C9.95972326,12.2149372 10.6547,8.1013093 11.3352581,8.12582093 C12.0150953,8.1488907 12.4217,12.3007279 12.2443512,17.3984256 C12.0662814,22.4968442 11.3705837,26.6097512 10.6907465,26.5859605 M11.170886,2.25456512 C10.7960023,1.38223953 10.0880488,0.667797674 9.05207209,0.380146512 C8.73414186,0.291472093 8.38953721,0.239565116 8.00960698,0.239565116 C6.81935116,0.239565116 5.9354907,0.7161 5.35586279,1.42261163 C2.56658372,3.90549535 0.577537209,10.3960302 0.577537209,18.0126581 C0.577537209,27.7718907 3.84263023,35.6833791 7.8719093,35.6833791 C8.9331186,35.6833791 9.94097907,35.1297047 10.850793,34.1413093 C13.393514,31.3808674 15.1662814,25.2003326 15.1662814,18.0126581 C15.1662814,11.1313791 13.5413047,5.17216977 11.170886,2.25456512" id="Fill-50" fill="#D293A8" mask="url(#mask-4)"></path>
                    </g>
                    <path d="M97.398107,141.622635 C97.8732,145.33903 98.7253395,149.009286 99.961014,152.613937 C99.9848047,152.685309 100.010758,152.75524 100.03527,152.826612 C100.211898,153.336309 100.396456,153.843844 100.588944,154.350658 C100.759805,154.800519 100.941479,155.248216 101.123874,155.695914 C101.188758,155.853798 101.248595,156.012402 101.314921,156.171007 C101.33006,156.207053 101.343758,156.244542 101.358898,156.281309 C101.870037,157.493193 102.97306,157.639542 103.885037,157.197612 C104.022735,157.193286 104.164758,157.182472 104.312549,157.151472 C106.027642,156.792449 107.275572,155.846588 108.540084,154.679402 C109.635898,153.667937 110.274642,152.469751 112.03227,152.894379 C112.83827,153.089751 113.584433,153.843123 114.385386,154.149519 C117.972735,155.525053 121.185921,152.908798 120.911967,149.090751 C120.838433,148.060542 120.524828,147.058449 120.124712,146.070774 C119.62006,144.825728 118.976991,143.605193 118.483153,142.388263 C118.362037,142.089798 118.249572,141.791333 118.151526,141.492867 C117.809805,140.455449 117.537293,139.40217 117.297223,138.341681 C117.290735,138.345286 117.282805,138.348891 117.275595,138.353216 C114.781177,139.870053 111.35027,141.102844 107.450758,141.718519 C103.704084,142.310402 100.188107,142.228216 97.398107,141.622635" id="Fill-53" fill="#D293A8"></path>
                    <polygon id="Fill-55" fill="#383838" points="75.4583256 55.2366651 72.7577209 59.7049907 74.9032093 65.891293 72.591186 70.5622 72.5789302 70.5175023 72.2336047 70.6213163 73.614186 75.2453628 73.9905116 75.2453628 72.6200233 70.6588047 76.1280698 66.0931535 73.645907 59.6545256 76.7646512 54.9771302 73.8982326 51.0538279 81.8717209 41.7098512 81.8782093 41.7012 81.4341163 41.6327116 80.362814 41.4690605 79.7038837 41.3681302 79.6959535 41.3782233 72.7577209 51.1208744"></polygon>
                    <path d="M133.964914,103.664721 C129.764774,103.312907 125.559588,103.104558 121.344309,103.040395 C118.095798,102.990651 118.094356,108.037163 121.344309,108.086907 C125.559588,108.15107 129.764774,108.359419 133.964914,108.711233 C134.429914,108.750163 134.819216,108.67014 135.149402,108.520186 C135.225821,108.485581 135.301519,108.449535 135.371449,108.406279 C137.089426,107.341465 136.615053,103.886767 133.964914,103.664721" id="Fill-57" fill="#383838"></path>
                    <path d="M84.8501,85.0679651 L62.2561465,85.0679651 C61.2727977,85.0679651 60.3557744,84.7723837 59.5858209,84.2691744 C60.4646349,85.6144302 61.9800302,86.5098256 63.698007,86.5098256 L86.2919605,86.5098256 C88.9925651,86.5098256 91.2036581,84.3001744 91.2036581,81.5988488 C91.2036581,79.8808721 90.3075419,78.3647558 88.962286,77.4859419 C89.4654953,78.2566163 89.7610767,79.1729186 89.7610767,80.1569884 C89.7610767,82.858314 87.5507047,85.0679651 84.8501,85.0679651" id="Fill-59" fill="#D293A8"></path>
                    <path d="M77.9562047,80.1566279 C77.9562047,82.5782326 75.9750884,84.5600698 73.5534837,84.5600698 C71.1311581,84.5600698 69.1500419,82.5782326 69.1500419,80.1566279 C69.1500419,77.7350233 71.1311581,75.753186 73.5534837,75.753186 C75.9750884,75.753186 77.9562047,77.7350233 77.9562047,80.1566279 L77.9562047,80.1566279 Z M79.3259721,81.5343256 C79.5429721,81.3180465 79.8940651,81.3180465 80.1103442,81.5343256 C80.3273442,81.7506047 80.3273442,82.1016977 80.1103442,82.3186977 C79.8940651,82.5349767 79.5429721,82.5349767 79.3259721,82.3186977 C79.109693,82.1016977 79.109693,81.7506047 79.3259721,81.5343256 L79.3259721,81.5343256 Z M79.5357628,77.9729302 C79.7520419,77.7559302 80.1038558,77.7559302 80.3201349,77.9729302 C80.536414,78.1892093 80.536414,78.5403023 80.3201349,78.7573023 C80.1038558,78.9735814 79.7520419,78.9735814 79.5357628,78.7573023 C79.3194837,78.5403023 79.3194837,78.1892093 79.5357628,77.9729302 L79.5357628,77.9729302 Z M81.4217163,81.5343256 C81.6372744,81.3180465 81.9890884,81.3180465 82.2060884,81.5343256 C82.4216465,81.7506047 82.4216465,82.1016977 82.2060884,82.3186977 C81.9890884,82.5349767 81.6372744,82.5349767 81.4217163,82.3186977 C81.2047163,82.1016977 81.2047163,81.7506047 81.4217163,81.5343256 L81.4217163,81.5343256 Z M81.630786,77.9729302 C81.8470651,77.7559302 82.1988791,77.7559302 82.4151581,77.9729302 C82.6314372,78.1892093 82.6314372,78.5403023 82.4151581,78.7573023 C82.1988791,78.9735814 81.8470651,78.9735814 81.630786,78.7573023 C81.414507,78.5403023 81.414507,78.1892093 81.630786,77.9729302 L81.630786,77.9729302 Z M83.5167395,81.5343256 C83.7330186,81.3180465 84.0841116,81.3180465 84.3003907,81.5343256 C84.5173907,81.7506047 84.5173907,82.1016977 84.3003907,82.3186977 C84.0841116,82.5349767 83.7330186,82.5349767 83.5167395,82.3186977 C83.2997395,82.1016977 83.2997395,81.7506047 83.5167395,81.5343256 L83.5167395,81.5343256 Z M83.7258093,77.9729302 C83.9420884,77.7559302 84.2931814,77.7559302 84.5101814,77.9729302 C84.7264605,78.1892093 84.7264605,78.5403023 84.5101814,78.7573023 C84.2931814,78.9735814 83.9420884,78.9735814 83.7258093,78.7573023 C83.5095302,78.5403023 83.5095302,78.1892093 83.7258093,77.9729302 L83.7258093,77.9729302 Z M67.5409256,78.7573023 C67.3239256,78.9735814 66.9735535,78.9735814 66.7565535,78.7573023 C66.5395535,78.5403023 66.5395535,78.1892093 66.7565535,77.9729302 C66.9735535,77.7559302 67.3239256,77.7559302 67.5409256,77.9729302 C67.7572047,78.1892093 67.7572047,78.5403023 67.5409256,78.7573023 L67.5409256,78.7573023 Z M67.3311349,82.3186977 C67.1141349,82.5349767 66.7637628,82.5349767 66.5467628,82.3186977 C66.3304837,82.1016977 66.3304837,81.7506047 66.5467628,81.5343256 C66.7637628,81.3180465 67.1141349,81.3180465 67.3311349,81.5343256 C67.547414,81.7506047 67.547414,82.1016977 67.3311349,82.3186977 L67.3311349,82.3186977 Z M65.2353907,78.7573023 C65.0198326,78.9735814 64.6680186,78.9735814 64.4517395,78.7573023 C64.2354605,78.5403023 64.2354605,78.1892093 64.4517395,77.9729302 C64.6680186,77.7559302 65.0198326,77.7559302 65.2353907,77.9729302 C65.4523907,78.1892093 65.4523907,78.5403023 65.2353907,78.7573023 L65.2353907,78.7573023 Z M65.0263209,82.3186977 C64.8100419,82.5349767 64.4582279,82.5349767 64.2426698,82.3186977 C64.0263907,82.1016977 64.0263907,81.7506047 64.2426698,81.5343256 C64.4582279,81.3180465 64.8100419,81.3180465 65.0263209,81.5343256 C65.2426,81.7506047 65.2426,82.1016977 65.0263209,82.3186977 L65.0263209,82.3186977 Z M63.1410884,78.7573023 C62.9240884,78.9735814 62.5729953,78.9735814 62.3567163,78.7573023 C62.1404372,78.5403023 62.1404372,78.1892093 62.3567163,77.9729302 C62.5729953,77.7559302 62.9240884,77.7559302 63.1410884,77.9729302 C63.3573674,78.1892093 63.3573674,78.5403023 63.1410884,78.7573023 L63.1410884,78.7573023 Z M62.9312977,82.3186977 C62.7150186,82.5349767 62.3639256,82.5349767 62.1469256,82.3186977 C61.9306465,82.1016977 61.9306465,81.7506047 62.1469256,81.5343256 C62.3639256,81.3180465 62.7150186,81.3180465 62.9312977,81.5343256 C63.1482977,81.7506047 63.1482977,82.1016977 62.9312977,82.3186977 L62.9312977,82.3186977 Z M61.0460651,78.7573023 C60.829786,78.9735814 60.478693,78.9735814 60.261693,78.7573023 C60.045414,78.5403023 60.045414,78.1892093 60.261693,77.9729302 C60.478693,77.7559302 60.829786,77.7559302 61.0460651,77.9729302 C61.2623442,78.1892093 61.2623442,78.5403023 61.0460651,78.7573023 L61.0460651,78.7573023 Z M60.8369953,82.3186977 C60.6199953,82.5349767 60.2689023,82.5349767 60.0526233,82.3186977 C59.8356233,82.1016977 59.8356233,81.7506047 60.0526233,81.5343256 C60.2689023,81.3180465 60.6199953,81.3180465 60.8369953,81.5343256 C61.0532744,81.7506047 61.0532744,82.1016977 60.8369953,82.3186977 L60.8369953,82.3186977 Z M85.8208326,81.5343256 C86.0371116,81.3180465 86.3882047,81.3180465 86.6044837,81.5343256 C86.8214837,81.7506047 86.8214837,82.1016977 86.6044837,82.3186977 C86.3882047,82.5349767 86.0371116,82.5349767 85.8208326,82.3186977 C85.6038326,82.1016977 85.6038326,81.7506047 85.8208326,81.5343256 L85.8208326,81.5343256 Z M86.0299023,77.9729302 C86.2469023,77.7559302 86.5972744,77.7559302 86.8142744,77.9729302 C87.0312744,78.1892093 87.0312744,78.5403023 86.8142744,78.7573023 C86.5972744,78.9735814 86.2469023,78.9735814 86.0299023,78.7573023 C85.8136233,78.5403023 85.8136233,78.1892093 86.0299023,77.9729302 L86.0299023,77.9729302 Z M62.256507,75.2456512 C59.5559023,75.2456512 57.3448093,77.4553023 57.3448093,80.1566279 C57.3448093,81.8746047 58.2402047,83.3907209 59.5861814,84.2695349 C60.3561349,84.7720233 61.2724372,85.0676047 62.256507,85.0676047 L84.8504605,85.0676047 C87.5510651,85.0676047 89.7614372,82.8579535 89.7614372,80.1566279 C89.7614372,79.1732791 89.4658558,78.2562558 88.9626465,77.4863023 C88.0838326,76.1410465 86.5677163,75.2456512 84.8504605,75.2456512 L73.9903674,75.2456512 L73.6147628,75.2456512 L62.256507,75.2456512 Z" id="Fill-61" fill="#F2D1B1"></path>
                    <path d="M74.1396721,78.0776814 C74.3566721,78.2939605 74.3566721,78.6450535 74.1396721,78.8620535 C73.923393,79.0783326 73.5723,79.0783326 73.3553,78.8620535 C73.1390209,78.6450535 73.1390209,78.2939605 73.3553,78.0776814 C73.5723,77.8614023 73.923393,77.8614023 74.1396721,78.0776814 M75.2412535,81.6390767 C75.4575326,81.4227977 75.8086256,81.4227977 76.0249047,81.6390767 C76.2419047,81.8553558 76.2419047,82.2071698 76.0249047,82.4234488 C75.8086256,82.6397279 75.4575326,82.6397279 75.2412535,82.4234488 C75.0249744,82.2071698 75.0249744,81.8553558 75.2412535,81.6390767 M75.4503233,78.0776814 C75.6666023,77.8614023 76.0176953,77.8614023 76.2346953,78.0776814 C76.4509744,78.2939605 76.4509744,78.6450535 76.2346953,78.8620535 C76.0176953,79.0783326 75.6666023,79.0783326 75.4503233,78.8620535 C75.2347651,78.6450535 75.2347651,78.2939605 75.4503233,78.0776814 M73.9306023,82.4234488 C73.7136023,82.6397279 73.3625093,82.6397279 73.1462302,82.4234488 C72.9292302,82.2071698 72.9292302,81.8553558 73.1462302,81.6390767 C73.3625093,81.4227977 73.7136023,81.4227977 73.9306023,81.6390767 C74.1468814,81.8553558 74.1468814,82.2071698 73.9306023,82.4234488 M72.0453698,78.8620535 C71.8283698,79.0783326 71.4772767,79.0783326 71.2609977,78.8620535 C71.0439977,78.6450535 71.0439977,78.2939605 71.2609977,78.0776814 C71.4772767,77.8614023 71.8283698,77.8614023 72.0453698,78.0776814 C72.2616488,78.2939605 72.2616488,78.6450535 72.0453698,78.8620535 M71.8355791,82.4234488 C71.6185791,82.6397279 71.268207,82.6397279 71.051207,82.4234488 C70.834207,82.2071698 70.834207,81.8553558 71.051207,81.6390767 C71.268207,81.4227977 71.6185791,81.4227977 71.8355791,81.6390767 C72.0518581,81.8553558 72.0518581,82.2071698 71.8355791,82.4234488 M69.150114,80.1568442 C69.150114,82.5784488 71.1312302,84.560286 73.5535558,84.560286 C75.9751605,84.560286 77.9562767,82.5784488 77.9562767,80.1568442 C77.9562767,77.7345186 75.9751605,75.7534023 73.5535558,75.7534023 C71.1312302,75.7534023 69.150114,77.7345186 69.150114,80.1568442" id="Fill-63" fill="#FAE0C9"></path>
                    <path d="M86.8143465,78.757014 C87.0313465,78.5407349 87.0313465,78.1896419 86.8143465,77.9726419 C86.5973465,77.7563628 86.2469744,77.7563628 86.0299744,77.9726419 C85.8136953,78.1896419 85.8136953,78.5407349 86.0299744,78.757014 C86.2469744,78.973293 86.5973465,78.973293 86.8143465,78.757014" id="Fill-65" fill="#ECC39F"></path>
                    <path d="M86.6045558,82.3187698 C86.8215558,82.1017698 86.8215558,81.7506767 86.6045558,81.5343977 C86.3882767,81.3181186 86.0371837,81.3181186 85.8209047,81.5343977 C85.6039047,81.7506767 85.6039047,82.1017698 85.8209047,82.3187698 C86.0371837,82.5350488 86.3882767,82.5350488 86.6045558,82.3187698" id="Fill-67" fill="#ECC39F"></path>
                    <path d="M84.5100372,78.757014 C84.7263163,78.5407349 84.7263163,78.1896419 84.5100372,77.9726419 C84.2930372,77.7563628 83.9419442,77.7563628 83.7256651,77.9726419 C83.509386,78.1896419 83.509386,78.5407349 83.7256651,78.757014 C83.9419442,78.973293 84.2930372,78.973293 84.5100372,78.757014" id="Fill-69" fill="#ECC39F"></path>
                    <path d="M84.3002465,82.3187698 C84.5172465,82.1017698 84.5172465,81.7506767 84.3002465,81.5343977 C84.0839674,81.3181186 83.7328744,81.3181186 83.5165953,81.5343977 C83.2995953,81.7506767 83.2995953,82.1017698 83.5165953,82.3187698 C83.7328744,82.5350488 84.0839674,82.5350488 84.3002465,82.3187698" id="Fill-71" fill="#ECC39F"></path>
                    <path d="M82.4148698,78.757014 C82.6318698,78.5407349 82.6318698,78.1896419 82.4148698,77.9726419 C82.1985907,77.7563628 81.8474977,77.7563628 81.6304977,77.9726419 C81.4142186,78.1896419 81.4142186,78.5407349 81.6304977,78.757014 C81.8474977,78.973293 82.1985907,78.973293 82.4148698,78.757014" id="Fill-73" fill="#ECC39F"></path>
                    <path d="M82.2057279,82.3187698 C82.422007,82.1017698 82.422007,81.7506767 82.2057279,81.5343977 C81.9887279,81.3181186 81.6376349,81.3181186 81.4213558,81.5343977 C81.2043558,81.7506767 81.2043558,82.1017698 81.4213558,82.3187698 C81.6376349,82.5350488 81.9887279,82.5350488 82.2057279,82.3187698" id="Fill-75" fill="#ECC39F"></path>
                    <path d="M80.3203512,78.757014 C80.5366302,78.5407349 80.5366302,78.1896419 80.3203512,77.9726419 C80.1033512,77.7563628 79.7522581,77.7563628 79.5359791,77.9726419 C79.3189791,78.1896419 79.3189791,78.5407349 79.5359791,78.757014 C79.7522581,78.973293 80.1033512,78.973293 80.3203512,78.757014" id="Fill-77" fill="#ECC39F"></path>
                    <path d="M80.1105605,82.3187698 C80.3275605,82.1017698 80.3275605,81.7506767 80.1105605,81.5343977 C79.8935605,81.3181186 79.5431884,81.3181186 79.3261884,81.5343977 C79.1091884,81.7506767 79.1091884,82.1017698 79.3261884,82.3187698 C79.5431884,82.5350488 79.8935605,82.5350488 80.1105605,82.3187698" id="Fill-79" fill="#ECC39F"></path>
                    <path d="M76.2348395,78.8619814 C76.4511186,78.6449814 76.4511186,78.2938884 76.2348395,78.0776093 C76.0178395,77.8613302 75.6667465,77.8613302 75.4504674,78.0776093 C75.2341884,78.2938884 75.2341884,78.6449814 75.4504674,78.8619814 C75.6667465,79.0782605 76.0178395,79.0782605 76.2348395,78.8619814" id="Fill-81" fill="#ECC39F"></path>
                    <path d="M76.0250488,82.4233047 C76.2420488,82.2070256 76.2420488,81.8552116 76.0250488,81.6389326 C75.8087698,81.4226535 75.4576767,81.4226535 75.2413977,81.6389326 C75.0243977,81.8552116 75.0243977,82.2070256 75.2413977,82.4233047 C75.4576767,82.6395837 75.8087698,82.6395837 76.0250488,82.4233047" id="Fill-83" fill="#ECC39F"></path>
                    <path d="M73.3553721,78.8619814 C73.5723721,79.0782605 73.9234651,79.0782605 74.1397442,78.8619814 C74.3567442,78.6449814 74.3567442,78.2938884 74.1397442,78.0776093 C73.9234651,77.8613302 73.5723721,77.8613302 73.3553721,78.0776093 C73.139093,78.2938884 73.139093,78.6449814 73.3553721,78.8619814" id="Fill-85" fill="#ECC39F"></path>
                    <path d="M73.1462302,81.6390047 C72.9292302,81.8552837 72.9292302,82.2070977 73.1462302,82.4233767 C73.3625093,82.6396558 73.7136023,82.6396558 73.9306023,82.4233767 C74.1468814,82.2070977 74.1468814,81.8552837 73.9306023,81.6390047 C73.7136023,81.4227256 73.3625093,81.4227256 73.1462302,81.6390047" id="Fill-87" fill="#ECC39F"></path>
                    <path d="M71.2608535,78.0776814 C71.0438535,78.2939605 71.0438535,78.6450535 71.2608535,78.8620535 C71.4771326,79.0783326 71.8282256,79.0783326 72.0452256,78.8620535 C72.2615047,78.6450535 72.2615047,78.2939605 72.0452256,78.0776814 C71.8282256,77.8614023 71.4771326,77.8614023 71.2608535,78.0776814" id="Fill-89" fill="#ECC39F"></path>
                    <path d="M71.0510628,81.6390047 C70.8340628,81.8552837 70.8340628,82.2070977 71.0510628,82.4233767 C71.2680628,82.6396558 71.6184349,82.6396558 71.8354349,82.4233767 C72.0524349,82.2070977 72.0524349,81.8552837 71.8354349,81.6390047 C71.6184349,81.4227256 71.2680628,81.4227256 71.0510628,81.6390047" id="Fill-91" fill="#ECC39F"></path>
                    <path d="M66.7564093,77.972786 C66.5394093,78.189786 66.5394093,78.5408791 66.7564093,78.7571581 C66.9734093,78.9734372 67.3237814,78.9734372 67.5407814,78.7571581 C67.7570605,78.5408791 67.7570605,78.189786 67.5407814,77.972786 C67.3237814,77.756507 66.9734093,77.756507 66.7564093,77.972786" id="Fill-93" fill="#ECC39F"></path>
                    <path d="M66.5466186,81.5344698 C66.3303395,81.7507488 66.3303395,82.1018419 66.5466186,82.3188419 C66.7636186,82.5351209 67.1139907,82.5351209 67.3309907,82.3188419 C67.5479907,82.1018419 67.5479907,81.7507488 67.3309907,81.5344698 C67.1139907,81.3181907 66.7636186,81.3181907 66.5466186,81.5344698" id="Fill-95" fill="#ECC39F"></path>
                    <path d="M64.4514512,77.972786 C64.2351721,78.189786 64.2351721,78.5408791 64.4514512,78.7571581 C64.6684512,78.9734372 65.0195442,78.9734372 65.2358233,78.7571581 C65.4528233,78.5408791 65.4528233,78.189786 65.2358233,77.972786 C65.0195442,77.756507 64.6684512,77.756507 64.4514512,77.972786" id="Fill-97" fill="#ECC39F"></path>
                    <path d="M64.2423093,81.5344698 C64.0260302,81.7507488 64.0260302,82.1018419 64.2423093,82.3188419 C64.4585884,82.5351209 64.8096814,82.5351209 65.0266814,82.3188419 C65.2429605,82.1018419 65.2429605,81.7507488 65.0266814,81.5344698 C64.8096814,81.3181907 64.4585884,81.3181907 64.2423093,81.5344698" id="Fill-99" fill="#ECC39F"></path>
                    <path d="M62.3569326,77.972786 C62.1399326,78.189786 62.1399326,78.5408791 62.3569326,78.7571581 C62.5732116,78.9734372 62.9243047,78.9734372 63.1413047,78.7571581 C63.3575837,78.5408791 63.3575837,78.189786 63.1413047,77.972786 C62.9243047,77.756507 62.5732116,77.756507 62.3569326,77.972786" id="Fill-101" fill="#ECC39F"></path>
                    <path d="M62.1471419,81.5344698 C61.9308628,81.7507488 61.9308628,82.1018419 62.1471419,82.3188419 C62.3641419,82.5351209 62.7152349,82.5351209 62.931514,82.3188419 C63.148514,82.1018419 63.148514,81.7507488 62.931514,81.5344698 C62.7152349,81.3181907 62.3641419,81.3181907 62.1471419,81.5344698" id="Fill-103" fill="#ECC39F"></path>
                    <path d="M60.2617651,77.972786 C60.045486,78.189786 60.045486,78.5408791 60.2617651,78.7571581 C60.4787651,78.9734372 60.8298581,78.9734372 61.0461372,78.7571581 C61.2624163,78.5408791 61.2624163,78.189786 61.0461372,77.972786 C60.8298581,77.756507 60.4787651,77.756507 60.2617651,77.972786" id="Fill-105" fill="#ECC39F"></path>
                    <path d="M60.0526233,81.5344698 C59.8356233,81.7507488 59.8356233,82.1018419 60.0526233,82.3188419 C60.2689023,82.5351209 60.6199953,82.5351209 60.8369953,82.3188419 C61.0532744,82.1018419 61.0532744,81.7507488 60.8369953,81.5344698 C60.6199953,81.3181907 60.2689023,81.3181907 60.0526233,81.5344698" id="Fill-107" fill="#ECC39F"></path>
                    <path d="M126.01637,26.3857581 C127.149672,26.2444558 128.924602,25.1500837 130.879765,23.6620837 C131.552393,19.6746186 131.661253,17.5240837 131.608626,16.3713163 C132.741207,16.5623628 133.830533,15.8255721 134.059067,14.6908279 C134.291928,13.533014 133.54216,12.4054791 132.385067,12.1726186 C131.227974,11.9397581 130.099719,12.6888047 129.866858,13.8466186 C129.730602,14.5221302 129.936067,15.1825023 130.35637,15.6655256 L130.057184,15.8392698 C125.254347,18.7496651 121.592021,22.5071535 121.592021,22.5071535 L122.26537,24.4738512 C123.6993,27.4837349 126.01637,26.3857581 126.01637,26.3857581" id="Fill-109" fill="#C48323"></path>
                    <path d="M99.0955372,21.1688907 C100.794049,22.7354721 103.922165,19.6239372 103.922165,19.6239372 L103.927933,19.6174488 C103.8717,19.3853093 103.791677,19.1474023 103.675607,18.8994023 C103.675607,18.8994023 101.752886,14.0172628 98.4495837,9.4746814 L98.2123977,9.15891395 C98.7631884,8.87054186 99.1885372,8.35291395 99.3204674,7.69614651 C99.5540488,6.53833256 98.8042814,5.41079767 97.6464674,5.17793721 C96.4893744,4.94507674 95.3618395,5.69412326 95.1289791,6.85193721 C94.8953977,8.00975116 95.6451651,9.13656512 96.8022581,9.37014651 C96.8058628,9.37014651 96.8087465,9.37014651 96.8116302,9.37086744 C96.3466302,10.3520535 95.6732814,12.2005186 94.8283512,15.6818907 L95.7742116,17.5065651 C96.8260488,20.0312628 99.0955372,21.1688907 99.0955372,21.1688907" id="Fill-111" fill="#C48323"></path>
                    <path d="M90.7358465,39.7106395 C90.369614,39.8988023 90.1446837,40.1258953 90.090614,40.3955233 C89.7049163,42.3088721 97.8074512,45.5545 108.187405,47.6444767 C116.60787,49.3401047 123.938288,49.7546395 126.61366,48.8289651 C127.236544,48.6141279 127.607823,48.3257558 127.680637,47.9645698 C127.773637,47.4995698 127.362707,46.9552674 126.542288,46.3684302 L127.72173,41.9664302 C127.72173,41.9664302 130.908242,32.7442907 133.791242,28.2233372 C133.791242,28.2233372 139.278963,18.5419651 142.117265,15.6229186 C142.431591,15.9048023 142.815847,16.115314 143.258498,16.2047093 C144.583567,16.4714535 145.873312,15.6135465 146.140777,14.2891977 C146.407521,12.9648488 145.548893,11.6743837 144.224544,11.4076395 C142.900195,11.1416163 141.610451,11.9988023 141.342986,13.3231512 C141.282428,13.6259419 141.286753,13.924407 141.335777,14.2120581 C139.885265,15.6755465 134.987265,20.5367791 130.880126,23.6620116 C128.924963,25.1500116 127.150033,26.2443837 126.01673,26.385686 C126.01673,26.385686 123.69966,27.4836628 122.265009,24.4737791 L121.592381,22.5070814 L116.528567,7.71143023 C117.341056,7.44684884 117.99494,6.77422093 118.175893,5.87738372 C118.442637,4.55303488 117.58473,3.2632907 116.25966,2.99654651 C114.935312,2.72980233 113.644847,3.58698837 113.378823,4.91133721 C113.195707,5.81826744 113.548242,6.69996512 114.208614,7.25724419 L103.928149,19.6168721 L103.922381,19.6240814 C103.922381,19.6240814 100.794265,22.7356163 99.0957535,21.1690349 C99.0957535,21.1690349 96.8255442,20.031407 95.773707,17.5067093 L94.8285674,15.6820349 L88.9270326,4.28701163 C89.3221023,3.9452907 89.6169628,3.48173256 89.728707,2.9295 C89.9954512,1.60587209 89.1375442,0.315406977 87.8124744,0.0486627907 C86.4881256,-0.218081395 85.1976605,0.639825581 84.9316372,1.96417442 C84.664893,3.28852326 85.5228,4.57898837 86.8464279,4.84573256 C87.1593116,4.90845349 87.4678698,4.90412791 87.7634512,4.85077907 C88.2940558,6.58894186 89.7575442,11.5727326 90.2095674,15.0937558 C90.2095674,15.0937558 92.1005674,23.4233837 91.5353581,32.1336628 C91.4892186,32.855314 91.4272186,33.5791279 91.3443116,34.3015 L90.7358465,39.7106395 Z" id="Fill-113" fill="#F5A623"></path>
                </g>
            </g>
        </g>
    </g>
</svg>