<?xml version="1.0" encoding="UTF-8"?>
<svg width="108px" height="123px" viewBox="0 0 108 123" version="1.1" xmlns="http://www.w3.org/2000/svg" xmlns:xlink="http://www.w3.org/1999/xlink">
    <!-- Generator: Sketch 53.2 (72643) - https://sketchapp.com -->
    <title>Group 63</title>
    <desc>Created with Sketch.</desc>
    <defs>
        <polygon id="path-1" points="0.356096 0.0595633333 25.8748827 0.0595633333 25.8748827 45.495972 0.356096 45.495972"></polygon>
        <polygon id="path-3" points="0.233759333 0.135248 53.374596 0.135248 53.374596 63.4866667 0.233759333 63.4866667"></polygon>
        <polygon id="path-5" points="0.306162667 0.130611333 29.5150227 0.130611333 29.5150227 63.4866667 0.306162667 63.4866667"></polygon>
        <polygon id="path-7" points="0.231191333 0.074579 35.0685367 0.074579 35.0685367 12.483369 0.231191333 12.483369"></polygon>
    </defs>
    <g id="Page-1" stroke="none" stroke-width="1" fill="none" fill-rule="evenodd">
        <g id="B-2a" transform="translate(-135.000000, -233.000000)">
            <g id="takeout" transform="translate(135.000000, 233.000000)">
                <g id="Group-63" transform="translate(0.000000, 0.000000)">
                    <path d="M30.1282397,43.126457 L29.1709463,41.2393337 C28.023193,41.7864603 26.9496263,42.4634137 25.9648697,43.2477237 L27.0498497,45.0849137 C27.9843163,44.3095203 29.0179363,43.6504003 30.1282397,43.126457" id="Fill-1" fill="#F5A623"></path>
                    <path d="M36.3211143,41.741235 C39.2283043,41.741235 41.933621,42.598305 44.2048743,44.0691983 C43.877811,44.606695 43.5842743,45.1666617 43.3189143,45.741965 C41.315161,44.4073183 38.9094443,43.6280017 36.3211143,43.6280017 C36.2836643,43.6280017 36.2462143,43.6304983 36.2087643,43.630855 L37.1407343,45.496935 C37.769181,45.5443717 38.383361,45.6428117 38.9775677,45.7929683 L45.6525843,45.7929683 C48.1100177,41.2561683 52.9125343,38.1745683 58.4344477,38.1745683 C62.5532343,38.1745683 66.268631,39.891205 68.912601,42.6450283 C68.220311,42.8226483 67.5469243,43.047705 66.892441,43.3091417 C64.6522177,41.2904083 61.6872477,40.061335 58.4344477,40.061335 C54.0035777,40.061335 50.1077077,42.3429317 47.850721,45.7929683 L50.1269677,45.7929683 C52.109321,43.412575 55.094621,41.896385 58.4344477,41.896385 C60.9328977,41.896385 63.230901,42.7463217 65.0609577,44.170135 C64.5305943,44.461175 64.0191343,44.7825317 63.5255077,45.1281417 C62.0713777,44.148735 60.3197877,43.5766417 58.4344477,43.5766417 C56.1567743,43.5766417 54.075981,44.413025 52.4770443,45.7929683 L55.2993477,45.7929683 L55.768721,46.031935 C56.5940477,45.7016617 57.4917777,45.5154817 58.4344477,45.5154817 C59.6952643,45.5154817 60.879041,45.8421883 61.9087377,46.4124983 C61.4233143,46.8508417 60.9664243,47.3198583 60.535571,47.8120583 C59.8525543,47.5178083 59.1313743,47.3733583 58.4144743,47.376925 L62.0899243,49.2447883 C64.753511,46.1792383 68.6779143,44.2379017 73.057781,44.2379017 C77.945541,44.2379017 82.266201,46.6543183 84.899471,50.3550917 L86.697071,49.2362283 C83.6885877,44.9376817 78.703101,42.124295 73.057781,42.124295 C72.4814077,42.124295 71.9114543,42.1535417 71.350061,42.210965 C68.298421,38.4591883 63.6474877,36.0609617 58.4344477,36.0609617 C53.1639843,36.0609617 48.4688243,38.5137583 45.419681,42.3375817 C42.8042443,40.6259383 39.680201,39.6276283 36.3211143,39.6276283 C35.6277543,39.6276283 34.9461643,39.675065 34.2749177,39.757455 L35.285711,41.781895 C35.6284677,41.7579983 35.9722943,41.741235 36.3211143,41.741235" id="Fill-3" fill="#F5A623"></path>
                    <path d="M43.3189857,45.7418937 C43.5843457,45.1665903 43.8778823,44.6066237 44.204589,44.0694837 C41.9336923,42.5985903 39.2283757,41.7411637 36.3211857,41.7411637 C35.9723657,41.7411637 35.628539,41.757927 35.2857823,41.7818237 L36.208479,43.6307837 C36.2462857,43.630427 36.283379,43.6279303 36.3211857,43.6279303 C38.9095157,43.6279303 41.3152323,44.407247 43.3189857,45.7418937" id="Fill-5" fill="#F7C881"></path>
                    <path d="M30.1282397,43.126457 C29.0179363,43.6504003 27.9843163,44.3095203 27.0498497,45.0849137 L27.467863,45.7932537 L29.2444197,45.7932537 C29.794043,45.4212503 30.3757663,45.0938303 30.9824563,44.810637 L30.1282397,43.126457 Z" id="Fill-7" fill="#F7C881"></path>
                    <path d="M29.2445623,45.7930753 L31.4808623,45.7930753 L30.9822423,44.8104587 C30.375909,45.093652 29.7941857,45.421072 29.2445623,45.7930753" id="Fill-9" fill="#F5A623"></path>
                    <path d="M37.2883943,45.7930753 L38.9775677,45.7930753 C38.383361,45.6429187 37.769181,45.5444787 37.1407343,45.497042 L37.2883943,45.7930753 Z" id="Fill-11" fill="#F7C881"></path>
                    <path d="M58.4344477,40.061335 C61.6872477,40.061335 64.6522177,41.2904083 66.892441,43.308785 C67.5469243,43.047705 68.220311,42.8226483 68.912601,42.6450283 C66.268631,39.891205 62.5532343,38.1745683 58.4344477,38.1745683 C52.9125343,38.1745683 48.1100177,41.2561683 45.6525843,45.7929683 L47.850721,45.7929683 C50.1077077,42.342575 54.0035777,40.061335 58.4344477,40.061335" id="Fill-13" fill="#F7C881"></path>
                    <path d="M63.5256503,45.1281773 C64.019277,44.7825673 64.5303803,44.4612107 65.0611003,44.169814 C63.2310437,42.7463573 60.9326837,41.896064 58.4345903,41.896064 C55.094407,41.896064 52.109107,43.412254 50.1271103,45.793004 L52.4768303,45.793004 C54.0761237,44.4130607 56.156917,43.5766773 58.4345903,43.5766773 C60.3199303,43.5766773 62.0715203,44.1487707 63.5256503,45.1281773" id="Fill-15" fill="#F7C881"></path>
                    <path d="M60.535464,47.8122367 C60.9663173,47.31968 61.4232073,46.85102 61.9089873,46.41232 C60.878934,45.8423667 59.695514,45.51566 58.4343407,45.51566 C57.4920273,45.51566 56.5939407,45.70184 55.7689707,46.0321133 L58.414724,47.3767467 C59.1312673,47.3735367 59.8524473,47.5179867 60.535464,47.8122367" id="Fill-17" fill="#F7C881"></path>
                    <path d="M73.057781,44.2379017 C68.6779143,44.2379017 64.753511,46.1792383 62.0899243,49.2447883 L63.8308143,50.130035 C66.1373777,47.6661817 69.416571,46.1246683 73.057781,46.1246683 C77.2700143,46.1246683 80.998251,48.1862017 83.295541,51.3537583 L84.899471,50.3550917 C82.266201,46.6543183 77.945541,44.2379017 73.057781,44.2379017" id="Fill-19" fill="#F7C881"></path>
                    <path d="M73.057781,46.1246683 C69.416571,46.1246683 66.1373777,47.6661817 63.8308143,50.1296783 L65.5456677,51.0017283 C67.490571,49.1195983 70.137751,47.9597183 73.057781,47.9597183 C76.612321,47.9597183 79.765611,49.676355 81.7347677,52.3253183 L83.295541,51.3537583 C80.998251,48.1862017 77.2700143,46.1246683 73.057781,46.1246683" id="Fill-21" fill="#F5A623"></path>
                    <path d="M73.057781,47.9595757 C70.137751,47.9595757 67.490571,49.1198123 65.5456677,51.0015857 L67.1474577,51.8158557 C68.7399743,50.4601657 70.8025777,49.640189 73.057781,49.640189 C76.009911,49.640189 78.6331943,51.0433157 80.3013243,53.2175557 L81.7347677,52.3251757 C79.765611,49.6762123 76.612321,47.9595757 73.057781,47.9595757" id="Fill-23" fill="#F7C881"></path>
                    <path d="M73.057781,49.6401533 C70.8025777,49.6401533 68.7399743,50.46013 67.1474577,51.81582 L67.243401,51.8646833 L68.3501377,53.34378 C69.6120243,52.2473867 71.2551877,51.5789933 73.057781,51.5789933 C75.3151243,51.5789933 77.327081,52.6211733 78.6446077,54.249 L80.3013243,53.21752 C78.6331943,51.04328 76.009911,49.6401533 73.057781,49.6401533" id="Fill-25" fill="#F5A623"></path>
                    <path d="M73.057781,51.578815 C71.2551877,51.578815 69.6120243,52.2472083 68.3501377,53.3436017 L69.4686443,54.8383917 C71.2380677,53.219125 73.9430277,52.947345 76.0234643,54.342625 C76.412231,54.6029917 76.7499943,54.9093683 77.045671,55.2439217 L78.6446077,54.2488217 C77.327081,52.6213517 75.3151243,51.578815 73.057781,51.578815" id="Fill-27" fill="#F7C881"></path>
                    <path d="M76.0236427,54.342625 C73.943206,52.947345 71.238246,53.219125 69.468466,54.8383917 L70.4072127,56.092075 C70.9158193,55.5866783 71.573156,55.2203817 72.329646,55.071295 C73.5972393,54.8212717 74.842006,55.240355 75.699076,56.082445 L77.0454927,55.2439217 C76.749816,54.9093683 76.4124093,54.6029917 76.0236427,54.342625" id="Fill-29" fill="#F5A623"></path>
                    <path d="M72.3294677,55.071295 C71.5733343,55.2203817 70.915641,55.5866783 70.4070343,56.092075 L71.320101,57.3122317 C71.641101,56.9284583 72.0901443,56.6466917 72.619081,56.542545 C73.2518077,56.4177117 73.8734777,56.5707217 74.3617543,56.914905 L75.6988977,56.082445 C74.8418277,55.240355 73.5974177,54.8212717 72.3294677,55.071295" id="Fill-31" fill="#F7C881"></path>
                    <path d="M72.6192593,56.542545 C72.0903227,56.6466917 71.6412793,56.9284583 71.3199227,57.3122317 L71.9793993,58.193555 L71.9490827,58.203185 L71.9483693,58.2099617 L72.2219327,58.2081783 C72.364956,57.9931083 72.5900127,57.8333217 72.863576,57.779465 C72.9067327,57.770905 72.9495327,57.769835 72.9923327,57.7673383 L74.3619327,56.914905 C73.873656,56.5707217 73.2516293,56.4177117 72.6192593,56.542545" id="Fill-33" fill="#F5A623"></path>
                    <path d="M72.2218613,58.2081427 L72.2849913,58.207786 L72.9922613,57.7673027 C72.9494613,57.7697993 72.9066613,57.7708693 72.8635047,57.7794293 C72.5899413,57.833286 72.3648847,57.9930727 72.2218613,58.2081427" id="Fill-35" fill="#F7C881"></path>
                    <path d="M24.116088,45.7930753 L27.4676847,45.7930753 L27.050028,45.085092 L25.965048,43.2475453 L5.26625467,8.19398867 C4.171288,6.94957867 1.88220133,8.69153867 1.88220133,8.69153867 L4.71128133,13.4701587 L24.116088,45.7930753 Z" id="Fill-37" fill="#EAEAEA"></path>
                    <g id="Group-41" transform="translate(11.413333, 0.297103)">
                        <mask id="mask-2" fill="white">
                            <use xlink:href="#path-1"></use>
                        </mask>
                        <g id="Clip-40"></g>
                        <path d="M23.2515993,45.495972 L25.8748827,45.495972 L25.7272227,45.1999387 L24.7952527,43.3338587 L23.8721993,41.4848987 L22.861406,39.460102 L3.27541267,0.232475333 C2.34700933,-0.431281333 0.356096,1.028912 0.356096,1.028912 L0.376069333,1.068502 C0.464166,1.041752 0.521589333,1.028912 0.521589333,1.028912 L23.2515993,45.495972 Z" id="Fill-39" fill="#EAEAEA" mask="url(#mask-2)"></path>
                    </g>
                    <g id="Group-44" transform="translate(18.546667, 58.077103)">
                        <mask id="mask-4" fill="white">
                            <use xlink:href="#path-3"></use>
                        </mask>
                        <g id="Clip-43"></g>
                        <polygon id="Fill-42" fill="#9D8DE2" mask="url(#mask-4)" points="53.374596 0.135248 1.119006 17.1700047 0.233759333 11.0207147 7.62210933 63.486738 45.2461627 63.486738"></polygon>
                    </g>
                    <polygon id="Fill-45" fill="#9D8DE2" points="71.928931 58.2098903 71.9485477 58.2098903 71.949261 58.2031137"></polygon>
                    <g id="Group-49" transform="translate(63.486667, 58.077103)">
                        <mask id="mask-6" fill="white">
                            <use xlink:href="#path-5"></use>
                        </mask>
                        <g id="Clip-48"></g>
                        <polygon id="Fill-47" fill="#BAADF2" mask="url(#mask-6)" points="8.434596 0.356738 8.798396 0.130611333 8.735266 0.130968 8.46170267 0.132751333 8.442086 0.132751333 8.434596 0.135248 0.306162667 63.486738 20.976066 63.486738 29.5150227 0.157718"></polygon>
                    </g>
                    <g id="Group-52" transform="translate(71.690000, 45.950437)">
                        <mask id="mask-8" fill="white">
                            <use xlink:href="#path-7"></use>
                        </mask>
                        <g id="Clip-51"></g>
                        <polygon id="Fill-50" fill="#9D8DE2" mask="url(#mask-8)" points="35.068608 3.658009 33.7414513 0.074579 24.5180513 0.207615667 16.7541313 2.19817233 15.007178 3.285649 13.209578 4.404869 11.605648 5.40353567 10.0448747 6.374739 8.61107467 7.267119 6.95471467 8.298599 5.35542133 9.293699 4.00900467 10.1318657 2.67186133 10.9643257 1.30226133 11.816759 0.594991333 12.2572423 0.231191333 12.483369 21.311618 12.2847057 21.3326613 12.2847057"></polygon>
                    </g>
                    <polygon id="Fill-53" fill="#9D8DE2" points="17.9015993 47.0929827 14.6227627 45.9174093 4.80158933 45.8510693 3.60746933 49.6335193 17.254606 58.6429193 14.1819227 54.317266"></polygon>
                    <path d="M30.982278,44.81053 L31.4805413,45.7931467 L34.6648613,45.7931467 L11.935208,1.32608667 C11.935208,1.32608667 11.8777847,1.33892667 11.7893313,1.36532 C11.287858,1.51654667 9.66538133,2.16603667 10.3426913,4.11308 L29.1711247,41.2392267 L30.1280613,43.12635 L30.982278,44.81053 Z" id="Fill-55" fill="#A4AAAF"></path>
                    <path d="M24.116088,45.7930753 L4.71128133,13.4701587 L1.88220133,8.75787867 C1.88220133,8.75787867 -0.771755333,9.68699533 0.223344667,11.611212 L21.611218,45.7930753 L24.116088,45.7930753 Z" id="Fill-57" fill="#A4AAAF"></path>
                    <polygon id="Fill-59" fill="#7A63BC" points="71.9212627 58.2123513 71.9287527 58.2098547 71.9490827 58.2034347 71.9793993 58.193448 17.2927693 58.6967047 17.2799293 58.679228 18.780426 69.097818 19.6656727 75.247108"></polygon>
                    <polygon id="Fill-61" fill="#BAADF2" points="71.979435 58.1935193 71.3199583 57.312196 70.4072483 56.0920393 69.4685017 54.838356 68.349995 53.343566 67.243615 51.864826 67.147315 51.815606 65.5458817 51.0016927 63.8306717 50.1299993 62.0897817 49.2447527 58.4146883 47.3768893 55.768935 46.0318993 55.299205 45.7929327 52.4769017 45.7929327 50.126825 45.7929327 47.850935 45.7929327 45.6527983 45.7929327 38.9777817 45.7929327 37.2882517 45.7929327 34.6649683 45.7929327 31.4806483 45.7929327 29.244705 45.7929327 27.4677917 45.7929327 24.116195 45.7929327 21.6109683 45.7929327 18.5710983 45.7929327 17.901635 47.0929827 14.1819583 54.317266 17.254285 58.6429193 17.279965 58.6789427 17.292805 58.696776"></polygon>
                </g>
            </g>
        </g>
    </g>
</svg>