<?xml version="1.0" encoding="UTF-8"?>
<svg width="155px" height="141px" viewBox="0 0 155 141" version="1.1" xmlns="http://www.w3.org/2000/svg" xmlns:xlink="http://www.w3.org/1999/xlink">
    <!-- Generator: Sketch 53.2 (72643) - https://sketchapp.com -->
    <title>Group 154</title>
    <desc>Created with Sketch.</desc>
    <defs>
        <polygon id="path-1" points="0 0.451801902 148.339117 0.451801902 148.339117 126.541804 0 126.541804"></polygon>
        <polygon id="path-3" points="0.570679309 0.162293878 14.9992262 0.162293878 14.9992262 35.5295541 0.570679309 35.5295541"></polygon>
        <polygon id="path-5" points="0.71299264 0.359693878 1.06948896 0.359693878 1.06948896 0.719387755 0.71299264 0.719387755"></polygon>
    </defs>
    <g id="Page-1" stroke="none" stroke-width="1" fill="none" fill-rule="evenodd">
        <g id="B-2b" transform="translate(-99.000000, -218.000000)">
            <g id="pig/cast" transform="translate(99.000000, 218.000000)">
                <g id="Group-154">
                    <path d="M96.0793945,119.180897 C96.0744036,119.061479 96.0686996,118.94278 96.0651347,118.824801 C96.028772,118.816887 96.0045303,118.811852 95.9959744,118.810413 L96.0594307,118.513306 C96.0565787,118.344249 96.0537268,118.175193 96.0544398,118.006857 L96.1428509,112.98553 C95.0462682,113.213576 93.9418426,113.42076 92.8295741,113.600607 C92.831713,113.634418 92.834565,113.668948 92.836704,113.703479 C92.6848366,113.716428 92.5294042,113.73729 92.3711198,113.769663 C91.6032267,113.926489 90.8531585,114.080438 90.1102201,114.224316 C87.3808843,114.592642 84.5902311,114.824285 81.7503814,114.909892 C81.989234,116.540025 82.2544672,118.170877 82.5560631,119.803168 C82.5503592,119.773673 82.5446552,119.744897 82.5396643,119.715403 C86.8917714,121.03476 91.768641,120.792326 96.0793945,119.180897" id="Fill-1" fill="#E7B7C8"></path>
                    <path d="M85.1930664,131.246109 C85.1616947,131.181364 85.1281841,131.118778 85.0996644,131.051155 C85.1281841,131.118778 85.1616947,131.181364 85.1930664,131.246109" id="Fill-3" fill="#E7B7C8"></path>
                    <path d="M96.5716446,113.075957 C96.5737836,113.016967 96.5737836,112.957978 96.5759226,112.898988 C96.438315,112.927763 96.2999944,112.952942 96.1630998,112.980998 C96.2828826,113.068763 96.4204902,113.146457 96.5687927,113.216238 C96.5702186,113.170197 96.5702186,113.122717 96.5716446,113.075957" id="Fill-5" fill="#E7B7C8"></path>
                    <path d="M83.3854874,123.949647 C83.2949374,123.521611 83.2029613,123.094295 83.1152632,122.666259 C83.2029613,123.094295 83.2949374,123.521611 83.3854874,123.949647" id="Fill-7" fill="#E7B7C8"></path>
                    <path d="M84.8469798,130.294863 C84.8498317,130.307812 84.8526837,130.319322 84.8555357,130.331552 C84.8562487,130.33299 84.8569617,130.334429 84.8569617,130.335868 C84.8569617,130.334429 84.8562487,130.33299 84.8562487,130.331552 C84.8526837,130.319322 84.8498317,130.307812 84.8469798,130.294863" id="Fill-9" fill="#E7B7C8"></path>
                    <path d="M84.0964124,127.157397 C84.0094273,126.781157 83.9260072,126.405637 83.841161,126.030116 C83.9260072,126.405637 84.0094273,126.781157 84.0964124,127.157397" id="Fill-11" fill="#E7B7C8"></path>
                    <path d="M85.5523434,131.853057 C85.5109898,131.796944 85.4724882,131.736516 85.4332736,131.676087 C85.4724882,131.736516 85.5109898,131.796225 85.5523434,131.853057" id="Fill-13" fill="#E7B7C8"></path>
                    <path d="M89.2502797,133.210397 C89.1176631,133.232698 88.9857594,133.252122 88.8531428,133.262913 C88.9864724,133.252122 89.1169501,133.232698 89.2502797,133.210397" id="Fill-15" fill="#E7B7C8"></path>
                    <path d="M87.7629771,133.217376 C87.6788439,133.202268 87.5975628,133.178529 87.5148556,133.158386 C87.5975628,133.179248 87.6788439,133.202268 87.7629771,133.217376" id="Fill-17" fill="#E7B7C8"></path>
                    <path d="M89.8344346,133.074793 C89.691836,133.118676 89.5463856,133.151767 89.401648,133.181262 C89.5470985,133.151767 89.6911231,133.118676 89.8344346,133.074793" id="Fill-19" fill="#E7B7C8"></path>
                    <path d="M91.2562845,132.382814 C90.822785,132.687115 90.3415149,132.920196 89.8417071,133.072707 C90.3429409,132.920916 90.821359,132.687115 91.2562845,132.382814" id="Fill-21" fill="#E7B7C8"></path>
                    <path d="M91.6795882,132.04909 C91.5469716,132.16635 91.408651,132.274978 91.2646265,132.377131 C91.409364,132.274978 91.5469716,132.16635 91.6795882,132.04909" id="Fill-23" fill="#E7B7C8"></path>
                    <path d="M86.5995157,132.792361 C86.5467542,132.762147 86.4918538,132.73553 86.4398053,132.701718 C86.4918538,132.73553 86.5467542,132.762147 86.5995157,132.792361" id="Fill-25" fill="#E7B7C8"></path>
                    <path d="M88.1132703,133.258165 C88.2915185,133.273991 88.4704797,133.277588 88.6515798,133.271114 C88.4704797,133.278308 88.2915185,133.273272 88.1132703,133.258165" id="Fill-27" fill="#E7B7C8"></path>
                    <path d="M85.9700858,132.334327 C85.9380011,132.304113 85.9109074,132.268143 85.8795357,132.23649 C85.9109074,132.268143 85.9380011,132.304113 85.9700858,132.334327" id="Fill-29" fill="#E7B7C8"></path>
                    <path d="M87.1816029,133.060765 C87.1067386,133.034867 87.0325874,133.006091 86.9598621,132.975158 C87.0325874,133.006811 87.1067386,133.034867 87.1816029,133.060765" id="Fill-31" fill="#E7B7C8"></path>
                    <path d="M24.8344605,121.348916 C24.8173487,121.267626 24.8002369,121.186335 24.7838381,121.105044 C24.8002369,121.186335 24.8173487,121.267626 24.8344605,121.348916" id="Fill-33" fill="#D293A8"></path>
                    <path d="M98.151565,129.831217 C98.056024,129.829059 97.961196,129.829779 97.865655,129.826182 L97.8906097,129.107513 C97.9041566,129.108233 97.9184164,129.107513 97.9319633,129.107513 C97.7301864,128.429131 97.5305484,127.711182 97.3387534,126.965177 C97.3031038,126.840003 97.2653152,126.716988 97.2289525,126.589656 C97.2075628,126.588937 97.186173,126.590376 97.1647832,126.589656 C97.1647832,126.589656 97.0792241,126.219171 96.9565894,125.615605 C96.8175558,125.10412 96.6842262,124.584722 96.5608784,124.064605 C96.4646244,124.04662 96.4004551,124.031513 96.3854823,124.028636 L96.5466186,123.348814 C96.5238028,123.204937 96.5017001,123.056023 96.4788843,122.90711 C96.2763944,121.665447 96.1330829,120.409396 96.0796084,119.180682 C91.7688549,120.79283 86.8919853,121.034544 82.5398782,119.715187 C82.5441561,119.744682 82.5505731,119.774177 82.556277,119.803671 C82.7323862,120.75686 82.9206162,121.711488 83.1152632,122.666115 C83.2029613,123.094151 83.2949374,123.521467 83.3854874,123.949503 C83.5330769,124.642273 83.6849444,125.335763 83.8410897,126.029972 C83.9259359,126.405493 84.009356,126.781013 84.0963411,127.157253 C84.3380456,128.201085 84.58688,129.247074 84.8471224,130.295222 C84.8499743,130.307452 84.8528263,130.319682 84.8563913,130.331192 C84.8563913,130.332631 84.8571043,130.334069 84.8571043,130.335508 C84.9212736,130.594488 85.0061197,130.829008 85.0995218,131.05058 C85.1280415,131.118921 85.1615521,131.181508 85.1929238,131.246253 C85.267075,131.398763 85.3462172,131.542641 85.4332023,131.675728 C85.4724169,131.736156 85.5109185,131.796585 85.5522721,131.853416 C85.654943,131.992258 85.7640309,132.11959 85.8795357,132.23685 C85.9109074,132.268503 85.9380011,132.304472 85.9700858,132.333967 C86.1176752,132.473529 86.2752466,132.595105 86.4399479,132.701574 C86.4912834,132.735386 86.5468968,132.762003 86.5996583,132.792217 C86.7165891,132.85984 86.8363718,132.922427 86.9604325,132.974942 C87.0324448,133.005876 87.106596,133.034651 87.1814603,133.060549 C87.2912611,133.099396 87.402488,133.131049 87.5151408,133.158386 C87.597135,133.178529 87.6791291,133.202988 87.7632623,133.217376 C87.8787671,133.237518 87.9964108,133.24759 88.1133416,133.258381 C88.2915898,133.273488 88.470551,133.278523 88.6516511,133.27061 C88.7193854,133.268452 88.7856937,133.268452 88.853428,133.263416 C88.9860446,133.251906 89.1179483,133.233202 89.2505649,133.210182 C89.3004744,133.201549 89.3503839,133.192197 89.4017193,133.181406 C89.5464568,133.151911 89.6919073,133.1181 89.8345059,133.074937 C89.8373578,133.074217 89.8394968,133.073498 89.8416358,133.072779 C90.3414436,132.920268 90.8227137,132.687187 91.2562132,132.382886 C91.2590652,132.380728 91.2619171,132.378569 91.2647691,132.377131 C91.4087936,132.274978 91.5471142,132.16635 91.6797308,132.04909 C91.6804438,132.04909 91.6804438,132.04909 91.6811568,132.04837 C92.4996724,131.465666 93.1713114,130.636212 93.7217417,129.771508 C94.3627221,130.246304 95.0600289,130.617508 95.8036803,130.875049 C95.8813965,130.921809 95.9619646,130.962814 96.0418198,131.005258 C96.8546314,131.463508 97.765123,131.723927 98.7647387,131.705222 C98.5693787,131.136187 98.3618979,130.5096 98.151565,129.831217" id="Fill-35" fill="#D293A8"></path>
                    <path d="M109.584473,133.565847 C109.523869,133.62052 109.457561,133.689582 109.389113,133.765837 C109.654347,133.549301 109.940257,133.378806 110.270372,133.285286 C110.047919,133.290321 109.813344,133.36226 109.584473,133.565847" id="Fill-37" fill="#D293A8"></path>
                    <path d="M37.6369564,126.668429 C36.9660303,123.021133 36.4341378,119.386786 36.0926143,115.748123 C34.8170705,110.103087 33.7896481,104.409133 32.9918093,98.6770515 C29.637179,95.6995056 26.7595407,92.399674 24.4644174,88.8408628 C23.7364519,87.5596332 23.0719427,86.2453117 22.4744549,84.9029342 L21.9632392,93.9765719 C21.693728,103.063878 22.8616099,112.016659 24.7838381,121.105404 C24.8002369,121.186694 24.8173487,121.267266 24.8344605,121.348557 C25.1695671,122.921138 25.5239244,124.497317 25.8996715,126.080689 C26.9278069,130.406368 32.3764967,129.625832 33.8424096,126.371322 C34.2751961,126.322404 34.6780369,126.170613 35.0245514,125.925302 C35.3888906,127.788516 36.6344887,128.751776 38.057622,128.985577 C37.9014767,128.212235 37.7496092,127.439613 37.6055847,126.668429 L37.6369564,126.668429 Z" id="Fill-39" fill="#E7B7C8"></path>
                    <path d="M37.6369564,126.668429 L37.6055847,126.668429 C37.7496092,127.439613 37.9014767,128.212235 38.057622,128.985577 C38.5724027,131.538684 39.1485008,134.099705 39.7759343,136.675113 C40.8653871,141.147546 46.5072978,140.310179 48.0102863,136.933373 C48.4723055,136.970781 48.6099131,136.95999 48.9678354,136.703169 C50.070122,142.190659 58.8078469,139.867756 57.8303339,134.257251 C57.3847135,131.701266 56.4136176,129.092766 56.0250366,126.462684 C55.9893869,126.466281 55.9551633,126.46772 55.9202267,126.471317 C49.6722722,127.052582 43.9184215,126.718067 37.6369564,126.668429" id="Fill-41" fill="#D293A8"></path>
                    <g id="Group-45" transform="translate(0.712993, 0.267612)">
                        <mask id="mask-2" fill="white">
                            <use xlink:href="#path-1"></use>
                        </mask>
                        <g id="Clip-44"></g>
                        <path d="M112.201798,65.1130806 C110.917698,65.0684786 109.759798,64.5555551 108.878539,63.7462439 C108.121341,64.7713714 106.12211,64.7692133 105.739946,63.130448 C105.172404,60.6967592 106.263995,58.1170347 108.209752,56.7048765 C109.198673,55.3740092 110.792925,54.5344837 112.566137,54.5970704 C115.444489,54.6977847 117.696119,57.134351 117.594874,60.0385194 C117.495055,62.9419684 115.080149,65.2145143 112.201798,65.1130806 M40.0533597,41.5416214 C37.0345489,44.0839378 34.5333707,46.9902643 32.4999157,50.3864939 C31.0753564,52.7662286 27.4084353,50.5404429 28.8351335,48.15855 C31.0404198,44.4752847 33.7939974,41.2063867 37.0694855,38.4489735 C39.1742398,36.6771214 42.1702349,39.7589786 40.0533597,41.5416214 M75.6573602,23.6123204 L72.8153716,27.1883969 C72.8153716,27.1883969 67.6312021,25.515101 53.9381784,28.2624429 L57.9879766,24.6173051 C57.9879766,24.6173051 65.7431976,23.0008408 75.6573602,23.6123204 M99.6224688,13.6027592 C101.729362,11.8460143 104.751738,14.9055704 102.626307,16.6781418 C100.669142,18.3104327 99.3907462,20.4736316 99.2018032,23.0634276 C98.9993133,25.8244378 94.7199314,25.8560908 94.9231343,23.086448 C95.1940716,19.3880755 96.7655073,15.9868102 99.6224688,13.6027592 M90.6102419,19.6823051 C91.6462202,17.0263255 93.0871783,14.5811265 94.9259863,12.4100143 C96.1067021,11.0165602 98.4039644,12.6963306 97.2161187,14.0991367 C95.5220482,16.0990347 94.2072897,18.279499 93.2511666,20.7290143 C92.5816665,22.4440347 89.9393158,21.3994837 90.6102419,19.6823051 M114.752886,16.3659276 C116.859779,14.6091827 119.881442,17.6687388 117.756724,19.4413102 C115.799559,21.073601 114.521163,23.2375194 114.331507,25.8265959 C114.12973,28.5876061 109.850348,28.6192592 110.052838,25.8496163 C110.323775,22.1512439 111.895211,18.7499786 114.752886,16.3659276 M13.7125597,42.3789888 C14.9317771,42.3991316 16.2893151,42.9688867 16.9417033,43.7350347 C17.0101506,43.8163255 17.065764,43.8925806 17.1106826,43.9645194 C15.0479949,45.3068969 12.129716,45.4421418 10.0313787,44.1868102 C9.73833868,44.0112796 9.46098454,43.809851 9.20145522,43.5839633 C10.5860869,42.7983918 12.1461148,42.3538102 13.7125597,42.3789888 M145.392318,82.289902 C141.408116,82.289902 138.178259,74.3953408 138.178259,64.6577082 C138.178259,57.0573765 140.145406,50.5800092 142.904687,48.1024378 C143.477933,47.3981571 144.352062,46.9226418 145.529213,46.9226418 C145.90496,46.9226418 146.245771,46.9744378 146.559487,47.0622031 C146.242919,46.5751776 145.870023,46.1241214 145.44508,45.7291776 C144.188074,44.5565755 142.607369,43.9501316 141.004562,44.0199122 C139.335446,44.091851 137.621412,44.1055194 135.891691,44.0645143 C134.090672,39.7381163 131.809809,35.3743102 128.001002,31.8788051 C127.128299,31.0766878 126.204973,30.3256469 125.245285,29.6350347 C124.742626,24.0015092 125.69661,18.4212184 128.024531,13.4265092 C128.839481,11.6798357 128.646973,9.69072857 127.523297,8.23684592 C126.484467,6.8923102 124.842445,6.25421327 123.230368,6.57290204 C118.869705,7.43400918 114.702976,9.53174388 111.041046,12.652448 C111.513047,10.8316776 112.144759,9.06414184 112.926912,7.38724898 C113.741149,5.63913673 113.549354,3.65002959 112.424965,2.19542755 C111.384708,0.851611224 109.739834,0.213514286 108.132036,0.532922449 C98.7276631,2.39110102 90.2573105,10.1151673 85.9608169,20.7282949 C85.7668829,20.9951878 85.5658189,21.2879786 85.365468,21.5901214 C85.1123556,21.9735551 84.8599562,22.3771316 84.6239557,22.8102031 C81.6222566,22.0951316 78.5628052,21.6188969 75.485529,21.3728663 C74.6021311,21.3023663 73.7165943,21.2440959 72.8303444,21.2131622 C48.7789637,20.3678816 27.9417538,33.8103612 20.7640569,52.9367235 C19.7280786,55.6991724 18.9737323,58.5788816 18.5395198,61.5521112 C18.3890784,61.5528306 18.2372109,61.5506724 18.0860565,61.5492337 C14.0455272,61.5168612 9.73762568,60.7499939 6.99616898,57.8407898 C4.58767984,55.2848051 3.85828837,51.0864582 5.26145789,47.8578459 C5.43115014,47.4686571 5.63078808,47.0924173 5.85894572,46.7320041 C6.42007093,47.2621929 7.03894854,47.7348306 7.70987461,48.1355296 C11.9122532,50.6505092 17.5377652,50.0160092 21.0877555,46.6291316 L21.6688445,46.0744837 L21.7786454,45.2745245 C21.9982471,43.6616571 21.5069952,42.0531061 20.3947267,40.7459786 C18.9017201,38.9899531 16.3071399,37.8288612 13.7838589,37.7892949 C11.3867777,37.746851 9.02106808,38.4122847 6.94269453,39.5971163 C6.75517747,38.6432082 6.76302039,37.6605245 7.00329891,36.7389888 L2.60342133,35.5707031 C1.9767008,37.9713 2.21127537,40.5049837 3.13602683,42.7487541 C2.30396442,43.729999 1.60950959,44.8270653 1.09330291,46.0140551 C-1.04710099,50.9418612 0.0245269468,57.1055755 3.69857802,61.0039378 C7.40043581,64.9317949 12.6872762,66.0267031 17.552738,66.1317337 C17.7423941,66.13605 17.9320501,66.1418051 18.1202802,66.1432439 L18.1202802,66.1439633 C17.8942615,72.6551418 19.2111589,78.9051827 21.7615336,84.6358255 C22.3590214,85.9774837 23.0235305,87.2918051 23.751496,88.5730347 C26.0466193,92.1325653 28.9242576,95.4323969 32.278888,98.4092235 C33.0767268,104.141305 34.1041492,109.835259 35.379693,115.481014 C35.7205035,119.118958 36.253109,122.753305 36.924035,126.400601 C43.2047872,126.450958 48.9593508,126.785473 55.2065923,126.203489 C54.463654,121.087203 53.9709761,115.882433 54.2412003,110.799239 C61.731188,113.294076 69.9976246,114.683213 78.6932829,114.683213 C79.4790008,114.683213 80.2590147,114.665948 81.0376027,114.642928 C83.8767394,114.556601 86.6673926,114.324958 89.3974414,113.956632 C90.1403797,113.812754 90.889735,113.658805 91.658341,113.501979 C91.8166254,113.469606 91.9720578,113.448744 92.1239252,113.435795 C92.1217863,113.401264 92.1189343,113.366734 92.1167953,113.332922 C93.2290638,113.153076 94.3327764,112.945892 95.4300721,112.717846 L95.4307851,112.702019 C95.4357761,112.706336 95.443619,112.709933 95.4500359,112.71353 C95.5869305,112.685473 95.7259641,112.660295 95.8628586,112.631519 C95.8607197,112.690509 95.8607197,112.749499 95.8585807,112.808489 C95.8571547,112.855249 95.8571547,112.902729 95.8557287,112.948769 C95.8592937,112.950208 95.8614327,112.952366 95.8642846,112.953805 C95.8821094,112.962438 95.8992213,112.97179 95.9177591,112.979703 C96.0724785,113.049484 96.2421707,113.109193 96.4218449,113.162428 C96.4510776,113.17178 96.4803103,113.180412 96.510256,113.189045 C96.6906431,113.238683 96.8817251,113.281846 97.0813631,113.318535 C97.1162997,113.325009 97.1519493,113.330045 97.186886,113.336519 C97.3922279,113.370331 97.6032737,113.399106 97.8243014,113.421407 C97.8556731,113.424285 97.8877577,113.426443 97.9198424,113.42932 C98.150852,113.450902 98.3882786,113.467448 98.6328351,113.4768 C98.642817,113.4768 98.6535118,113.4768 98.6649197,113.4768 C98.9109022,113.486152 99.1633016,113.489749 99.4185529,113.48831 L99.4855743,113.48831 C99.7358347,113.486152 99.98966,113.478239 100.244198,113.468887 C100.2827,113.466729 100.321915,113.46529 100.361129,113.463851 C100.608538,113.452341 100.857372,113.437953 101.104781,113.419249 C103.869053,113.222856 106.500709,112.670366 106.500709,112.670366 C110.437141,112.05529 112.936893,110.835208 114.382129,109.874826 C114.657345,109.569805 114.93256,109.252555 115.206349,108.923795 C115.288343,107.673499 115.436646,106.433274 115.648404,105.205999 C115.655534,105.167152 115.659812,105.126147 115.666229,105.086581 C116.09759,104.837672 116.532515,104.591642 116.954607,104.334101 C121.966945,101.273106 126.372527,97.5718561 130.001659,93.4346571 C130.838713,92.480749 131.63156,91.503101 132.385194,90.5060296 C132.286801,90.4657439 132.188408,90.4290551 132.087163,90.3700653 C128.007419,87.9867337 123.615384,86.8867898 118.902503,87.2738204 C116.158194,87.4982694 115.617746,83.2164735 118.362767,82.9913051 C123.781511,82.5460041 129.044823,83.6430704 133.761982,86.3983255 C134.60474,86.8903867 134.927012,87.7155245 134.894928,88.5090092 L139.905127,87.9320602 C140.136137,87.9054429 140.367146,87.8622796 140.605286,87.8025704 C144.434769,87.4802847 146.833277,84.456698 148.339117,80.751851 C147.43932,81.7374122 146.441844,82.289902 145.392318,82.289902" id="Fill-43" fill="#F7CEDB" mask="url(#mask-2)"></path>
                    </g>
                    <path d="M58.700898,24.8849173 L54.6510998,28.5300551 C68.3441234,25.7827133 73.5282929,27.4560092 73.5282929,27.4560092 L76.3702816,23.8799327 C66.4561189,23.2684531 58.700898,24.8849173 58.700898,24.8849173" id="Fill-46" fill="#383838"></path>
                    <path d="M93.9640879,20.9964107 C94.9202111,18.5476148 96.2356825,16.3664311 97.929753,14.3665332 C99.1175988,12.963727 96.8196235,11.2839566 95.6389077,12.6781301 C93.8008126,14.848523 92.3591415,17.2944413 91.3231632,19.9497015 C90.6522371,21.6675995 93.2953009,22.7114311 93.9640879,20.9964107" id="Fill-48" fill="#F7CEDB"></path>
                    <path d="M93.9640879,20.9964107 C94.9202111,18.5476148 96.2356825,16.3664311 97.929753,14.3665332 C99.1175988,12.963727 96.8196235,11.2839566 95.6389077,12.6781301 C93.8008126,14.848523 92.3591415,17.2944413 91.3231632,19.9497015 C90.6522371,21.6675995 93.2953009,22.7114311 93.9640879,20.9964107" id="Fill-50" fill="#FFFFFF"></path>
                    <path d="M37.7824782,38.716298 C34.50699,41.4737112 31.7534124,44.7426092 29.5481262,48.4258745 C28.1214279,50.8084867 31.7883491,53.0335531 33.2129084,50.6545378 C35.2463634,47.2575888 37.7475415,44.3512622 40.7663524,41.8096653 C42.8832275,40.0263031 39.8872325,36.9444459 37.7824782,38.716298" id="Fill-52" fill="#F7CEDB"></path>
                    <path d="M37.7824782,38.716298 C34.50699,41.4737112 31.7534124,44.7426092 29.5481262,48.4258745 C28.1214279,50.8084867 31.7883491,53.0335531 33.2129084,50.6545378 C35.2463634,47.2575888 37.7475415,44.3512622 40.7663524,41.8096653 C42.8832275,40.0263031 39.8872325,36.9444459 37.7824782,38.716298" id="Fill-54" fill="#FFFFFF"></path>
                    <path d="M134.475189,86.6658658 C129.75803,83.9106107 124.494718,82.8142638 119.075261,83.2588454 C116.330952,83.4840138 116.871401,87.7658097 119.615709,87.5413607 C124.328591,87.1543301 128.720625,88.254274 132.799656,90.6376056 C132.901614,90.6973148 133.000007,90.7332842 133.097687,90.7735699 C134.483032,91.3397281 135.553234,90.1088556 135.608134,88.7772689 C135.640219,87.9830648 135.317946,87.1586464 134.475189,86.6658658" id="Fill-56" fill="#383838"></path>
                    <path d="M113.278987,54.8645388 C111.506488,54.801952 109.911523,55.6414776 108.923315,56.9730643 C106.976845,58.3852224 105.885254,60.9642276 106.452796,63.3979163 C106.83496,65.037401 108.834904,65.0395592 109.591389,64.0137122 C110.472648,64.8230235 111.630548,65.3359469 112.914648,65.380549 C115.792999,65.4819827 118.207905,63.2101561 118.308437,60.3059878 C118.408969,57.4018194 116.157339,54.9659724 113.278987,54.8645388" id="Fill-58" fill="#383838"></path>
                    <path d="M115.044714,26.0939923 C115.23437,23.5049158 116.512765,21.3417168 118.46993,19.7087066 C120.594648,17.9361352 117.572985,14.8765791 115.466092,16.6340434 C112.608418,19.017375 111.036982,22.4193597 110.766045,26.1170128 C110.563555,28.8866556 114.842937,28.8550026 115.044714,26.0939923" id="Fill-60" fill="#D293A8"></path>
                    <path d="M99.9145106,23.3308959 C100.104167,20.7411 101.382562,18.5786204 103.339727,16.9456102 C105.464445,15.1730388 102.442783,12.1134827 100.335889,13.8709469 C97.4782148,16.2542786 95.906779,19.6562633 95.6358418,23.3539163 C95.4333519,26.1235592 99.7127337,26.0919061 99.9145106,23.3308959" id="Fill-62" fill="#D293A8"></path>
                    <path d="M149.530884,55.0591332 C148.858532,55.0353934 148.170494,59.1395005 147.995098,64.2262913 C147.818989,69.3130821 148.221117,73.4560362 148.892756,73.479776 C149.565821,73.5042352 150.253859,69.3994087 150.429968,64.3118985 C150.606077,59.2251077 150.203236,55.0821536 149.530884,55.0591332" id="Fill-64" fill="#383838"></path>
                    <g id="Group-68" transform="translate(138.320572, 47.027816)">
                        <mask id="mask-4" fill="white">
                            <use xlink:href="#path-3"></use>
                        </mask>
                        <g id="Clip-67"></g>
                        <path d="M10.5725401,26.4523194 C9.900901,26.4285796 9.49806016,22.2856255 9.67416934,17.1988347 C9.84956553,12.1113245 10.5376034,8.00721735 11.2106685,8.03167653 C11.8830205,8.05469694 12.2851484,12.197651 12.1090392,17.2844418 C11.93293,22.3712327 11.2448921,26.4760592 10.5725401,26.4523194 M5.29710752,1.34280918 C2.537826,3.81966122 0.570679309,10.2970286 0.570679309,17.8973602 C0.570679309,27.6357122 3.80053597,35.5295541 7.78473884,35.5295541 C8.83426401,35.5295541 9.83174071,34.9777837 10.7315374,33.9915031 C13.2462625,31.2369673 14.9995114,25.0696561 14.9995114,17.8973602 C14.9995114,11.0308041 13.391713,5.0843449 11.0473932,2.17298265 C10.676637,1.30180408 9.97719121,0.589610204 8.95190779,0.301855102 C8.63819103,0.214089796 8.29738055,0.162293878 7.92163343,0.162293878 C6.74448258,0.162293878 5.8703536,0.637809184 5.29710752,1.34280918" id="Fill-66" fill="#D293A8" mask="url(#mask-4)"></path>
                    </g>
                    <path d="M118.028303,120.524138 L118.106732,120.567302 C118.009052,120.367312 117.902816,120.051501 117.795154,119.674541 C117.790163,119.681016 117.785885,119.68749 117.780894,119.693965 C117.860036,119.990353 117.943456,120.265159 118.028303,120.524138" id="Fill-69" fill="#CEC9C0"></path>
                    <path d="M117.609847,118.970117 C117.54853,118.718331 117.487925,118.453596 117.428034,118.181668 C117.482221,118.445683 117.539261,118.706821 117.599152,118.962923 L117.609847,118.970117 Z" id="Fill-71" fill="#CEC9C0"></path>
                    <path d="M96.669182,124.084532 C96.6292544,124.077338 96.5928918,124.070864 96.5608071,124.065109 C96.6841549,124.584507 96.8174845,125.103905 96.9565181,125.615389 C96.8730979,125.203899 96.773279,124.683063 96.669182,124.084532" id="Fill-73" fill="#D293A8"></path>
                    <path d="M96.669182,124.084532 C96.6292544,124.077338 96.5928918,124.070864 96.5608071,124.065109 C96.6841549,124.584507 96.8174845,125.103905 96.9565181,125.615389 C96.8730979,125.203899 96.773279,124.683063 96.669182,124.084532" id="Fill-75" fill="#CEC9C0"></path>
                    <path d="M97.2289525,126.589728 C97.2653152,126.71706 97.3031038,126.840075 97.3387534,126.964529 C97.3066687,126.840794 97.2745841,126.71634 97.2439254,126.590447 C97.2389344,126.589728 97.2339435,126.590447 97.2289525,126.589728" id="Fill-77" fill="#D293A8"></path>
                    <path d="M97.2289525,126.589728 C97.2653152,126.71706 97.3031038,126.840075 97.3387534,126.964529 C97.3066687,126.840794 97.2745841,126.71634 97.2439254,126.590447 C97.2389344,126.589728 97.2339435,126.590447 97.2289525,126.589728" id="Fill-79" fill="#CEC9C0"></path>
                    <path d="M116.71718,113.892318 C116.709337,113.733334 116.702208,113.572191 116.697217,113.407451 C116.697217,113.618232 116.698643,113.741247 116.698643,113.741247 C116.698643,113.741247 116.705772,113.803834 116.71718,113.892318" id="Fill-81" fill="#CEC9C0"></path>
                    <path d="M117.062554,116.200114 C117.060415,116.196517 117.058989,116.190043 117.057563,116.185727 C117.058276,116.192201 117.058989,116.197956 117.060415,116.203711 L117.062554,116.200114 Z" id="Fill-83" fill="#CEC9C0"></path>
                    <path d="M97.1649258,126.589728 C97.1863156,126.590447 97.2077054,126.589009 97.2290951,126.589728 C97.1371191,126.271039 97.045856,125.945157 96.956732,125.615677 C97.0793667,126.218524 97.1649258,126.589728 97.1649258,126.589728" id="Fill-85" fill="#D293A8"></path>
                    <path d="M97.1649258,126.589728 C97.1863156,126.590447 97.2077054,126.589009 97.2290951,126.589728 C97.1371191,126.271039 97.045856,125.945157 96.956732,125.615677 C97.0793667,126.218524 97.1649258,126.589728 97.1649258,126.589728" id="Fill-87" fill="#CEC9C0"></path>
                    <path d="M96.5466186,123.34903 L96.5508965,123.331765 C96.5259418,123.190045 96.502413,123.049045 96.4788843,122.907326 C96.5017001,123.056239 96.5238028,123.205153 96.5466186,123.34903" id="Fill-89" fill="#D293A8"></path>
                    <path d="M96.5466186,123.34903 L96.5508965,123.331765 C96.5259418,123.190045 96.502413,123.049045 96.4788843,122.907326 C96.5017001,123.056239 96.5238028,123.205153 96.5466186,123.34903" id="Fill-91" fill="#CEC9C0"></path>
                    <path d="M97.2289525,126.589728 C97.2339435,126.590447 97.2389344,126.589728 97.2439254,126.590447 C97.0421485,125.781136 96.8553444,124.941611 96.6899301,124.088417 L96.6692533,124.08482 C96.7726373,124.683351 96.8731692,125.203468 96.9565894,125.615677 C97.0457134,125.945157 97.1369765,126.271039 97.2289525,126.589728" id="Fill-93" fill="#D293A8"></path>
                    <path d="M97.2289525,126.589728 C97.2339435,126.590447 97.2389344,126.589728 97.2439254,126.590447 C97.0421485,125.781136 96.8553444,124.941611 96.6899301,124.088417 L96.6692533,124.08482 C96.7726373,124.683351 96.8731692,125.203468 96.9565894,125.615677 C97.0457134,125.945157 97.1369765,126.271039 97.2289525,126.589728" id="Fill-95" fill="#CEC9C0"></path>
                    <path d="M97.2289525,126.589728 C97.2339435,126.590447 97.2389344,126.589728 97.2439254,126.590447 C97.0421485,125.781136 96.8553444,124.941611 96.6899301,124.088417 L96.6692533,124.08482 C96.7726373,124.683351 96.8731692,125.203468 96.9565894,125.615677 C97.0457134,125.945157 97.1369765,126.271039 97.2289525,126.589728" id="Fill-97" fill="#CEC9C0"></path>
                    <path d="M104.909666,137.465576 C104.866173,137.482841 104.820542,137.499387 104.776336,137.516653 C104.820542,137.499387 104.866173,137.482841 104.909666,137.465576" id="Fill-99" fill="#D3425A"></path>
                    <path d="M105.624013,137.129766 C105.578382,137.153506 105.534176,137.177965 105.487831,137.201705 C105.534176,137.177965 105.578382,137.153506 105.624013,137.129766" id="Fill-101" fill="#D3425A"></path>
                    <path d="M104.274675,137.702327 C104.202662,137.726786 104.129224,137.749806 104.055073,137.772827 C104.129224,137.749806 104.202662,137.726786 104.274675,137.702327" id="Fill-103" fill="#D3425A"></path>
                    <path d="M106.185923,136.813667 C106.132448,136.846759 106.078261,136.879851 106.022647,136.912223 C106.078261,136.879851 106.132448,136.846759 106.185923,136.813667" id="Fill-105" fill="#D3425A"></path>
                    <path d="M106.662202,136.503827 C106.619422,136.533321 106.575217,136.562097 106.531724,136.591592 C106.575217,136.562097 106.619422,136.533321 106.662202,136.503827" id="Fill-107" fill="#D3425A"></path>
                    <path d="M103.556049,137.915913 C103.482611,137.935336 103.410599,137.955479 103.335022,137.973464 C103.410599,137.955479 103.481898,137.935336 103.556049,137.915913" id="Fill-109" fill="#D3425A"></path>
                    <path d="M100.956835,113.736355 C100.996049,113.734197 101.034551,113.732758 101.073765,113.731319 C101.034551,113.732758 100.996049,113.734197 100.956835,113.736355" id="Fill-111" fill="#D3425A"></path>
                    <path d="M101.873886,113.909152 C101.873886,113.909152 101.909535,115.06305 102.367277,117.854274 C105.956482,117.09604 110.626583,115.088948 115.094908,110.142438 C113.650385,111.10282 111.150633,112.322902 107.213488,112.937979 C107.213488,112.937979 104.582545,113.490468 101.817559,113.686861 C101.83681,113.685422 101.857487,113.685422 101.876738,113.684703 L101.873886,113.909152 Z" id="Fill-113" fill="#D3425A"></path>
                    <path d="M97.1349801,113.43004 C97.1642128,113.439392 97.1934455,113.448024 97.2233912,113.456657 C97.1934455,113.448024 97.1642128,113.439392 97.1349801,113.43004" id="Fill-115" fill="#D3425A"></path>
                    <path d="M98.537294,113.689235 C98.5686657,113.692113 98.6007504,113.694271 98.6328351,113.697148 C98.6007504,113.694271 98.5686657,113.692113 98.537294,113.689235" id="Fill-117" fill="#D3425A"></path>
                    <path d="M97.7943557,113.586003 C97.8292923,113.592478 97.864942,113.598233 97.8998786,113.603988 C97.864942,113.598233 97.8292923,113.592478 97.7943557,113.586003" id="Fill-119" fill="#D3425A"></path>
                    <path d="M99.3456851,113.744053 C99.35638,113.744772 99.3663619,113.744772 99.3777698,113.744772 C99.3663619,113.744772 99.35638,113.744772 99.3456851,113.744053" id="Fill-121" fill="#D3425A"></path>
                    <path d="M96.5772773,113.221345 C96.5951021,113.229978 96.6122139,113.23933 96.6307517,113.247243 C96.6122139,113.23933 96.5951021,113.229978 96.5772773,113.221345" id="Fill-123" fill="#D3425A"></path>
                    <path d="M100.198638,113.755994 L100.131617,113.755994 C100.154433,113.755275 100.176535,113.755994 100.198638,113.755994" id="Fill-125" fill="#D3425A"></path>
                    <path d="M105.306517,131.265748 C105.670857,132.683662 106.071559,134.198692 106.515753,135.825228 L106.716817,136.464044 C108.114995,135.467692 108.874333,134.336815 109.389113,133.76634 C109.457561,133.689366 109.523869,133.620305 109.584473,133.565631 C109.813344,133.362044 110.047919,133.290106 110.270372,133.285789 C110.871425,133.27284 111.375511,133.783606 111.375511,133.783606 C113.066729,135.238208 114.757948,134.87132 114.757948,134.87132 C120.578107,135.674157 121.025866,130.152856 121.025866,130.152856 C122.12031,127.041504 118.489038,121.620917 118.489038,121.620917 C118.398488,121.469845 118.312216,121.277049 118.22737,121.067708 C117.302619,122.59209 113.031793,128.985289 105.306517,131.265748" id="Fill-127" fill="#D3425A"></path>
                    <path d="M117.793657,120.395584 L118.028231,120.524354 C117.943385,120.264655 117.859965,119.990568 117.780823,119.693461 C116.641461,121.263885 112.167432,126.824752 104.730919,128.97788 C104.856405,129.489364 104.989735,130.020992 105.127342,130.562691 C113.572027,128.057783 117.743747,120.489104 117.793657,120.395584" id="Fill-129" fill="#D3425A"></path>
                    <g id="Group-133" transform="translate(0.000000, 139.109449)">
                        <mask id="mask-6" fill="white">
                            <use xlink:href="#path-5"></use>
                        </mask>
                        <g id="Clip-132"></g>
                        <path d="" id="Fill-131" fill="#D3425A" mask="url(#mask-6)"></path>
                    </g>
                    <path d="M103.498297,123.685488 C103.794902,125.048728 104.145694,126.577427 104.559943,128.278779 C112.925486,125.847248 117.420904,118.968462 117.475805,118.882855 L117.599152,118.963427 C117.539261,118.706605 117.482221,118.445467 117.428034,118.182171 C117.287574,117.506666 117.163514,116.826845 117.06013,116.203855 C117.059417,116.1981 117.058704,116.192345 117.057991,116.18587 C116.950329,115.539141 116.86477,114.966508 116.804165,114.534156 C112.028541,120.47486 107.019054,122.797763 103.498297,123.685488" id="Fill-134" fill="#D3425A"></path>
                    <path d="M102.876496,118.506471 C102.743166,118.536686 102.621245,118.55539 102.490767,118.582007 C102.697535,119.775471 102.974176,121.225038 103.34208,122.957323 C107.07531,122.012048 111.854499,119.626558 116.385568,113.917497 L116.761315,114.220359 C116.741351,114.080798 116.727804,113.971451 116.717109,113.892318 C116.705701,113.803834 116.698571,113.741247 116.698571,113.741247 C116.698571,113.741247 116.697145,113.618232 116.697145,113.407451 C116.695006,112.744176 116.69358,111.155767 116.716396,109.350823 C111.773931,115.413104 106.478535,117.682053 102.876496,118.506471" id="Fill-136" fill="#D3425A"></path>
                    <path d="M96.0592168,118.513521 L96.1462019,118.107787 C96.1982504,118.117858 98.7250963,118.624307 102.367776,117.854562 C101.909321,115.063338 101.873672,113.90944 101.873672,113.90944 L101.876524,113.684271 C101.857273,113.68571 101.837309,113.68571 101.817345,113.687149 C101.569937,113.705134 101.321815,113.720241 101.073694,113.731751 C101.035192,113.73247 100.995978,113.733909 100.956763,113.736067 C100.702938,113.746139 100.4484,113.754052 100.198852,113.75621 C100.176036,113.75621 100.154647,113.755491 100.131831,113.75621 C99.8765794,113.757649 99.62418,113.754052 99.3774846,113.7447 C99.3667897,113.7447 99.3560948,113.7447 99.3453999,113.743981 C99.1015564,113.734629 98.8641299,113.718802 98.6324073,113.69722 C98.6003226,113.694343 98.5689509,113.692185 98.5375792,113.689307 C98.3165515,113.667006 98.1047927,113.638231 97.9001638,113.604419 C97.8645142,113.597945 97.8288646,113.59219 97.7946409,113.585715 C97.59429,113.549746 97.4039209,113.506583 97.2235338,113.456945 C97.1935881,113.448312 97.1643554,113.43896 97.1351227,113.430328 C96.9554486,113.376373 96.7857563,113.316664 96.6310369,113.247603 C96.6117861,113.23969 96.5953873,113.229618 96.5775625,113.221705 C96.5747105,113.220266 96.5725715,113.218108 96.5690066,113.216669 C96.4207041,113.146169 96.2823835,113.069195 96.1633137,112.98143 C96.1568968,112.977833 96.1490539,112.974236 96.14335,112.969919 L96.142637,112.985027 L96.0542259,118.007072 C96.0535129,118.17469 96.0563649,118.344465 96.0592168,118.513521" id="Fill-138" fill="#9B344A"></path>
                    <path d="M96.4790982,122.90711 C96.501914,123.04883 96.5254427,123.190549 96.5511104,123.331549 L96.5518234,123.328671 C96.6045849,123.34162 99.3852562,123.958136 103.342365,122.956748 C102.973748,121.225182 102.69782,119.774896 102.491052,118.582151 C100.921042,118.910192 99.5485315,119.018819 98.4811815,119.018819 C97.171414,119.018819 96.3108319,118.872064 96.0655625,118.824585 C96.0691274,118.942564 96.0748314,119.061263 96.0791093,119.180682 C96.1332968,120.409396 96.2766083,121.665447 96.4790982,122.90711" id="Fill-140" fill="#9B344A"></path>
                    <path d="M106.515967,135.825156 C106.071772,134.19862 105.670358,132.68359 105.306731,131.265677 C103.586993,131.773564 101.698989,132.081462 99.6348749,132.081462 C99.3896054,132.081462 99.14291,132.077146 98.8940756,132.067794 L98.9190303,131.349126 C101.198468,131.424661 103.265433,131.114605 105.12777,130.562835 C104.98945,130.021136 104.856833,129.488789 104.730633,128.977304 C102.883982,129.511809 100.859796,129.840569 98.655223,129.840569 C98.4890957,129.840569 98.3201165,129.835534 98.1518502,129.831217 C98.3614701,130.5096 98.5689509,131.136187 98.7650239,131.705222 C99.4195511,133.608003 99.9350448,134.820891 99.9350448,134.820891 C100.978866,138.584728 102.570979,138.132952 102.570979,138.132952 C102.836925,138.087631 103.089324,138.032238 103.335307,137.973248 C103.410884,137.955263 103.482896,137.93584 103.556334,137.915697 C103.727453,137.871095 103.89358,137.823615 104.055429,137.772539 C104.128868,137.750238 104.203019,137.727217 104.274318,137.702039 C104.447575,137.643768 104.614416,137.581182 104.776978,137.517156 C104.82047,137.499171 104.866815,137.483345 104.909594,137.46536 C105.110658,137.381192 105.303166,137.293427 105.487831,137.201345 C105.534176,137.178324 105.578382,137.153865 105.624013,137.129406 C105.760908,137.058906 105.894237,136.986248 106.022576,136.912151 C106.078189,136.879779 106.132377,136.846687 106.185851,136.813595 C106.305634,136.740937 106.420426,136.66684 106.531653,136.591304 C106.575145,136.561809 106.620064,136.533034 106.66213,136.503539 C106.679955,136.491309 106.699919,136.47908 106.717031,136.46685 L106.716318,136.463972 L106.515967,135.825156 Z" id="Fill-142" fill="#9B344A"></path>
                    <path d="M97.3389673,126.964889 C97.5307623,127.710894 97.7304003,128.428843 97.9321772,129.107945 C100.356352,129.186358 102.567342,128.857598 104.560157,128.278491 C104.145908,126.577139 103.795116,125.04844 103.498511,123.6852 C103.34593,123.724047 103.191211,123.764333 103.044334,123.797424 C101.44937,124.159277 100.059747,124.267185 98.9688685,124.267185 C97.8765638,124.267185 97.0922719,124.159996 96.690144,124.088777 C96.8548453,124.941251 97.0423624,125.780777 97.2441393,126.590088 C97.274798,126.715981 97.3068826,126.840435 97.3389673,126.964889" id="Fill-144" fill="#9B344A"></path>
                    <path d="M117.793657,120.395584 C117.743747,120.489104 113.572027,128.057783 105.127342,130.562691 C103.265719,131.114461 101.198753,131.424517 98.9186025,131.349701 L98.8936478,132.068369 C99.1431952,132.077002 99.3898906,132.081318 99.6344471,132.081318 C101.699274,132.081318 103.586565,131.77342 105.306304,131.265533 C113.031579,128.985073 117.303118,122.592594 118.227156,121.068211 C118.348365,120.867502 118.41396,120.748803 118.420377,120.738012 L118.10666,120.566798 L118.028231,120.524354 L117.793657,120.395584 Z" id="Fill-146" fill="#4A4A4A"></path>
                    <path d="M116.385781,113.917569 C111.854713,119.62663 107.074811,122.01212 103.342294,122.956676 C99.3851849,123.958064 96.6045136,123.341548 96.5517521,123.328599 L96.5510391,123.331477 L96.5467612,123.348742 L96.3856249,124.028564 C96.4005977,124.032161 96.464767,124.046548 96.560308,124.064533 C96.5923927,124.071008 96.6294683,124.077482 96.6693959,124.084676 L96.6900727,124.088992 C97.0922006,124.159492 97.8764925,124.267401 98.9687972,124.267401 C100.060389,124.267401 101.449299,124.158773 103.044263,123.796921 C103.19114,123.764548 103.345859,123.724263 103.498439,123.685416 C107.019197,122.797691 112.028683,120.474788 116.804308,114.534084 C116.84994,114.476533 116.896997,114.425457 116.942629,114.367186 L116.760816,114.220431 L116.385781,113.917569 Z" id="Fill-148" fill="#4A4A4A"></path>
                    <path d="M117.475448,118.883071 C117.421261,118.968678 112.925129,125.847464 104.560299,128.278994 C102.567485,128.857382 100.356495,129.186142 97.9323198,129.107729 C97.9180599,129.107729 97.9045131,129.108448 97.8902532,129.107729 L97.8652985,129.826397 C97.9615525,129.829994 98.0563805,129.829275 98.1512085,129.831433 C98.3201878,129.835749 98.489167,129.840066 98.6552943,129.840066 C100.859868,129.840066 102.884054,129.511306 104.730705,128.97752 C112.167931,126.824392 116.641247,121.264244 117.781322,119.693821 C117.786313,119.687346 117.789878,119.680872 117.794869,119.675117 C117.970978,119.431964 118.067945,119.284489 118.075788,119.27226 L117.609491,118.970117 L117.599509,118.962923 L117.475448,118.883071 Z" id="Fill-150" fill="#4A4A4A"></path>
                    <path d="M102.367491,117.854562 C98.7255241,118.624307 96.1986782,118.117858 96.1459167,118.107787 L96.0589316,118.513521 L95.9954753,118.810629 C96.0040312,118.812067 96.0282729,118.817103 96.0653486,118.825016 C96.310618,118.871777 97.1712001,119.018532 98.4809676,119.018532 C99.5483176,119.018532 100.921541,118.910623 102.490838,118.582583 C102.620603,118.555965 102.743238,118.536542 102.876567,118.506328 C106.478606,117.681909 111.773289,115.41296 116.716467,109.351399 C116.812008,109.234139 116.908262,109.125511 117.002377,109.006093 L116.72431,108.781644 L116.44553,108.556476 C116.270847,108.776608 116.095451,108.981634 115.919342,109.191695 C115.645552,109.520455 115.370337,109.836986 115.095122,110.142006 C110.626797,115.088516 105.955982,117.095608 102.367491,117.854562" id="Fill-152" fill="#4A4A4A"></path>
                </g>
            </g>
        </g>
    </g>
</svg>