<?xml version="1.0" encoding="UTF-8"?>
<svg width="151px" height="161px" viewBox="0 0 151 161" version="1.1" xmlns="http://www.w3.org/2000/svg" xmlns:xlink="http://www.w3.org/1999/xlink">
    <!-- Generator: Sketch 53.2 (72643) - https://sketchapp.com -->
    <title>pig final</title>
    <desc>Created with Sketch.</desc>
    <defs>
        <polygon id="path-1" points="0 0.352027173 135.6855 0.352027173 135.6855 101.0312 0 101.0312"></polygon>
        <polygon id="path-3" points="0.330906624 0.432362903 81.4102174 0.432362903 81.4102174 69.3342224 0.330906624 69.3342224"></polygon>
    </defs>
    <g id="Page-1" stroke="none" stroke-width="1" fill="none" fill-rule="evenodd">
        <g id="D1-mobile" transform="translate(-107.000000, -135.000000)">
            <g id="pig-final" transform="translate(107.000000, 135.000000)">
                <g id="Group-89">
                    <path d="M23.0388261,148.230233 C22.6951304,146.802656 22.3703478,145.379624 22.0644783,143.960487 C22.3703478,145.379624 22.6951304,146.802007 23.0388261,148.230233" id="Fill-1" fill="#E7B7C8"></path>
                    <path d="M32.4418043,139.6551 C32.4163696,139.405161 32.3857174,139.155221 32.361587,138.905931 C31.1955,133.811709 30.2557174,128.673342 29.5252826,123.500568 C26.4568043,120.814205 23.8246304,117.836354 21.7252826,114.624145 C21.0620217,113.471826 20.4555,112.290943 19.9109348,111.084092 C19.8372391,113.741242 19.6546304,116.711951 19.0546304,119.408052 C19.1818043,119.358064 19.3102826,119.310673 19.4374565,119.258088 C19.191587,127.46 20.2591957,135.537915 22.0174565,143.739826 C21.7141957,142.321987 21.4291957,140.907395 21.1702826,139.495399 C24.9326739,139.544088 28.6898478,139.703141 32.4418043,139.6551" id="Fill-3" fill="#E7B7C8"></path>
                    <path d="M76.0814348,148.37799 L76.0377391,148.185828 C76.1146957,148.524058 76.191,148.862288 76.2705652,149.201167 C76.2607826,149.158969 76.2516522,149.116772 76.2418696,149.073925 C76.187087,148.842163 76.134913,148.609752 76.0814348,148.37799" id="Fill-5" fill="#E7B7C8"></path>
                    <path d="M75.4419783,145.474991 L75.4432826,145.474991 C75.4204565,145.365926 75.3956739,145.256862 75.3735,145.147148 C75.4537174,145.534067 75.5371957,145.920987 75.6206739,146.307906 C75.5750217,146.094971 75.5300217,145.882684 75.4843696,145.669749 C75.4713261,145.604829 75.4556739,145.53991 75.4419783,145.474991" id="Fill-7" fill="#E7B7C8"></path>
                    <path d="M87.7867826,141.789714 C87.780913,141.71246 87.7717826,141.635855 87.765913,141.558601 C88.0052609,140.836698 87.9543913,140.012222 87.6641739,139.264351 C87.6439565,138.343794 87.6504783,137.420641 87.6817826,136.494891 C85.7526522,136.918165 83.7804783,137.264185 81.7711304,137.531004 C79.2746087,137.862742 76.7226522,138.072431 74.1250435,138.150335 C74.3448261,139.627899 74.5887391,141.106113 74.865913,142.586923 C74.8600435,142.553165 74.8528696,142.520056 74.8463478,142.486298 C79.0163478,143.733399 83.7113478,143.435419 87.7867826,141.789714" id="Fill-9" fill="#E7B7C8"></path>
                    <path d="M76.9577609,152.037299 C76.9603696,152.047686 76.9629783,152.056775 76.965587,152.066512 C76.9629783,152.058722 76.9616739,152.050932 76.9590652,152.043142 C76.9590652,152.041194 76.958413,152.039246 76.9577609,152.037299" id="Fill-11" fill="#E7B7C8"></path>
                    <path d="M76.9590652,152.043012 C76.9616739,152.050802 76.9629783,152.058592 76.965587,152.066383 C76.965587,152.067681 76.9662391,152.06833 76.9662391,152.069629 C76.9662391,152.06833 76.965587,152.067681 76.965587,152.066383 C76.9629783,152.058592 76.9616739,152.050802 76.9590652,152.043012" id="Fill-13" fill="#F7CEDB"></path>
                    <path d="M77.9844783,153.873283 C77.9557826,153.846666 77.9303478,153.814206 77.9029565,153.786291 C77.931,153.814206 77.9557826,153.846666 77.9844783,153.873283" id="Fill-15" fill="#F7CEDB"></path>
                    <path d="M78.5595652,154.28669 C78.5113043,154.259423 78.4617391,154.236052 78.4147826,154.20619 C78.4617391,154.236052 78.5113043,154.259423 78.5595652,154.28669" id="Fill-17" fill="#F7CEDB"></path>
                    <path d="M76.0814348,148.37799 C76.134913,148.609752 76.187087,148.842163 76.2418696,149.073925 C76.187087,148.842163 76.134913,148.609752 76.0814348,148.37799" id="Fill-19" fill="#F7CEDB"></path>
                    <path d="M75.4846304,145.669619 C75.4709348,145.6047 75.456587,145.53978 75.4435435,145.474861 L75.4422391,145.474861 C75.4552826,145.53978 75.4709348,145.6047 75.4846304,145.669619" id="Fill-21" fill="#F7CEDB"></path>
                    <path d="M77.2736739,152.891897 C77.2449783,152.83347 77.2149783,152.77699 77.1882391,152.715966 C77.2149783,152.77699 77.2449783,152.83347 77.2736739,152.891897" id="Fill-23" fill="#F7CEDB"></path>
                    <path d="M79.946087,154.707627 C80.1084783,154.72126 80.2708696,154.725155 80.4358696,154.719312 C80.2715217,154.725155 80.1084783,154.72126 79.946087,154.707627" id="Fill-25" fill="#F7CEDB"></path>
                    <path d="M77.6023043,153.439687 C77.5644783,153.3884 77.5292609,153.334517 77.4933913,153.279985 C77.529913,153.334517 77.5644783,153.3884 77.6023043,153.439687" id="Fill-27" fill="#F7CEDB"></path>
                    <path d="M79.6244348,154.670817 C79.5474783,154.657184 79.4737826,154.635761 79.3981304,154.618233 C79.4737826,154.63641 79.5474783,154.657184 79.6244348,154.670817" id="Fill-29" fill="#F7CEDB"></path>
                    <path d="M80.9848043,154.66452 C80.8641522,154.684645 80.7435,154.702173 80.6221957,154.711911 C80.7435,154.702173 80.8635,154.684645 80.9848043,154.66452" id="Fill-31" fill="#F7CEDB"></path>
                    <path d="M81.5191957,154.542147 C81.3887609,154.581748 81.2563696,154.611611 81.1233261,154.638228 C81.2570217,154.611611 81.3881087,154.581748 81.5191957,154.542147" id="Fill-33" fill="#F7CEDB"></path>
                    <path d="M82.8184565,153.918337 C82.422587,154.192946 81.9823696,154.402635 81.5258478,154.540265 C81.9843261,154.403285 82.4212826,154.192946 82.8184565,153.918337" id="Fill-35" fill="#F7CEDB"></path>
                    <path d="M83.2069565,153.616527 C83.0856522,153.721696 82.9597826,153.820374 82.8280435,153.91191 C82.9597826,153.819725 83.0856522,153.722346 83.2069565,153.616527" id="Fill-37" fill="#F7CEDB"></path>
                    <path d="M79.092,154.529488 C79.0241739,154.506117 78.9563478,154.480149 78.8898261,154.452234 C78.957,154.480798 79.0241739,154.506117 79.092,154.529488" id="Fill-39" fill="#F7CEDB"></path>
                    <path d="M87.7867826,141.789714 C83.7113478,143.435419 79.0163478,143.733399 74.8463478,142.486298 C74.8528696,142.520056 74.8600435,142.553165 74.865913,142.586923 C75.0263478,143.439315 75.195913,144.293004 75.3733043,145.147343 C75.3954783,145.257056 75.4202609,145.366121 75.443087,145.475185 C75.4567826,145.539456 75.4711304,145.605024 75.4848261,145.669944 C75.5298261,145.882879 75.5748261,146.095165 75.6211304,146.308101 C75.7554783,146.933274 75.8943913,147.559746 76.0372174,148.186218 L76.0815652,148.37773 C76.1350435,148.610141 76.1872174,148.841903 76.242,149.074315 C76.2517826,149.116512 76.260913,149.159359 76.2706957,149.200907 C76.4924348,150.144835 76.7193913,151.09006 76.958087,152.037234 C76.958087,152.039181 76.9587391,152.041129 76.9587391,152.043077 C76.9613478,152.050867 76.9626522,152.058657 76.9652609,152.066448 C76.9652609,152.067746 76.965913,152.068395 76.965913,152.069694 C77.0252609,152.302754 77.1022174,152.51504 77.1883043,152.715641 C77.2150435,152.777315 77.2450435,152.833794 77.2737391,152.892222 C77.340913,153.029202 77.4139565,153.15969 77.4935217,153.27979 C77.5287391,153.334323 77.5646087,153.388206 77.6024348,153.439492 C77.6963478,153.565435 77.7967826,153.679694 77.903087,153.786161 C77.9304783,153.814077 77.955913,153.846536 77.9846087,153.873153 C78.1196087,153.999097 78.263087,154.10946 78.4150435,154.20619 C78.4613478,154.236052 78.510913,154.259423 78.5598261,154.28669 C78.6674348,154.348363 78.777,154.404843 78.8898261,154.452234 C78.9563478,154.480149 79.0235217,154.506117 79.092,154.529488 C79.1924348,154.564544 79.2948261,154.593109 79.3985217,154.618427 C79.4735217,154.635956 79.5472174,154.657379 79.6241739,154.671012 C79.7298261,154.68919 79.838087,154.698278 79.9463478,154.707367 C80.1087391,154.721649 80.2717826,154.725544 80.4361304,154.719052 C80.498087,154.717105 80.5600435,154.717105 80.6226522,154.711911 C80.7433043,154.702173 80.8646087,154.684645 80.9846087,154.66452 C81.0315652,154.656081 81.0772174,154.64829 81.1228696,154.638552 C81.255913,154.611935 81.3883043,154.581423 81.5193913,154.542472 C81.522,154.541823 81.5233043,154.541173 81.5252609,154.540524 C81.9824348,154.402895 82.422,154.192556 82.8185217,153.918597 C82.8217826,153.916649 82.8250435,153.914052 82.8276522,153.912105 C82.9600435,153.820569 83.085913,153.721891 83.2072174,153.616722 C83.2078696,153.616722 83.2078696,153.616722 83.2078696,153.616073 C83.9572174,153.090226 84.570913,152.341706 85.0756957,151.561375 C85.6613478,151.989843 86.2991739,152.324827 86.9800435,152.557238 C87.0504783,152.598786 87.1235217,152.63644 87.1972174,152.674742 C87.9517826,153.094121 88.797,153.332375 89.7276522,153.307706 C89.8248261,153.305109 89.922,153.28044 90.0198261,153.268754 C88.8165652,149.509274 88.0698261,145.675137 87.7867826,141.789714" id="Fill-41" fill="#D293A8"></path>
                    <path d="M44.3809565,157.601082 C44.3013913,157.657562 44.2094348,157.691969 44.1233478,157.737413 C44.4742174,159.185764 45.4407391,159.99401 46.5755217,160.26732 C45.5287826,159.88949 44.6724783,159.032554 44.3809565,157.601082" id="Fill-43" fill="#F7CEDB"></path>
                    <path d="M33.7741957,148.760884 C33.2068043,145.719412 32.7541957,142.688327 32.4418043,139.655295 C28.6898478,139.703335 24.9326739,139.544283 21.1702826,139.495594 C21.4291957,140.90694 21.7141957,142.322182 22.0174565,143.740021 C22.0324565,143.81338 22.0487609,143.886739 22.064413,143.960098 C22.3702826,145.379884 22.6950652,146.802267 23.0387609,148.230493 C23.9785435,152.134094 28.9624565,151.429719 30.3039783,148.492767 C30.6991957,148.448622 31.0683261,148.311642 31.3846304,148.090267 C31.7178913,149.771678 32.8572391,150.640948 34.1589783,150.851936 C34.6298478,153.155924 35.1574565,155.467053 35.7307174,157.791166 C36.7272391,161.827202 41.8885435,161.071541 43.2626739,158.024227 C43.5724565,157.987872 43.8574565,157.879456 44.1235435,157.737283 C44.2096304,157.69184 44.301587,157.657432 44.3811522,157.600952 C44.6726739,159.032424 45.5283261,159.890009 46.5757174,160.26784 C49.1491957,161.196186 52.881587,159.208356 52.2450652,155.609227 C51.8374565,153.302642 51.4298478,150.948666 51.074413,148.575215 C50.8839783,148.592743 50.6935435,148.602481 50.5031087,148.618061 C44.9400652,149.085481 39.3620217,148.80438 33.7741957,148.760884" id="Fill-45" fill="#D293A8"></path>
                    <path d="M90.9954783,156.04529 C90.8213478,155.588258 90.6550435,155.130576 90.4939565,154.670947 C90.6556957,155.130576 90.8200435,155.588907 90.9954783,156.04529" id="Fill-47" fill="#F7CEDB"></path>
                    <path d="M91.6456957,157.672104 C91.6476522,157.676648 91.6502609,157.679894 91.6522174,157.684439 C91.5922174,157.540318 91.5367826,157.395548 91.4774348,157.252076 C91.5354783,157.391652 91.587,157.532527 91.6456957,157.672104" id="Fill-49" fill="#F7CEDB"></path>
                    <path d="M107.183217,145.273416 C107.629957,146.368606 108.211696,147.46769 108.668217,148.588848 C108.221478,147.467041 107.638435,146.368606 107.183217,145.273416" id="Fill-51" fill="#F7CEDB"></path>
                    <g id="Group-55" transform="translate(0.000000, 53.450702)">
                        <mask id="mask-2" fill="white">
                            <use xlink:href="#path-1"></use>
                        </mask>
                        <g id="Clip-54"></g>
                        <path d="M122.090283,61.0265956 C117.117457,61.001277 112.406804,59.6022649 108.323543,56.7542528 C106.284196,55.332519 108.102457,51.8801077 110.160065,53.3154746 C113.691587,55.7778657 117.607891,57.1119585 121.933109,57.134031 C124.451152,57.1463657 124.60963,61.0395794 122.090283,61.0265956 M102.630717,40.0024625 C101.456152,39.9622125 100.397022,39.4993375 99.5909348,38.7689948 C98.8983261,39.6947448 97.0696304,39.6927972 96.7200652,38.2132851 C96.2009348,36.0177125 97.199413,33.6897044 98.9791957,32.4153375 C99.8837609,31.2136802 101.342674,30.4560714 102.963978,30.511902 C105.596804,30.6040875 107.65637,32.8022569 107.564413,35.4237004 C107.472457,38.0438456 105.263543,40.0939988 102.630717,40.0024625 M86.4241957,77.2278698 C75.4931087,82.6291601 63.1024565,83.1102125 51.7728913,78.6061077 C49.4341957,77.6758133 51.2961522,74.246773 53.6100652,75.1666802 C63.5413696,79.1144262 74.7946304,78.6437609 84.3685435,73.9130875 C86.6074565,72.8068617 88.6839783,76.1112569 86.4241957,77.2278698 M36.636587,18.7316359 C33.8752826,21.0245875 31.5874565,23.6479786 29.7274565,26.7134706 C28.424413,28.8597044 25.0702826,26.8517488 26.3752826,24.702269 C28.3924565,21.378398 30.9118043,18.4284625 33.9078913,15.9401036 C35.8324565,14.3404907 38.5728913,17.1222851 36.636587,18.7316359 M69.2035435,2.55113589 L66.6046304,5.77827702 C66.6046304,5.77827702 61.8620217,4.26825282 49.3370217,6.74817218 L53.0420217,3.45805927 C53.0420217,3.45805927 60.1357174,1.99932137 69.2035435,2.55113589 M12.5426739,19.4872972 C13.6578913,19.5048254 14.9002826,20.0189867 15.4963696,20.7103778 C15.5589783,20.7837367 15.6098478,20.8525512 15.6509348,20.9174706 C13.7641957,22.1288657 11.0948478,22.2509141 9.1755,21.1180714 C8.90745652,20.9596681 8.65441304,20.777894 8.41702174,20.5740472 C9.68354348,19.865777 11.1098478,19.4645754 12.5426739,19.4872972 M95.9941957,12.5480673 C82.2835435,8.84247056 71.7248478,3.80018427 72.411587,1.28391008 C72.4461522,1.15666815 72.5152826,1.04176089 72.6046304,0.932696371 C71.4235435,0.763906048 70.2372391,0.624329435 69.0470217,0.530196371 C68.2389783,0.466575403 67.4289783,0.413990726 66.6183261,0.386075403 C44.6178913,-0.376727016 25.5581087,11.7547528 18.9933261,29.0142125 C18.0450652,31.5071157 17.3557174,34.1058375 16.9578913,36.7889544 C16.8202826,36.7896036 16.6813696,36.787656 16.5431087,36.7863577 C12.8472391,36.757144 8.90745652,36.0651036 6.39919565,33.4397649 C4.19615217,31.1331802 3.52897826,27.3444867 4.81245652,24.430906 C4.96767391,24.0796923 5.15028261,23.7395149 5.35897826,23.4149181 C5.8728913,23.8933738 6.43897826,24.319894 7.05202174,24.682144 C10.8959348,26.9510754 16.0422391,26.3784867 19.2887609,23.3220835 L19.8209348,22.8215552 L19.9207174,22.099652 C20.121587,20.6441601 19.6722391,19.1932125 18.6548478,18.0123294 C17.2891957,16.4282972 14.9159348,15.3798496 12.6078913,15.3447931 C10.4159348,15.3064907 8.25136957,15.9069948 6.35028261,16.9762165 C6.17941304,16.1153859 6.18658696,15.2285875 6.40571739,14.3963214 L2.38115217,13.3426802 C1.80854348,15.5096883 2.02245652,17.7954988 2.86832609,19.8203335 C2.10723913,20.7064827 1.47202174,21.6958536 0.999847826,22.767023 C-0.957978261,27.2133496 0.0228913043,32.7756399 3.3828913,36.294269 C6.76963043,39.8388657 11.6048478,40.8269383 16.0559348,40.9217206 C16.229413,40.9256157 16.4022391,40.9308093 16.5750652,40.9321077 C16.5750652,40.9321077 16.574413,40.9321077 16.574413,40.9327569 C16.3683261,46.813152 17.5741957,52.4585391 19.9109348,57.6332609 C20.4555,58.8401117 21.0620217,60.0209948 21.7252826,61.1739625 C23.8246304,64.385523 26.4568043,67.3633738 29.5252826,70.0497367 C30.2563696,75.2225109 31.1955,80.3608778 32.361587,85.4550996 C32.3857174,85.7050391 32.4163696,85.9543294 32.4418043,86.204269 C32.7541957,89.2379504 33.2068043,92.2690351 33.7741957,95.3105069 C39.3620217,95.3540028 44.9400652,95.6351036 50.5031087,95.1676843 C49.8202826,90.5395835 49.3663696,85.8303335 49.6141957,81.230148 C56.4652826,83.4815512 64.026587,84.7357931 71.9805,84.7357931 C72.6998478,84.7357931 73.4126739,84.7202125 74.1248478,84.6994383 C76.7231087,84.6221843 79.2750652,84.4118456 81.771587,84.0807569 C82.4511522,83.9509181 83.1372391,83.8119907 83.8396304,83.6698173 C83.9850652,83.6406036 84.126587,83.6224262 84.2655,83.6100915 C84.2641957,83.5789302 84.2609348,83.547769 84.2589783,83.5172569 C85.409413,83.3335351 86.5533261,83.1231964 87.6855,82.883644 C87.6835435,82.937527 87.6841957,82.9907609 87.681587,83.0439948 C87.6502826,83.9697448 87.644413,84.8935472 87.6639783,85.8141036 C87.9541957,86.5613254 88.0050652,87.3864504 87.7657174,88.1077044 C87.771587,88.1849585 87.7813696,88.2615633 87.786587,88.3388173 C88.0696304,92.2248899 88.8163696,96.0583778 90.0196304,99.8178577 C90.1487609,100.223604 90.2863696,100.627402 90.4272391,101.0312 C89.309413,97.7845835 88.5391957,94.4795391 88.109413,91.1329464 C90.6333261,91.678269 93.8139783,91.7516278 97.2033261,91.2192891 C100.730283,90.6648778 103.83463,89.5541077 106.091152,88.1888536 C105.701804,86.5080915 105.442239,84.8007125 105.351587,83.0706117 C105.22963,80.7380593 105.388761,78.4373173 105.783326,76.1839665 C105.789848,76.1476117 105.793761,76.1112569 105.79963,76.0762004 C106.194848,75.8509302 106.592022,75.628906 106.978109,75.3964948 C111.562891,72.6341762 115.592674,69.2940754 118.912239,65.5605633 C120.148761,64.1706399 121.293978,62.7294302 122.321804,61.2369343 L127.971587,60.5948819 C128.182891,60.5708617 128.394196,60.5319101 128.612022,60.478027 C132.114196,60.1871883 134.308761,57.4586278 135.6855,54.115281 C134.862457,55.0046762 133.950717,55.5032569 132.990717,55.5032569 C129.345717,55.5032569 126.392022,48.379656 126.392022,39.591523 C126.392022,32.7327931 128.19137,26.8874544 130.71463,24.652281 C131.238978,24.0160714 132.038543,23.5863052 133.115283,23.5863052 C133.458978,23.5863052 133.770717,23.6336964 134.058326,23.712898 C133.768109,23.2740431 133.427022,22.8669988 133.038326,22.5099423 C131.889196,21.4517569 130.442674,20.9044867 128.977891,20.9674585 C127.4505,21.033027 125.882022,21.0447125 124.3005,21.0077085 C123.498978,19.1101157 122.591152,17.2053819 121.472674,15.3850431 C118.858761,16.9775149 108.24463,15.8583052 95.9941957,12.5480673" id="Fill-53" fill="#F7CEDB" mask="url(#mask-2)"></path>
                    </g>
                    <path d="M106.978174,128.847002 C106.592087,129.079413 106.194913,129.301437 105.799696,129.526707 C105.793826,129.562413 105.789913,129.598119 105.783391,129.634473 C110.931652,126.694276 115.37687,123.097094 118.912304,119.011719 C115.592739,122.745231 111.562957,126.084683 106.978174,128.847002" id="Fill-56" fill="#F6E610"></path>
                    <path d="M87.6855652,136.334281 C86.5533913,136.573833 85.4094783,136.784172 84.2590435,136.967894 C84.261,136.998406 84.2642609,137.029567 84.2655652,137.060728 C84.1266522,137.073063 83.9851304,137.09124 83.8396957,137.120454 C83.1373043,137.262627 82.4512174,137.401555 81.7716522,137.531394 C83.781,137.264575 85.7525217,136.917906 87.6816522,136.494631 C87.6842609,136.441398 87.6836087,136.388164 87.6855652,136.334281" id="Fill-58" fill="#E7B7C8"></path>
                    <path d="M87.6855652,136.334281 C86.5533913,136.573833 85.4094783,136.784172 84.2590435,136.967894 C84.261,136.998406 84.2642609,137.029567 84.2655652,137.060728 C84.1266522,137.073063 83.9851304,137.09124 83.8396957,137.120454 C83.1373043,137.262627 82.4512174,137.401555 81.7716522,137.531394 C83.781,137.264575 85.7525217,136.917906 87.6816522,136.494631 C87.6842609,136.441398 87.6836087,136.388164 87.6855652,136.334281" id="Fill-60" fill="#F6E610"></path>
                    <path d="M18.9932609,82.4651738 C17.8636957,84.9593754 17.0354348,87.5567988 16.5430435,90.237319 C16.6813043,90.2386173 16.8202174,90.2405649 16.9578261,90.2399157 C17.3556522,87.5567988 18.045,84.958077 18.9932609,82.4651738" id="Fill-62" fill="#F6E610"></path>
                    <path d="M53.0419565,56.9088907 L49.3369565,60.1983544 C61.8619565,57.7190843 66.6045652,59.2291085 66.6045652,59.2291085 L69.2034783,56.0019673 C60.1356522,55.4501528 53.0419565,56.9088907 53.0419565,56.9088907" id="Fill-64" fill="#383838"></path>
                    <path d="M33.9079565,69.3906754 C30.9118696,71.8790343 28.3925217,74.8289698 26.3753478,78.1528407 C25.0703478,80.3029698 28.4244783,82.3102762 29.7275217,80.1640423 C31.5875217,77.0985504 33.8753478,74.4751593 36.6366522,72.1822077 C38.5729565,70.5728569 35.8325217,67.7910625 33.9079565,69.3906754" id="Fill-66" fill="#F7CEDB"></path>
                    <path d="M33.9079565,69.3906754 C30.9118696,71.8790343 28.3925217,74.8289698 26.3753478,78.1528407 C25.0703478,80.3029698 28.4244783,82.3102762 29.7275217,80.1640423 C31.5875217,77.0985504 33.8753478,74.4751593 36.6366522,72.1822077 C38.5729565,70.5728569 35.8325217,67.7910625 33.9079565,69.3906754" id="Fill-68" fill="#FFFFFF"></path>
                    <path d="M121.932978,110.584668 C117.607761,110.562595 113.691457,109.228502 110.159935,106.766111 C108.102326,105.330744 106.284065,108.783156 108.323413,110.20489 C112.407326,113.052902 117.117326,114.451914 122.090152,114.477232 C124.6095,114.490216 124.451022,110.597652 121.932978,110.584668" id="Fill-70" fill="#383838"></path>
                    <path d="M102.963848,83.9626685 C101.342543,83.9068379 99.8836304,84.6644468 98.9797174,85.866104 C97.1992826,87.140471 96.2008043,89.4678298 96.7199348,91.6640516 C97.0695,93.1435637 98.8988478,93.1455113 99.5908043,92.2197613 C100.396891,92.950104 101.456022,93.412979 102.630587,93.453229 C105.263413,93.5447653 107.472326,91.4946121 107.564283,88.8738177 C107.656239,86.2530234 105.596674,84.054854 102.963848,83.9626685" id="Fill-72" fill="#383838"></path>
                    <path d="M84.3686087,127.363529 C74.7946957,132.094203 63.5407826,132.565517 53.6101304,128.617771 C51.2962174,127.697864 49.4342609,131.126904 51.7729565,132.05655 C63.1025217,136.560654 75.4931739,136.080251 86.4242609,130.678312 C88.6840435,129.562348 86.6075217,126.257953 84.3686087,127.363529" id="Fill-74" fill="#E7B7C8"></path>
                    <path d="M136.123435,84.1382754 C135.508435,84.1175012 134.879739,87.8211504 134.718652,92.411598 C134.557565,97.0020456 134.925391,100.740751 135.540391,100.762175 C136.156043,100.783598 136.785391,97.0799488 136.946478,92.488852 C137.106913,87.8984044 136.738435,84.1596988 136.123435,84.1382754" id="Fill-76" fill="#383838"></path>
                    <path d="M135.540717,100.762434 C134.925717,100.741011 134.557239,97.0023052 134.718326,92.4118577 C134.879413,87.8207609 135.508109,84.1171117 136.123761,84.1385351 C136.738761,84.1599585 137.106587,87.8986641 136.946152,92.4891117 C136.785065,97.0795593 136.155717,100.783208 135.540717,100.762434 M130.71463,78.1029827 C128.19137,80.338156 126.392022,86.1834948 126.392022,93.0422246 C126.392022,101.830358 129.345717,108.953958 132.990717,108.953958 C133.950717,108.953958 134.862457,108.455378 135.6855,107.565983 C137.985717,105.080221 139.589413,99.5146843 139.589413,93.0422246 C139.589413,86.8456722 138.119413,81.4794383 135.974413,78.852152 C135.635935,78.0659786 134.9955,77.423277 134.058326,77.1635996 C133.770717,77.084398 133.458978,77.0370069 133.115283,77.0370069 C132.038543,77.0370069 131.238978,77.466773 130.71463,78.1029827" id="Fill-78" fill="#D293A8"></path>
                    <path d="M88.109087,144.583648 C88.5388696,147.930241 89.3097391,151.235285 90.4275652,154.481902 C90.449087,154.544874 90.4725652,154.607846 90.494087,154.670817 C90.6545217,155.130446 90.8214783,155.588128 90.9956087,156.04516 C91.1495217,156.448309 91.3132174,156.850809 91.4775652,157.252011 C91.536913,157.395483 91.5923478,157.540253 91.6523478,157.684374 C91.6660435,157.716833 91.6784348,157.749942 91.6921304,157.783051 C92.1545217,158.874995 93.1523478,159.006781 93.9773478,158.608825 C94.101913,158.60493 94.2303913,158.594543 94.364087,158.566628 C95.9156087,158.243329 97.0445217,157.391587 98.1884348,156.340543 C99.1797391,155.430374 99.7575652,154.351414 101.347565,154.733789 C102.076696,154.909071 102.751696,155.587479 103.476261,155.864035 C106.721478,157.102696 109.628217,154.746773 109.380391,151.307995 C109.31387,150.380946 109.030174,149.477918 108.668217,148.589172 C108.211696,147.467366 107.629957,146.36893 107.183217,145.273092 C107.073652,145.004325 106.971913,144.735559 106.883217,144.466793 C106.574087,143.532604 106.327565,142.583483 106.110391,141.628519 C106.104522,141.632414 106.097348,141.63566 106.090826,141.639555 C103.834304,143.004809 100.730609,144.115579 97.203,144.669991 C93.8136522,145.202329 90.633,145.128971 88.109087,144.583648" id="Fill-80" fill="#D293A8"></path>
                    <path d="M121.754609,39.2468661 C123.285261,39.1585758 125.758957,37.8575919 128.508522,36.0476403 C129.763304,30.7937169 130.10113,27.9372653 130.132435,26.396729 C131.632435,26.7518379 133.155261,25.8663379 133.562217,24.3738419 C133.977652,22.8521323 133.074391,21.2830315 131.545696,20.8694952 C130.017,20.4566081 128.440696,21.3550919 128.025261,22.8774508 C127.783304,23.7661968 127.999174,24.6640315 128.518304,25.3456847 L128.103522,25.5501806 C121.414174,29.0032411 116.176565,33.6865234 116.176565,33.6865234 L116.903087,36.3663944 C118.555696,40.504354 121.754609,39.2468661 121.754609,39.2468661" id="Fill-82" fill="#C48323"></path>
                    <path d="M86.1786522,29.9096452 C88.3132174,32.1480645 92.778,28.2782218 92.778,28.2782218 L92.789087,28.2671855 C92.733,27.9542742 92.6436522,27.6296774 92.511913,27.2914476 C92.511913,27.2914476 90.3721304,20.6144919 86.3547391,14.2679758 L86.0645217,13.8271734 C86.8275652,13.4902419 87.4432174,12.8391008 87.6793043,11.9750242 C88.094087,10.4526653 87.1908261,8.88356452 85.6614783,8.47067742 C84.1327826,8.05779032 82.5564783,8.95627419 82.1423478,10.4779839 C81.726913,12.0003427 82.6301739,13.5694435 84.1582174,13.9823306 C84.1627826,13.983629 84.1666957,13.983629 84.1712609,13.9849274 C83.4603913,15.2508548 82.394087,17.6541694 80.9534348,22.2192984 L82.056913,24.7349234 C83.2399565,28.1925282 86.1786522,29.9096452 86.1786522,29.9096452" id="Fill-84" fill="#C48323"></path>
                    <g id="Group-88" transform="translate(68.478261, 0.216831)">
                        <mask id="mask-4" fill="white">
                            <use xlink:href="#path-3"></use>
                        </mask>
                        <g id="Clip-87"></g>
                        <path d="M78.9869348,20.6827222 C77.2371522,20.2094601 75.4338913,21.2384319 74.9591087,22.9802181 C74.8501957,23.3775246 74.8293261,23.7767786 74.8691087,24.1630488 C72.7978043,25.9853351 65.8071522,32.0299762 60.0308478,35.8310044 C57.2806304,37.640956 54.8069348,38.9419399 53.2762826,39.0302302 C53.2762826,39.0302302 50.0773696,40.2877181 48.4247609,36.1497585 L47.6982391,33.4692383 L42.2369348,13.3033391 C43.3482391,13.0222383 44.2828043,12.1841294 44.6043261,11.005194 C45.0797609,9.26340766 44.0460652,7.46903669 42.2962826,6.9957746 C40.5471522,6.5225125 38.7438913,7.55083508 38.2684565,9.29327056 C37.9430217,10.4845407 38.3362826,11.6907423 39.1697609,12.4924964 L24.3106304,28.0504198 L24.2995435,28.061456 C24.2995435,28.061456 19.835413,31.9312988 17.7001957,29.6928794 C17.7001957,29.6928794 14.7615,27.9757625 13.5784565,24.5181577 L12.4756304,22.0025327 L5.58867391,6.29464556 C6.14823913,5.87331895 6.5838913,5.28255282 6.78215217,4.55675444 C7.25758696,2.81561734 6.2238913,1.01994798 4.47476087,0.546685887 C2.72432609,0.0747221774 0.921717391,1.10304476 0.446282609,2.84418185 C-0.0285,4.58596815 1.00519565,6.3816375 2.75432609,6.8542504 C3.1665,6.9652625 3.58063043,6.98668589 3.98106522,6.94189153 C4.53671739,9.30690363 6.05171739,16.0773431 6.3438913,20.8099641 C6.3438913,20.8099641 8.4465,34.021702 6.1541087,46.5069923 L4.85823913,53.6624036 C4.53215217,53.8026294 4.28628261,53.9701214 4.1265,54.1661778 C4.03715217,54.2752423 3.96802174,54.3907988 3.93345652,54.5173915 C3.24671739,57.0336657 13.805413,62.0766012 27.5160652,65.782198 C39.7658478,69.0917867 50.3806304,70.2116456 52.9945435,68.6191738 C53.3056304,68.4289601 53.5110652,68.2023915 53.5841087,67.9349238 C53.7510652,67.3233835 53.2482391,66.5612302 52.2028043,65.7068915 L54.1730217,59.9452988 C54.1730217,59.9452988 59.2599783,47.9371657 63.5219348,42.1677827 C63.5219348,42.1677827 71.7301957,29.751956 75.7906304,26.112577 C76.1858478,26.5157262 76.6815,26.8318835 77.2665,26.9896375 C79.0162826,27.4622504 80.8201957,26.4339278 81.2949783,24.6921415 C81.7697609,22.9503552 80.7367174,21.1559843 78.9869348,20.6827222" id="Fill-86" fill="#F5A623" mask="url(#mask-4)"></path>
                    </g>
                </g>
            </g>
        </g>
    </g>
</svg>