<?xml version="1.0" encoding="UTF-8"?>
<svg width="250px" height="49px" viewBox="0 0 250 49" version="1.1" xmlns="http://www.w3.org/2000/svg" xmlns:xlink="http://www.w3.org/1999/xlink">
    <!-- Generator: Sketch 53.2 (72643) - https://sketchapp.com -->
    <title>thrivent_CU_logo</title>
    <desc>Created with Sketch.</desc>
    <defs>
        <polygon id="path-1" points="0.2035 0.4951 5.434 0.4951 5.434 5.8311 0.2035 5.8311"></polygon>
    </defs>
    <g id="Page-1" stroke="none" stroke-width="1" fill="none" fill-rule="evenodd">
        <g id="D1-mobile" transform="translate(-63.000000, -758.000000)">
            <g id="thrivent_CU_logo" transform="translate(63.000000, 758.000000)">
                <g id="Group-64">
                    <g id="Group-3" transform="translate(244.000000, 33.064800)">
                        <mask id="mask-2" fill="white">
                            <use xlink:href="#path-1"></use>
                        </mask>
                        <g id="Clip-2"></g>
                        <path d="M4.7565,4.0251 C4.6505,4.2861 4.4975,4.5191 4.3035,4.7181 C4.1095,4.9191 3.8865,5.0781 3.6385,5.1931 C3.3865,5.3121 3.1145,5.3701 2.8195,5.3701 C2.5315,5.3701 2.2625,5.3121 2.0085,5.1931 C1.7505,5.0781 1.5285,4.9191 1.3345,4.7181 C1.1405,4.5191 0.9875,4.2861 0.8805,4.0251 C0.7745,3.7551 0.7205,3.4741 0.7205,3.1681 C0.7205,2.8611 0.7745,2.5721 0.8805,2.3021 C0.9895,2.0331 1.1405,1.7981 1.3345,1.5991 C1.5285,1.3991 1.7525,1.2421 2.0085,1.1231 C2.2645,1.0071 2.5315,0.9481 2.8195,0.9481 C3.1145,0.9481 3.3875,1.0071 3.6385,1.1231 C3.8885,1.2421 4.1075,1.3981 4.3035,1.5991 C4.4995,1.8001 4.6525,2.0331 4.7565,2.3021 C4.8635,2.5711 4.9175,2.8611 4.9175,3.1681 C4.9175,3.4741 4.8635,3.7551 4.7565,4.0251 M5.2285,2.1311 C5.0895,1.8041 4.9025,1.5171 4.6715,1.2731 C4.4365,1.0301 4.1595,0.8371 3.8435,0.7011 C3.5265,0.5641 3.1855,0.4951 2.8195,0.4951 C2.4505,0.4951 2.1105,0.5641 1.7945,0.7011 C1.4805,0.8361 1.2025,1.0281 0.9685,1.2731 C0.7345,1.5181 0.5485,1.8051 0.4115,2.1311 C0.2735,2.4551 0.2035,2.8071 0.2035,3.1711 C0.2035,3.5351 0.2735,3.8801 0.4115,4.2021 C0.5485,4.5211 0.7345,4.8061 0.9685,5.0491 C1.2005,5.2961 1.4785,5.4851 1.7945,5.6221 C2.1105,5.7601 2.4495,5.8291 2.8195,5.8291 L2.8195,5.8311 C3.1855,5.8311 3.5265,5.7581 3.8435,5.6171 C4.1595,5.4751 4.4365,5.2821 4.6715,5.0431 C4.9025,4.8021 5.0895,4.5211 5.2285,4.2021 C5.3655,3.8811 5.4345,3.5371 5.4345,3.1711 C5.4345,2.8051 5.3635,2.4551 5.2285,2.1311" id="Fill-1" fill="#DA1A32" mask="url(#mask-2)"></path>
                    </g>
                    <path d="M247.0485,36.0557 C246.9665,36.1237 246.8525,36.1557 246.7105,36.1557 C246.6385,36.1557 246.5785,36.1507 246.5275,36.1377 L246.5275,36.1397 L246.5275,35.4527 C246.5765,35.4437 246.6495,35.4357 246.7415,35.4357 C247.0245,35.4357 247.1685,35.5497 247.1685,35.7737 C247.1685,35.8967 247.1285,35.9917 247.0485,36.0557 M247.7375,36.1927 C247.8195,36.0537 247.8595,35.9087 247.8595,35.7547 C247.8595,35.4927 247.7675,35.2747 247.5855,35.1047 C247.4005,34.9387 247.0975,34.8567 246.6805,34.8567 C246.3725,34.8567 246.1055,34.8717 245.8695,34.9027 L245.8715,34.9027 L245.8715,37.5317 L246.5295,37.5317 L246.5295,36.6917 L246.8205,36.6917 L247.2785,37.5317 L248.0285,37.5317 L247.4035,36.5217 C247.5435,36.4407 247.6555,36.3317 247.7375,36.1927" id="Fill-4" fill="#DA1A32"></path>
                    <path d="M247.9812,8.7198 L249.2532,5.7818 C249.2992,5.6878 249.2462,5.6088 249.1422,5.6088 L228.2432,5.6088 C228.1362,5.6088 228.0852,5.6878 228.1292,5.7818 L228.1242,5.7818 L229.3882,8.7198 C229.4332,8.8178 229.5502,8.8968 229.6582,8.8968 L236.2422,8.8968 C236.3432,8.8968 236.4302,8.9858 236.4302,9.0908 L236.4302,23.4428 C236.4302,23.5508 236.5202,23.6368 236.6252,23.6368 L240.7562,23.6368 C240.8632,23.6368 240.9512,23.5498 240.9512,23.4428 L240.9512,9.0908 C240.9512,8.9838 241.0372,8.8968 241.1412,8.8968 L247.7112,8.8968 C247.8172,8.8968 247.9372,8.8178 247.9812,8.7198" id="Fill-6" fill="#5B6770"></path>
                    <path d="M98.6647,23.6348 C98.7647,23.6348 98.8547,23.5478 98.8547,23.4408 L98.8547,16.0898 C98.8547,15.9848 98.9397,15.8988 99.0457,15.8988 L109.5607,15.8988 C109.6667,15.8988 109.7547,15.9848 109.7547,16.0898 L109.7547,23.4408 C109.7547,23.5498 109.8437,23.6348 109.9477,23.6348 L114.0837,23.6348 C114.1867,23.6348 114.2747,23.5478 114.2747,23.4408 L114.2747,5.7968 C114.2747,5.6928 114.1857,5.6088 114.0837,5.6088 L109.9477,5.6088 C109.8437,5.6088 109.7547,5.6928 109.7547,5.7968 L109.7547,12.3608 C109.7547,12.4668 109.6667,12.5538 109.5607,12.5538 L99.0457,12.5538 C98.9397,12.5538 98.8547,12.4648 98.8547,12.3608 L98.8547,5.7968 C98.8547,5.6928 98.7647,5.6088 98.6647,5.6088 L94.5277,5.6088 C94.4267,5.6088 94.3367,5.6928 94.3367,5.7968 L94.3367,23.4408 C94.3367,23.5498 94.4277,23.6348 94.5277,23.6348 L98.6647,23.6348 Z" id="Fill-8" fill="#5B6770"></path>
                    <path d="M146.1462,23.6348 L150.2802,23.6348 C150.3902,23.6348 150.4742,23.5478 150.4742,23.4408 L150.4742,5.7968 C150.4742,5.6928 150.3882,5.6088 150.2802,5.6088 L146.1462,5.6088 C146.0402,5.6088 145.9522,5.6928 145.9522,5.7968 L145.9522,23.4408 C145.9522,23.5498 146.0422,23.6348 146.1462,23.6348" id="Fill-10" fill="#5B6770"></path>
                    <path d="M167.8327,23.46 L175.8247,5.782 C175.8647,5.686 175.8137,5.611 175.7087,5.611 L171.1167,5.611 C171.0147,5.611 170.8897,5.689 170.8517,5.788 L165.6327,18.478 C165.5927,18.578 165.5257,18.578 165.4867,18.478 L160.2707,5.788 C160.2337,5.689 160.1127,5.611 160.0067,5.611 L155.4087,5.611 C155.3077,5.611 155.2547,5.686 155.3007,5.782 L163.2847,23.46 C163.3307,23.554 163.4507,23.635 163.5587,23.635 L167.5647,23.635 C167.6707,23.635 167.7907,23.556 167.8327,23.46" id="Fill-12" fill="#5B6770"></path>
                    <path d="M197.6228,20.4122 L185.2168,20.4122 C185.1118,20.4122 185.0258,20.3252 185.0258,20.2182 L185.0258,16.2862 C185.0258,16.1812 185.1118,16.0952 185.2168,16.0952 L196.7098,16.0952 C196.8158,16.0952 196.8998,16.0112 196.8998,15.9042 L196.8998,13.0962 C196.8998,12.9932 196.8158,12.9052 196.7098,12.9052 L185.2168,12.9052 C185.1118,12.9052 185.0258,12.8212 185.0258,12.7152 L185.0258,9.0372 C185.0258,8.9302 185.1118,8.8462 185.2168,8.8462 L197.1168,8.8462 C197.2248,8.8462 197.3088,8.7562 197.3088,8.6532 L197.3088,5.7962 C197.3088,5.6932 197.2228,5.6092 197.1168,5.6092 L180.6948,5.6092 C180.5958,5.6092 180.5038,5.6932 180.5038,5.7962 L180.5038,23.4392 C180.5038,23.5472 180.5958,23.6332 180.6948,23.6332 L197.6228,23.6332 C197.7268,23.6332 197.8138,23.5462 197.8138,23.4392 L197.8138,20.6032 C197.8138,20.4982 197.7268,20.4122 197.6228,20.4122" id="Fill-14" fill="#5B6770"></path>
                    <path d="M223.7507,5.6109 L219.8157,5.6109 C219.7127,5.6109 219.6247,5.6949 219.6247,5.7979 L219.6247,18.1359 C219.6247,18.2429 219.5667,18.2619 219.4987,18.1839 L208.6977,5.7529 C208.6297,5.6739 208.4837,5.6089 208.3787,5.6089 L204.2667,5.6089 C204.1667,5.6089 204.0737,5.6929 204.0737,5.7969 L204.0737,5.7979 L204.0737,23.4439 C204.0737,23.5529 204.1667,23.6379 204.2667,23.6379 L208.1757,23.6379 C208.2787,23.6379 208.3647,23.5509 208.3647,23.4439 L208.3647,11.0239 C208.3647,10.9189 208.4207,10.8919 208.4907,10.9759 L219.3447,23.4909 C219.4127,23.5689 219.5607,23.6369 219.6617,23.6369 L223.7507,23.6369 C223.8547,23.6369 223.9417,23.5489 223.9417,23.4429 L223.9417,5.7979 C223.9417,5.6949 223.8557,5.6109 223.7507,5.6109" id="Fill-16" fill="#5B6770"></path>
                    <path d="M77.3298,9.0909 L77.3298,23.4429 C77.3298,23.5509 77.4168,23.6369 77.5168,23.6369 L81.6558,23.6369 C81.7628,23.6369 81.8498,23.5489 81.8498,23.4429 L81.8498,9.0909 C81.8498,8.9839 81.9328,8.8969 82.0378,8.8969 L88.6148,8.8969 C88.7178,8.8969 88.8418,8.8179 88.8808,8.7199 L90.1588,5.7819 C90.2008,5.6879 90.1478,5.6089 90.0428,5.6089 L69.1418,5.6089 C69.0358,5.6089 68.9868,5.6879 69.0288,5.7819 L70.2998,8.7199 C70.3398,8.8179 70.4608,8.8969 70.5658,8.8969 L77.1358,8.8969 C77.2428,8.8969 77.3298,8.9859 77.3298,9.0909" id="Fill-18" fill="#5B6770"></path>
                    <path d="M132.8698,13.1876 L125.9268,13.1906 C125.7848,13.1906 125.6708,13.0806 125.6708,12.9356 L125.6708,9.0256 C125.6708,8.8866 125.7848,8.7706 125.9268,8.7706 L132.6628,8.7706 C134.4088,8.7706 134.8658,9.1786 135.2108,9.6296 L135.2108,9.6286 C135.5248,10.0746 135.5728,10.7036 135.5728,11.0376 C135.5728,12.9646 134.0298,13.1876 132.8698,13.1876 M140.7878,23.4266 L135.6218,16.3056 C135.5358,16.1916 135.5838,16.0796 135.7218,16.0636 C135.7218,16.0636 137.3888,15.8256 138.4068,14.9746 C139.6858,14.0046 140.1428,12.3736 140.1428,10.9936 C140.1428,9.9486 139.8898,8.5916 138.9688,7.5236 C137.4618,5.7806 135.5978,5.6086 133.5588,5.6086 L121.4018,5.6086 C121.2578,5.6086 121.1438,5.7206 121.1438,5.8626 L121.1438,23.3776 C121.1438,23.5206 121.2598,23.6336 121.4018,23.6336 L125.4138,23.6336 C125.5578,23.6336 125.6708,23.5226 125.6708,23.3776 L125.6708,16.6306 C125.6708,16.4906 125.7848,16.3756 125.9268,16.3756 L130.5438,16.3756 C130.6868,16.3756 130.8638,16.4756 130.9438,16.5906 L135.4828,23.4176 C135.5658,23.5416 135.7388,23.6346 135.8798,23.6346 L140.6818,23.6346 L140.6798,23.6336 C140.8208,23.6336 140.8678,23.5416 140.7878,23.4266" id="Fill-20" fill="#5B6770"></path>
                    <path d="M34.51,15.6275 C34.438,15.6185 34.347,15.6595 34.316,15.7255 C29.412,24.2935 26.216,33.5405 25.576,40.4535 C25.576,40.5415 25.599,40.6345 25.771,40.5925 C34.412,36.6105 44.931,26.8485 49.192,18.2235 C49.213,18.1765 49.203,18.1155 49.112,18.0855 C44.07,16.7635 39.065,16.0215 34.51,15.6275" id="Fill-22" fill="#5B6770"></path>
                    <path d="M45.2463,1.15 C45.1903,1.124 45.1553,1.124 45.0923,1.185 L45.0903,1.184 C42.1073,4.121 39.3623,7.568 36.9243,11.26 C36.8783,11.323 36.9043,11.374 36.9833,11.379 C41.2143,11.505 45.8923,11.959 50.8183,12.972 C50.8763,12.981 50.9293,12.979 50.9553,12.89 C51.0633,12.259 51.1183,11.645 51.1183,11.053 C51.1183,6.776 48.7423,3.066 45.2463,1.15" id="Fill-24" fill="#5B6770"></path>
                    <path d="M29.426,15.4385 C29.471,15.3705 29.452,15.3195 29.372,15.3195 C22.301,15.0575 17.079,15.5635 15.861,15.6975 C15.708,15.7225 15.677,15.6455 15.783,15.5425 L18.439,12.9735 C18.551,12.8655 18.733,12.7955 18.877,12.7725 C21.746,12.3895 26.403,11.7235 32.227,11.5885 C32.302,11.5885 32.388,11.5415 32.442,11.4925 C36.621,6.3035 40.522,2.5555 42.818,0.4995 C42.869,0.4495 42.841,0.4045 42.76,0.3815 C41.831,0.1295 40.847,0.0005 39.843,0.0005 C37.974,0.0005 32.238,0.4495 25.65,5.8345 C25.634,5.8595 25.599,5.8695 25.559,5.8695 C25.519,5.8695 25.489,5.8595 25.466,5.8345 C18.885,0.4495 13.147,0.0005 11.278,0.0005 C5.052,0.0005 0,5.0465 0,11.2795 C0,18.8085 8.939,29.5935 18.173,36.2935 C18.247,36.3445 18.336,36.3865 18.392,36.2125 C21.226,28.1285 25.318,21.1275 29.431,15.4385 L29.426,15.4385 Z" id="Fill-26" fill="#C8102E"></path>
                    <polygon id="Fill-28" fill="#DA1A32" points="77.2512 47.8634 79.2592 47.8634 79.2592 41.0554 83.1002 41.0554 83.1002 39.2874 79.2592 39.2874 79.2592 35.3844 83.6792 35.3844 83.6792 33.5764 77.2522 33.5764"></polygon>
                    <polygon id="Fill-30" fill="#DA1A32" points="87.7038 41.1583 91.5868 41.1583 91.5868 39.3273 87.7038 39.3273 87.7038 35.3853 92.1238 35.3853 92.1238 33.5763 85.7158 33.5763 85.7158 47.8613 92.2818 47.8613 92.2818 46.0543 87.7038 46.0543"></polygon>
                    <path d="M99.4543,44.8194 C99.2673,45.9864 98.5433,46.0724 97.4623,46.0724 L97.4603,46.0744 L96.4443,46.0744 L96.4443,35.4224 C98.1743,35.4224 98.5473,35.4324 98.9443,35.6984 C99.5013,36.0934 99.5313,36.7514 99.5523,38.3314 C99.5713,39.6844 99.5713,40.1714 99.5713,41.4754 C99.5713,42.3634 99.5483,44.2034 99.4543,44.8194 M97.2203,33.5784 L97.2203,33.5764 L94.4563,33.5764 L94.4563,47.8634 L97.1823,47.8634 C98.7343,47.8634 100.0743,47.8634 100.9053,46.5334 C101.4083,45.6894 101.4563,44.6944 101.4773,43.2714 C101.5193,41.3584 101.5193,40.4814 101.5193,39.7064 C101.5193,36.2704 101.4603,35.5234 100.7753,34.6754 C99.9063,33.5784 98.6013,33.5784 97.2203,33.5784" id="Fill-32" fill="#DA1A32"></path>
                    <polygon id="Fill-34" fill="#DA1A32" points="105.9611 41.1583 109.8441 41.1583 109.8441 39.3273 105.9611 39.3273 105.9611 35.3853 110.3791 35.3853 110.3791 33.5763 103.9721 33.5763 103.9721 47.8613 110.5391 47.8613 110.5391 46.0543 105.9611 46.0543"></polygon>
                    <path d="M117.1999,39.8458 C116.8589,40.0768 116.5699,40.0858 114.7579,40.0858 L114.7579,35.4028 C116.4399,35.4028 116.8039,35.4088 117.1839,35.6448 C117.7779,36.0118 117.8249,36.7648 117.8249,37.7138 C117.8249,38.3948 117.8249,39.4218 117.1999,39.8458 M119.4659,40.0068 L119.4669,40.0068 C119.6859,39.4358 119.8139,38.5258 119.8139,37.5158 C119.8139,33.8828 117.8299,33.5778 115.9729,33.5778 L112.7879,33.5778 L112.7879,47.8638 L114.7559,47.8638 L114.7559,41.7138 L116.0099,41.7138 L118.3989,47.8638 L120.5049,47.8638 L117.9599,41.4778 C118.3689,41.3598 119.0909,41.0938 119.4659,40.0068" id="Fill-36" fill="#DA1A32"></path>
                    <path d="M127.2292,43.4083 L124.8472,43.4083 L126.0012,36.9533 L127.2312,43.4083 L127.2292,43.4083 Z M125.0482,33.5783 L125.0462,33.5763 L121.9722,47.8633 L124.0292,47.8633 L124.5052,45.1593 L127.5732,45.1593 L128.0702,47.8633 L130.1472,47.8633 L126.9902,33.5783 L125.0482,33.5783 Z" id="Fill-38" fill="#DA1A32"></path>
                    <polygon id="Fill-40" fill="#DA1A32" points="134.0271 33.5762 132.0191 33.5762 132.0191 47.8632 138.1481 47.8632 138.1481 46.0562 134.0271 46.0562"></polygon>
                    <path d="M150.2712,42.7901 L150.2732,42.7921 C150.2732,44.4661 150.2732,44.7701 150.1972,45.1131 L150.1872,45.1531 C150.0752,45.6701 149.8072,46.3561 148.8202,46.3561 C147.5752,46.3561 147.3772,45.4601 147.3102,45.1691 L147.3032,45.1441 C147.2262,44.6011 147.1862,41.7781 147.1862,40.9031 C147.1862,39.8631 147.1862,37.7051 147.3072,36.6811 C147.3692,36.1171 147.4862,35.0661 148.8602,35.0661 C150.0952,35.0661 150.1922,35.9301 150.1922,37.0571 L150.1922,38.2311 L152.0602,38.2311 L152.0622,38.1141 C152.0792,37.0461 152.0812,36.1751 151.9192,35.4781 C151.5522,33.9141 150.0952,33.3561 148.8582,33.3561 C145.9092,33.3561 145.5112,35.4041 145.3772,36.1041 C145.2822,36.7051 145.2162,37.1031 145.2162,40.8801 C145.2162,44.4581 145.3002,45.0251 145.3572,45.3981 C145.4942,46.2001 146.0922,48.0641 148.7192,48.0641 C151.2022,48.0641 151.7822,46.7411 151.9992,45.7451 C152.1202,45.2041 152.1402,44.7351 152.1402,42.7941 L152.1402,42.6731 L150.2712,42.6731 L150.2712,42.7901 Z" id="Fill-42" fill="#DA1A32"></path>
                    <path d="M158.9401,39.8458 C158.6021,40.0768 158.3091,40.0858 156.4981,40.0858 L156.4981,35.4028 C158.1801,35.4028 158.5441,35.4088 158.9241,35.6448 C159.5171,36.0118 159.5651,36.7648 159.5651,37.7138 C159.5651,38.3948 159.5651,39.4218 158.9401,39.8458 M161.0781,40.0068 L161.0811,40.0068 C161.3011,39.4358 161.4291,38.5258 161.4291,37.5158 C161.4291,33.8828 159.4461,33.5778 157.5881,33.5778 L154.4021,33.5778 L154.4021,47.8638 L156.3721,47.8638 L156.3721,41.7138 L157.6261,41.7138 L160.0111,47.8638 L162.1171,47.8638 L159.5741,41.4778 C159.9851,41.3598 160.7051,41.0938 161.0781,40.0068" id="Fill-44" fill="#DA1A32"></path>
                    <polygon id="Fill-46" fill="#DA1A32" points="166.0915 41.1583 169.9745 41.1583 169.9745 39.3273 166.0915 39.3273 166.0915 35.3853 170.5095 35.3853 170.5095 33.5763 164.1045 33.5763 164.1045 47.8613 170.6685 47.8613 170.6685 46.0543 166.0925 46.0543"></polygon>
                    <path d="M177.8396,44.8194 C177.6556,45.9864 176.9346,46.0724 175.8496,46.0724 L175.8496,46.0744 L174.8336,46.0744 L174.8336,35.4224 C176.5636,35.4224 176.9366,35.4324 177.3336,35.6984 C177.8886,36.0934 177.9186,36.7514 177.9396,38.3314 C177.9606,39.6844 177.9606,40.1714 177.9606,41.4754 C177.9606,42.3634 177.9366,44.2034 177.8396,44.8194 M175.6096,33.5784 L175.6106,33.5764 L172.8436,33.5764 L172.8436,47.8634 L175.5686,47.8634 C177.1216,47.8634 178.4606,47.8634 179.2946,46.5334 C179.7946,45.6894 179.8476,44.6944 179.8666,43.2714 C179.9046,41.3584 179.9046,40.4814 179.9046,39.7064 C179.9046,36.2704 179.8456,35.5234 179.1606,34.6754 C178.2926,33.5784 176.9886,33.5784 175.6096,33.5784" id="Fill-48" fill="#DA1A32"></path>
                    <polygon id="Fill-50" fill="#DA1A32" points="182.3757 33.5782 182.3757 47.8632 184.3437 47.8632 184.3437 33.5762 182.3757 33.5762"></polygon>
                    <polygon id="Fill-52" fill="#DA1A32" points="186.321 35.3848 188.989 35.3848 188.989 47.8618 190.957 47.8618 190.957 35.3848 193.623 35.3848 193.623 33.5758 186.32 33.5758"></polygon>
                    <path d="M205.9772,43.0069 L205.9752,43.0069 C205.9752,44.0489 205.9752,44.1589 205.9572,44.7159 C205.9372,45.3519 205.9072,46.3149 204.5022,46.3149 C202.9292,46.3149 202.9292,45.1619 202.9292,43.9449 L202.9292,33.5759 L200.9212,33.5759 L200.9212,43.2869 C200.9212,45.4139 200.9652,45.8259 201.2502,46.4609 C201.7412,47.5239 202.8212,48.0639 204.4642,48.0639 C205.3782,48.0639 207.0062,47.8409 207.6362,46.3599 C207.9712,45.6069 207.9872,44.8809 207.9872,43.1679 L207.9872,33.5779 L205.9772,33.5779 L205.9772,43.0069 Z" id="Fill-54" fill="#DA1A32"></path>
                    <polygon id="Fill-56" fill="#DA1A32" points="215.7282 44.8575 213.1352 33.6465 213.1162 33.5535 210.5142 33.5535 210.5142 47.8615 212.4642 47.8615 212.2492 36.7275 214.7582 47.8615 217.4402 47.8615 217.4402 33.5535 215.5092 33.5535"></polygon>
                    <polygon id="Fill-58" fill="#DA1A32" points="219.9939 33.5782 219.9939 47.8632 221.9619 47.8632 221.9619 33.5762 219.9939 33.5762"></polygon>
                    <path d="M229.3972,44.254 L229.3952,44.301 C229.3352,45.224 229.2622,46.37 227.9042,46.37 C226.3892,46.37 226.3842,45.092 226.3762,43.858 C226.3762,43.689 226.3762,43.524 226.3702,43.364 C226.3492,42.472 226.3492,42.452 226.3492,41.496 C226.3492,38.099 226.3492,37.894 226.3892,37.2 L226.3892,37.202 L226.3912,37.171 C226.4332,36.434 226.5082,35.066 227.9622,35.066 C229.4092,35.066 229.4352,36.301 229.4572,37.218 C229.4662,37.765 229.4702,38.317 229.4752,38.869 C229.4812,39.422 229.4862,39.974 229.4972,40.522 C229.5162,41.631 229.4772,43.064 229.3972,44.254 M228.0612,33.355 C225.8552,33.355 224.5962,34.475 224.4212,36.59 C224.3602,37.358 224.3222,40.338 224.3222,41.195 L224.3222,41.577 C224.3202,42.855 224.3182,44.604 224.4632,45.476 C224.6422,46.525 225.1062,47.233 225.8752,47.649 C226.5482,48.016 227.2702,48.062 227.8232,48.062 C230.7742,48.062 231.2812,46.153 231.3852,44.285 C231.4452,43.236 231.5062,41.605 231.5062,40.52 L231.5082,40.264 C231.5152,39.495 231.5312,37.452 231.4252,36.409 C231.3452,35.654 231.1032,33.355 228.0612,33.355" id="Fill-60" fill="#DA1A32"></path>
                    <polygon id="Fill-62" fill="#DA1A32" points="239.2497 44.8575 236.6377 33.5535 234.0357 33.5535 234.0357 47.8615 235.9877 47.8615 235.7697 36.7275 238.2787 47.8615 240.9597 47.8615 240.9597 33.5535 239.0307 33.5535"></polygon>
                </g>
            </g>
        </g>
    </g>
</svg>