<?xml version="1.0" encoding="UTF-8"?>
<svg width="146px" height="43px" viewBox="0 0 146 43" version="1.1" xmlns="http://www.w3.org/2000/svg" xmlns:xlink="http://www.w3.org/1999/xlink">
    <!-- Generator: Sketch 53.2 (72643) - https://sketchapp.com -->
    <title>Group 44</title>
    <desc>Created with Sketch.</desc>
    <defs>
        <polygon id="path-1" points="0.000324444444 0 146 0 146 43 0.000324444444 43"></polygon>
        <polygon id="path-3" points="0 43 146 43 146 0 0 0"></polygon>
    </defs>
    <g id="Page-1" stroke="none" stroke-width="1" fill="none" fill-rule="evenodd">
        <g id="D1-mobile" transform="translate(-32.000000, -1751.000000)">
            <g id="Group-44" transform="translate(32.000000, 1751.000000)">
                <g id="Group-3">
                    <mask id="mask-2" fill="white">
                        <use xlink:href="#path-1"></use>
                    </mask>
                    <g id="Clip-2"></g>
                    <path d="M140.805969,43 L5.11465037,43 C2.29522815,43 0.000324444444,40.7124 0.000324444444,37.912025 L0.000324444444,5.08045 C0.000324444444,2.279 2.29522815,0 5.11465037,0 L140.805969,0 C143.623228,0 146.000324,2.279 146.000324,5.08045 L146.000324,37.912025 C146.000324,40.7124 143.623228,43 140.805969,43" id="Fill-1" fill="#A6A6A6" mask="url(#mask-2)"></path>
                </g>
                <path d="M145,37.8900202 C145,40.1607035 143.14622,42 140.85333,42 L5.15207823,42 C2.86026949,42 1,40.1607035 1,37.8900202 L1,5.11534536 C1,2.84466197 2.86026949,1 5.15207823,1 L140.852248,1 C143.14622,1 144.998918,2.84466197 144.998918,5.11534536 L145,37.8900202 Z" id="Fill-4" fill="#000000"></path>
                <path d="M32.3750408,21.0424359 C32.3443028,17.5458206 35.172195,15.8447059 35.3015064,15.7655086 C33.6999528,13.3754858 31.2175977,13.0489325 30.3452756,13.022895 C28.2603941,12.7983218 26.2380485,14.299816 25.175999,14.299816 C24.092751,14.299816 22.4572796,13.0445929 20.6946167,13.0814793 C18.4263674,13.1172809 16.3043883,14.4614653 15.1405856,16.5488025 C12.7387852,20.804844 14.5300662,27.0592614 16.8311733,30.4994622 C17.9822569,32.1843035 19.3273075,34.0655108 21.0878506,33.9982473 C22.8102362,33.9266443 23.4536134,32.8753814 25.5321353,32.8753814 C27.5915785,32.8753814 28.1957384,33.9982473 29.9912591,33.9570213 C31.8397763,33.9266443 33.003579,32.2645857 34.1143853,30.563471 C35.4445969,28.6334435 35.9788014,26.7316232 36,26.6339827 C35.9565429,26.6187942 32.4100185,25.2333838 32.3750408,21.0424359" id="Fill-6" fill="#FFFFFF"></path>
                <path d="M29.4477603,11.1645161 C30.4649647,10.0513305 31.1609467,8.53686838 30.9677477,7 C29.4954781,7.05703421 27.6542683,7.8911596 26.5940015,8.97990201 C25.6559388,9.93929897 24.8179672,11.5118137 25.0344432,12.9906294 C26.6882733,13.0985871 28.3863296,12.2603878 29.4477603,11.1645161" id="Fill-8" fill="#FFFFFF"></path>
                <path d="M53.8451268,28.1624587 L52.6435247,24.5067628 C52.5164219,24.1333033 52.2782377,23.2538323 51.9268358,21.8694019 L51.8841121,21.8694019 C51.7441923,22.4648332 51.5188251,23.3443042 51.2090788,24.5067628 L50.0288385,28.1624587 L53.8451268,28.1624587 Z M58,34 L55.5743658,34 L54.2456609,29.8877367 L49.6272363,29.8877367 L48.3615487,34 L46,34 L50.5757009,20 L53.4018692,20 L58,34 Z" id="Fill-10" fill="#FFFFFF"></path>
                <path d="M67.649605,28.4239947 C67.649605,27.4015909 67.4223569,26.5587098 66.9656964,25.8953514 C66.4668326,25.2035321 65.7969917,24.8576224 64.9572557,24.8576224 C64.3880532,24.8576224 63.8707932,25.050281 63.408722,25.4301248 C62.9455687,25.8132526 62.6425712,26.313508 62.5008116,26.9330803 C62.4293908,27.2220682 62.3936803,27.4585127 62.3936803,27.6446034 L62.3936803,29.3960447 C62.3936803,30.1601109 62.625257,30.8048602 63.0884103,31.3313873 C63.5515637,31.8579143 64.1532302,32.1206305 64.8934098,32.1206305 C65.7623634,32.1206305 66.4386971,31.7812888 66.922411,31.1047946 C67.407207,30.4272057 67.649605,29.5339707 67.649605,28.4239947 M70,28.338612 C70,30.1250821 69.5227789,31.5371816 68.5683368,32.573816 C67.7134509,33.4966066 66.6518775,33.9574546 65.3846986,33.9574546 C64.0168813,33.9574546 63.0343036,33.4604831 62.4358836,32.4665402 L62.3925982,32.4665402 L62.3925982,38 L60.0854886,38 L60.0854886,26.6736481 C60.0854886,25.5505364 60.056271,24.3978691 60,23.2156462 L62.0290012,23.2156462 L62.1577751,24.8806101 L62.2010605,24.8806101 C62.9704577,23.6261403 64.1380803,23 65.7050103,23 C66.9299859,23 67.9526025,23.4893089 68.7706958,24.4690214 C69.5909534,25.4498285 70,26.7393272 70,28.338612" id="Fill-12" fill="#FFFFFF"></path>
                <path d="M79.6493506,28.4239947 C79.6493506,27.4015909 79.4209957,26.5587098 78.9632035,25.8953514 C78.4642857,25.2035321 77.797619,24.8576224 76.95671,24.8576224 C76.3852814,24.8576224 75.8701299,25.050281 75.4069264,25.4301248 C74.9426407,25.8132526 74.6417749,26.313508 74.4989177,26.9330803 C74.4296537,27.2220682 74.3928571,27.4585127 74.3928571,27.6446034 L74.3928571,29.3960447 C74.3928571,30.1601109 74.6233766,30.8048602 75.0844156,31.3313873 C75.5487013,31.8568197 76.1504329,32.1206305 76.8928571,32.1206305 C77.7619048,32.1206305 78.4383117,31.7812888 78.9220779,31.1047946 C79.4058442,30.4272057 79.6493506,29.5339707 79.6493506,28.4239947 M82,28.338612 C82,30.1250821 81.521645,31.5371816 80.5670996,32.573816 C79.7132035,33.4966066 78.6515152,33.9574546 77.3831169,33.9574546 C76.0162338,33.9574546 75.0324675,33.4604831 74.4361472,32.4665402 L74.3928571,32.4665402 L74.3928571,38 L72.0854978,38 L72.0854978,26.6736481 C72.0854978,25.5505364 72.0562771,24.3978691 72,23.2156462 L74.0292208,23.2156462 L74.1580087,24.8806101 L74.2012987,24.8806101 C74.969697,23.6261403 76.1374459,23 77.7056277,23 C78.9296537,23 79.9512987,23.4893089 80.7727273,24.4690214 C81.5898268,25.4498285 82,26.7393272 82,28.338612" id="Fill-14" fill="#FFFFFF"></path>
                <path d="M95,29.6981752 C95,30.9375912 94.5715843,31.9459854 93.7114826,32.7244526 C92.7663517,33.5751825 91.4505814,34 89.759811,34 C88.1987645,34 86.947311,33.6967153 86,33.0923358 L86.5385174,31.1456204 C87.5588663,31.7664234 88.6784157,32.0773723 89.8982558,32.0773723 C90.7736192,32.0773723 91.4549419,31.8770073 91.9444041,31.4817518 C92.431686,31.0854015 92.674782,30.5521898 92.674782,29.889781 C92.674782,29.2985401 92.4742006,28.800365 92.0708576,28.3963504 C91.671875,27.9912409 91.0036337,27.6167883 90.0704942,27.2686131 C87.5294331,26.3171533 86.2616279,24.9244526 86.2616279,23.0916058 C86.2616279,21.8937956 86.7063953,20.9116788 87.5970203,20.1463504 C88.4832849,19.3821168 89.6682413,19 91.1486192,19 C92.46875,19 93.565407,19.229927 94.4407703,19.6908759 L93.8597384,21.5948905 C93.0421512,21.1470803 92.1166424,20.9237226 91.0832122,20.9237226 C90.265625,20.9237226 89.6268169,21.1262774 89.168968,21.530292 C88.7819767,21.8905109 88.587936,22.329562 88.587936,22.8485401 C88.587936,23.4255474 88.8092297,23.9007299 89.2539971,24.2762774 C89.6409884,24.6211679 90.3441134,24.9956204 91.3644622,25.399635 C92.6126453,25.9043796 93.5294331,26.4945255 94.119186,27.1711679 C94.7056686,27.8467153 95,28.689781 95,29.6981752" id="Fill-16" fill="#FFFFFF"></path>
                <path d="M103,25.2586391 L100.587269,25.2586391 L100.587269,30.2300747 C100.587269,31.4945416 101.01232,32.1273085 101.865503,32.1273085 C102.255647,32.1273085 102.580082,32.0910285 102.836756,32.0206025 L102.897331,33.7481737 C102.466119,33.9157022 101.898357,34 101.195072,34 C100.330595,34 99.6550308,33.7268325 99.1683778,33.1783633 C98.6817248,32.6298941 98.4373717,31.7100878 98.4373717,30.4178774 L98.4373717,25.256505 L97,25.256505 L97,23.5492079 L98.4373717,23.5492079 L98.4373717,21.6743823 L100.587269,21 L100.587269,23.5492079 L103,23.5492079 L103,25.2586391 Z" id="Fill-18" fill="#FFFFFF"></path>
                <path d="M111.645745,28.4780176 C111.645745,27.5041966 111.445745,26.669964 111.038298,25.9753197 C110.561702,25.1333933 109.882979,24.7135292 109.002128,24.7135292 C108.089362,24.7135292 107.397872,25.1344924 106.92234,25.9753197 C106.514894,26.6710631 106.312766,27.5195843 106.312766,28.5219824 C106.312766,29.4947042 106.514894,30.3289369 106.92234,31.022482 C107.412766,31.8655076 108.096809,32.2853717 108.980851,32.2853717 C109.847872,32.2853717 110.526596,31.8556155 111.017021,31.0015987 C111.43617,30.2915667 111.645745,29.4496403 111.645745,28.4780176 M114,28.4021783 C114,30.0222822 113.55,31.3544165 112.654255,32.3941847 C111.714894,33.4669265 110.469149,34 108.914894,34 C107.415957,34 106.223404,33.4878098 105.334043,32.461231 C104.444681,31.4335532 104,30.138789 104,28.5769384 C104,26.942546 104.457447,25.6038169 105.375532,24.5618505 C106.292553,23.5198841 107.528723,23 109.082979,23 C110.579787,23 111.78617,23.5121902 112.694681,24.5409672 C113.565957,25.5378697 114,26.82494 114,28.4021783" id="Fill-20" fill="#FFFFFF"></path>
                <path d="M122,25.3273767 C121.753409,25.2835699 121.489287,25.2599816 121.214647,25.2599816 C120.338138,25.2599816 119.660304,25.578985 119.183483,26.2158685 C118.768601,26.7774941 118.560577,27.487389 118.560577,28.3444297 L118.560577,34 L116.070121,34 L116.093494,26.6146227 C116.093494,25.37343 116.06194,24.2423159 116,23.2224038 L118.170238,23.2224038 L118.261395,25.2846931 L118.330347,25.2846931 C118.5933,24.5759216 119.007012,24.0053099 119.576159,23.5762279 C120.131282,23.192076 120.730814,23 121.377094,23 C121.607324,23 121.815349,23.0146023 122,23.0438068 L122,25.3273767 Z" id="Fill-22" fill="#FFFFFF"></path>
                <path d="M129.854479,27.4118943 C129.869254,26.715859 129.722561,26.1145374 129.417566,25.6057269 C129.028143,24.9537445 128.429761,24.6277533 127.624531,24.6277533 C126.888954,24.6277533 126.290572,24.9460352 125.833607,25.5848018 C125.458959,26.092511 125.23628,26.7004405 125.167683,27.410793 L129.854479,27.410793 L129.854479,27.4118943 Z M132,28.0209251 C132,28.44163 131.973616,28.7962555 131.917683,29.0859031 L125.167683,29.0859031 C125.194067,30.1299559 125.520169,30.9273128 126.147045,31.4779736 C126.715877,31.9713656 127.451454,32.2180617 128.354831,32.2180617 C129.354245,32.2180617 130.266065,32.0517621 131.086069,31.7180617 L131.438555,33.3480176 C130.4803,33.784141 129.348968,34 128.043504,34 C126.473147,34 125.240502,33.5187225 124.343457,32.5550661 C123.448523,31.5914097 123,30.2973568 123,28.6740088 C123,27.0803965 123.416862,25.753304 124.251642,24.6949339 C125.125469,23.564978 126.306402,23 127.792331,23 C129.251876,23 130.356825,23.564978 131.107176,24.6949339 C131.701337,25.592511 132,26.7015419 132,28.0209251 L132,28.0209251 Z" id="Fill-24" fill="#FFFFFF"></path>
                <path d="M51.7662821,10.3625282 C51.7662821,9.55876599 51.5407518,8.94251317 51.0896911,8.51271633 C50.6386304,8.08397291 49.9799032,7.86907449 49.112393,7.86907449 C48.7439524,7.86907449 48.4302196,7.89224981 48.1700782,7.9407073 L48.1700782,13.0908954 C48.3141049,13.1119639 48.5775958,13.1214447 48.9605508,13.1214447 C49.8559732,13.1214447 50.5470785,12.8865312 51.0338668,12.4167043 C51.520655,11.9468774 51.7662821,11.262152 51.7662821,10.3625282 M53,10.3319789 C53,11.5718585 52.6058802,12.5051919 51.818757,13.1319789 C51.0896911,13.7103085 50.0535914,14 48.7115742,14 C48.0461481,14 47.4767399,13.972611 47,13.917833 L47,7.14326561 C47.6218831,7.04845749 48.2917752,7 49.0152587,7 C50.293636,7 51.2571641,7.26230248 51.9069594,7.78690745 C52.6349088,8.37998495 53,9.22799097 53,10.3319789" id="Fill-26" fill="#FFFFFF"></path>
                <path d="M57.8228287,11.4893228 C57.8228287,11.0469799 57.721031,10.6676835 57.5185185,10.3514338 C57.2802686,9.96908684 56.9413039,9.77791336 56.5005415,9.77791336 C56.0446177,9.77791336 55.6980723,9.96908684 55.4598224,10.3514338 C55.256227,10.6676835 55.1555122,11.0530811 55.1555122,11.5086435 C55.1555122,11.9509864 55.2573099,12.3302827 55.4598224,12.6465324 C55.705653,13.0288794 56.0478666,13.2200529 56.4897119,13.2200529 C56.9228937,13.2200529 57.2629413,13.0258288 57.507689,12.6363636 C57.7177821,12.3140126 57.8228287,11.9316656 57.8228287,11.4893228 M59,11.4547488 C59,12.191987 58.7758285,12.7960138 58.3274854,13.26988 C57.8574832,13.7569656 57.2347845,14 56.4572233,14 C55.7078189,14 55.1111111,13.7671344 54.6660169,13.2993695 C54.2220056,12.8326215 54,12.2438479 54,11.5340655 C54,10.7917429 54.2285034,10.1826317 54.687676,9.70978239 C55.1468486,9.23693309 55.7641326,9 56.5416937,9 C57.2910981,9 57.8932207,9.23286557 58.3491445,9.69961359 C58.7823262,10.1531422 59,10.7388652 59,11.4547488" id="Fill-28" fill="#FFFFFF"></path>
                <path d="M68,9 L66.488287,14 L65.5043924,14 L64.8781845,11.8288078 C64.7193265,11.2868053 64.5901903,10.7479847 64.4897511,10.2134069 L64.4702782,10.2134069 C64.3770132,10.7628341 64.247877,11.300594 64.0818448,11.8288078 L63.4166911,14 L62.4215227,14 L61,9 L62.1038067,9 L62.6500732,11.3769622 C62.782284,11.9391175 62.8909224,12.474756 62.9780381,12.9817565 L62.997511,12.9817565 C63.0774524,12.5638524 63.2096633,12.0313958 63.3961933,11.3875689 L64.0818448,9.00106067 L64.957101,9.00106067 L65.6140556,11.3366568 C65.7729136,11.9062367 65.9020498,12.4546033 66.0014641,12.9828171 L66.0311859,12.9828171 C66.1039531,12.468392 66.2136164,11.9200255 66.3591508,11.3366568 L66.945388,9.00106067 L68,9.00106067 L68,9 Z" id="Fill-30" fill="#FFFFFF"></path>
                <path d="M74,14 L72.9854792,14 L72.9854792,11.1950966 C72.9854792,10.3307708 72.6795741,9.89860794 72.0658277,9.89860794 C71.7647628,9.89860794 71.5217812,10.0170372 71.3330106,10.2549346 C71.1461762,10.4928319 71.0513069,10.7733223 71.0513069,11.0943279 L71.0513069,13.9989611 L70.0367861,13.9989611 L70.0367861,10.5021816 C70.0367861,10.0720964 70.0242014,9.60565136 70,9.10076875 L70.8915779,9.10076875 L70.9390126,9.86640349 L70.9670862,9.86640349 C71.0851888,9.62850613 71.2613746,9.43216289 71.4927396,9.27529607 C71.767667,9.09245793 72.0755082,9 72.4123911,9 C72.8383349,9 73.1926428,9.14751714 73.4743466,9.44359028 C73.8238141,9.80615001 74,10.3473925 74,11.0662788 L74,14 Z" id="Fill-32" fill="#FFFFFF"></path>
                <mask id="mask-4" fill="white">
                    <use xlink:href="#path-3"></use>
                </mask>
                <g id="Clip-35"></g>
                <polygon id="Fill-34" fill="#FFFFFF" mask="url(#mask-4)" points="76 14 77 14 77 7 76 7"></polygon>
                <path d="M82.8217457,11.4893228 C82.8217457,11.0469799 82.719948,10.6676835 82.5174356,10.3514338 C82.2802686,9.96908684 81.9413039,9.77791336 81.5005415,9.77791336 C81.0435348,9.77791336 80.6969894,9.96908684 80.4598224,10.3514338 C80.256227,10.6676835 80.1555122,11.0530811 80.1555122,11.5086435 C80.1555122,11.9509864 80.2573099,12.3302827 80.4598224,12.6465324 C80.705653,13.0288794 81.0478666,13.2200529 81.4907949,13.2200529 C81.9228937,13.2200529 82.2618583,13.0258288 82.506606,12.6363636 C82.7177821,12.3140126 82.8217457,11.9316656 82.8217457,11.4893228 M84,11.4547488 C84,12.191987 83.7758285,12.7960138 83.3274854,13.26988 C82.8574832,13.7569656 82.2337015,14 81.4572233,14 C80.706736,14 80.1100282,13.7671344 79.6660169,13.2993695 C79.2220056,12.8326215 79,12.2438479 79,11.5340655 C79,10.7917429 79.2285034,10.1826317 79.687676,9.70978239 C80.1468486,9.23693309 80.7641326,9 81.5406108,9 C82.2910981,9 82.8921378,9.23286557 83.3491445,9.69961359 C83.7823262,10.1531422 84,10.7388652 84,11.4547488" id="Fill-36" fill="#FFFFFF" mask="url(#mask-4)"></path>
                <path d="M87.8754522,12.2438479 L87.8754522,11.504576 C86.6806202,11.4842384 86.0832041,11.8065894 86.0832041,12.4706122 C86.0832041,12.7207647 86.1514212,12.9078707 86.2909561,13.0329469 C86.430491,13.1580232 86.6072351,13.2200529 86.820155,13.2200529 C87.0578811,13.2200529 87.2801034,13.1458206 87.4826873,12.998373 C87.6852713,12.8499085 87.8113695,12.6617856 87.8568475,12.4309538 C87.8692506,12.3790929 87.8754522,12.3160464 87.8754522,12.2438479 M89,13.8911938 L88.0263566,13.8911938 L87.9457364,13.3390279 L87.9167959,13.3390279 C87.5839793,13.779337 87.1095607,14 86.4935401,14 C86.0335917,14 85.6604651,13.8545861 85.3813953,13.5657921 C85.1271318,13.3034371 85,12.9770185 85,12.5895871 C85,12.0038641 85.248062,11.5574537 85.7462532,11.2483221 C86.245478,10.9391906 86.9462532,10.7876754 87.8485788,10.7947936 L87.8485788,10.7053081 C87.8485788,10.0738255 87.5105943,9.75859264 86.8366925,9.75859264 C86.3560724,9.75859264 85.9322997,9.87756762 85.5664083,10.1134838 L85.3462532,9.41387025 C85.7989664,9.13829571 86.3581395,9 87.0175711,9 C88.2899225,9 88.9297158,9.66097214 88.9297158,10.9829164 L88.9297158,12.7482205 C88.9297158,13.227171 88.9534884,13.6085011 89,13.8911938" id="Fill-37" fill="#FFFFFF" mask="url(#mask-4)"></path>
                <path d="M94.7933333,12.6002291 L94.7933333,11.6998855 C94.7933333,11.5441008 94.7822222,11.4180985 94.7611111,11.3218786 C94.6955556,11.0332188 94.5544444,10.790378 94.34,10.5945017 C94.1222222,10.3986254 93.8622222,10.3001145 93.5611111,10.3001145 C93.1266667,10.3001145 92.7855556,10.4776632 92.5366667,10.8339061 C92.2888889,11.1901489 92.1633333,11.6449026 92.1633333,12.2004582 C92.1633333,12.7342497 92.2822222,13.1672394 92.5211111,13.5005727 C92.7733333,13.8556701 93.1122222,14.0332188 93.5388889,14.0332188 C93.9211111,14.0332188 94.2266667,13.8854525 94.4588889,13.5887743 C94.6822222,13.3150057 94.7933333,12.9851088 94.7933333,12.6002291 M96,14.8774341 L94.9666667,14.8774341 L94.9111111,14.0103093 L94.88,14.0103093 C94.55,14.6701031 93.9866667,15 93.1966667,15 C92.5666667,15 92.04,14.744559 91.6233333,14.233677 C91.2066667,13.722795 91,13.0595647 91,12.2451317 C91,11.371134 91.2255556,10.6632302 91.6788889,10.1225659 C92.1177778,9.6185567 92.6555556,9.36655212 93.2944444,9.36655212 C93.9988889,9.36655212 94.4911111,9.61053837 94.77,10.0996564 L94.7933333,10.0996564 L94.7933333,7 L95.9588889,7 L95.9588889,13.4226804 C95.9588889,13.9484536 95.9722222,14.4329897 96,14.8774341" id="Fill-38" fill="#FFFFFF" mask="url(#mask-4)"></path>
                <path d="M103.823912,11.4893228 C103.823912,11.0469799 103.722114,10.6676835 103.519601,10.3514338 C103.280269,9.96908684 102.942387,9.77791336 102.500541,9.77791336 C102.044618,9.77791336 101.699155,9.96908684 101.458739,10.3514338 C101.256227,10.6676835 101.155512,11.0530811 101.155512,11.5086435 C101.155512,11.9509864 101.25731,12.3302827 101.458739,12.6465324 C101.705653,13.0288794 102.047867,13.2200529 102.489712,13.2200529 C102.922894,13.2200529 103.262941,13.0258288 103.508772,12.6363636 C103.717782,12.3140126 103.823912,11.9316656 103.823912,11.4893228 M105,11.4547488 C105,12.191987 104.775828,12.7960138 104.327485,13.26988 C103.857483,13.7569656 103.235867,14 102.457223,14 C101.708902,14 101.112194,13.7671344 100.666017,13.2993695 C100.222006,12.8326215 100,12.2438479 100,11.5340655 C100,10.7917429 100.228503,10.1826317 100.687676,9.70978239 C101.146849,9.23693309 101.764133,9 102.541694,9 C103.291098,9 103.893221,9.23286557 104.349144,9.69961359 C104.782326,10.1531422 105,10.7388652 105,11.4547488" id="Fill-39" fill="#FFFFFF" mask="url(#mask-4)"></path>
                <path d="M111,14 L109.986202,14 L109.986202,11.1950966 C109.986202,10.3307708 109.680223,9.89860794 109.065359,9.89860794 C108.764222,9.89860794 108.521181,10.0170372 108.333333,10.2549346 C108.145485,10.4928319 108.051561,10.7733223 108.051561,11.0943279 L108.051561,13.9989611 L107.035827,13.9989611 L107.035827,10.5021816 C107.035827,10.0720964 107.025176,9.60565136 107,9.10076875 L107.890825,9.10076875 L107.938272,9.86640349 L107.966352,9.86640349 C108.085451,9.62850613 108.26168,9.43216289 108.492133,9.27529607 C108.768095,9.09245793 109.075042,9 109.412975,9 C109.838054,9 110.192447,9.14751714 110.474219,9.44359028 C110.825708,9.80615001 111,10.3473925 111,11.0662788 L111,14 Z" id="Fill-40" fill="#FFFFFF" mask="url(#mask-4)"></path>
                <path d="M119,9.96390977 L117.794774,9.96390977 L117.794774,12.2596491 C117.794774,12.8431078 118.009059,13.1348371 118.432404,13.1348371 C118.629965,13.1348371 118.793031,13.118797 118.921603,13.0857143 L118.94878,13.8827068 C118.732404,13.9609023 118.449129,14 118.098955,14 C117.666202,14 117.328571,13.8736842 117.085017,13.6210526 C116.841463,13.3684211 116.719164,12.9433584 116.719164,12.3468672 L116.719164,9.96390977 L116,9.96390977 L116,9.17694236 L116.719164,9.17694236 L116.719164,8.31077694 L117.793728,8 L117.793728,9.17593985 L118.998955,9.17593985 L118.998955,9.96390977 L119,9.96390977 Z" id="Fill-41" fill="#FFFFFF" mask="url(#mask-4)"></path>
                <path d="M125,14 L123.974359,14 L123.974359,11.2720663 C123.974359,10.4119529 123.666667,9.98138723 123.048352,9.98138723 C122.573626,9.98138723 122.249328,10.2307692 122.071551,10.7295332 C122.04127,10.8343755 122.022711,10.9626291 122.022711,11.1132761 L122.022711,13.9989821 L121,13.9989821 L121,7 L122.022711,7 L122.022711,9.89181329 L122.043223,9.89181329 C122.365568,9.36556638 122.826618,9.10295187 123.426374,9.10295187 C123.849328,9.10295187 124.200977,9.24749164 124.479365,9.53758906 C124.825153,9.89893849 125,10.4363821 125,11.1468664 L125,14 Z" id="Fill-42" fill="#FFFFFF" mask="url(#mask-4)"></path>
                <path d="M129.806967,11.0052986 C129.816512,10.6884043 129.734192,10.415325 129.564782,10.1850418 C129.34765,9.88852659 129.01718,9.73975953 128.569792,9.73975953 C128.161775,9.73975953 127.828919,9.88445078 127.574803,10.1748523 C127.367215,10.4061545 127.244333,10.6822906 127.20377,11.0052986 L129.806967,11.0052986 Z M131,11.2814347 C131,11.4729978 130.983298,11.6339923 130.953472,11.7654371 L127.20377,11.7654371 C127.220472,12.240269 127.399427,12.6019971 127.7466,12.8526595 C128.063947,13.076829 128.473157,13.1889138 128.97423,13.1889138 C129.528991,13.1889138 130.034837,13.1135113 130.490575,12.9616874 L130.686232,13.7034848 C130.152947,13.9011616 129.525412,14 128.798855,14 C127.927941,14 127.241947,13.7809252 126.745645,13.3427756 C126.246958,12.904626 126,12.3166904 126,11.5789688 C126,10.8544936 126.230255,10.2512737 126.694345,9.7703281 C127.178716,9.25677603 127.833691,9 128.660463,9 C129.469339,9 130.083751,9.25677603 130.498926,9.7703281 C130.834168,10.1779091 131,10.6822906 131,11.2814347 L131,11.2814347 Z" id="Fill-43" fill="#FFFFFF" mask="url(#mask-4)"></path>
            </g>
        </g>
    </g>
</svg>