<?xml version="1.0" encoding="UTF-8"?>
<svg width="156px" height="141px" viewBox="0 0 156 141" version="1.1" xmlns="http://www.w3.org/2000/svg" xmlns:xlink="http://www.w3.org/1999/xlink">
    <!-- Generator: Sketch 53.2 (72643) - https://sketchapp.com -->
    <title>Group 197</title>
    <desc>Created with Sketch.</desc>
    <defs>
        <polygon id="path-1" points="0.333049231 0.391763077 34.8658945 0.391763077 34.8658945 23.8615385 0.333049231 23.8615385"></polygon>
        <polygon id="path-3" points="7.13677312e-05 0.531461538 150.43666 0.531461538 150.43666 133.498438 7.13677312e-05 133.498438"></polygon>
    </defs>
    <g id="Page-1" stroke="none" stroke-width="1" fill="none" fill-rule="evenodd">
        <g id="C1-b-saved-enough-::-slightly-low" transform="translate(-110.000000, -218.000000)">
            <g id="pig-middle-value" transform="translate(110.000000, 218.000000)">
                <g id="Group-197" transform="translate(0.000000, 0.000000)">
                    <path d="M25.5431985,126.726751 C25.1621369,125.136705 24.8020446,123.55172 24.4629215,121.971074 C24.8027677,123.55172 25.1621369,125.136705 25.5431985,126.726751" id="Fill-1" fill="#E7B7C8"></path>
                    <path d="M35.9691723,117.175628 C35.9409723,116.897243 35.9062646,116.619582 35.8802338,116.34192 C34.5866492,110.667935 33.5446954,104.944058 32.7355723,99.1833046 C29.3334954,96.1904892 26.4151569,92.8737354 24.0875723,89.2959508 C23.35148,88.0124892 22.6797415,86.6972123 22.0752492,85.3530123 C21.9942646,88.3125662 21.7918031,91.6213662 21.1265723,94.6250277 C21.2675723,94.5693508 21.4092954,94.5158431 21.5510185,94.4579969 C21.2776954,103.593351 22.4620954,112.590597 24.4107877,121.726674 C24.0745569,120.146751 23.7592954,118.571166 23.4715108,116.998474 C27.6429415,117.051982 31.8093108,117.229135 35.9691723,117.175628" id="Fill-3" fill="#E7B7C8"></path>
                    <path d="M97.33042,119.553177 C97.3239123,119.467854 97.3137892,119.381808 97.3080046,119.296485 C97.5726508,118.492423 97.5162508,117.573392 97.1944815,116.741131 C97.1720662,115.715085 97.1792969,114.687592 97.2147277,113.656485 C95.0758662,114.127931 92.8892815,114.513331 90.6614815,114.810515 C87.89282,115.180008 85.06342,115.413562 82.1834046,115.499608 C82.4263585,117.137377 82.69462,118.776592 83.0012046,120.417254 C82.99542,120.388331 82.9889123,120.358685 82.9838508,120.329762 C87.6064815,121.718069 92.8126354,121.386177 97.33042,119.553177" id="Fill-5" fill="#E7B7C8"></path>
                    <path d="M83.6435138,123.65794 C83.6442369,123.65794 83.64496,123.65794 83.64496,123.658663 C83.6196523,123.537186 83.5928985,123.416432 83.5683138,123.295678 C83.6565292,123.725186 83.7490831,124.154694 83.8416369,124.584925 C83.7910215,124.347032 83.7404062,124.109863 83.6897908,123.871971 C83.6760523,123.800386 83.6586985,123.729525 83.6435138,123.65794" id="Fill-7" fill="#E7B7C8"></path>
                    <path d="M84.3524908,126.8906 L84.3040446,126.676569 C84.3893677,127.054015 84.4746908,127.431462 84.5629062,127.809631 C84.5513369,127.761908 84.5419369,127.714908 84.5303677,127.667908 C84.4703523,127.408323 84.4117831,127.148738 84.3524908,126.8906" id="Fill-9" fill="#E7B7C8"></path>
                    <path d="M85.3240892,130.962825 C85.3269815,130.97584 85.3298738,130.987409 85.3327662,131.000425 C85.3298738,130.989578 85.3284277,130.979455 85.3255354,130.970055 C85.3248123,130.967886 85.3240892,130.965717 85.3240892,130.962825" id="Fill-11" fill="#E7B7C8"></path>
                    <path d="M88.2814015,133.900325 C88.1960785,133.88514 88.1136477,133.862002 88.0297708,133.841755 C88.1136477,133.862002 88.1960785,133.88514 88.2814015,133.900325" id="Fill-13" fill="#F7CEDB"></path>
                    <path d="M86.46308,133.012748 C86.4305415,132.983102 86.4030646,132.946225 86.3712492,132.915132 C86.4030646,132.946225 86.4305415,132.983102 86.46308,133.012748" id="Fill-15" fill="#F7CEDB"></path>
                    <path d="M83.6901523,123.871898 C83.6749677,123.800314 83.6597831,123.729452 83.6453215,123.658591 C83.6453215,123.657868 83.6445985,123.657868 83.6438754,123.657868 C83.6583369,123.729452 83.6756908,123.800314 83.6901523,123.871898" id="Fill-17" fill="#F7CEDB"></path>
                    <path d="M86.0394292,132.529009 C85.9974908,132.472609 85.9584446,132.411871 85.9186754,132.351132 C85.9584446,132.411871 85.9974908,132.472609 86.0394292,132.529009" id="Fill-19" fill="#F7CEDB"></path>
                    <path d="M84.3524908,126.8906 C84.4117831,127.148738 84.4703523,127.408323 84.5303677,127.667908 C84.4696292,127.408323 84.4117831,127.149462 84.3524908,126.8906" id="Fill-21" fill="#F7CEDB"></path>
                    <path d="M91.8233215,133.062134 C91.3836908,133.367995 90.8956138,133.602272 90.38946,133.754842 C90.89706,133.602995 91.3822446,133.367995 91.8233215,133.062134" id="Fill-23" fill="#F7CEDB"></path>
                    <path d="M85.6750708,131.919672 C85.6432554,131.853872 85.6092708,131.790965 85.5796246,131.722995 C85.6092708,131.790965 85.6432554,131.853872 85.6750708,131.919672" id="Fill-25" fill="#F7CEDB"></path>
                    <path d="M90.3821569,133.757734 C90.2375415,133.801118 90.0900338,133.83438 89.9425262,133.864749 C90.0907569,133.83438 90.2368185,133.801118 90.3821569,133.757734" id="Fill-27" fill="#F7CEDB"></path>
                    <path d="M89.7890169,133.893311 C89.6552477,133.916449 89.5214785,133.935249 89.3869862,133.946095 C89.5214785,133.935972 89.6545246,133.915726 89.7890169,133.893311" id="Fill-29" fill="#F7CEDB"></path>
                    <path d="M87.6910815,133.742838 C87.6158815,133.716808 87.5406815,133.688608 87.4669277,133.657515 C87.5406815,133.688608 87.6151585,133.716808 87.6910815,133.742838" id="Fill-31" fill="#F7CEDB"></path>
                    <path d="M87.1007615,133.473131 C87.0472538,133.442762 86.9923,133.416008 86.9395154,133.382746 C86.9923,133.416731 87.0472538,133.442762 87.1007615,133.473131" id="Fill-33" fill="#F7CEDB"></path>
                    <path d="M88.6365769,133.941323 C88.8166231,133.957231 88.9973923,133.960846 89.1810538,133.955062 C88.9981154,133.961569 88.8166231,133.956508 88.6365769,133.941323" id="Fill-35" fill="#F7CEDB"></path>
                    <path d="M92.2534077,132.726048 C92.1189154,132.843909 91.9786385,132.953094 91.8325769,133.055771 C91.9793615,132.953094 92.1181923,132.843909 92.2534077,132.726048" id="Fill-37" fill="#F7CEDB"></path>
                    <path d="M85.3255354,130.969911 C85.3284277,130.980034 85.3298738,130.989434 85.3327662,131.00028 C85.3327662,131.001726 85.3342123,131.002449 85.3342123,131.003895 C85.3342123,131.002449 85.3334892,131.001726 85.3327662,131.00028 C85.3305969,130.989434 85.3284277,130.980034 85.3255354,130.969911" id="Fill-39" fill="#F7CEDB"></path>
                    <path d="M97.33042,119.553177 C92.8126354,121.386177 87.6064815,121.718069 82.9838508,120.329762 C82.9889123,120.358685 82.99542,120.388331 83.0012046,120.417254 C83.1798046,121.376054 83.3692508,122.335577 83.5680969,123.295823 C83.5926815,123.416577 83.6194354,123.537331 83.6447431,123.658808 C83.6599277,123.728946 83.6751123,123.800531 83.6902969,123.872115 C83.7401892,124.110008 83.7908046,124.347177 83.8421431,124.585069 C83.99182,125.281392 84.1451123,125.978438 84.3034662,126.676931 L84.3526354,126.890238 C84.4119277,127.149823 84.4697738,127.407962 84.5305123,127.668269 C84.5413585,127.714546 84.5514815,127.762269 84.5630508,127.809269 C84.8081738,128.858454 85.0598046,129.909085 85.3244508,130.962608 C85.3244508,130.9655 85.3244508,130.967669 85.3251738,130.969838 C85.3280662,130.979962 85.3302354,130.989362 85.3324046,131.000208 C85.3331277,131.001654 85.3338508,131.002377 85.3338508,131.003823 C85.3996508,131.263408 85.4849738,131.499131 85.5796969,131.722562 C85.6093431,131.791254 85.6433277,131.854162 85.6751431,131.919962 C85.74962,132.071808 85.8306046,132.217146 85.91882,132.350915 C85.9578662,132.411654 85.9976354,132.472392 86.0395738,132.528792 C86.1429738,132.669069 86.2543277,132.796331 86.3714662,132.914915 C86.4032815,132.946008 86.4307585,132.982885 86.4632969,133.012531 C86.6129738,133.152808 86.7720508,133.275008 86.9398046,133.382746 C86.9918662,133.416008 87.04682,133.442762 87.1010508,133.473131 C87.2203585,133.5411 87.3418354,133.604008 87.4669277,133.657515 C87.5406815,133.688608 87.6151585,133.716808 87.6910815,133.742838 C87.8024354,133.781885 87.9152354,133.8137 88.0302046,133.8419 C88.1133585,133.862146 88.1957892,133.885285 88.2811123,133.900469 C88.3982508,133.920715 88.5175585,133.930838 88.6368662,133.940962 C88.8169123,133.956869 88.9984046,133.961931 89.18062,133.9547 C89.2493123,133.951808 89.3180046,133.951808 89.38742,133.946023 C89.5211892,133.935177 89.6556815,133.916377 89.7887277,133.893238 C89.8407892,133.884562 89.8914046,133.875162 89.94202,133.865038 C90.0895277,133.834669 90.2370354,133.800685 90.3823738,133.758023 C90.3845431,133.7573 90.3867123,133.755854 90.3888815,133.755131 C90.8957585,133.602562 91.3831123,133.367562 91.8234662,133.062423 C91.8263585,133.060254 91.8299738,133.058085 91.8321431,133.055915 C91.9789277,132.953238 92.1192046,132.844054 92.2536969,132.726192 L92.2536969,132.726192 C93.0845123,132.1405 93.7656508,131.306792 94.3245892,130.437654 C94.9739123,130.914885 95.6818046,131.287269 96.4359738,131.546131 C96.5147892,131.592408 96.5957738,131.634346 96.6774815,131.677731 C97.5133585,132.144115 98.4511892,132.410208 99.4822969,132.382731 C99.5907585,132.379115 99.6977738,132.352362 99.8062354,132.339346 C98.4721585,128.152008 97.6442354,123.880792 97.33042,119.553177" id="Fill-41" fill="#D293A8"></path>
                    <path d="M49.2056015,137.1648 C49.1173862,137.226985 49.0154323,137.265308 48.9207092,137.315923 C49.3097246,138.929108 50.3806015,139.830062 51.6387554,140.133754 C50.4782169,139.713646 49.5288169,138.758462 49.2056015,137.1648" id="Fill-43" fill="#F7CEDB"></path>
                    <g id="Group-47" transform="translate(23.138462, 116.607000)">
                        <mask id="mask-2" fill="white">
                            <use xlink:href="#path-1"></use>
                        </mask>
                        <g id="Clip-46"></g>
                        <path d="M14.3072338,10.7107938 C13.67888,7.32317846 13.1770646,3.94713231 12.8307108,0.568916923 C8.67084923,0.622424615 4.50448,0.445270769 0.333049231,0.391763077 C0.620833846,1.96373231 0.936095385,3.54004 1.27232615,5.11996308 C1.28968,5.20094769 1.30703385,5.28265538 1.32438769,5.36364 C1.66351077,6.94500923 2.02360308,8.52927077 2.40466462,10.12004 C3.44734154,14.4679015 8.97309538,13.6840862 10.4597415,10.4121631 C10.8979262,10.3629938 11.3071877,10.2104246 11.6586031,9.96385538 C12.0280954,11.8366246 13.2913108,12.8048246 14.7345723,13.0405477 C15.2566338,15.6067477 15.84088,18.1809015 16.4771877,20.7695169 C17.5820492,25.2648862 23.3037569,24.4232246 24.82728,21.0283785 C25.1707415,20.9878862 25.4867262,20.8678554 25.7824646,20.7087785 C25.8771877,20.6581631 25.9791415,20.61984 26.0673569,20.5576554 C26.3905723,22.1513169 27.3392492,23.1072246 28.5005108,23.5273323 C31.3544954,24.5613323 35.4919415,22.3479938 34.7862185,18.3392554 C34.3342954,15.76944 33.8823723,13.1482862 33.4882954,10.5039938 C33.2771569,10.5235169 33.0660185,10.5350862 32.85488,10.55244 C26.6870338,11.0730554 20.50328,10.7599631 14.3072338,10.7107938" id="Fill-45" fill="#D293A8" mask="url(#mask-2)"></path>
                    </g>
                    <path d="M100.888609,135.431946 C100.694825,134.9229 100.51044,134.412408 100.332563,133.901192 C100.511886,134.412408 100.693378,134.9229 100.888609,135.431946" id="Fill-48" fill="#F7CEDB"></path>
                    <path d="M101.608866,137.243182 C101.611758,137.248243 101.614651,137.251858 101.61682,137.25692 C101.549574,137.09712 101.488835,136.935874 101.423035,136.776074 C101.487389,136.930812 101.543789,137.08772 101.608866,137.243182" id="Fill-50" fill="#F7CEDB"></path>
                    <path d="M118.836318,123.433352 C119.331626,124.653183 119.976611,125.878075 120.482765,127.126106 C119.986734,125.876629 119.340303,124.653183 118.836318,123.433352" id="Fill-52" fill="#F7CEDB"></path>
                    <g id="Group-56" transform="translate(0.000000, 0.191615)">
                        <mask id="mask-4" fill="white">
                            <use xlink:href="#path-3"></use>
                        </mask>
                        <g id="Clip-55"></g>
                        <path d="M113.788952,65.5241462 C112.485968,65.4793154 111.312414,64.9644846 110.418691,64.1510231 C109.650783,65.1806846 107.622552,65.1785154 107.235706,63.5313462 C106.660137,61.0851769 107.766445,58.4929462 109.740445,57.0728231 C110.743352,55.7351308 112.360152,54.8913 114.158445,54.9542077 C117.077506,55.0554385 119.360983,57.5045 119.258306,60.4235615 C119.157075,63.3426231 116.707291,65.6268231 113.788952,65.5241462 M101.031706,13.7496692 C103.168398,11.9839154 106.233522,15.0591615 104.078029,16.8408231 C102.093183,18.4814846 100.796706,20.6565 100.605091,23.2588538 C100.399737,26.0340231 96.0598292,26.0658385 96.2659062,23.2819923 C96.5406754,19.5646538 98.1343369,16.1459462 101.031706,13.7496692 M91.8912908,19.8603923 C92.9426446,17.1915154 94.40326,14.7330538 96.2680754,12.5515308 C97.4654908,11.1502077 99.7959677,12.8385923 98.5913215,14.2485923 C96.8732908,16.2587462 95.5399369,18.4503923 94.5702908,20.9124692 C93.8905985,22.6362846 91.2115985,21.5863769 91.8912908,19.8603923 M116.376122,16.5270077 C118.512091,14.7612538 121.577214,17.8365 119.422445,19.6181615 C117.437598,21.2588231 116.141122,23.4338385 115.948783,26.0361923 C115.744152,28.8113615 111.404245,28.8431769 111.609598,26.0593308 C111.884368,22.3427154 113.478029,18.9232846 116.376122,16.5270077 M54.7005523,28.4845308 L58.8083523,24.8207 C58.8083523,24.8207 66.67326,23.1966692 76.7276446,23.8105615 L73.84546,27.4049769 C73.84546,27.4049769 68.5879677,25.7231 54.7005523,28.4845308 M40.6200754,41.8318077 C37.5585677,44.3871615 35.0220138,47.3083923 32.9590754,50.7227615 C31.5143677,53.1139769 27.7963062,50.8767769 29.2431831,48.4826692 C31.47966,44.7812385 34.2721831,41.4955769 37.5939985,38.7233 C39.7277985,36.9423615 42.7668908,40.0407462 40.6200754,41.8318077 M13.9067215,42.6741923 C15.1431831,42.6937154 16.5199215,43.2671154 17.1815369,44.0364692 C17.2509523,44.1181769 17.3073523,44.1948231 17.3521831,44.2678538 C15.2603215,45.6171154 12.3007677,45.7523308 10.1734754,44.4905615 C9.87629077,44.3141308 9.59501385,44.1116692 9.33181385,43.8853462 C10.7360292,43.0957462 12.3181215,42.6481615 13.9067215,42.6741923 M147.448906,82.7897769 C143.408352,82.7897769 140.132814,74.8547308 140.132814,65.0664385 C140.132814,57.4271308 142.127783,50.9172692 144.926091,48.4262692 C145.507445,47.7183769 146.393214,47.2404231 147.587737,47.2404231 C147.968075,47.2404231 148.313706,47.2924846 148.632583,47.3807 C148.310814,46.8911769 147.932645,46.4378077 147.502414,46.0408385 C146.227629,44.8622231 144.624568,44.2526692 142.999091,44.3228077 C141.306368,44.3951154 139.568091,44.4088538 137.813906,44.3676385 C135.987414,40.0190538 133.674291,35.6328692 129.811614,32.1194385 C128.926568,31.3132077 127.990183,30.5583154 127.016922,29.8641615 C126.507152,24.2017462 127.474629,18.5928385 129.835475,13.5725154 C130.661952,11.8168846 130.466722,9.81757692 129.327152,8.35623846 C128.273629,7.00480769 126.608383,6.36343846 124.973506,6.68376154 C120.551168,7.54928462 116.325506,9.65777692 112.611783,12.7944846 C113.09046,10.9643769 113.731106,9.18777692 114.524322,7.50228462 C115.350075,5.74520769 115.155568,3.7459 114.015275,2.28383846 C112.960306,0.933130769 111.292168,0.291761538 109.661629,0.612807692 C100.124245,2.48051538 91.5340908,10.2441923 87.1768292,20.9117462 C86.9801523,21.1807308 86.7762446,21.4743 86.57306,21.7779923 C86.3156446,22.1633923 86.0596754,22.5697615 85.82106,23.0043308 C84.5954446,22.7151 83.3575369,22.4750385 82.1145677,22.2631769 L74.11806,31.6349769 L76.9930138,35.5699615 L73.8657062,40.2612846 L76.3545369,46.7183615 L74.2503831,49.4581 L87.0358292,45.8072846 C88.52826,45.3821154 90.0626292,45.6764077 91.2665523,46.4797462 C92.7712754,47.0133769 94.00846,48.2375462 94.4777369,49.8803769 L94.6888754,50.6215308 C95.4589523,53.3186077 93.8826446,56.1559615 91.1848446,56.9260385 L73.3291831,62.0244538 L72.7724138,62.8769615 L72.4701677,62.6788385 L72.7991677,62.1755769 L66.1765062,64.0664231 C64.6840754,64.4923154 63.1504292,64.1973 61.9457831,63.3946846 C60.4417831,62.8596077 59.2038754,61.6368846 58.7345985,59.9940538 L58.5227369,59.2529 C57.75266,56.5558231 59.3304138,53.7177462 62.0274908,52.9476692 L73.5757523,49.6504385 L75.1267523,46.5173462 L72.9748754,40.3119 L75.6827985,35.8309923 L72.9748754,31.7029462 L79.9337677,21.9312846 C78.8101062,21.7801615 77.6835523,21.6492846 76.5533831,21.5596231 C75.6574908,21.4894846 74.7594292,21.4309154 73.8606446,21.3991 C49.4690908,20.5494846 28.3364446,34.0616231 21.0579523,53.2853462 C20.0073215,56.0619615 19.2423062,58.9564385 18.8012292,61.9456385 C18.64866,61.9463615 18.4946446,61.9434692 18.3420754,61.9420231 C14.2436754,61.9094846 9.87556769,61.1386846 7.09533692,58.2145615 C4.65278308,55.6461923 3.91307538,51.4263154 5.33609077,48.1804231 C5.50746,47.7892385 5.71064462,47.4110692 5.94130615,47.0488077 C6.51109077,47.5817154 7.13872154,48.0567769 7.81913692,48.4602538 C12.0809523,50.9874077 17.7860292,50.3503769 21.3862292,46.9461308 L21.9755369,46.3879154 L22.0861677,45.5838538 C22.3088754,43.9627154 21.8113985,42.3459154 20.6833985,41.0320846 C19.1685523,39.2670538 16.5372754,38.1000077 13.9783062,38.0602385 C11.5480446,38.0175769 9.14887538,38.6864231 7.04110615,39.8773308 C6.85021385,38.9185308 6.85889077,37.9308077 7.10184462,37.0045462 L2.64046,35.8309923 C2.00487538,38.2439 2.24204462,40.7898538 3.17987538,43.0451308 C2.33676769,44.0314077 1.63249077,45.1348231 1.10898308,46.3279 C-1.06169385,51.2802538 0.0250907692,57.4755769 3.75038308,61.3939308 C7.50532154,65.3419308 12.8669369,66.4424538 17.8012138,66.5480231 C17.9935523,66.5523615 18.1858908,66.5581462 18.3767831,66.5595923 L18.3767831,66.5603154 C18.1475677,73.1106692 19.4845369,79.3978231 22.0753215,85.1614692 C22.6798138,86.5056692 23.3515523,87.8209462 24.0876446,89.1044077 C26.4152292,92.6821923 29.3335677,95.9989462 32.7356446,98.9917615 C33.5447677,104.752515 34.5867215,110.476392 35.8803062,116.150377 C35.9063369,116.428038 35.9410446,116.7057 35.9692446,116.984085 C36.3148754,120.363023 36.8174138,123.739069 37.4457677,127.125962 C43.6418138,127.175854 49.8255677,127.488223 55.9934138,126.968331 C55.2356292,121.812792 54.7330908,116.567592 55.0085831,111.444592 C61.6717369,113.644192 68.9429985,114.983331 76.5823062,115.279792 L74.1881985,111.917485 C68.5228908,111.825654 62.8517985,110.697654 57.4019677,108.521192 C54.8082908,107.485023 56.8733985,103.666454 59.4381523,104.690331 C63.4946138,106.310746 67.7506446,107.257254 72.0392138,107.5501 L73.62926,105.126346 L71.5778908,101.730777 L73.2084292,97.0307769 L71.4513523,93.4826385 L71.4419523,93.5173462 L71.1794754,93.4378077 L71.8230138,91.2844846 L61.2733215,89.4876385 C59.7440138,89.2266077 58.4880292,88.2981769 57.7483215,87.0530385 C56.6224908,85.9214231 56.0353523,84.2829308 56.3224138,82.5981615 L56.4518446,81.8389308 C56.9225677,79.0731615 59.5719215,77.1967769 62.3369677,77.6675 L87.9751062,82.0356077 C89.5051369,82.2959154 90.7603985,83.2250692 91.5001062,84.4702077 C92.6252138,85.6025462 93.2130754,87.2395923 92.9260138,88.9243615 L92.7965831,89.6835923 C92.3251369,92.4493615 89.6765062,94.3264692 86.91146,93.8557462 L72.0948908,91.3307615 L71.4737677,93.4096077 L74.1383062,96.8782077 L72.2532446,101.769823 L74.6220446,105.323023 L72.9611369,107.596377 C80.0111369,107.921762 87.1168138,106.483562 93.5413523,103.294069 C96.0236754,102.061946 98.3252292,105.742408 95.8204908,106.9861 C89.3713677,110.187885 82.4638138,111.820592 75.5193831,111.907362 L78.4398908,115.330408 C78.8954292,115.338362 79.3487985,115.349208 79.8065062,115.349208 C80.6026138,115.349208 81.3943831,115.331854 82.18326,115.307992 C85.0632754,115.221946 87.8933985,114.988392 90.66206,114.6189 C91.4155062,114.474285 92.17546,114.319546 92.9549369,114.161915 C93.11546,114.128654 93.2723677,114.107685 93.4271062,114.094669 C93.4249369,114.059962 93.4220446,114.025977 93.4198754,113.991269 C94.6953831,113.787362 95.9629369,113.553085 97.2181985,113.286269 C97.2167523,113.345562 97.2167523,113.404854 97.2145831,113.464869 C97.1791523,114.495977 97.1726446,115.523469 97.1943369,116.549515 C97.5161062,117.381777 97.5725062,118.300808 97.30786,119.104869 C97.3136446,119.190192 97.3237677,119.276238 97.3302754,119.361562 C97.6440908,123.689177 98.4720138,127.960392 99.8060908,132.147731 C99.9499831,132.598931 100.102552,133.048685 100.258737,133.498438 C99.01866,129.882331 98.1647062,126.201146 97.6881985,122.473685 C100.486506,123.081069 104.012229,123.1635 107.771506,122.569854 C111.681183,121.952346 115.123752,120.715885 117.625598,119.194531 C117.193922,117.322485 116.906137,115.420792 116.804906,113.493792 C116.669691,110.8965 116.846845,108.333192 117.284306,105.822669 C117.291537,105.783623 117.295152,105.743131 117.30166,105.702638 C117.739845,105.452454 118.180198,105.205162 118.608983,104.9463 C123.692214,101.870331 128.160106,98.1501 131.840568,93.9909615 C133.184045,92.4732231 134.429906,90.8998077 135.551398,89.2728846 C135.220229,89.4232846 134.829768,89.5028231 134.364106,89.4637769 C130.150737,89.1109154 125.933752,88.9026692 121.705922,88.8375923 C118.446291,88.7877 118.447014,83.7261615 121.705922,83.7760538 C125.933752,83.8411308 130.150737,84.0493769 134.364106,84.4022385 C137.021414,84.6256692 137.497922,88.0899308 135.774106,89.1586385 L141.884106,88.4601462 C142.118383,88.4333923 142.35266,88.3900077 142.594168,88.3299923 C146.477814,88.0060538 148.910245,84.9676846 150.43666,81.2431154 C149.524137,82.2337308 148.513275,82.7897769 147.448906,82.7897769" id="Fill-54" fill="#F7CEDB" mask="url(#mask-4)"></path>
                    </g>
                    <path d="M118.608983,105.137554 C118.180198,105.396415 117.739845,105.643708 117.30166,105.894615 C117.295152,105.935108 117.291537,105.974877 117.284306,106.014646 C122.992275,102.740554 127.920768,98.7339846 131.840568,94.1829385 C128.160106,98.3420769 123.692214,102.061585 118.608983,105.137554" id="Fill-57" fill="#F6E610"></path>
                    <path d="M97.2181985,113.477668 C95.9629369,113.744483 94.6953831,113.97876 93.4198754,114.183391 C93.4220446,114.217375 93.4249369,114.25136 93.4271062,114.286068 C93.2723677,114.299806 93.11546,114.320052 92.9549369,114.353314 C92.17546,114.511668 91.4155062,114.666406 90.66206,114.811022 C92.88986,114.513837 95.0757215,114.127714 97.2145831,113.656268 C97.2167523,113.596252 97.2167523,113.53696 97.2181985,113.477668" id="Fill-59" fill="#E7B7C8"></path>
                    <path d="M97.2181985,113.477668 C95.9629369,113.744483 94.6953831,113.97876 93.4198754,114.183391 C93.4220446,114.217375 93.4249369,114.25136 93.4271062,114.286068 C93.2723677,114.299806 93.11546,114.320052 92.9549369,114.353314 C92.17546,114.511668 91.4155062,114.666406 90.66206,114.811022 C92.88986,114.513837 95.0757215,114.127714 97.2145831,113.656268 C97.2167523,113.596252 97.2167523,113.53696 97.2181985,113.477668" id="Fill-61" fill="#F6E610"></path>
                    <path d="M21.0578077,53.4771062 C19.8061615,56.2558908 18.8871308,59.1489215 18.3419308,62.1337831 C18.4945,62.1352292 18.6485154,62.1381215 18.8010846,62.1373985 C19.2421615,59.1481985 20.0071769,56.2537215 21.0578077,53.4771062" id="Fill-63" fill="#F6E610"></path>
                    <path d="M80.6015292,22.2132123 L81.6760215,22.3780738 C81.3188215,22.3187815 80.9601754,22.2652738 80.6015292,22.2132123" id="Fill-65" fill="#F7CEDB"></path>
                    <path d="M73.8452431,27.5967369 L76.7274277,24.0015985 C66.6730431,23.3884292 58.8081354,25.01246 58.8081354,25.01246 L54.7003354,28.6762908 C68.5877508,25.91486 73.8452431,27.5967369 73.8452431,27.5967369" id="Fill-67" fill="#383838"></path>
                    <path d="M94.5702185,21.1038677 C95.5398646,18.6425138 96.8739415,16.4501446 98.5919723,14.4399908 C99.7966185,13.0299908 97.4654185,11.3416062 96.2680031,12.7429292 C94.4039108,14.9244523 92.9425723,17.3829138 91.8912185,20.0517908 C91.2115262,21.7784985 93.8912492,22.8276831 94.5702185,21.1038677" id="Fill-69" fill="#F7CEDB"></path>
                    <path d="M94.5702185,21.1038677 C95.5398646,18.6425138 96.8739415,16.4501446 98.5919723,14.4399908 C99.7966185,13.0299908 97.4654185,11.3416062 96.2680031,12.7429292 C94.4039108,14.9244523 92.9425723,17.3829138 91.8912185,20.0517908 C91.2115262,21.7784985 93.8912492,22.8276831 94.5702185,21.1038677" id="Fill-71" fill="#FFFFFF"></path>
                    <path d="M37.5939985,38.9145538 C34.2721831,41.6868308 31.47966,44.9724923 29.2431831,48.6739231 C27.7963062,51.0687538 31.5143677,53.3052308 32.9590754,50.9147385 C35.0220138,47.4996462 37.5585677,44.5784154 40.6200754,42.0237846 C42.7668908,40.232 39.7277985,37.1336154 37.5939985,38.9145538" id="Fill-73" fill="#F7CEDB"></path>
                    <path d="M37.5939985,38.9145538 C34.2721831,41.6868308 31.47966,44.9724923 29.2431831,48.6739231 C27.7963062,51.0687538 31.5143677,53.3052308 32.9590754,50.9147385 C35.0220138,47.4996462 37.5585677,44.5784154 40.6200754,42.0237846 C42.7668908,40.232 39.7277985,37.1336154 37.5939985,38.9145538" id="Fill-75" fill="#FFFFFF"></path>
                    <path d="M114.158228,55.1456785 C112.360658,55.0827708 110.743135,55.9266015 109.740951,57.2650169 C107.766228,58.68514 106.65992,61.2766477 107.235489,63.7228169 C107.622335,65.3707092 109.651289,65.3728785 110.418474,64.3424938 C111.312197,65.1559554 112.485751,65.6707862 113.788735,65.7156169 C116.707074,65.8182938 119.156858,63.5348169 119.258812,60.6150323 C119.360766,57.6959708 117.077289,55.2476323 114.158228,55.1456785" id="Fill-77" fill="#383838"></path>
                    <path d="M115.949,26.2275185 C116.141338,23.6251646 117.437815,21.4508723 119.422662,19.8094877 C121.577431,18.0278262 118.512308,14.95258 116.376338,16.7190569 C113.478246,19.1146108 111.884585,22.5347646 111.609815,26.2506569 C111.404462,29.0352262 115.744369,29.0026877 115.949,26.2275185" id="Fill-79" fill="#D293A8"></path>
                    <path d="M100.604802,23.4503246 C100.79714,20.8479708 102.093617,18.6736785 104.078463,17.0322938 C106.233232,15.2506323 103.168109,12.1753862 101.03214,13.9418631 C98.1340477,16.3374169 96.5403862,19.7568477 96.2656169,23.4734631 C96.0602631,26.2573092 100.400171,26.2254938 100.604802,23.4503246" id="Fill-81" fill="#D293A8"></path>
                    <path d="M72.0389969,107.741788 C67.7504277,107.448942 63.49512,106.502434 59.4379354,104.882018 C56.8731815,103.858142 54.8080738,107.676711 57.4017508,108.71288 C62.8515815,110.889342 68.5233969,112.017342 74.1887046,112.109172 L71.5776738,108.444618 L72.0389969,107.741788 Z" id="Fill-83" fill="#E7B7C8"></path>
                    <path d="M75.5195277,112.099266 C82.4639585,112.012497 89.3715123,110.379066 95.8206354,107.177282 C98.3253738,105.934312 96.0230969,102.253851 93.5414969,103.485974 C87.1169585,106.674743 80.0112815,108.112943 72.9612815,107.787558 L72.4442815,108.495451 L75.5195277,112.099266 Z" id="Fill-85" fill="#E7B7C8"></path>
                    <path d="M150.922857,55.3412708 C150.240995,55.3174092 149.543226,59.4432862 149.364626,64.55544 C149.186749,69.6683169 149.594565,73.8325169 150.275703,73.8563785 C150.958288,73.8809631 151.656057,69.7550862 151.834657,64.6422092 C152.013257,59.5293323 151.604718,55.3651323 150.922857,55.3412708" id="Fill-87" fill="#383838"></path>
                    <path d="M150.276065,73.85674 C149.594926,73.8328785 149.186388,69.6686785 149.364265,64.5558015 C149.542865,59.4429246 150.240634,55.3170477 150.923218,55.3416323 C151.60508,55.3654938 152.012895,59.5296938 151.834295,64.6425708 C151.655695,69.7547246 150.957926,73.8806015 150.276065,73.85674 M144.926018,48.6184631 C142.127711,51.10874 140.132742,57.6186015 140.132742,65.2579092 C140.132742,75.0469246 143.40828,82.9812477 147.448834,82.9812477 C148.513203,82.9812477 149.524065,82.4259246 150.436588,81.4345862 C152.987603,78.6659246 154.764926,72.4669862 154.764926,65.2579092 C154.764926,58.35614 153.135111,52.3799092 150.757634,49.4528938 C150.381634,48.5779708 149.672295,47.8621246 148.632511,47.5721708 C148.313634,47.4839554 147.968003,47.4318938 147.587665,47.4318938 C146.393142,47.4318938 145.507372,47.9098477 144.926018,48.6184631" id="Fill-89" fill="#D293A8"></path>
                    <path d="M97.6884877,122.665083 C98.1642723,126.392545 99.0189492,130.073729 100.259026,133.689837 C100.282888,133.760698 100.308195,133.830114 100.33278,133.900975 C100.509934,134.412191 100.695042,134.922683 100.888826,135.431729 C101.058749,135.88076 101.240242,136.328345 101.42318,136.775929 C101.48898,136.935729 101.549718,137.096975 101.616965,137.256775 C101.631426,137.292929 101.645888,137.330529 101.661072,137.367406 C102.173011,138.583622 103.280042,138.730406 104.194734,138.286437 C104.332842,138.282822 104.474565,138.271252 104.622795,138.24016 C106.342995,137.880068 107.594642,136.931391 108.863642,135.760729 C109.961995,134.746975 110.603365,133.544498 112.366226,133.971114 C113.173903,134.166345 113.923011,134.92196 114.725626,135.229991 C118.323657,136.608898 121.547134,133.984852 121.272365,130.155437 C121.198611,129.12216 120.884072,128.11636 120.482765,127.126468 C119.976611,125.877714 119.331626,124.653545 118.836318,123.432991 C118.714842,123.133637 118.601318,122.834283 118.50298,122.534929 C118.160965,121.495145 117.886918,120.438006 117.646857,119.373637 C117.639626,119.377975 117.632395,119.382314 117.625165,119.385929 C115.123318,120.907283 111.681472,122.143745 107.771072,122.761252 C104.012518,123.354898 100.486072,123.272468 97.6884877,122.665083" id="Fill-91" fill="#D293A8"></path>
                    <polygon id="Fill-93" fill="#383838" points="75.6826538 36.0222462 72.9747308 40.5031538 75.1266077 46.7086 73.5756077 49.8416923 74.2509615 49.6500769 76.3551154 46.9103385 73.8655615 40.4532615 76.9928692 35.7619385 74.1179154 31.8262308 82.1151462 22.4544308 82.1223769 22.4464769 81.6762385 22.3777846 80.6017462 22.2129231 79.9408538 22.1124154 79.9336231 22.1225385 72.9747308 31.8942"></polygon>
                    <polygon id="Fill-95" fill="#383838" points="72.4704569 62.8707431 72.7727031 63.0681431 73.3287492 62.2163585 72.7987338 62.3674815"></polygon>
                    <polygon id="Fill-97" fill="#383838" points="72.4442815 108.495234 72.9612815 107.787342 74.6221892 105.514711 72.2526662 101.961511 74.1384508 97.0698954 71.4739123 93.6012954 72.0950354 91.5224492 71.8231585 91.4761723 71.17962 93.6294954 71.4413738 93.7090338 71.4514969 93.6743262 73.2085738 97.2224646 71.5780354 101.922465 73.6294046 105.317311 72.0386354 107.741788 71.5780354 108.444618 74.1883431 112.109172 76.5824508 115.470757 76.8550508 115.853265 78.5072815 115.600188 78.4400354 115.522095 75.5195277 112.099049"></polygon>
                    <path d="M134.364106,84.5941431 C130.150737,84.2412815 125.933752,84.0330354 121.705922,83.9679585 C118.447014,83.9173431 118.446291,88.9788815 121.705922,89.0294969 C125.933752,89.0945738 130.150737,89.30282 134.364106,89.6556815 C134.829768,89.6947277 135.220229,89.6144662 135.551398,89.4640662 C135.628768,89.4293585 135.704691,89.3932046 135.774106,89.34982 C137.497922,88.2818354 137.021414,84.8175738 134.364106,84.5941431" id="Fill-99" fill="#383838"></path>
                    <path d="M93.3408431,49.5037262 L93.5519815,50.2441569 C94.3220585,52.9419569 92.7457508,55.7793108 90.0479508,56.5493877 L65.0396123,63.6890492 C63.9853662,63.9905723 62.9115969,63.9291108 61.9455662,63.5863723 C63.1502123,64.3889877 64.6838585,64.6840031 66.1770123,64.2581108 L72.7989508,62.3672646 L73.3289662,62.2161415 L91.1853508,57.1177262 C93.8824277,56.3476492 95.4594585,53.5102954 94.6886585,50.8132185 L94.47752,50.0720646 C94.0082431,48.4292338 92.7710585,47.2050646 91.2663354,46.6714338 C92.2388738,47.3193108 92.9966585,48.2983569 93.3408431,49.5037262" id="Fill-101" fill="#D293A8"></path>
                    <path d="M78.2712692,49.0913554 C78.9010692,48.9113092 79.5641308,49.2800785 79.7441769,49.9098785 L81.7904846,57.0784631 C81.9705308,57.7082631 81.6017615,58.3706015 80.9719615,58.5506477 L73.8041,60.5969554 C73.1743,60.7770015 72.5112385,60.4082323 72.3311923,59.7784323 L70.2848846,52.6105708 C70.1048385,51.9807708 70.4736077,51.3177092 71.1034077,51.1383862 L78.2712692,49.0913554 Z M89.8773769,53.4045092 C89.5780231,53.2382015 89.4702846,52.8614785 89.6365923,52.5621246 C89.8021769,52.2634938 90.1796231,52.1550323 90.4789769,52.3220631 C90.7783308,52.4876477 90.8853462,52.8650938 90.7190385,53.1637246 C90.5527308,53.4630785 90.1760077,53.5700938 89.8773769,53.4045092 L89.8773769,53.4045092 Z M87.4015615,54.1109554 C87.1029308,53.9446477 86.9944692,53.5672015 87.1615,53.2685708 C87.3270846,52.9692169 87.7045308,52.8622015 88.0038846,53.0277862 C88.3025154,53.1948169 88.4095308,53.57154 88.2439462,53.8701708 C88.0783615,54.1695246 87.7009154,54.2772631 87.4015615,54.1109554 L87.4015615,54.1109554 Z M85.1520692,54.7537708 C84.8527154,54.5874631 84.7449769,54.2100169 84.9112846,53.9113862 C85.0768692,53.6120323 85.4543154,53.5050169 85.7536692,53.6706015 C86.0530231,53.8369092 86.1600385,54.2143554 85.9937308,54.5129862 C85.8274231,54.8116169 85.4507,54.9200785 85.1520692,54.7537708 L85.1520692,54.7537708 Z M82.9011308,55.3958631 C82.6025,55.2295554 82.4947615,54.8528323 82.6603462,54.5534785 C82.8273769,54.2548477 83.2041,54.1471092 83.5027308,54.3134169 C83.8020846,54.4790015 83.9098231,54.8564477 83.7435154,55.1558015 C83.5772077,55.4544323 83.1997615,55.5621708 82.9011308,55.3958631 L82.9011308,55.3958631 Z M86.5345923,50.2208015 C86.2359615,50.0552169 86.1275,49.6784938 86.2945308,49.37914 C86.4601154,49.0797862 86.8375615,48.9727708 87.1361923,49.1383554 C87.4355462,49.3046631 87.5425615,49.6813862 87.3769769,49.98074 C87.2106692,50.2800938 86.8339462,50.3878323 86.5345923,50.2208015 L86.5345923,50.2208015 Z M84.2843769,50.8636169 C83.9850231,50.6980323 83.8780077,50.3205862 84.0435923,50.0212323 C84.2099,49.7226015 84.5866231,49.6148631 84.8859769,49.7811708 C85.1860538,49.9474785 85.2930692,50.3242015 85.1260385,50.6235554 C84.9604538,50.9221862 84.5830077,51.0299246 84.2843769,50.8636169 L84.2843769,50.8636169 Z M82.8765462,51.2656477 C82.7102385,51.5650015 82.3327923,51.6720169 82.0341615,51.5064323 C81.7355308,51.3401246 81.6277923,50.9634015 81.7933769,50.6640477 C81.9604077,50.3654169 82.3371308,50.2569554 82.6357615,50.4239862 C82.9351154,50.5895708 83.0428538,50.9670169 82.8765462,51.2656477 L82.8765462,51.2656477 Z M69.1749615,59.31494 C68.8763308,59.1486323 68.7678692,58.7719092 68.9349,58.4725554 C69.1004846,58.1739246 69.4779308,58.0661862 69.7765615,58.2324938 C70.0759154,58.3980785 70.1829308,58.7755246 70.0173462,59.0748785 C69.8510385,59.3735092 69.4743154,59.4812477 69.1749615,59.31494 L69.1749615,59.31494 Z M66.6998692,60.0213862 C66.4012385,59.8558015 66.2935,59.4783554 66.4590846,59.1790015 C66.6261154,58.8803708 67.0028385,58.7726323 67.3014692,58.93894 C67.6008231,59.1052477 67.7085615,59.4819708 67.5422538,59.7813246 C67.3759462,60.0799554 66.9985,60.1884169 66.6998692,60.0213862 L66.6998692,60.0213862 Z M64.4496538,60.6642015 C64.1510231,60.4978938 64.0425615,60.1211708 64.2095923,59.8218169 C64.3751769,59.5231862 64.7526231,59.4147246 65.0512538,59.5817554 C65.3506077,59.74734 65.4576231,60.1247862 65.2920385,60.4234169 C65.1257308,60.7227708 64.7490077,60.8297862 64.4496538,60.6642015 L64.4496538,60.6642015 Z M62.1994385,61.3070169 C61.9000846,61.1399862 61.7930692,60.7632631 61.9586538,60.4646323 C62.1249615,60.1652785 62.5016846,60.05754 62.8010385,60.2238477 C63.1011154,60.3901554 63.2081308,60.7668785 63.0418231,61.0662323 C62.8755154,61.3655862 62.4987923,61.4726015 62.1994385,61.3070169 L62.1994385,61.3070169 Z M68.3079923,55.4255092 C68.0093615,55.2592015 67.9009,54.8824785 68.0679308,54.5831246 C68.2335154,54.2844938 68.6109615,54.1760323 68.9095923,54.3430631 C69.2089462,54.5086477 69.3159615,54.8860938 69.1503769,55.1847246 C68.9840692,55.4840785 68.6073462,55.5910938 68.3079923,55.4255092 L68.3079923,55.4255092 Z M65.8329,56.1319554 C65.5342692,55.9656477 65.4258077,55.5882015 65.5921154,55.2895708 C65.7584231,54.99094 66.1358692,54.8832015 66.4345,55.0487862 C66.7338538,55.2158169 66.8408692,55.59254 66.6752846,55.8911708 C66.5082538,56.1905246 66.1315308,56.2982631 65.8329,56.1319554 L65.8329,56.1319554 Z M63.5826846,56.7747708 C63.2833308,56.6084631 63.1755923,56.2310169 63.3426231,55.9323862 C63.5082077,55.6330323 63.8849308,55.5252938 64.1842846,55.6916015 C64.4836385,55.8579092 64.5906538,56.2353554 64.4250692,56.5339862 C64.2587615,56.8326169 63.8820385,56.9403554 63.5826846,56.7747708 L63.5826846,56.7747708 Z M61.0916846,56.5752015 C61.2579923,56.2758477 61.6347154,56.1681092 61.9340692,56.3344169 C62.2327,56.5000015 62.3411615,56.8781708 62.1741308,57.1768015 C62.0085462,57.4754323 61.6311,57.5831708 61.3324692,57.4175862 C61.0331154,57.2505554 60.9261,56.8738323 61.0916846,56.5752015 L61.0916846,56.5752015 Z M62.0273462,53.1398631 C59.3302692,53.9092169 57.7525154,56.7472938 58.5225923,59.4443708 L58.7344538,60.1855246 C59.2037308,61.8283554 60.4416385,63.0518015 61.9456385,63.5861554 C62.9116692,63.9296169 63.9854385,63.9903554 65.0396846,63.6888323 L90.0480231,56.5491708 C92.7458231,55.7790938 94.3221308,52.94174 93.5520538,50.2446631 L93.3409154,49.5035092 C92.9967308,48.29814 92.2382231,47.3198169 91.2664077,46.6712169 C90.0624846,45.8678785 88.5288385,45.5735862 87.0356846,45.9994785 L74.2502385,49.6495708 L73.5756077,49.8419092 L62.0273462,53.1398631 Z" id="Fill-103" fill="#F2D1B1"></path>
                    <path d="M78.5452431,56.7613215 C78.2466123,56.5957369 78.1388738,56.2175677 78.3051815,55.9189369 C78.4714892,55.6203062 78.8489354,55.5118446 79.1475662,55.6788754 C79.4461969,55.84446 79.5546585,56.2219062 79.3883508,56.5205369 C79.2220431,56.8198908 78.8445969,56.9269062 78.5452431,56.7613215 L78.5452431,56.7613215 Z M76.2957508,57.4041369 C75.9963969,57.2371062 75.8886585,56.8603831 76.0549662,56.5617523 C76.2212738,56.2623985 76.59872,56.15466 76.8973508,56.3209677 C77.1967046,56.4872754 77.30372,56.8647215 77.1381354,57.1633523 C76.9718277,57.4627062 76.5943815,57.5697215 76.2957508,57.4041369 L76.2957508,57.4041369 Z M73.8047508,57.2038446 C73.9710585,56.9044908 74.3477815,56.7974754 74.6471354,56.96306 C74.9457662,57.1293677 75.0542277,57.5060908 74.8871969,57.8054446 C74.7216123,58.1040754 74.3441662,58.2125369 74.0448123,58.0455062 C73.7461815,57.8799215 73.6384431,57.5024754 73.8047508,57.2038446 L73.8047508,57.2038446 Z M77.6782738,52.8711677 C77.3796431,52.7055831 77.2711815,52.3281369 77.4382123,52.0295062 C77.6037969,51.7301523 77.9812431,51.6231369 78.2805969,51.7887215 C78.5792277,51.9550292 78.6869662,52.3317523 78.5206585,52.6311062 C78.3543508,52.9297369 77.9776277,53.0381985 77.6782738,52.8711677 L77.6782738,52.8711677 Z M75.4280585,53.5139831 C75.1287046,53.3476754 75.0216892,52.9709523 75.1872738,52.6723215 C75.3535815,52.3729677 75.7310277,52.2652292 76.0296585,52.4315369 C76.3297354,52.5971215 76.4367508,52.9745677 76.2704431,53.2739215 C76.1041354,53.5725523 75.7274123,53.6802908 75.4280585,53.5139831 L75.4280585,53.5139831 Z M73.1778431,54.1560754 C72.8792123,53.9904908 72.7714738,53.6130446 72.9370585,53.3136908 C73.1040892,53.01506 73.4808123,52.9080446 73.7801662,53.0736292 C74.0787969,53.2399369 74.1865354,53.61666 74.0202277,53.9160138 C73.85392,54.2153677 73.4764738,54.3231062 73.1778431,54.1560754 L73.1778431,54.1560754 Z M71.1033354,51.1386754 C70.4735354,51.3179985 70.1047662,51.98106 70.2848123,52.61086 L72.33112,59.7787215 C72.5111662,60.4085215 73.1742277,60.7772908 73.8040277,60.5972446 L80.9718892,58.5509369 C81.6024123,58.3708908 81.9704585,57.7085523 81.7904123,57.0780292 L79.7441046,49.9094446 C79.5640585,49.2796446 78.9009969,48.9115985 78.2711969,49.0916446 L71.1033354,51.1386754 Z" id="Fill-105" fill="#FAE0C9"></path>
                    <path d="M90.4789046,52.3218462 C90.1795508,52.1555385 89.8021046,52.2632769 89.63652,52.5619077 C89.4702123,52.8612615 89.5779508,53.2387077 89.8773046,53.4042923 C90.1759354,53.5706 90.5533815,53.4628615 90.7189662,53.1635077 C90.8852738,52.8648769 90.7782585,52.4874308 90.4789046,52.3218462" id="Fill-107" fill="#ECC39F"></path>
                    <path d="M87.3768323,49.9810292 C87.5424169,49.6816754 87.4354015,49.3042292 87.1360477,49.1386446 C86.8374169,48.9723369 86.4599708,49.0800754 86.2943862,49.3794292 C86.1273554,49.67806 86.2358169,50.0555062 86.5344477,50.2210908 C86.8338015,50.3873985 87.2112477,50.27966 87.3768323,49.9810292" id="Fill-109" fill="#ECC39F"></path>
                    <path d="M88.0038846,53.0280031 C87.7045308,52.8624185 87.3270846,52.9694338 87.1615,53.2687877 C86.9944692,53.5674185 87.1029308,53.9448646 87.4015615,54.1111723 C87.7009154,54.27748 88.0783615,54.1697415 88.2439462,53.8703877 C88.4102538,53.5717569 88.3025154,53.1943108 88.0038846,53.0280031" id="Fill-111" fill="#ECC39F"></path>
                    <path d="M85.1264,50.6236277 C85.2927077,50.3242738 85.1856923,49.9468277 84.8863385,49.7812431 C84.5869846,49.6142123 84.2095385,49.7226738 84.0439538,50.0213046 C83.8776462,50.3206585 83.9853846,50.6981046 84.2847385,50.8636892 C84.5833692,51.0299969 84.9608154,50.9222585 85.1264,50.6236277" id="Fill-113" fill="#ECC39F"></path>
                    <path d="M85.7534523,53.6706015 C85.4540985,53.5050169 85.0766523,53.6120323 84.9110677,53.9113862 C84.74476,54.2100169 84.8524985,54.5874631 85.1518523,54.7537708 C85.4504831,54.9200785 85.8279292,54.8116169 85.9935138,54.5129862 C86.1598215,54.2143554 86.0528062,53.8369092 85.7534523,53.6706015" id="Fill-115" fill="#ECC39F"></path>
                    <path d="M82.6359062,50.4237692 C82.3372754,50.2574615 81.9598292,50.3652 81.7935215,50.6638308 C81.6272138,50.9631846 81.7356754,51.3406308 82.0343062,51.5062154 C82.3329369,51.6725231 82.7103831,51.5647846 82.8766908,51.2654308 C83.0422754,50.9668 82.93526,50.5893538 82.6359062,50.4237692" id="Fill-117" fill="#ECC39F"></path>
                    <path d="M83.50302,54.3131277 C83.2043892,54.1475431 82.8269431,54.2545585 82.6606354,54.5531892 C82.4943277,54.8525431 82.6027892,55.2299892 82.90142,55.3955738 C83.2000508,55.5626046 83.5774969,55.4541431 83.7438046,55.1555123 C83.9093892,54.8561585 83.8023738,54.4787123 83.50302,54.3131277" id="Fill-119" fill="#ECC39F"></path>
                    <path d="M78.5205862,52.6311785 C78.6868938,52.3318246 78.5791554,51.9543785 78.2805246,51.7887938 C77.9811708,51.6224862 77.6037246,51.7302246 77.43814,52.0295785 C77.2711092,52.3282092 77.3795708,52.7056554 77.6782015,52.87124 C77.9775554,53.0375477 78.3550015,52.9298092 78.5205862,52.6311785" id="Fill-121" fill="#ECC39F"></path>
                    <path d="M79.1476385,55.6788031 C78.8490077,55.5124954 78.4715615,55.6202338 78.3052538,55.9188646 C78.1389462,56.2174954 78.2466846,56.5956646 78.5453154,56.7612492 C78.8446692,56.9275569 79.2221154,56.8198185 79.3884231,56.5204646 C79.5540077,56.2218338 79.4462692,55.8443877 79.1476385,55.6788031" id="Fill-123" fill="#ECC39F"></path>
                    <path d="M76.2708046,53.2737046 C76.4363892,52.9743508 76.3293738,52.5969046 76.03002,52.43132 C75.7313892,52.2650123 75.35322,52.3727508 75.1876354,52.6721046 C75.0213277,52.9707354 75.1290662,53.3481815 75.42842,53.5137662 C75.7270508,53.6800738 76.1044969,53.5723354 76.2708046,53.2737046" id="Fill-125" fill="#ECC39F"></path>
                    <path d="M76.8972062,56.3206785 C76.5985754,56.1550938 76.2211292,56.2621092 76.0548215,56.5614631 C75.8885138,56.8600938 75.9962523,57.23754 76.2956062,57.4038477 C76.5942369,57.5701554 76.9724062,57.4624169 77.1379908,57.1630631 C77.3035754,56.8644323 77.19656,56.4869862 76.8972062,56.3206785" id="Fill-127" fill="#ECC39F"></path>
                    <path d="M74.0203723,53.9163031 C74.1859569,53.6169492 74.0789415,53.2395031 73.7803108,53.0739185 C73.4809569,52.9076108 73.1035108,53.0153492 72.9372031,53.31398 C72.7708954,53.6133338 72.8793569,53.99078 73.1779877,54.1563646 C73.4766185,54.3226723 73.8540646,54.2149338 74.0203723,53.9163031" id="Fill-129" fill="#ECC39F"></path>
                    <path d="M74.8875585,57.8056615 C75.0538662,57.5063077 74.9461277,57.1288615 74.6474969,56.9632769 C74.3481431,56.7969692 73.9706969,56.9047077 73.8051123,57.2040615 C73.6380815,57.5026923 73.7465431,57.8801385 74.0451738,58.0457231 C74.3445277,58.2120308 74.7219738,58.1042923 74.8875585,57.8056615" id="Fill-131" fill="#ECC39F"></path>
                    <path d="M69.1502323,55.1845077 C69.3158169,54.8858769 69.2088015,54.5084308 68.9094477,54.3428462 C68.6108169,54.1758154 68.2333708,54.2842769 68.0677862,54.5829077 C67.9007554,54.8822615 68.0092169,55.2597077 68.3078477,55.4252923 C68.6072015,55.5908769 68.9846477,55.4838615 69.1502323,55.1845077" id="Fill-133" fill="#ECC39F"></path>
                    <path d="M69.7765615,58.2322046 C69.4779308,58.06662 69.1004846,58.1736354 68.9349,58.4722662 C68.7678692,58.77162 68.8763308,59.1490662 69.1749615,59.3146508 C69.4743154,59.4816815 69.8517615,59.37322 70.0173462,59.0745892 C70.1829308,58.7752354 70.0759154,58.3977892 69.7765615,58.2322046" id="Fill-135" fill="#ECC39F"></path>
                    <path d="M66.6752123,55.8913877 C66.8407969,55.5927569 66.7337815,55.2153108 66.4344277,55.0490031 C66.1357969,54.8826954 65.7583508,54.9911569 65.5920431,55.2897877 C65.4257354,55.5884185 65.5341969,55.9658646 65.8328277,56.1321723 C66.1314585,56.2977569 66.5089046,56.1907415 66.6752123,55.8913877" id="Fill-137" fill="#ECC39F"></path>
                    <path d="M67.3015415,58.9390123 C67.0029108,58.7727046 66.6254646,58.8804431 66.4591569,59.1790738 C66.2928492,59.4784277 66.4013108,59.8558738 66.6999415,60.0214585 C66.9985723,60.1884892 67.3760185,60.0800277 67.5423262,59.7813969 C67.7079108,59.4820431 67.6008954,59.1045969 67.3015415,58.9390123" id="Fill-139" fill="#ECC39F"></path>
                    <path d="M64.42478,56.5339138 C64.5903646,56.2352831 64.4833492,55.8578369 64.1839954,55.6915292 C63.8853646,55.5252215 63.5079185,55.63296 63.3423338,55.9323138 C63.1753031,56.2309446 63.2837646,56.6083908 63.5823954,56.7746985 C63.8817492,56.9402831 64.2591954,56.8325446 64.42478,56.5339138" id="Fill-141" fill="#ECC39F"></path>
                    <path d="M65.0511092,59.5816108 C64.7524785,59.4153031 64.3750323,59.5230415 64.2094477,59.8216723 C64.0424169,60.1210262 64.1508785,60.4984723 64.4495092,60.6640569 C64.7488631,60.8303646 65.1263092,60.7226262 65.2918938,60.4232723 C65.4574785,60.1246415 65.3504631,59.7471954 65.0511092,59.5816108" id="Fill-143" fill="#ECC39F"></path>
                    <path d="M61.3326862,57.4172969 C61.6313169,57.5828815 62.0087631,57.4751431 62.1743477,57.1765123 C62.3413785,56.8778815 62.2329169,56.4997123 61.9342862,56.3341277 C61.6349323,56.16782 61.2574862,56.2755585 61.0919015,56.5749123 C60.9263169,56.8735431 61.0333323,57.2509892 61.3326862,57.4172969" id="Fill-145" fill="#ECC39F"></path>
                    <path d="M62.8014,60.2234862 C62.5020462,60.0579015 62.1246,60.16564 61.9590154,60.4642708 C61.7927077,60.7629015 61.9004462,61.1403477 62.1998,61.3066554 C62.4984308,61.4729631 62.8758769,61.3652246 63.0414615,61.0658708 C63.2077692,60.76724 63.1007538,60.3897938 62.8014,60.2234862" id="Fill-147" fill="#ECC39F"></path>
                    <path d="M86.9115323,94.0470723 C89.6765785,94.5177954 92.3252092,92.6414108 92.7966554,89.8749185 L92.9260862,89.1164108 C93.2131477,87.4316415 92.6252862,85.7938723 91.5001785,84.6622569 C92.0959938,85.6666108 92.3570246,86.8770415 92.1466092,88.1120569 L92.0171785,88.8720108 C91.5457323,91.6370569 88.8971015,93.5148877 86.1320554,93.0427185 L60.4939169,88.6746108 C59.41364,88.4909492 58.4714708,87.9710569 57.7483938,87.2450877 C58.4873785,88.4895031 59.7440862,89.4186569 61.2733938,89.6789646 L71.8230862,91.4758108 L72.0949631,91.5228108 L86.9115323,94.0470723 Z" id="Fill-149" fill="#D293A8"></path>
                    <path d="M71.3865646,79.9767185 L78.7344723,81.2283646 C79.3809031,81.3389954 79.8190877,81.9572262 79.70918,82.6029338 L78.4568108,89.9515646 C78.3476262,90.5972723 77.7286723,91.03618 77.0822415,90.9262723 L69.7343338,89.6739031 C69.0879031,89.5639954 68.6497185,88.9450415 68.7596262,88.2993338 L70.0119954,80.9514262 C70.1219031,80.3049954 70.7401338,79.8668108 71.3865646,79.9767185 M87.3376415,90.1330569 C87.1395185,89.8539492 87.2053185,89.4671031 87.4844262,89.2697031 C87.7628108,89.07158 88.15038,89.1381031 88.34778,89.4172108 C88.54518,89.6955954 88.4801031,90.0824415 88.2009954,90.2805646 C87.9211646,90.4779646 87.5350415,90.4121646 87.3376415,90.1330569 M84.7996415,89.7006569 C84.6015185,89.4222723 84.6673185,89.0347031 84.9471492,88.8373031 C85.2262569,88.63918 85.61238,88.70498 85.80978,88.9840877 C86.0079031,89.2639185 85.9421031,89.6500415 85.6629954,89.8474415 C85.3838877,90.0455646 84.9977646,89.9797646 84.7996415,89.7006569 M80.1864108,88.9146723 C79.9882877,88.6355646 80.0533646,88.2487185 80.3331954,88.0513185 C80.6123031,87.8539185 80.9984262,87.9189954 81.1958262,88.1981031 C81.3946723,88.4772108 81.3288723,88.8640569 81.0490415,89.0614569 C80.7706569,89.25958 80.3838108,89.19378 80.1864108,88.9146723 M86.56178,85.9652415 C86.2833954,86.1633646 85.8958262,86.0975646 85.6984262,85.8184569 C85.5010262,85.5393492 85.5661031,85.1525031 85.8452108,84.9551031 C86.1250415,84.75698 86.5111646,84.82278 86.7092877,85.1018877 C86.9074108,85.3817185 86.8408877,85.7678415 86.56178,85.9652415 M84.2551646,85.5726108 C83.9760569,85.7707338 83.5899338,85.7042108 83.3918108,85.4251031 C83.1936877,85.1459954 83.2594877,84.7598723 83.5393185,84.5617492 C83.8177031,84.3636262 84.2045492,84.4294262 84.4019492,84.7092569 C84.5993492,84.9883646 84.5342723,85.3744877 84.2551646,85.5726108 M81.9478262,85.1792569 C81.6694415,85.37738 81.2825954,85.31158 81.0844723,85.0324723 C80.8870723,84.7526415 80.9528723,84.3665185 81.2312569,84.1691185 C81.5110877,83.9709954 81.8979338,84.0367954 82.0960569,84.3159031 C82.2934569,84.5950108 82.2269338,84.9818569 81.9478262,85.1792569 M82.4923031,89.3073031 C82.2949031,89.0289185 82.3614262,88.6420723 82.6398108,88.4446723 C82.9189185,88.2465492 83.3057646,88.3123492 83.5038877,88.5914569 C83.7012877,88.8705646 83.6347646,89.2566877 83.35638,89.4548108 C83.0772723,89.6529338 82.6904262,89.5871338 82.4923031,89.3073031 M66.1138877,86.5169492 C65.9164877,86.2378415 65.9815646,85.8517185 66.2613954,85.6543185 C66.53978,85.4554723 66.9266262,85.5219954 67.1240262,85.8011031 C67.3221492,86.0794877 67.2563492,86.4670569 66.9772415,86.6644569 C66.6988569,86.8618569 66.3112877,86.79678 66.1138877,86.5169492 M63.5766108,86.0845492 C63.3784877,85.8061646 63.4442877,85.4185954 63.7233954,85.2211954 C64.0025031,85.0230723 64.3886262,85.0888723 64.5867492,85.3687031 C64.7848723,85.6478108 64.7190723,86.0339338 64.4399646,86.2313338 C64.1608569,86.43018 63.7747338,86.3636569 63.5766108,86.0845492 M61.2692723,85.6919185 C61.0711492,85.4128108 61.1376723,85.0259646 61.41678,84.8285646 C61.6958877,84.6304415 62.0827338,84.6962415 62.2801338,84.9753492 C62.4782569,85.2544569 62.4117338,85.6413031 62.1333492,85.8387031 C61.8535185,86.0368262 61.4673954,85.9710262 61.2692723,85.6919185 M59.8614415,81.4163646 C59.6633185,81.1372569 59.7298415,80.7504108 60.0089492,80.5530108 C60.2873338,80.3548877 60.6749031,80.4206877 60.8723031,80.6997954 C61.0697031,80.9796262 61.0039031,81.3657492 60.7255185,81.5631492 C60.4456877,81.7612723 60.0595646,81.6954723 59.8614415,81.4163646 M64.4746723,82.2023492 C64.2772723,81.9232415 64.3437954,81.5363954 64.6229031,81.3389954 C64.9012877,81.1408723 65.2881338,81.2066723 65.4862569,81.4865031 C65.6836569,81.7656108 65.6171338,82.1517338 65.3387492,82.3491338 C65.0596415,82.5472569 64.6727954,82.4814569 64.4746723,82.2023492 M67.0126723,82.6347492 C66.8152723,82.3556415 66.8810723,81.9695185 67.1594569,81.7706723 C67.4392877,81.5732723 67.8254108,81.6397954 68.0235338,81.9189031 C68.2216569,82.1972877 68.1551338,82.5834108 67.8767492,82.7822569 C67.5976415,82.9796569 67.2107954,82.9138569 67.0126723,82.6347492 M63.1781954,81.0931492 C63.3770415,81.3722569 63.3112415,81.7591031 63.0314108,81.9565031 C62.7530262,82.1546262 62.36618,82.0888262 62.16878,81.8089954 C61.9706569,81.5298877 62.0357338,81.1437646 62.3155646,80.9456415 C62.5946723,80.7475185 62.9807954,80.8140415 63.1781954,81.0931492 M58.9626569,85.2985646 C58.7652569,85.02018 58.8310569,84.6326108 59.1094415,84.4352108 C59.3885492,84.2378108 59.7746723,84.3028877 59.9735185,84.5819954 C60.1709185,84.8618262 60.1051185,85.2479492 59.8260108,85.4453492 C59.5469031,85.6434723 59.16078,85.5776723 58.9626569,85.2985646 M60.4941338,88.6746108 L86.1322723,93.0427185 C88.8973185,93.5148877 91.5459492,91.6370569 92.0166723,88.8720108 L92.1468262,88.1120569 C92.3572415,86.8770415 92.0962108,85.6666108 91.4996723,84.6615338 C90.7606877,83.4171185 89.5054262,82.4879646 87.9746723,82.2269338 L62.3365338,77.8588262 C59.5714877,77.3881031 56.9228569,79.2652108 56.4521338,82.03098 L56.3227031,82.7902108 C56.0356415,84.47498 56.62278,86.1127492 57.7486108,87.2450877 C58.4716877,87.9710569 59.4131338,88.4909492 60.4941338,88.6746108" id="Fill-151" fill="#F2D1B1"></path>
                    <path d="M75.6678308,88.2639031 C75.4704308,87.9840723 75.5355077,87.5979492 75.8153385,87.4005492 C76.0937231,87.2024262 76.4805692,87.2682262 76.6779692,87.5473338 C76.8760923,87.8264415 76.8102923,88.2132877 76.5311846,88.4106877 C76.2528,88.6088108 75.8652308,88.5430108 75.6678308,88.2639031 M73.3612154,87.8705492 C73.1630923,87.5914415 73.2288923,87.2045954 73.508,87.0071954 C73.7871077,86.8090723 74.1739538,86.8748723 74.3713538,87.1547031 C74.5694769,87.4338108 74.5036769,87.8199338 74.2245692,88.0173338 C73.9454615,88.21618 73.5586154,88.1496569 73.3612154,87.8705492 M71.0538769,87.4771954 C70.8564769,87.1980877 70.9222769,86.8119646 71.2013846,86.6145646 C71.4804923,86.4157185 71.8666154,86.4822415 72.0647385,86.7613492 C72.2621385,87.0404569 72.1963385,87.4273031 71.9172308,87.6247031 C71.6388462,87.8228262 71.252,87.7570262 71.0538769,87.4771954 M72.8167385,83.7425031 C72.5376308,83.9406262 72.1507846,83.8748262 71.9526615,83.5949954 C71.7552615,83.3158877 71.8210615,82.9297646 72.0994462,82.7316415 C72.3792769,82.5335185 72.7654,82.6000415 72.9635231,82.8791492 C73.1616462,83.1575338 73.0951231,83.54438 72.8167385,83.7425031 M74.26,83.9883492 C74.0618769,83.7092415 74.1276769,83.3223954 74.4075077,83.1249954 C74.6858923,82.9268723 75.0727385,82.9926723 75.2701385,83.27178 C75.4682615,83.5508877 75.4024615,83.9377338 75.1233538,84.1351338 C74.8442462,84.3325338 74.4574,84.2674569 74.26,83.9883492 M76.5666154,84.3817031 C76.3692154,84.1018723 76.4350154,83.7157492 76.7134,83.5183492 C76.9932308,83.3202262 77.3793538,83.3860262 77.5774769,83.6651338 C77.7748769,83.9435185 77.7090769,84.3310877 77.4306923,84.5284877 C77.1515846,84.7258877 76.7647385,84.6608108 76.5666154,84.3817031 M70.0119231,80.9514262 L68.7595538,88.2993338 C68.6496462,88.9450415 69.0878308,89.5639954 69.7342615,89.6739031 L77.0821692,90.9262723 C77.7293231,91.03618 78.3475538,90.5979954 78.4567385,89.9515646 L79.7091077,82.6029338 C79.8190154,81.9572262 79.3808308,81.3389954 78.7344,81.2290877 L71.3864923,79.9767185 C70.7407846,79.8668108 70.1218308,80.3049954 70.0119231,80.9514262" id="Fill-153" fill="#FAE0C9"></path>
                    <path d="M88.34778,89.4169938 C88.15038,89.1378862 87.7628108,89.0713631 87.4844262,89.2694862 C87.2053185,89.4668862 87.1395185,89.8537323 87.3376415,90.13284 C87.5350415,90.4119477 87.9211646,90.4784708 88.2009954,90.2803477 C88.4801031,90.0822246 88.54518,89.6961015 88.34778,89.4169938" id="Fill-155" fill="#ECC39F"></path>
                    <path d="M85.8452831,84.9549585 C85.5661754,85.1523585 85.5003754,85.5399277 85.6984985,85.8183123 C85.8958985,86.09742 86.2827446,86.16322 86.5618523,85.9650969 C86.84096,85.7676969 86.9074831,85.3815738 86.70936,85.1017431 C86.5112369,84.8226354 86.1251138,84.7575585 85.8452831,84.9549585" id="Fill-157" fill="#ECC39F"></path>
                    <path d="M85.8099246,88.98416 C85.6125246,88.7050523 85.2256785,88.6392523 84.9472938,88.8373754 C84.6674631,89.0347754 84.6016631,89.4216215 84.7997862,89.7007292 C84.9979092,89.9798369 85.3840323,90.0456369 85.66314,89.8475138 C85.9422477,89.6501138 86.0073246,89.2639908 85.8099246,88.98416" id="Fill-159" fill="#ECC39F"></path>
                    <path d="M83.5390292,84.5616046 C83.2591985,84.7597277 83.1933985,85.1465738 83.3915215,85.4249585 C83.5896446,85.7040662 83.9757677,85.7705892 84.2548754,85.5724662 C84.5339831,85.3743431 84.5997831,84.98822 84.40166,84.7091123 C84.20426,84.4292815 83.8181369,84.3642046 83.5390292,84.5616046" id="Fill-161" fill="#ECC39F"></path>
                    <path d="M83.5037431,88.5915292 C83.3063431,88.3124215 82.9187738,88.2458985 82.6396662,88.4447446 C82.3612815,88.6421446 82.2947585,89.0282677 82.4928815,89.3073754 C82.6902815,89.5872062 83.0771277,89.6530062 83.3562354,89.4548831 C83.6353431,89.25676 83.7011431,88.8706369 83.5037431,88.5915292" id="Fill-163" fill="#ECC39F"></path>
                    <path d="M81.2314015,84.1690462 C80.9530169,84.3664462 80.8864938,84.7532923 81.0846169,85.0324 C81.2820169,85.3115077 81.6688631,85.3773077 81.9479708,85.1791846 C82.2270785,84.9817846 82.2936015,84.5949385 82.0954785,84.3158308 C81.8980785,84.0367231 81.5112323,83.9716462 81.2314015,84.1690462" id="Fill-165" fill="#ECC39F"></path>
                    <path d="M81.1961154,88.1981754 C80.9987154,87.9190677 80.6118692,87.8532677 80.3334846,88.0513908 C80.0536538,88.2487908 79.9878538,88.6349138 80.1867,88.9147446 C80.3841,89.1938523 80.7702231,89.2596523 81.0493308,89.0615292 C81.3291615,88.8641292 81.3942385,88.4772831 81.1961154,88.1981754" id="Fill-167" fill="#ECC39F"></path>
                    <path d="M77.5771877,83.6648446 C77.3797877,83.3857369 76.9929415,83.3199369 76.7138338,83.51806 C76.4347262,83.71546 76.3689262,84.1015831 76.5670492,84.3814138 C76.7644492,84.6605215 77.1512954,84.7263215 77.4304031,84.5281985 C77.7095108,84.3307985 77.7745877,83.9439523 77.5771877,83.6648446" id="Fill-169" fill="#ECC39F"></path>
                    <path d="M76.6782585,87.5471892 C76.4808585,87.2680815 76.0932892,87.2022815 75.8156277,87.4004046 C75.5357969,87.5978046 75.4699969,87.9839277 75.66812,88.2637585 C75.86552,88.5428662 76.2523662,88.6086662 76.5314738,88.4105431 C76.8105815,88.2131431 76.8756585,87.8262969 76.6782585,87.5471892" id="Fill-171" fill="#ECC39F"></path>
                    <path d="M75.2702831,83.2715631 C75.0728831,82.9924554 74.6853138,82.9266554 74.4076523,83.1247785 C74.1278215,83.3221785 74.0620215,83.7090246 74.2601446,83.9881323 C74.4575446,84.26724 74.8443908,84.33304 75.1234985,84.1349169 C75.4026062,83.9375169 75.4676831,83.5513938 75.2702831,83.2715631" id="Fill-173" fill="#ECC39F"></path>
                    <path d="M74.3713538,87.1545585 C74.1739538,86.8747277 73.7871077,86.8089277 73.508,87.0070508 C73.2288923,87.2044508 73.1630923,87.5912969 73.3612154,87.8704046 C73.5586154,88.1495123 73.9454615,88.2160354 74.2245692,88.0171892 C74.5036769,87.8197892 74.5694769,87.4336662 74.3713538,87.1545585" id="Fill-175" fill="#ECC39F"></path>
                    <path d="M72.0997354,82.7313523 C71.8206277,82.9294754 71.7548277,83.3163215 71.9529508,83.5947062 C72.1503508,83.8745369 72.5371969,83.9403369 72.8163046,83.7422138 C73.0954123,83.5440908 73.1619354,83.1579677 72.9630892,82.87886 C72.7656892,82.5997523 72.3795662,82.5339523 72.0997354,82.7313523" id="Fill-177" fill="#ECC39F"></path>
                    <path d="M72.0644492,86.7612046 C71.8670492,86.4820969 71.4802031,86.4155738 71.2018185,86.61442 C70.9219877,86.81182 70.8561877,87.1979431 71.0543108,87.4770508 C71.2517108,87.7568815 71.6385569,87.8226815 71.9176646,87.6245585 C72.1967723,87.4271585 72.2618492,87.0403123 72.0644492,86.7612046" id="Fill-179" fill="#ECC39F"></path>
                    <path d="M68.0232446,81.9186138 C67.8258446,81.6395062 67.4389985,81.5729831 67.1598908,81.7711062 C66.8807831,81.9692292 66.8149831,82.3553523 67.0131062,82.63446 C67.2105062,82.9142908 67.5973523,82.9800908 67.87646,82.7819677 C68.1555677,82.5838446 68.2213677,82.1977215 68.0232446,81.9186138" id="Fill-181" fill="#ECC39F"></path>
                    <path d="M67.1243154,85.8008862 C66.9269154,85.5217785 66.5393462,85.4552554 66.2616846,85.6541015 C65.9818538,85.8515015 65.9160538,86.2376246 66.1141769,86.5167323 C66.3115769,86.7965631 66.6984231,86.8623631 66.9775308,86.66424 C67.2566385,86.46684 67.3217154,86.0799938 67.1243154,85.8008862" id="Fill-183" fill="#ECC39F"></path>
                    <path d="M65.4861123,81.4864308 C65.2887123,81.2066 64.9011431,81.1408 64.6227585,81.3389231 C64.3436508,81.5363231 64.2771277,81.9231692 64.4752508,82.2022769 C64.6726508,82.4813846 65.0594969,82.5471846 65.3386046,82.3490615 C65.6177123,82.1516615 65.6835123,81.7655385 65.4861123,81.4864308" id="Fill-185" fill="#ECC39F"></path>
                    <path d="M64.5865323,85.3687754 C64.3891323,85.0889446 64.0022862,85.0231446 63.7239015,85.2212677 C63.4440708,85.4186677 63.3782708,85.8055138 63.5771169,86.0846215 C63.7745169,86.3637292 64.16064,86.4302523 64.4397477,86.2314062 C64.7195785,86.0340062 64.7846554,85.6478831 64.5865323,85.3687754" id="Fill-187" fill="#ECC39F"></path>
                    <path d="M62.1687077,81.80914 C62.3661077,82.0889708 62.7529538,82.1547708 63.0313385,81.9566477 C63.3111692,81.7592477 63.3769692,81.3724015 63.1781231,81.0932938 C62.9807231,80.8141862 62.5946,80.7476631 62.3154923,80.9457862 C62.0356615,81.1439092 61.9705846,81.5300323 62.1687077,81.80914" id="Fill-189" fill="#ECC39F"></path>
                    <path d="M62.2802785,84.9754215 C62.0828785,84.6963138 61.6953092,84.6297908 61.4169246,84.8286369 C61.1378169,85.0260369 61.0712938,85.41216 61.2694169,85.6919908 C61.46754,85.9710985 61.8536631,86.0368985 62.1334938,85.8387754 C62.4118785,85.6413754 62.4776785,85.2545292 62.2802785,84.9754215" id="Fill-191" fill="#ECC39F"></path>
                    <path d="M60.8722308,80.6997954 C60.6748308,80.4206877 60.2872615,80.3548877 60.0088769,80.5530108 C59.7297692,80.7504108 59.6632462,81.1372569 59.8613692,81.4163646 C60.0594923,81.6954723 60.4456154,81.7612723 60.7254462,81.5631492 C61.0038308,81.3657492 61.0696308,80.9796262 60.8722308,80.6997954" id="Fill-193" fill="#ECC39F"></path>
                    <path d="M59.9733738,84.58214 C59.7752508,84.3030323 59.3884046,84.2372323 59.11002,84.4353554 C58.8309123,84.6327554 58.7651123,85.0196015 58.9632354,85.2987092 C59.1606354,85.5778169 59.5467585,85.6436169 59.8258662,85.4454938 C60.1056969,85.2480938 60.1707738,84.8619708 59.9733738,84.58214" id="Fill-195" fill="#ECC39F"></path>
                </g>
            </g>
        </g>
    </g>
</svg>