<?xml version="1.0" encoding="UTF-8"?>
<svg width="156px" height="141px" viewBox="0 0 156 141" version="1.1" xmlns="http://www.w3.org/2000/svg" xmlns:xlink="http://www.w3.org/1999/xlink">
    <!-- Generator: Sketch 53.2 (72643) - https://sketchapp.com -->
    <title>Group 74</title>
    <desc>Created with Sketch.</desc>
    <defs>
        <polygon id="path-1" points="5.25390213e-05 0.454092308 149.989823 0.454092308 149.989823 133.421431 5.25390213e-05 133.421431"></polygon>
        <polygon id="path-3" points="0.33242093 0.313887692 34.7603989 0.313887692 34.7603989 23.8615385 0.33242093 23.8615385"></polygon>
        <polygon id="path-5" points="0.577537209 0.163053846 15.1662093 0.163053846 15.1662093 35.7116846 0.577537209 35.7116846"></polygon>
    </defs>
    <g id="Page-1" stroke="none" stroke-width="1" fill="none" fill-rule="evenodd">
        <g id="B-1" transform="translate(-99.000000, -218.000000)">
            <g id="pig" transform="translate(99.000000, 218.000000)">
                <g id="Group-74">
                    <path d="M35.8620256,117.175845 C35.8339093,116.89746 35.8000256,116.619075 35.7733512,116.342137 C34.4843279,110.668152 33.4454674,104.944275 32.6380256,99.1827985 C29.2460488,96.1907062 26.3370953,92.8739523 24.0157,89.2961677 C23.2796302,88.0083677 22.6077233,86.6873062 22.0035837,85.3387677 L21.4866767,94.4582138 C21.214886,103.592845 22.3950488,112.590814 24.3386767,121.726168 C24.0034442,120.146968 23.6883977,118.571383 23.4021884,116.997968 C27.5612349,117.052198 31.714514,117.229352 35.8620256,117.175845" id="Fill-1" fill="#E7B7C8"></path>
                    <path d="M33.4986,127.019308 C33.9354837,126.970138 34.3435302,126.817569 34.6931814,126.571 C34.3435302,126.817569 33.9354837,126.970138 33.4986,127.019308" id="Fill-3" fill="#E7B7C8"></path>
                    <path d="M25.4662837,126.721328 C25.0863535,125.132728 24.7280512,123.549912 24.3906558,121.971435 C24.7287721,123.549912 25.0863535,125.132728 25.4662837,126.721328" id="Fill-5" fill="#E7B7C8"></path>
                    <path d="M85.4210767,131.919817 C85.3886349,131.85474 85.3547512,131.791109 85.325914,131.722417 C85.3554721,131.791109 85.3886349,131.854017 85.4210767,131.919817" id="Fill-7" fill="#E7B7C8"></path>
                    <path d="M84.3129349,127.812957 C84.2235395,127.431895 84.1384698,127.051557 84.0519581,126.671218 C84.1384698,127.051557 84.2235395,127.431895 84.3129349,127.812957" id="Fill-9" fill="#E7B7C8"></path>
                    <path d="M85.7843535,132.529226 C85.7418186,132.472826 85.7028884,132.411365 85.6632372,132.351349 C85.7028884,132.412088 85.7418186,132.472103 85.7843535,132.529226" id="Fill-11" fill="#E7B7C8"></path>
                    <path d="M86.2060977,133.012892 C86.1736558,132.982523 86.1455395,132.945646 86.1145395,132.913831 C86.1455395,132.946369 86.1736558,132.982523 86.2060977,133.012892" id="Fill-13" fill="#E7B7C8"></path>
                    <path d="M97.0418233,119.553394 C97.0353349,119.467348 97.0252419,119.382025 97.0187535,119.295978 C97.2833349,118.491917 97.2271023,117.573609 96.9062884,116.740625 C96.8839395,115.715302 96.8911488,114.687086 96.9257535,113.656702 C96.9279163,113.596686 96.9279163,113.537394 96.9300791,113.478102 C95.6771023,113.744917 94.4140326,113.978471 93.1423116,114.183102 C93.1444744,114.217086 93.1480791,114.251794 93.1495209,114.286502 C92.9959628,114.299517 92.8395209,114.320486 92.6780326,114.353025 C91.9023116,114.510655 91.1431721,114.666117 90.3919628,114.810009 C87.6322419,115.180225 84.8112419,115.413055 81.9397767,115.499825 C82.1827302,117.145548 82.4523581,118.791994 82.7587535,120.441332 C82.7522651,120.404455 82.7443349,120.366855 82.7371256,120.329255 C87.3460326,121.718286 92.5367302,121.386394 97.0418233,119.553394" id="Fill-15" fill="#E7B7C8"></path>
                    <path d="M88.3730698,133.941468 C88.5533023,133.957375 88.7335349,133.960991 88.9159302,133.955206 C88.7335349,133.961714 88.5533023,133.956652 88.3730698,133.941468" id="Fill-17" fill="#E7B7C8"></path>
                    <path d="M86.8425349,133.473348 C86.789186,133.442978 86.7336744,133.416225 86.6810465,133.382963 C86.7336744,133.416225 86.789186,133.442978 86.8425349,133.473348" id="Fill-19" fill="#E7B7C8"></path>
                    <path d="M83.5940953,124.590926 C83.5018163,124.157803 83.4080953,123.725403 83.3194209,123.29228 C83.4080953,123.72468 83.5018163,124.157803 83.5940953,124.590926" id="Fill-21" fill="#E7B7C8"></path>
                    <path d="M85.0662349,130.944675 C85.0705605,130.962752 85.074886,130.981552 85.0799326,130.999629 C85.0799326,131.001798 85.0813744,131.003968 85.0813744,131.006137 C85.0813744,131.003968 85.0799326,131.001798 85.0799326,130.999629 C85.074886,130.981552 85.0705605,130.962752 85.0662349,130.944675" id="Fill-23" fill="#E7B7C8"></path>
                    <path d="M91.5497047,133.062351 C91.1121,133.368212 90.6254721,133.601766 90.1208209,133.755058 C90.6276349,133.603212 91.1106581,133.368212 91.5497047,133.062351" id="Fill-25" fill="#E7B7C8"></path>
                    <path d="M91.9791628,132.726915 C91.8450698,132.844054 91.7059302,132.953238 91.5603023,133.055192 C91.7059302,132.953238 91.8450698,132.844054 91.9791628,132.726915" id="Fill-27" fill="#E7B7C8"></path>
                    <path d="M90.1134674,133.757155 C89.9692814,133.801263 89.8229326,133.834525 89.6758628,133.864171 C89.8236535,133.834525 89.9685605,133.801263 90.1134674,133.757155" id="Fill-29" fill="#E7B7C8"></path>
                    <path d="M87.4311023,133.743055 C87.3554047,133.717025 87.2804279,133.688102 87.206893,133.657009 C87.2811488,133.688825 87.3554047,133.717025 87.4311023,133.743055" id="Fill-31" fill="#E7B7C8"></path>
                    <path d="M89.5228093,133.893455 C89.3887163,133.915871 89.2560651,133.935394 89.1219721,133.94624 C89.2560651,133.935394 89.3887163,133.915871 89.5228093,133.893455" id="Fill-33" fill="#E7B7C8"></path>
                    <path d="M88.0189488,133.900542 C87.9346,133.885357 87.852414,133.861495 87.7680651,133.841972 C87.852414,133.862218 87.9338791,133.885357 88.0189488,133.900542" id="Fill-35" fill="#E7B7C8"></path>
                    <path d="M97.0418233,119.553394 C92.5367302,121.386394 87.3460326,121.718286 82.7371256,120.329255 C82.7443349,120.366855 82.7522651,120.404455 82.7587535,120.441332 C82.9361023,121.390732 83.1235442,122.340855 83.3196372,123.292425 C83.4083116,123.725548 83.5020326,124.157948 83.5943116,124.591071 C83.7428233,125.283778 83.8949395,125.977209 84.0513814,126.671363 C84.138614,127.051702 84.2236837,127.43204 84.3130791,127.813102 C84.5560326,128.854332 84.8047535,129.898455 85.0664512,130.944748 C85.0707767,130.962825 85.0743814,130.981625 85.0794279,130.999702 C85.0794279,131.001871 85.0808698,131.00404 85.0808698,131.006209 C85.1464744,131.265071 85.2308233,131.499348 85.325986,131.722055 C85.3548233,131.791471 85.388707,131.855102 85.4211488,131.920178 C85.4946837,132.072025 85.5754279,132.21664 85.6633814,132.351132 C85.7023116,132.411148 85.7419628,132.472609 85.7844977,132.529009 C85.8868698,132.669286 85.997893,132.795825 86.1146837,132.914409 C86.1456837,132.945502 86.1738,132.982378 86.2062419,133.012748 C86.3554744,133.153025 86.5140791,133.275225 86.6813349,133.382963 C86.7332419,133.416225 86.7887535,133.442978 86.8428233,133.473348 C86.9617767,133.541317 87.0821721,133.604225 87.206893,133.657009 C87.2804279,133.688102 87.3546837,133.717025 87.4311023,133.743055 C87.5414047,133.782102 87.6545907,133.813917 87.7684977,133.842117 C87.8521256,133.86164 87.9343116,133.885502 88.0186605,133.900686 C88.1354512,133.920932 88.2551256,133.931055 88.3733581,133.941178 C88.5535907,133.957086 88.7338233,133.962148 88.9162186,133.954917 C88.984707,133.952025 89.0531953,133.952025 89.1224047,133.94624 C89.2557767,133.935394 89.3891488,133.915871 89.5225209,133.893455 C89.573707,133.884055 89.624893,133.875378 89.6753581,133.864532 C89.8224279,133.834886 89.9687767,133.800902 90.1136837,133.757517 C90.1165674,133.756794 90.1180093,133.756071 90.1201721,133.755348 C90.6255442,133.602055 91.1114512,133.367778 91.5497767,133.06264 C91.5533814,133.060471 91.556986,133.058302 91.5598698,133.055409 C91.7062186,132.953455 91.8453581,132.844271 91.9794512,132.727132 L91.980893,132.725686 C92.8085209,132.139994 93.4869163,131.306286 94.0449163,130.437148 C94.6923116,130.914378 95.3973814,131.287486 96.1500326,131.546348 C96.227893,131.592625 96.3086372,131.634563 96.3901023,131.677225 C97.2234977,132.144332 98.1585442,132.410425 99.1873116,132.382225 C99.2947302,132.379332 99.4021488,132.351855 99.5102884,132.33884 C98.1801721,128.151502 97.354707,123.881009 97.0418233,119.553394" id="Fill-37" fill="#D293A8"></path>
                    <path d="M100.5888,135.43144 C100.396312,134.923117 100.212474,134.412625 100.034405,133.901409 C100.213195,134.412625 100.39487,134.923117 100.5888,135.43144" id="Fill-39" fill="#F7CEDB"></path>
                    <g id="Group-43" transform="translate(0.000000, 0.268985)">
                        <mask id="mask-2" fill="white">
                            <use xlink:href="#path-1"></use>
                        </mask>
                        <g id="Clip-42"></g>
                        <path d="M133.269288,90.2631385 C127.772195,90.2342154 122.564916,88.6767077 118.051172,85.5045692 C115.796823,83.9210308 117.806777,80.0757077 120.081312,81.6737077 C123.985149,84.4170615 128.314335,85.9029846 133.095544,85.9275692 C135.879056,85.9413077 136.054242,90.2776 133.269288,90.2631385 M113.450916,65.4471385 C112.152521,65.4015846 110.98173,64.8860308 110.09066,64.0725692 C109.325033,65.1036769 107.302823,65.1015077 106.916405,63.4543385 C106.342544,61.0081692 107.447009,58.4152154 109.414428,56.9958154 C110.414358,55.6581231 112.026358,54.8142923 113.819312,54.8772 C116.729707,54.9784308 119.006405,57.4274923 118.904033,60.3465538 C118.803102,63.2648923 116.361312,65.5483692 113.450916,65.4471385 M54.5386605,28.4075231 L58.6342651,24.7436923 C58.6342651,24.7436923 66.4758233,23.1189385 76.4996372,23.7328308 L73.6267302,27.3279692 C73.6267302,27.3279692 68.3841256,25.6460923 54.5386605,28.4075231 M91.618986,19.7826615 C92.6672186,17.1137846 94.1234977,14.6560462 95.9820558,12.4738 C97.1766372,11.0724769 99.5001953,12.7608615 98.2984047,14.1708615 C96.5861953,16.1810154 95.2553581,18.3733846 94.2900326,20.8347385 C93.6123581,22.5585538 90.9405907,21.5093692 91.618986,19.7826615 M100.732265,13.6726615 C102.861893,11.9061846 105.917916,14.9821538 103.769544,16.7630923 C101.790591,18.4044769 100.497963,20.5787692 100.305474,23.1818462 C100.101451,25.9562923 95.7744279,25.9881077 95.9791721,23.2049846 C96.2531256,19.4876462 97.8427767,16.0682154 100.732265,13.6726615 M116.031126,16.45 C118.160753,14.6842462 121.216056,17.7594923 119.068405,19.5404308 C117.089451,21.1818154 115.796823,23.3568308 115.604335,25.9584615 C115.400312,28.7336308 111.073288,28.7654462 111.278033,25.9823231 C111.551986,22.2649846 113.141637,18.8455538 116.031126,16.45 M29.1561488,48.4049385 C31.385986,44.7027846 34.1702186,41.4171231 37.482893,38.6455692 C39.6103581,36.8646308 42.639707,39.9630154 40.4985442,41.7548 C37.4468465,44.3094308 34.9178233,47.2306615 32.8617302,50.6450308 C31.4213116,53.0369692 27.7135674,50.7997692 29.1561488,48.4049385 M13.8652186,42.5964615 C15.0980093,42.6159846 16.4706605,43.1886615 17.1295907,43.9594615 C17.1995209,44.0411692 17.2557535,44.1178154 17.3011721,44.1894 C15.2155209,45.5393846 12.2640326,45.6753231 10.1430558,44.4135538 C9.84675349,44.2371231 9.56703256,44.0339385 9.30389302,43.8076154 C10.7039395,43.0187385 12.2813349,42.5711538 13.8652186,42.5964615 M147.01166,82.7120462 C142.982381,82.7120462 139.716567,74.777 139.716567,64.9894308 C139.716567,57.3494 141.706335,50.8395385 144.494893,48.3492615 C145.075242,47.6413692 145.959102,47.1634154 147.149358,47.1634154 C147.528567,47.1634154 147.873893,47.2154769 148.191102,47.3036923 C147.871009,46.8141692 147.493242,46.3608 147.065009,45.9631077 C145.794009,44.7844923 144.194986,44.1756615 142.575056,44.2450769 C140.886637,44.3181077 139.154242,44.3318462 137.404544,44.2906308 C135.584195,39.9413231 133.27794,35.5558615 129.42673,32.0417077 C128.543591,31.2362 127.609986,30.4805846 126.640335,29.7864308 C126.132079,24.1240154 127.095963,18.5151077 129.450521,13.4955077 C130.274544,11.7391538 130.079893,9.74056923 128.943707,8.27923077 C127.893312,6.9278 126.232288,6.28570769 124.602986,6.60675385 C120.193056,7.47227692 115.98066,9.58076923 112.277963,12.7174769 C112.755219,10.8873692 113.393963,9.11076923 114.184102,7.42527692 C115.008126,5.6682 114.813474,3.66889231 113.677288,2.20683077 C112.625451,0.856123077 110.962265,0.214753846 109.336567,0.535076923 C99.8267767,2.40278462 91.2621256,10.1671846 86.9185209,20.8340154 C86.7224279,21.103 86.5184047,21.3972923 86.3165442,21.7009846 C86.059893,22.0863846 85.8046837,22.4920308 85.5667767,22.9273231 C82.5309395,22.2085846 79.4381488,21.7299077 76.326614,21.4826154 C75.4319395,21.4117538 74.5372651,21.3531846 73.6418698,21.3213692 C49.3227302,20.4717538 28.2528233,33.9846154 20.9959395,53.2083385 C19.947707,55.9849538 19.1856837,58.8794308 18.7459163,61.8671846 C18.5938,61.8679077 18.4402419,61.8664615 18.2874047,61.8650154 C14.201893,61.8324769 9.84603256,61.0609538 7.07405581,58.1368308 C4.63875349,55.5684615 3.90124186,51.3485846 5.32003256,48.1026923 C5.49161395,47.7115077 5.69347442,47.3340615 5.92345116,46.9718 C6.49154419,47.5039846 7.11803256,47.9790462 7.79570698,48.3825231 C12.0448698,50.9096769 17.7330093,50.2719231 21.3225209,46.8684 L21.9100791,46.3109077 L22.0211023,45.5068462 C22.2431488,43.8849846 21.7471488,42.2689077 20.6217767,40.9550769 C19.1114279,39.1893231 16.4886837,38.023 13.9373116,37.9825077 C11.5135442,37.9405692 9.12149767,38.6086923 7.01998605,39.8003231 C6.8303814,38.8415231 6.83903256,37.8538 7.08126512,36.9268154 L2.63240465,35.7525385 C1.99942791,38.1661692 2.23589302,40.7128462 3.17093953,42.9681231 C2.32961395,43.9544 1.62670698,45.0563692 1.10547442,46.2501692 C-1.05875814,51.2025231 0.0255209302,57.3985692 3.73975349,61.3169231 C7.48282326,65.2649231 12.8285209,66.3647231 17.7488698,66.4710154 C17.9399163,66.4753538 18.1324047,66.4804154 18.3227302,66.4818615 L18.3227302,66.4825846 C18.0941953,73.0278769 19.4250326,79.3099692 22.0038,85.0692769 C22.6079395,86.4185385 23.2798465,87.7396 24.0159163,89.0274 C26.3373116,92.6044615 29.2462651,95.9212154 32.6382419,98.9140308 C33.4456837,104.675508 34.4845442,110.399385 35.7735674,116.072646 C35.8002419,116.350308 35.8341256,116.628692 35.8622419,116.907077 C36.2068465,120.286015 36.707893,123.661338 37.3351023,127.048954 C43.6864977,127.098846 49.5058465,127.435077 55.8233581,126.850108 C55.0721488,121.707585 54.5718233,116.476846 54.8450558,111.367585 C62.4184279,113.874492 70.7761721,115.271477 79.5693581,115.271477 C80.3638233,115.271477 81.1525209,115.254123 81.9397767,115.230262 C84.8112419,115.144215 87.6322419,114.911385 90.3919628,114.541169 C91.1431721,114.397277 91.9023116,114.241815 92.6780326,114.083462 C92.8395209,114.050923 92.9959628,114.030677 93.1495209,114.017662 C93.1480791,113.982954 93.1444744,113.948246 93.1423116,113.914262 C94.4140326,113.709631 95.6771023,113.476077 96.9300791,113.208538 C96.9279163,113.267831 96.9279163,113.327123 96.9257535,113.387138 C96.8911488,114.417523 96.8839395,115.446462 96.9062884,116.471785 C97.2271023,117.304046 97.2833349,118.223077 97.0187535,119.026415 C97.0252419,119.112462 97.0353349,119.198508 97.0418233,119.284554 C97.354707,123.612169 98.1801721,127.881938 99.5102884,132.069277 C99.6530326,132.5212 99.8051488,132.970954 99.9608698,133.421431 C98.7251953,129.805323 97.8730558,126.124138 97.3979628,122.395954 C97.4325674,122.403908 97.4707767,122.408969 97.5061023,122.4162 C97.4707767,122.168185 97.4296837,121.921615 97.3979628,121.672877 C100.187963,122.280262 103.70394,122.363415 107.450614,121.769046 C111.278033,121.163108 114.650544,119.958462 117.132707,118.476154 C116.784498,116.810908 116.547312,115.123969 116.458637,113.416785 C116.323823,110.818769 116.49973,108.256185 116.936614,105.745662 C116.943102,105.705892 116.946707,105.6654 116.953916,105.625631 C117.3908,105.374723 117.829847,105.128154 118.257358,104.868569 C123.324777,101.791877 127.779405,98.0723692 131.44894,93.9139538 C132.815102,92.3651231 134.081777,90.7598923 135.217963,89.0989846 L141.463381,88.3824154 C141.696242,88.3556615 141.930544,88.313 142.171335,88.2529846 C146.04273,87.9283231 148.46866,84.8899538 149.989823,81.1661077 C149.08073,82.1567231 148.07287,82.7120462 147.01166,82.7120462" id="Fill-41" fill="#F7CEDB" mask="url(#mask-2)"></path>
                    </g>
                    <path d="M101.307567,137.243326 C101.30973,137.248388 101.312614,137.252003 101.314777,137.257065 C101.248451,137.097265 101.187172,136.936018 101.121567,136.776218 C101.18573,136.930957 101.242684,137.087865 101.307567,137.243326" id="Fill-44" fill="#F7CEDB"></path>
                    <g id="Group-48" transform="translate(23.069767, 116.684369)">
                        <mask id="mask-4" fill="white">
                            <use xlink:href="#path-3"></use>
                        </mask>
                        <g id="Clip-47"></g>
                        <path d="M14.2651186,10.6336415 C13.6379093,7.24602615 13.1375837,3.86998 12.7922581,0.491764615 C8.64474651,0.545272308 4.49146744,0.368118462 0.33242093,0.313887692 C0.618630233,1.88658 0.933676744,3.46288769 1.2689093,5.04208769 C1.2854907,5.12379538 1.30351395,5.20478 1.32081628,5.28648769 C1.65821163,6.86568769 2.01651395,8.44850308 2.39644419,10.0371031 C2.39644419,10.0392723 2.39716512,10.0407185 2.39788605,10.0428877 C2.85279302,11.94458 4.16272326,12.8650569 5.61683953,13.0241338 C6.03209535,13.0696877 6.46032791,13.0530569 6.88279302,12.9793031 C8.15018837,12.7580415 9.37360698,12.0248415 10.1053512,10.9185338 C10.2271884,10.7341492 10.3360488,10.5389185 10.4290488,10.3350108 C10.8659326,10.2858415 11.2739791,10.1332723 11.6236302,9.88670308 C11.9920256,11.7594723 13.2514907,12.7276723 14.6904674,12.9626723 C15.2109791,15.5295954 15.7934907,18.1030262 16.4279093,20.6916415 C17.5294907,25.1877338 23.2349326,24.3453492 24.7539326,20.9512262 C25.2210953,20.9888262 25.3609558,20.97798 25.7221419,20.7205646 C26.8374209,26.2354723 35.6724209,23.9006569 34.6833047,18.26138 C34.2327233,15.6922877 33.2515372,13.0704108 32.8586302,10.4268415 C32.8233047,10.4304569 32.7887,10.4319031 32.7540953,10.4347954 C26.4358628,11.0197646 20.6172349,10.6835338 14.2651186,10.6336415" id="Fill-46" fill="#D293A8" mask="url(#mask-4)"></path>
                    </g>
                    <path d="M73.6264419,27.5968815 L76.4993488,24.0017431 C66.4755349,23.3878508 58.6339767,25.0126046 58.6339767,25.0126046 L54.5383721,28.6764354 C68.3845581,25.9150046 73.6264419,27.5968815 73.6264419,27.5968815" id="Fill-49" fill="#383838"></path>
                    <path d="M94.2898163,21.1040846 C95.2558628,18.6427308 96.5867,16.4503615 98.2989093,14.4402077 C99.5007,13.0302077 97.1764209,11.3418231 95.9825605,12.7431462 C94.1240023,14.9246692 92.6670023,17.3831308 91.6187698,20.0520077 C90.9410953,21.7787154 93.6128628,22.8279 94.2898163,21.1040846" id="Fill-51" fill="#F7CEDB"></path>
                    <path d="M94.2898163,21.1040846 C95.2558628,18.6427308 96.5867,16.4503615 98.2989093,14.4402077 C99.5007,13.0302077 97.1764209,11.3418231 95.9825605,12.7431462 C94.1240023,14.9246692 92.6670023,17.3831308 91.6187698,20.0520077 C90.9410953,21.7787154 93.6128628,22.8279 94.2898163,21.1040846" id="Fill-53" fill="#FFFFFF"></path>
                    <path d="M32.8614419,50.9140154 C34.9182558,47.4996462 37.4465581,44.5784154 40.4989767,42.0237846 C42.6394186,40.232 39.6100698,37.1336154 37.4826047,38.9145538 C34.1699302,41.6861077 31.3856977,44.9717692 29.1558605,48.6739231 C27.7132791,51.0687538 31.4210233,53.3059538 32.8614419,50.9140154" id="Fill-55" fill="#F7CEDB"></path>
                    <path d="M32.8614419,50.9140154 C34.9182558,47.4996462 37.4465581,44.5784154 40.4989767,42.0237846 C42.6394186,40.232 39.6100698,37.1336154 37.4826047,38.9145538 C34.1699302,41.6861077 31.3856977,44.9717692 29.1558605,48.6739231 C27.7132791,51.0687538 31.4210233,53.3059538 32.8614419,50.9140154" id="Fill-57" fill="#FFFFFF"></path>
                    <path d="M118.904177,60.6155385 C119.006549,57.6964769 116.72913,55.2474154 113.818735,55.1461846 C112.026502,55.0832769 110.414502,55.9271077 109.414572,57.2648 C107.446433,58.6842 106.342688,61.2771538 106.916549,63.7233231 C107.302967,65.3704923 109.325177,65.3726615 110.090084,64.3415538 C110.981874,65.1550154 112.152665,65.6705692 113.45106,65.7161231 C116.361456,65.8173538 118.802526,63.5338769 118.904177,60.6155385" id="Fill-59" fill="#383838"></path>
                    <path d="M115.604407,26.2277354 C115.796895,23.6253815 117.089523,21.4510892 119.068477,19.8097046 C121.216128,18.0280431 118.160826,14.9527969 116.031198,16.7192738 C113.141709,19.1148277 111.552058,22.5342585 111.278105,26.2508738 C111.07336,29.03472 115.400384,29.0029046 115.604407,26.2277354" id="Fill-61" fill="#D293A8"></path>
                    <path d="M100.305763,23.4505415 C100.498251,20.8481877 101.790879,18.6738954 103.769833,17.0325108 C105.917484,15.2508492 102.862181,12.1756031 100.732553,13.94208 C97.8430651,16.3376338 96.253414,19.7570646 95.9794605,23.47368 C95.7747163,26.2575262 100.10174,26.2249877 100.305763,23.4505415" id="Fill-63" fill="#D293A8"></path>
                    <path d="M150.474505,55.3414877 C149.795388,55.3176262 149.099691,59.44278 148.921621,64.5556569 C148.743551,69.6685338 149.150156,73.8327338 149.829993,73.8565954 C150.510551,73.88118 151.206249,69.7553031 151.384319,64.6417031 C151.561667,59.5295492 151.154342,55.3646262 150.474505,55.3414877" id="Fill-65" fill="#383838"></path>
                    <g id="Group-69" transform="translate(139.139535, 47.268985)">
                        <mask id="mask-6" fill="white">
                            <use xlink:href="#path-5"></use>
                        </mask>
                        <g id="Clip-68"></g>
                        <path d="M10.6907465,26.5879 C10.0109093,26.5640385 9.60358372,22.3998385 9.78165349,17.2869615 C9.95972326,12.1733615 10.6554209,8.04820769 11.3352581,8.07279231 C12.0150953,8.09593077 12.4217,12.2608538 12.2443512,17.3730077 C12.0662814,22.4858846 11.3705837,26.6117615 10.6907465,26.5879 M5.35586279,1.34962308 C2.56658372,3.83917692 0.577537209,10.3497615 0.577537209,17.9890692 C0.577537209,27.7773615 3.84263023,35.7116846 7.8719093,35.7116846 C8.9331186,35.7116846 9.94097907,35.1570846 10.850793,34.1657462 C13.393514,31.3970846 15.1662814,25.1981462 15.1662814,17.9890692 C15.1662814,11.0873 13.5413047,5.11106923 11.170886,2.18405385 C10.7960023,1.30840769 10.0880488,0.593284615 9.05207209,0.303330769 C8.73414186,0.215115385 8.38953721,0.163053846 8.00960698,0.163053846 C6.81935116,0.163053846 5.9354907,0.641007692 5.35586279,1.34962308" id="Fill-67" fill="#D293A8" mask="url(#mask-6)"></path>
                    </g>
                    <path d="M97.398107,121.942223 C97.4298279,122.190962 97.4709209,122.437531 97.5055256,122.684823 C97.4709209,122.678315 97.4327116,122.673254 97.398107,122.6653 C97.8732,126.392762 98.7253395,130.073946 99.961014,133.690054 C99.9848047,133.760915 100.010758,133.830331 100.034549,133.901192 C100.211898,134.412408 100.396456,134.9229 100.588944,135.431223 C100.759084,135.880977 100.940037,136.328562 101.121712,136.776146 C101.187316,136.935946 101.248595,137.097192 101.314921,137.256992 C101.33006,137.293146 101.343758,137.330746 101.358898,137.367623 C101.870037,138.583838 102.97306,138.7299 103.885037,138.286654 C104.022735,138.282315 104.164758,138.271469 104.312549,138.240377 C106.027642,137.880285 107.275572,136.931608 108.540084,135.760223 C109.635898,134.747192 110.274642,133.544715 112.03227,133.970608 C112.83827,134.165838 113.584433,134.922177 114.385386,135.230208 C117.946781,136.599715 121.136177,134.021223 120.913409,130.236638 C120.92927,129.974162 120.932153,129.707346 120.911967,129.431854 C120.722363,126.775269 118.966177,124.298731 118.151526,121.812069 C117.809805,120.771562 117.537293,119.715146 117.297223,118.650777 C117.244595,118.683315 117.185479,118.712962 117.132851,118.744777 C114.650688,120.227808 111.278177,121.432454 107.450758,122.038392 C103.704084,122.632038 100.188107,122.549608 97.398107,121.942223" id="Fill-70" fill="#D293A8"></path>
                    <path d="M133.0954,86.1964815 C128.314191,86.1718969 123.985005,84.6859738 120.081167,81.94262 C117.806633,80.34462 115.796679,84.1899431 118.051028,85.7734815 C122.565493,88.94562 127.772051,90.5031277 133.269144,90.5320508 C136.054098,90.5465123 135.878912,86.2109431 133.0954,86.1964815" id="Fill-72" fill="#383838"></path>
                </g>
            </g>
        </g>
    </g>
</svg>